<svg xmlns="http://www.w3.org/2000/svg" width="499.82" height="314.38" viewBox="0 0 499.82 314.38">
  <g id="Grupo_71371" data-name="Grupo 71371" transform="translate(-257.62 -222.675)">
    <path id="Trazado_141677" data-name="Trazado 141677" d="M734.489,532.814h-446.1S233.3,495.993,270.545,427.029c33.928-62.827,58.463-23.683,48.2-136.46-4.1-45.118,25.376-67.858,66.219-67.894,40.4-.036,82.6,17.237,121.457,9.29q14.835-3.034,28.528-4.771,1.616-.211,3.216-.4c.294-.036.586-.071.879-.1,34.211-3.981,63.036-2.146,86.929,3.687,88.245,21.533,109.238,97.551,85.988,136.288C679.743,420.355,807.613,425.617,734.489,532.814Z" transform="translate(0)" fill="#ebf3fa"/>
    <path id="Trazado_141678" data-name="Trazado 141678" d="M1842.946,1286.287s-26.071,7.942-24.293,12.7,28.412-10.945,28.412-10.945,22.145,16.511,25.833,25.6c0,0-30.33-1.564-27.435,2.611s34.38,7.269,34.38,7.269,16.014,20.427,4.509,31.066-21.272,8.278-23.862,5.365-13.552-24.559-16.052-22.541.624,18.874,7.371,25.658c0,0-26.731,2.6-31.746-9.713s.347-19.738-2.891-27.289-7.966-11.835-8.023-7.183,7.681,16.251,5.763,24.721-2.509,14.823-10.436,5.1-16.752-30-10.419-38.287l.792-1.036a4.986,4.986,0,0,0-.792,1.036c-2.223-1.4-9.386-1.487-14.767-1.336-.885.084-2.142.14-3.879.157h0c-.768.04-1.394.078-1.83.107-11.612,1.183-27.134,11.889-27.134,11.889l-1.842-2c14.021-13.9,32.481-12.033,32.481-12.033,13.956.17,23.3-5.073,23.3-5.073s.778-27.074,21.8-25.623C1822.192,1276.516,1836.053,1279.224,1842.946,1286.287Z" transform="translate(-1190.305 -843.537)" fill="#d2e2f9"/>
    <g id="Grupo_71319" data-name="Grupo 71319" transform="translate(548.795 304.096)">
      <path id="Trazado_141679" data-name="Trazado 141679" d="M1717.016,672.347l21.944,49.073,65.422-29.257h0l27.565-12.327L1810,630.765l-51.469,23.016Z" transform="translate(-1717.016 -630.765)" fill="#cfe7ff"/>
      <g id="Grupo_71318" data-name="Grupo 71318" transform="translate(7.77 7.316)">
        <path id="Trazado_141680" data-name="Trazado 141680" d="M1839.537,667.432l17.037,38.1-83.579,37.376-17.037-38.1Zm-62.387,72.222,74.179-33.173a3.9,3.9,0,0,0,1.971-5.159l-12.8-28.616a3.938,3.938,0,0,0-5.2-1.987l-74.131,33.151a3.868,3.868,0,0,0-1.952,5.11l12.848,28.731A3.849,3.849,0,0,0,1777.15,739.654Z" transform="translate(-1755.958 -667.432)" fill="#c0d8fb"/>
      </g>
      <circle id="Elipse_4459" data-name="Elipse 4459" cx="11.228" cy="11.228" r="11.228" transform="translate(44.897 36.198) rotate(-11.106)" fill="#c0d8fb"/>
    </g>
    <g id="Grupo_71321" data-name="Grupo 71321" transform="translate(542.971 254.31)">
      <path id="Trazado_141681" data-name="Trazado 141681" d="M1687.827,464.392l43.885,31.046,41.388-58.506h0l17.439-24.651-43.884-31.044-32.562,46.028Z" transform="translate(-1687.827 -381.235)" fill="#dceaff"/>
      <g id="Grupo_71320" data-name="Grupo 71320" transform="translate(8.27 7.13)">
        <path id="Trazado_141682" data-name="Trazado 141682" d="M1782.152,416.971l34.07,24.1-52.875,74.744-34.07-24.1ZM1765.266,510.9l46.928-66.338a3.9,3.9,0,0,0-.933-5.443l-25.591-18.1a3.938,3.938,0,0,0-5.489.941l-46.9,66.3a3.869,3.869,0,0,0,.924,5.392l25.694,18.176A3.849,3.849,0,0,0,1765.266,510.9Z" transform="translate(-1729.277 -416.971)" fill="#c0d8fb"/>
      </g>
      <path id="Trazado_141683" data-name="Trazado 141683" d="M1911.285,626.118a11.228,11.228,0,1,0-15.651,2.682A11.228,11.228,0,0,0,1911.285,626.118Z" transform="translate(-1850.375 -563.08)" fill="#c0d8fb"/>
    </g>
    <g id="Grupo_71324" data-name="Grupo 71324" transform="translate(595.884 366.667)">
      <path id="Trazado_141684" data-name="Trazado 141684" d="M2193.552,944.506s7.993-1.2,11.865,3.832,2.248,9.927,8.742,10.479,7.618,3.134,6.244,6.714,6.744,3.7,8.493,8.575.874,13.239-11.49,10.99-16.895-9.742-22.623-7.743-13.845-3.755-10.973-7.311-1.749-3.16-1.374-11.226S2188.09,944.317,2193.552,944.506Z" transform="translate(-2136.649 -944.38)" fill="#163560"/>
      <path id="Trazado_141685" data-name="Trazado 141685" d="M1961.99,1156.519s-2.222-2.33-3.987-2.786c-1.932-.5-4.659-.964-4.947-.336-.341.744,3.122,1.969,3.6,2.786s-.289.744-1.633.648-.865.336-.625.408a27.362,27.362,0,0,0,2.906,1.225,6.856,6.856,0,0,0,.885.079,25.845,25.845,0,0,1,3.8.329A3.507,3.507,0,0,0,1961.99,1156.519Z" transform="translate(-1953.033 -1111.452)" fill="#ffb27d"/>
      <path id="Trazado_141686" data-name="Trazado 141686" d="M1990.506,1101.12a4.358,4.358,0,0,0,.892,1.724s11.109,4.266,19.181,3.029c.281-.041.558-.092.83-.148,1.482-.309,3.055-.7,4.635-1.124,6.748-1.828,13.567-4.37,13.567-4.37s.144-.566.348-1.491c.853-3.848,2.749-13.93-.348-15.521a17.984,17.984,0,0,0-3.651,2.336c-4.582,3.693-12.314,10.671-16.506,11.74-3.864.987-14.12,1.978-18.647,2.235A2.1,2.1,0,0,0,1990.506,1101.12Z" transform="translate(-1982.982 -1055.517)" fill="#f9ddbf"/>
      <path id="Trazado_141687" data-name="Trazado 141687" d="M2124.91,1156.462c-2.456,1.964-4.063,3.552-6.169,4.552,6.748-1.828,13.567-4.37,13.567-4.37s.144-.566.348-1.491l-.721-1.444S2128.844,1153.314,2124.91,1156.462Z" transform="translate(-2085.679 -1111.931)" fill="#f2ccaa"/>
      <path id="Trazado_141688" data-name="Trazado 141688" d="M2091.353,1196.171c.281-.041.558-.092.83-.148A2.321,2.321,0,0,0,2091.353,1196.171Z" transform="translate(-2063.756 -1145.816)" fill="#f2ccaa"/>
      <path id="Trazado_141689" data-name="Trazado 141689" d="M2355.969,1702.86s2.961,2.7,2.383,4.622-3.25,3.2-3.611,5.546-1.805,3.626-3.105,3.626h-6.2s-.957-1.651,1.354-2.149,3.182-3.255,3.037-5.814a45.171,45.171,0,0,1,.216-5.973l4.911-1.137Z" transform="translate(-2266.99 -1550.506)" fill="#3e5b87"/>
      <path id="Trazado_141690" data-name="Trazado 141690" d="M2205.721,1714.83s1.065,11.447-.234,12.086l-16.635-.034s0-1.92,2.671-2.346,7.366-1.991,8.16-5.475S2205.721,1714.83,2205.721,1714.83Z" transform="translate(-2141.802 -1561.112)" fill="#3e5b87"/>
      <path id="Trazado_141691" data-name="Trazado 141691" d="M2182.618,1103.363l10.424,8.184,9.945-7.076h0l.809-.292s1.639-.815,2.128-4.691c.06-.479.406-4.573.751-8.7.371-4.453.738-8.94.738-8.94l-6.349-9.419c-13.333-2.816-21.39,1.373-21.39,1.373s-.62,4.965-1.637,12.046S2182.618,1103.363,2182.618,1103.363Z" transform="translate(-2133.048 -1046.103)" fill="#f9ddbf"/>
      <path id="Trazado_141692" data-name="Trazado 141692" d="M2184.815,1242.924s-4.8,14.928-5.1,20.01,9.167,72.2,9.549,74.542c.359,2.208,3.1,3.615,3.1,3.615a4.149,4.149,0,0,0,3.06.236,7.566,7.566,0,0,0,3.285-1.549s3.733-47.868,1.423-64.968a270.843,270.843,0,0,1-2.337-31.886Z" transform="translate(-2134.479 -1183.359)" fill="#ed7d2b"/>
      <path id="Trazado_141693" data-name="Trazado 141693" d="M2231.977,1240.693s7.316,9.816,8,16.451,1.07,29.943,2.523,36.411,6.792,18.917,6.792,39.093a4.027,4.027,0,0,1-2.269,1.772,18.729,18.729,0,0,1-1.994.551,3.136,3.136,0,0,1-3.508-1.665c-3.609-7.267-15.106-30.7-15.7-35.569-.417-3.443-4.047-26.229-11.965-39.6-1.9-3.21,1.167-15.975,1.167-15.975Z" transform="translate(-2161.321 -1181.573)" fill="#f99746"/>
      <path id="Trazado_141694" data-name="Trazado 141694" d="M2231.062,1047.138a2.454,2.454,0,0,0,2-2.709,34.5,34.5,0,0,1-.24-7.132l-.445.037-7.49.628s-.336,4.533-.337,4.551C2224.321,1045.446,2224.517,1049.018,2231.062,1047.138Z" transform="translate(-2170.335 -1018.758)" fill="#ffb27d"/>
      <path id="Trazado_141695" data-name="Trazado 141695" d="M2225.139,1038.11s-.093,2.324-.331,4.5c4.113.345,6.7-3.151,7.821-5.125Z" transform="translate(-2170.584 -1018.907)" fill="#e8945b"/>
      <path id="Trazado_141696" data-name="Trazado 141696" d="M2209.8,985.689s9.683,1.25,10.368-4.792,2.4-9.949-3.756-11-7.618,1.115-8.337,3.076S2207.3,985.209,2209.8,985.689Z" transform="translate(-2156.844 -964.583)" fill="#ffb27d"/>
      <path id="Trazado_141697" data-name="Trazado 141697" d="M2229.528,963.821s1.86,7.387,5.818,8.894,5.849.612,5.849.612a11.613,11.613,0,0,1-3.009-7.243S2231.911,960.672,2229.528,963.821Z" transform="translate(-2174.363 -959.154)" fill="#163560"/>
      <path id="Trazado_141698" data-name="Trazado 141698" d="M2210.943,965.575a6.055,6.055,0,0,0-3.024,1.86,9.826,9.826,0,0,0-1.935,5.4s-1.46-5.043,1.1-7.516C2209.789,962.7,2210.943,965.575,2210.943,965.575Z" transform="translate(-2155.184 -960.258)" fill="#163560"/>
      <g id="Grupo_71322" data-name="Grupo 71322" transform="translate(83.999 70.122)">
        <path id="Trazado_141699" data-name="Trazado 141699" d="M2381.38,1296.125s-.708,2.736-1.335,3.158-2.473,2.816-2,3.837c.637,1.374,2.211,3.384,2.976,3.158s.057-2.219,1.493-3.672c.726-.734,2.407-2.073,2.27-3.514s-.5-3.253-.5-3.253Z" transform="translate(-2377.186 -1295.839)" fill="#ffb27d"/>
        <path id="Trazado_141700" data-name="Trazado 141700" d="M2377.722,1305.588a28.521,28.521,0,0,1-3.069,1.891c-.987.439-.591.793-.084.8a3.75,3.75,0,0,0,2.124-.658C2377.65,1307.05,2378.231,1305.575,2377.722,1305.588Z" transform="translate(-2374.046 -1303.643)" fill="#ffb27d"/>
      </g>
      <path id="Trazado_141701" data-name="Trazado 141701" d="M2279.917,1076.332s5.795,1.4,9.6,4.974c5.987,5.626,12.6,11.054,13.988,16.691,1.152,4.672,1.324,11.129,0,23.573a5.937,5.937,0,0,1-2.355.266,3.623,3.623,0,0,1-2-.562s-2.873-16.283-5.215-20.74c-1.194-2.272-17.515-10.9-17.515-10.9Z" transform="translate(-2211.899 -1050.005)" fill="#f9ddbf"/>
      <path id="Trazado_141702" data-name="Trazado 141702" d="M2296.048,1173.332h0l.809-.292s1.639-.815,2.128-4.691c.06-.479.406-4.573.751-8.7,0,0-3.676-3.659-4.8-1.473s1.472,6.306.519,8.741S2292.852,1172.622,2296.048,1173.332Z" transform="translate(-2226.109 -1114.964)" fill="#f2ccaa"/>
      <path id="Trazado_141703" data-name="Trazado 141703" d="M2200.391,1231.374a10.053,10.053,0,0,0,5.75,1.6c4.569.092,15.889-1.165,15.889-1.165a9.356,9.356,0,0,1,.482,2.889s-13.826,3.488-21.837.509A5.063,5.063,0,0,1,2200.391,1231.374Z" transform="translate(-2150.821 -1174.114)" fill="#233862"/>
      <g id="Grupo_71323" data-name="Grupo 71323" transform="translate(52.139 58.078)">
        <path id="Trazado_141704" data-name="Trazado 141704" d="M2216.446,1240.194a2.377,2.377,0,1,1,2.085-2.359A2.237,2.237,0,0,1,2216.446,1240.194Zm0-4.028a1.7,1.7,0,1,0,1.394,1.668A1.551,1.551,0,0,0,2216.446,1236.166Z" transform="translate(-2214.361 -1235.475)" fill="#fff"/>
      </g>
    </g>
    <path id="Trazado_141705" data-name="Trazado 141705" d="M1034.374,1100.877s4.519,12.765,2.1,13.438-4.013-14.578-4.013-14.578-13.1-4.07-17.8-2.9c0,0,9.558,11.7,7.043,11.759s-13.022-11.666-13.022-11.666-12.849-.472-13.694,7.238,2.972,10.939,4.894,11.129,13.768-1.718,13.7-.128-7.7,5.246-12.385,4.516c0,0,6.84,11.474,13.219,9.9s7.754-5.886,11.714-6.787,7.058-.253,5.223,1.125-8.732,1.653-11.538,4.888-5.162,5.322,1.044,5.67,16.876-2.02,18.31-6.972l.18-.619a2.458,2.458,0,0,1-.18.619c1.211.484,3.357,3.33,4.882,5.531.228.379.575.9,1.08,1.6h0c.21.32.38.582.5.765,2.95,5,3.261,14.341,3.261,14.341l1.338.156a21.8,21.8,0,0,0-4.779-16.526,25.142,25.142,0,0,1-4.846-10.82s10.548-8.2,3.776-16.2C1044.377,1106.352,1039.216,1101.584,1034.374,1100.877Z" transform="translate(-590.151 -699.583)" fill="#aec3ff" opacity="0.3"/>
    <path id="Trazado_141706" data-name="Trazado 141706" d="M961.6,1324.956s13.308,11.963,10.929,14.3-13.868-14.4-13.868-14.4-17.759,3.677-22.478,8.064c0,0,18.481,7.489,15.6,9.17s-22.474-5.218-22.474-5.218-15.2,7.709-11.307,17.232,10.359,10.831,12.709,9.816,14.881-10.851,15.809-8.956-5.611,11.057-11.508,13.221c0,0,15.184,8.966,21.586,3.033s5.272-11.841,9.3-15.435,8.025-4.831,6.768-2.047-9.082,7.537-10.291,13.11-2.622,9.516,4.794,5.932,18.294-13.2,16.827-19.889l-.183-.837a3.266,3.266,0,0,1,.183.837c1.71-.214,6,1.721,9.157,3.3.5.3,1.235.678,2.264,1.17h0c.446.237.808.434,1.059.571,6.581,3.927,12.845,14.606,12.845,14.606l1.651-.679c-4.485-12.16-15.986-16.176-15.986-16.176a33,33,0,0,1-12.458-9.487s7.053-16.325-5.861-21.3C976.661,1324.9,967.662,1322.666,961.6,1324.956Z" transform="translate(-528.113 -881.531)" fill="#d2e2f9"/>
    <g id="Grupo_71325" data-name="Grupo 71325" transform="translate(334.352 339.327)">
      <path id="Trazado_141707" data-name="Trazado 141707" d="M739.773,810.966c-.193,1.011-2.152,1.995-2.631,2.134a9.61,9.61,0,0,0-1.346-2.337c.047-.1.1-.214.169-.34.448-.869,1.307-2.255,2.375-2.576,1.585-.483,4.711-.781,4.9-.116S739.991,809.827,739.773,810.966Z" transform="translate(-717.122 -807.346)" fill="#ffb27d"/>
      <path id="Trazado_141708" data-name="Trazado 141708" d="M707.308,1729.965H687.077c-1.449-.983.391-10.594.391-10.594s5.522-2.095,6.475,2.165,7.033,5.612,10.249,6.131C706.393,1728.026,707.088,1729.235,707.308,1729.965Z" transform="translate(-677.679 -1536.995)" fill="#3e5b87"/>
      <path id="Trazado_141709" data-name="Trazado 141709" d="M854.339,1729.965H834.107c-1.45-.983.391-10.594.391-10.594s5.522-2.095,6.475,2.165,7.033,5.612,10.249,6.131C853.423,1728.026,854.119,1729.235,854.339,1729.965Z" transform="translate(-795.375 -1536.995)" fill="#3e5b87"/>
      <path id="Trazado_141710" data-name="Trazado 141710" d="M808.521,1276.818s-.909,11.345-1.978,24.983c-1.453,18.526-5.371,64.458-5.371,64.458s-2.569,2.191-8.258.993a179.792,179.792,0,0,1-6.291-33.931c-.023-.3-.045-.6-.068-.894-1.347-18.411-3.442-57.181-3.442-57.181Z" transform="translate(-755 -1181.892)" fill="#ff9e55"/>
      <path id="Trazado_141711" data-name="Trazado 141711" d="M808.831,1263.475s-1.22,15.266-2.289,28.9l-19.92,31.519c-.023-.3-.045-.595-.068-.894-1.347-18.411-3.442-57.181-3.442-57.181Z" transform="translate(-755 -1172.469)" fill="#ed823a"/>
      <path id="Trazado_141712" data-name="Trazado 141712" d="M728.769,1237.828,696.3,1333.91s-5.429,2.78-7.653-.981c0,0,.515-40.508,6.315-50.559,3.277-5.68,5.564-21.61,5.174-26.99a60.961,60.961,0,0,1,2.377-20.356Z" transform="translate(-679.381 -1149.695)" fill="#ff9e55"/>
      <path id="Trazado_141713" data-name="Trazado 141713" d="M801.854,941.069a9.018,9.018,0,0,1-6.224.838,12.909,12.909,0,0,1-4.217-1.78,12.444,12.444,0,0,1-1.7-1.281s.074-.108.2-.32c.651-1.115,2.627-5.121,1.748-11.559a4.569,4.569,0,0,1,1.59.263c2.867.679,8.63,2.313,8.885,2.386h.01s.071,1.354.308,3.781c.02.214.041.438.065.669.029.284.059.587.094.9A20.074,20.074,0,0,1,801.854,941.069Z" transform="translate(-760.283 -903.078)" fill="#ffb27d"/>
      <path id="Trazado_141714" data-name="Trazado 141714" d="M810.774,934.56c-4.279.981-10.667-5.337-10.667-5.337a6.746,6.746,0,0,1,1.464-.83c2.867.679,8.63,2.313,8.885,2.386h.01S810.536,932.133,810.774,934.56Z" transform="translate(-768.604 -904.242)" fill="#ed975d"/>
      <path id="Trazado_141715" data-name="Trazado 141715" d="M849.953,811.047s-1.679-2.534-3.329-2.683-5.073.242-4.821.883c.807,2.058,3.686,1.144,4.415,2.447.625,1.115,2.839,1.581,2.839,1.581Z" transform="translate(-801.97 -808.136)" fill="#ffb27d"/>
      <path id="Trazado_141716" data-name="Trazado 141716" d="M798.311,868.138a21.757,21.757,0,0,1-4,.933c-3.281.443-7.595.182-8.95-3.788-2.283-6.682-5.2-10.688,1.519-13.416,3.6-1.461,5.9-1.538,7.459-.981a5.4,5.4,0,0,1,2.764,2.393C798.4,855.325,801.028,866.969,798.311,868.138Z" transform="translate(-754.687 -841.943)" fill="#ffb27d"/>
      <path id="Trazado_141717" data-name="Trazado 141717" d="M775.678,829.844a3.559,3.559,0,0,1-3.444,5.609,5.962,5.962,0,0,0-2.8-.1c-1.671.742-1.971,3.545-2,4.434s-.147,1.642-2.416,1.11a1.1,1.1,0,0,0-.824.049c-.839.5.026,2.7.48,3.59a2.254,2.254,0,0,1,.234.779,2.64,2.64,0,0,1-.727,2.364c-.14.113-2.416,1.108-7.9-7.286a7.8,7.8,0,0,1-.354-7.143c1.33-2.857,7.235-6.034,12.132-6.646A7.525,7.525,0,0,1,775.678,829.844Z" transform="translate(-732.678 -822.699)" fill="#2a4e96"/>
      <path id="Trazado_141718" data-name="Trazado 141718" d="M866.294,863.418c-16.065,15-13.242-13.574-13.242-13.574s6.118-2.716,8.046-2.715,3.339-5.369,9.453-14.311l0,0,0,0-12.851-11s.6-3.272,1.306-3.109a46.527,46.527,0,0,1,5.157,1.676c5.876,2.211,14.253,6.154,15.947,9.935C880.107,830.315,880.427,850.218,866.294,863.418Z" transform="translate(-810.832 -816.433)" fill="#aec3ff"/>
      <path id="Trazado_141719" data-name="Trazado 141719" d="M851.545,830.981l-.024-.031A.086.086,0,0,1,851.545,830.981Z" transform="translate(-809.76 -826.241)" fill="#7f2722"/>
      <path id="Trazado_141720" data-name="Trazado 141720" d="M695.98,912.168a71.405,71.405,0,0,1-19.716,3.33,46.491,46.491,0,0,1-7.119-.759c-2.38-.4-4.262-.811-4.262-.811-2.039-.471-4.291-1.731-3.989-4.056.914-7.064.324-25.57.793-37.127a6.221,6.221,0,0,0-1.411-3.832s0,0,0,0a4.3,4.3,0,0,0-.828-.7c-2.143-1.4-12.162-10.88-16.5-26.005-.512-1.725-.72-2.784-.732-2.843a.012.012,0,0,0,0-.008h0c1.23-5.61,14.972-14.138,18.3-15.662a.335.335,0,0,1,.335.071s0,0,0,0a6.094,6.094,0,0,1,1.568,2.688l.006.016-10.347,13.39c7.807,7.509,10.282,12.48,12.167,12.087,1.815-.377,7.919.912,8.4,1.014.143-.031.286-.065.436-.09,0,0,6.514,3.672,11.351.954l.137.021c1.179.186,9.593,1.583,11.624,3.73.7.74.968,5.239,1.042,10.225.108,6.946-.163,14.84-.163,14.842C697.559,890.2,701.535,911.015,695.98,912.168Z" transform="translate(-642.209 -820.409)" fill="#aec3ff"/>
      <path id="Trazado_141721" data-name="Trazado 141721" d="M794.9,970.515s7.209,7.435,12.362,5.912c0,0,.687-1-1.634-1.326S800.8,974.911,794.9,970.515Z" transform="translate(-764.435 -937.96)" fill="#94b0ed"/>
      <path id="Trazado_141722" data-name="Trazado 141722" d="M741.627,1096.279c-2.38-.4-4.262-.811-4.262-.811-2.039-.471-4.291-1.731-3.989-4.056.914-7.064.324-25.569.793-37.127a6.221,6.221,0,0,0-1.411-3.832c2.249,1.986,8.391,7.876,9.9,14.236C744.261,1071.476,743.119,1089.256,741.627,1096.279Z" transform="translate(-714.692 -1001.949)" fill="#94b0ed"/>
      <path id="Trazado_141723" data-name="Trazado 141723" d="M737.213,812.965a6.977,6.977,0,0,1,.379-2.435c.354-.408.6.734.653,1.088S737.213,812.965,737.213,812.965Z" transform="translate(-718.258 -809.825)" fill="#ffb27d"/>
      <path id="Trazado_141724" data-name="Trazado 141724" d="M875.88,810.514s-.517-1.365-.64-1.734-.384-.389-.414-.143a1.818,1.818,0,0,0,.077,1.059A4.967,4.967,0,0,0,875.88,810.514Z" transform="translate(-828.381 -808.249)" fill="#ffb27d"/>
    </g>
    <g id="Grupo_71328" data-name="Grupo 71328" transform="translate(383.895 250.696)">
      <path id="Trazado_141725" data-name="Trazado 141725" d="M929.522,370.931a3.59,3.59,0,0,0-.475-.754h0l0,0a3.655,3.655,0,0,0-.462-.468l-.7-.707-.184.135c-3.568-1.747-10.938.1-18.393,4.972-9.01,5.882-14.794,13.982-13.126,18.287l-.254.188,1,1q.072.076.148.147l.028.028.009.006a4.111,4.111,0,0,0,.867.6l.005,0h0c3.523,1.846,10.971.008,18.508-4.912C925.675,383.463,931.507,375.17,929.522,370.931Z" transform="translate(-894.825 -367.419)" fill="#ffa412"/>
      <path id="Trazado_141726" data-name="Trazado 141726" d="M903.935,368.735c9.179-5.992,18.228-7.414,20.213-3.176s-3.847,12.532-13.025,18.524-18.228,7.414-20.213,3.176S894.756,374.727,903.935,368.735Z" transform="translate(-890.522 -363.118)" fill="#ffb93e"/>
      <g id="Grupo_71326" data-name="Grupo 71326" transform="translate(2.117 1.543)">
        <path id="Trazado_141727" data-name="Trazado 141727" d="M905.84,394.085a7.311,7.311,0,0,1-2.02-.256,3.5,3.5,0,0,1-2.36-1.883c-.828-1.8-.061-4.484,2.158-7.545a36.159,36.159,0,0,1,9.321-8.539h0c5.9-3.864,11.9-5.73,15.289-4.754a3.5,3.5,0,0,1,2.361,1.883c.828,1.8.061,4.484-2.159,7.545a36.158,36.158,0,0,1-9.321,8.539C914.249,392.258,909.32,394.085,905.84,394.085Zm20.389-22.556c-3.328,0-8.217,1.817-12.922,4.9a35.477,35.477,0,0,0-9.145,8.371c-2.041,2.814-2.8,5.318-2.091,6.869a2.854,2.854,0,0,0,1.935,1.517,6.583,6.583,0,0,0,1.812.227c3.328,0,8.216-1.817,12.922-4.9a35.472,35.472,0,0,0,9.145-8.371c2.041-2.814,2.8-5.318,2.092-6.869a2.856,2.856,0,0,0-1.935-1.517A6.584,6.584,0,0,0,926.229,371.529Z" transform="translate(-901.135 -370.854)" fill="#ffa412"/>
      </g>
      <g id="Grupo_71327" data-name="Grupo 71327" transform="translate(7.335 7.206)">
        <path id="Trazado_141728" data-name="Trazado 141728" d="M933.259,407.505a4.9,4.9,0,0,0,.757-.409,3.6,3.6,0,0,0,.612-.52,4.834,4.834,0,0,0,.531-.683,9.013,9.013,0,0,0,.5-.894q.444-.879.91-1.641a9.941,9.941,0,0,1,1.043-1.414,8.393,8.393,0,0,1,1.317-1.2,9.06,9.06,0,0,1,1.732-.981,6.352,6.352,0,0,1,1.549-.485,2.677,2.677,0,0,1,1.178.041,1.424,1.424,0,0,1,.767.532,1.809,1.809,0,0,1,.305,1l2.165-.951-.113,1.166-2.2.964a4.973,4.973,0,0,1-.606,1.355,7.136,7.136,0,0,1-1.055,1.294,9.858,9.858,0,0,1-1.465,1.17,12.34,12.34,0,0,1-1.845,1l.2-2.106a6.205,6.205,0,0,0,1.851-1.159,2.066,2.066,0,0,0,.7-1.23.788.788,0,0,0-.082-.5.51.51,0,0,0-.336-.225,1.283,1.283,0,0,0-.54.021,3.72,3.72,0,0,0-.691.234,4.532,4.532,0,0,0-.685.371,3.359,3.359,0,0,0-.586.5,4.818,4.818,0,0,0-.532.687q-.256.4-.542.939-.463.88-.934,1.642a10.16,10.16,0,0,1-1.052,1.415,8.536,8.536,0,0,1-1.322,1.2,9.013,9.013,0,0,1-1.722.976,6.38,6.38,0,0,1-1.579.495,2.6,2.6,0,0,1-1.168-.049,1.344,1.344,0,0,1-.741-.55,1.978,1.978,0,0,1-.289-1.014l-2.014.885.112-1.159,2-.88a5.841,5.841,0,0,1,.508-1.343,6.678,6.678,0,0,1,.972-1.386,9.253,9.253,0,0,1,1.51-1.333,11.571,11.571,0,0,1,2.11-1.178l-.2,2.106a7.057,7.057,0,0,0-1.212.661,4.518,4.518,0,0,0-.8.7,2.611,2.611,0,0,0-.454.691,2.171,2.171,0,0,0-.173.638.961.961,0,0,0,.073.543.551.551,0,0,0,.322.274,1.086,1.086,0,0,0,.526.02A2.952,2.952,0,0,0,933.259,407.505Z" transform="translate(-927.285 -399.236)" fill="#ffa412"/>
      </g>
    </g>
    <g id="Grupo_71331" data-name="Grupo 71331" transform="translate(408.097 291.994)">
      <path id="Trazado_141729" data-name="Trazado 141729" d="M1012.108,575.783a2.621,2.621,0,0,1,.345-.548h0l0,0a2.687,2.687,0,0,1,.335-.34l.506-.513.133.1c2.591-1.268,7.941.076,13.354,3.61,6.542,4.271,10.741,10.151,9.53,13.276l.185.136-.728.725q-.052.055-.108.107l-.021.021-.006,0a2.976,2.976,0,0,1-.629.438l0,0h0c-2.558,1.34-7.965.006-13.437-3.566C1014.9,584.882,1010.667,578.86,1012.108,575.783Z" transform="translate(-1011.826 -573.233)" fill="#ffa412"/>
      <path id="Trazado_141730" data-name="Trazado 141730" d="M1030.684,574.189c-6.664-4.35-13.234-5.383-14.675-2.306s2.793,9.1,9.457,13.449,13.234,5.383,14.675,2.306S1037.347,578.539,1030.684,574.189Z" transform="translate(-1014.949 -570.111)" fill="#ffb93e"/>
      <g id="Grupo_71329" data-name="Grupo 71329" transform="translate(2.316 1.12)">
        <path id="Trazado_141731" data-name="Trazado 141731" d="M1032,588.956a26.25,26.25,0,0,1-6.767-6.2c-1.612-2.222-2.168-4.167-1.567-5.477a2.538,2.538,0,0,1,1.714-1.367c2.459-.708,6.816.647,11.1,3.452h0a26.248,26.248,0,0,1,6.767,6.2c1.612,2.222,2.168,4.168,1.567,5.478a2.538,2.538,0,0,1-1.714,1.367,5.314,5.314,0,0,1-1.467.186C1039.109,592.593,1035.531,591.267,1032,588.956Zm-6.485-12.574a2.073,2.073,0,0,0-1.4,1.1c-.516,1.126.037,2.944,1.519,4.987a25.758,25.758,0,0,0,6.639,6.077c3.416,2.237,6.965,3.556,9.381,3.556a4.779,4.779,0,0,0,1.316-.165,2.073,2.073,0,0,0,1.4-1.1c.516-1.126-.037-2.944-1.519-4.987a25.753,25.753,0,0,0-6.639-6.077c-3.416-2.237-6.965-3.556-9.381-3.556A4.781,4.781,0,0,0,1025.517,576.382Z" transform="translate(-1023.432 -575.727)" fill="#ffa412"/>
      </g>
      <g id="Grupo_71330" data-name="Grupo 71330" transform="translate(6.104 5.232)">
        <path id="Trazado_141732" data-name="Trazado 141732" d="M1052.621,602.494a.791.791,0,0,0,.382-.015.4.4,0,0,0,.234-.2.7.7,0,0,0,.053-.395,1.574,1.574,0,0,0-.126-.463,1.885,1.885,0,0,0-.33-.5,3.274,3.274,0,0,0-.583-.507,5.146,5.146,0,0,0-.88-.48l-.148-1.529a8.421,8.421,0,0,1,1.532.855,6.714,6.714,0,0,1,1.1.968,4.853,4.853,0,0,1,.706,1.007,4.249,4.249,0,0,1,.369.975l1.455.639.082.841-1.462-.642a1.44,1.44,0,0,1-.21.736.975.975,0,0,1-.538.4,1.888,1.888,0,0,1-.848.036,4.632,4.632,0,0,1-1.146-.359,6.54,6.54,0,0,1-1.25-.709,6.2,6.2,0,0,1-.96-.87,7.364,7.364,0,0,1-.764-1.027q-.342-.553-.678-1.192-.207-.4-.393-.682a3.481,3.481,0,0,0-.386-.5,2.455,2.455,0,0,0-.425-.362,3.311,3.311,0,0,0-.5-.269,2.7,2.7,0,0,0-.5-.169.927.927,0,0,0-.392-.015.37.37,0,0,0-.244.164.572.572,0,0,0-.06.366,1.5,1.5,0,0,0,.505.893,4.5,4.5,0,0,0,1.344.841l.148,1.529a8.959,8.959,0,0,1-1.34-.723,7.125,7.125,0,0,1-1.063-.85,5.186,5.186,0,0,1-.766-.94,3.612,3.612,0,0,1-.44-.983l-1.594-.7-.082-.846,1.572.691a1.313,1.313,0,0,1,.222-.726,1.032,1.032,0,0,1,.557-.386,1.939,1.939,0,0,1,.855-.03,4.617,4.617,0,0,1,1.124.352,6.587,6.587,0,0,1,1.258.712,6.1,6.1,0,0,1,.956.869,7.216,7.216,0,0,1,.757,1.026q.338.554.661,1.192a6.528,6.528,0,0,0,.365.649,3.5,3.5,0,0,0,.386.5,2.613,2.613,0,0,0,.444.378,3.562,3.562,0,0,0,.549.3A2.152,2.152,0,0,0,1052.621,602.494Z" transform="translate(-1042.418 -596.333)" fill="#ffa412"/>
      </g>
    </g>
    <g id="Grupo_71341" data-name="Grupo 71341" transform="translate(420.564 224.569)">
      <rect id="Rectángulo_31808" data-name="Rectángulo 31808" width="162.431" height="201.338" transform="matrix(0.985, -0.171, 0.171, 0.985, 0, 104.555)" fill="#f8fcff"/>
      <g id="Grupo_71333" data-name="Grupo 71333" transform="translate(143.744 193.583)">
        <g id="Grupo_71332" data-name="Grupo 71332">
          <path id="Trazado_141733" data-name="Trazado 141733" d="M1823.563,1264.806a8.681,8.681,0,0,0-1.24-3.272,8,8,0,0,0-2.313-2.375,8.587,8.587,0,0,0-3.212-1.276,10.992,10.992,0,0,0-3.921.022,10.706,10.706,0,0,0-3.674,1.293,8.6,8.6,0,0,0-2.565,2.275,8.085,8.085,0,0,0-1.385,3.013,8.821,8.821,0,0,0-.067,3.5,8.52,8.52,0,0,0,1.238,3.245,8.091,8.091,0,0,0,2.309,2.346,8.627,8.627,0,0,0,3.183,1.281,10.784,10.784,0,0,0,3.895-.016,11,11,0,0,0,3.7-1.3,8.554,8.554,0,0,0,2.594-2.28,8.084,8.084,0,0,0,1.387-2.984A8.557,8.557,0,0,0,1823.563,1264.806Zm-11.266-62.383-17.525,3.031,10.012,46.325,13.655-2.364Z" transform="translate(-1794.772 -1202.423)" fill="#f78248"/>
        </g>
      </g>
      <g id="Grupo_71337" data-name="Grupo 71337" transform="translate(22.592 100.23)">
        <g id="Grupo_71334" data-name="Grupo 71334" transform="translate(80.783)">
          <path id="Trazado_141734" data-name="Trazado 141734" d="M1638.306,736.248l-44.855,7.764a.867.867,0,0,1-1-.706h0a.866.866,0,0,1,.706-1l44.855-7.764a.866.866,0,0,1,1,.706h0A.866.866,0,0,1,1638.306,736.248Z" transform="translate(-1592.437 -734.528)" fill="#aec3ff"/>
          <path id="Trazado_141735" data-name="Trazado 141735" d="M1643.379,765.557l-44.855,7.764a.866.866,0,0,1-1-.706h0a.867.867,0,0,1,.706-1l44.855-7.764a.866.866,0,0,1,1,.706h0A.866.866,0,0,1,1643.379,765.557Z" transform="translate(-1596.498 -757.989)" fill="#aec3ff"/>
          <path id="Trazado_141736" data-name="Trazado 141736" d="M1648.452,794.866,1603.6,802.63a.866.866,0,0,1-1-.706h0a.866.866,0,0,1,.706-1l44.855-7.764a.866.866,0,0,1,1,.706h0A.866.866,0,0,1,1648.452,794.866Z" transform="translate(-1600.558 -781.45)" fill="#aec3ff"/>
        </g>
        <path id="Trazado_141737" data-name="Trazado 141737" d="M1575.826,903.867l-30.971,5.361a1.247,1.247,0,0,1-1.441-1.016h0a1.247,1.247,0,0,1,1.016-1.441l30.971-5.361a1.247,1.247,0,0,1,1.441,1.016h0A1.247,1.247,0,0,1,1575.826,903.867Z" transform="translate(-1472.397 -868.099)" fill="#aec3ff"/>
        <path id="Trazado_141738" data-name="Trazado 141738" d="M1763.475,879.665l-19.049,3.3a1.246,1.246,0,0,1-1.441-1.016h0a1.247,1.247,0,0,1,1.016-1.441l19.048-3.3a1.247,1.247,0,0,1,1.441,1.016h0A1.247,1.247,0,0,1,1763.475,879.665Z" transform="translate(-1632.151 -848.726)" fill="#aec3ff"/>
        <path id="Trazado_141739" data-name="Trazado 141739" d="M1247.872,941.261l-58.866,10.19a1.246,1.246,0,0,1-1.441-1.016h0a1.246,1.246,0,0,1,1.016-1.441l58.866-10.19a1.247,1.247,0,0,1,1.441,1.016h0A1.246,1.246,0,0,1,1247.872,941.261Z" transform="translate(-1187.546 -898.033)" fill="#aec3ff"/>
        <path id="Trazado_141740" data-name="Trazado 141740" d="M1243.956,993.638l-47.579,8.236a1.247,1.247,0,0,1-1.441-1.016h0a1.247,1.247,0,0,1,1.016-1.441l47.579-8.236a1.247,1.247,0,0,1,1.441,1.016h0A1.246,1.246,0,0,1,1243.956,993.638Z" transform="translate(-1193.447 -939.96)" fill="#aec3ff"/>
        <path id="Trazado_141741" data-name="Trazado 141741" d="M1521.911,945.525l-47.579,8.236a1.247,1.247,0,0,1-1.441-1.016h0a1.246,1.246,0,0,1,1.016-1.441l47.579-8.236a1.246,1.246,0,0,1,1.441,1.016h0A1.247,1.247,0,0,1,1521.911,945.525Z" transform="translate(-1415.945 -901.446)" fill="#aec3ff"/>
        <g id="Grupo_71335" data-name="Grupo 71335" transform="translate(3.788 53.836)">
          <path id="Trazado_141742" data-name="Trazado 141742" d="M1594.812,1031.035l-30.971,5.361a1.246,1.246,0,0,1-1.441-1.016h0a1.246,1.246,0,0,1,1.016-1.441l30.971-5.361a1.247,1.247,0,0,1,1.441,1.016h0A1.247,1.247,0,0,1,1594.812,1031.035Z" transform="translate(-1491.384 -1023.731)" fill="#aec3ff"/>
          <path id="Trazado_141743" data-name="Trazado 141743" d="M1782.461,1006.834l-19.048,3.3a1.246,1.246,0,0,1-1.441-1.016h0a1.246,1.246,0,0,1,1.016-1.441l19.048-3.3a1.247,1.247,0,0,1,1.441,1.016h0A1.247,1.247,0,0,1,1782.461,1006.834Z" transform="translate(-1651.137 -1004.358)" fill="#aec3ff"/>
          <path id="Trazado_141744" data-name="Trazado 141744" d="M1266.858,1068.43l-58.866,10.189a1.246,1.246,0,0,1-1.441-1.016h0a1.247,1.247,0,0,1,1.016-1.441l58.866-10.189a1.246,1.246,0,0,1,1.441,1.016h0A1.247,1.247,0,0,1,1266.858,1068.43Z" transform="translate(-1206.532 -1053.665)" fill="#aec3ff"/>
          <path id="Trazado_141745" data-name="Trazado 141745" d="M1262.942,1120.806l-47.579,8.236a1.247,1.247,0,0,1-1.441-1.016h0a1.246,1.246,0,0,1,1.016-1.441l47.579-8.236a1.246,1.246,0,0,1,1.441,1.016h0A1.247,1.247,0,0,1,1262.942,1120.806Z" transform="translate(-1212.433 -1095.592)" fill="#aec3ff"/>
          <path id="Trazado_141746" data-name="Trazado 141746" d="M1567.7,1049.44l-74.382,12.875a1.246,1.246,0,0,1-1.441-1.016h0a1.247,1.247,0,0,1,1.016-1.441l74.382-12.875a1.246,1.246,0,0,1,1.441,1.016h0A1.246,1.246,0,0,1,1567.7,1049.44Z" transform="translate(-1434.931 -1038.465)" fill="#aec3ff"/>
        </g>
        <g id="Grupo_71336" data-name="Grupo 71336" transform="translate(6.915 71.898)">
          <path id="Trazado_141747" data-name="Trazado 141747" d="M1610.482,1121.567l-30.971,5.361a1.246,1.246,0,0,1-1.441-1.016h0a1.247,1.247,0,0,1,1.016-1.441l30.971-5.361a1.247,1.247,0,0,1,1.441,1.016h0A1.247,1.247,0,0,1,1610.482,1121.567Z" transform="translate(-1507.054 -1114.263)" fill="#aec3ff"/>
          <path id="Trazado_141748" data-name="Trazado 141748" d="M1798.131,1097.365l-19.048,3.3a1.247,1.247,0,0,1-1.441-1.016h0a1.247,1.247,0,0,1,1.016-1.441l19.048-3.3a1.247,1.247,0,0,1,1.441,1.016h0A1.247,1.247,0,0,1,1798.131,1097.365Z" transform="translate(-1666.807 -1094.89)" fill="#aec3ff"/>
          <path id="Trazado_141749" data-name="Trazado 141749" d="M1282.528,1158.961l-58.866,10.189a1.246,1.246,0,0,1-1.441-1.016h0a1.247,1.247,0,0,1,1.016-1.441L1282.1,1156.5a1.247,1.247,0,0,1,1.441,1.016h0A1.247,1.247,0,0,1,1282.528,1158.961Z" transform="translate(-1222.203 -1144.196)" fill="#aec3ff"/>
          <path id="Trazado_141750" data-name="Trazado 141750" d="M1278.612,1211.338l-47.579,8.236a1.247,1.247,0,0,1-1.441-1.016h0a1.247,1.247,0,0,1,1.016-1.441l47.579-8.236a1.247,1.247,0,0,1,1.441,1.016h0A1.247,1.247,0,0,1,1278.612,1211.338Z" transform="translate(-1228.103 -1186.123)" fill="#aec3ff"/>
          <path id="Trazado_141751" data-name="Trazado 141751" d="M1556.567,1163.225l-47.579,8.236a1.247,1.247,0,0,1-1.441-1.016h0a1.247,1.247,0,0,1,1.016-1.441l47.579-8.236a1.246,1.246,0,0,1,1.441,1.016h0A1.246,1.246,0,0,1,1556.567,1163.225Z" transform="translate(-1450.601 -1147.61)" fill="#aec3ff"/>
        </g>
      </g>
      <g id="Grupo_71339" data-name="Grupo 71339" transform="translate(23.372)">
        <path id="Trazado_141752" data-name="Trazado 141752" d="M1325.661,487.885s7.29,8.133,7.689,11.853-3.347,11.916-1.584,15.505c.549,1.118,8.915,12.247,11.492,12.886,1.744.432,4.283-3.921,1.8-8.185-2.51-4.318-2.97-12.869-2.543-16.631.727-6.416,5.344-21.325,6.16-18.518l14.18-2.184-13.392-5.555Z" transform="translate(-1298.884 -428.197)" fill="#e59365"/>
        <path id="Trazado_141753" data-name="Trazado 141753" d="M1299.991,539.415s-1.33,16.258-.115,22.472c.487,2.493,2.855,10.513,5.228,11.388,3.917,1.445,6.095-5.44,4.424-12.934-.457-2.051,2.825-14.674,5-20.442,5.413-14.339,8.679-22.972,8.679-22.972Z" transform="translate(-1277.834 -460.113)" fill="#f2a36d"/>
        <g id="Grupo_71338" data-name="Grupo 71338">
          <path id="Trazado_141754" data-name="Trazado 141754" d="M1330.874,289.3c-3.486,2.024-6.744,3.941-9.578,5.641-1.576.951-3.025,1.832-4.3,2.628-2.06,1.285-3.677,2.341-4.7,3.092-2.615,1.916-6.906,4.25-10.076,7.467l0,0c-.006.006-.012.008-.018.013-6.174,4.322-6.472,9.451-6.718,12.583-.616,7.768-7.89,19.162-17.751,30.553-5.378,6.214-10.146,15.316-11.791,18.92-.539,1.184-1.551,3.93-2.716,6.834-1.621,4.048-3.539,8.4-4.894,9.256a2.179,2.179,0,0,1-1.806-.125c-1.931-.732-4.559-2.815-5.324-4.42-2.3-4.8-.458-12.108,4.023-23.66,4.271-11,3.685-16.572,2.077-21.5-1.047-3.2-2.573-6.284-7.291-8.165a35.712,35.712,0,0,0-4.6-1.7,20.077,20.077,0,0,0-8.124-.71,14.279,14.279,0,0,0-3.095.784,14.6,14.6,0,0,0-6.616,5.165c-.063.084-.127.168-.193.251l0,0v0a24.591,24.591,0,0,1-2.64,2.867c-1.91,1.794-4.063,3.407-6.039,5.042a24.141,24.141,0,0,0-4.928,5.087v0a9.472,9.472,0,0,0-1.46,3.572c-.739,4.217-2.91,8.376-5.076,12.992v0a59.982,59.982,0,0,0-4.146,10.927c-2.44,9.655-7.92,10.649-10.777,7.72-.036-.036-.073-.075-.107-.112-.875-.953-.859-6.185-.6-10.892.191-3.523.514-6.751.7-7.669.574-2.865,5.4-14.108,7.744-25.745,1.75-8.68,15.392-21.595,25.042-38.682,4.8-8.5,23.14-10.766,42.341-21.79,1.033-.591,2.164-.995,3.235-1.512h0q4.594-2.222,9-4.791a126.245,126.245,0,0,1,12.941.653q4.373.443,8.771,1.173h0q6.981,1.156,13.991,3A151.683,151.683,0,0,1,1330.874,289.3Z" transform="translate(-1191.453 -261.838)" fill="#ffb27d"/>
          <path id="Trazado_141755" data-name="Trazado 141755" d="M1639.911,275.173l-3.324,2.121-.87.555-15.41,9.843-.645-.7-31.622-34.046.091-.078h0l11.8-9.562q1.616-.211,3.216-.4c.294-.036.586-.071.879-.1,1.566,1.3,4.012,3.435,6.914,6.016,9.3,8.268,23.233,21.069,27.607,25.093Z" transform="translate(-1508.914 -240.686)" fill="#9fc1f4"/>
          <path id="Trazado_141756" data-name="Trazado 141756" d="M1751.567,237.977l-47.6,33.783s-3.094-1.16-6.769-2.984c-.631-.314-1.278-.647-1.932-1a39.47,39.47,0,0,1-6.466-4.2c-8.547-7.118-16.39-17.037-21.174-23.639-1.722-2.373-3.047-4.318-3.868-5.55.294-.036.587-.071.879-.1C1698.849,230.309,1727.674,232.144,1751.567,237.977Z" transform="translate(-1569.526 -232.167)" fill="#f99746"/>
          <path id="Trazado_141757" data-name="Trazado 141757" d="M1764.758,417.145a1.792,1.792,0,1,1,.573,2.469A1.792,1.792,0,0,1,1764.758,417.145Z" transform="translate(-1650.156 -379.563)" fill="#2a4e96"/>
        </g>
      </g>
      <path id="Trazado_141758" data-name="Trazado 141758" d="M1074.312,696.578l85.859-14.862-10.788,47.414-60.967,13.259Z" transform="translate(-1074.312 -592.023)" fill="#f8fcff"/>
      <g id="Grupo_71340" data-name="Grupo 71340" transform="translate(17.435 111.23)">
        <path id="Trazado_141759" data-name="Trazado 141759" d="M1175.86,839.492l-.609-3.524-8.414,1.454-.649-3.752,9.546-1.653-.611-3.526-.448.078-4.3.745-8.672,1.5,3.051,17.63,3.881-.671-1.182-6.823Z" transform="translate(-1161.699 -820.745)" fill="#f78248"/>
        <path id="Trazado_141760" data-name="Trazado 141760" d="M1249.279,822.287l-3.879.671,3.051,17.63,3.879-.672Z" transform="translate(-1228.7 -815.778)" fill="#f78248"/>
        <path id="Trazado_141761" data-name="Trazado 141761" d="M1305.65,822.51l-3.051-17.63-3.83.66,1.878,10.856-10.14-9.426-3.576.62,3.053,17.632,3.825-.665-1.938-11.206,10.479,9.729Z" transform="translate(-1261.946 -801.844)" fill="#f78248"/>
        <path id="Trazado_141762" data-name="Trazado 141762" d="M1402.543,803.824l-.48.083-9.091,1.575-.642-3.7,8.313-1.441-.6-3.451-8.313,1.441-.62-3.578,9.446-1.637-.6-3.448-13.3,2.3,3.052,17.63,11.507-1.992,1.918-.332Z" transform="translate(-1341.78 -789.665)" fill="#f78248"/>
        <rect id="Rectángulo_31809" data-name="Rectángulo 31809" width="62.235" height="0.897" transform="translate(3.272 31.295) rotate(-9.82)" fill="#f78248"/>
      </g>
    </g>
    <g id="Grupo_71370" data-name="Grupo 71370" transform="translate(437.664 427.105)">
      <g id="Grupo_71366" data-name="Grupo 71366" transform="translate(46.438)">
        <g id="Grupo_71364" data-name="Grupo 71364" transform="translate(0 40.213)">
          <g id="Grupo_71343" data-name="Grupo 71343" transform="translate(6.801 58.89)">
            <path id="Trazado_141763" data-name="Trazado 141763" d="M1493.551,1745.309v3.355a1.143,1.143,0,0,1-.264.721,1.644,1.644,0,0,1-1,.551,1.767,1.767,0,0,1-.272.02H1428.4a1.489,1.489,0,0,1-1.524-1.1c-.006-.042-.012-.084-.014-.127,0-.022,0-.044,0-.065v-3.355c0-.022,0-.044,0-.066,0-.044.008-.086.014-.127a1.49,1.49,0,0,1,1.524-1.1h63.616a1.767,1.767,0,0,1,.272.02,1.687,1.687,0,0,1,.282.068,1.534,1.534,0,0,1,.721.483A1.143,1.143,0,0,1,1493.551,1745.309Z" transform="translate(-1426.855 -1744.017)" fill="#ffb93e"/>
            <path id="Trazado_141764" data-name="Trazado 141764" d="M1462.312,1749.956H1428.23a1.365,1.365,0,0,1-1.322-.957,1.123,1.123,0,0,1-.037-.142c-.006-.042-.012-.084-.014-.127,0-.022,0-.044,0-.065v-3.355c0-.022,0-.044,0-.066,0-.044.008-.086.014-.127a1.126,1.126,0,0,1,.037-.142,1.365,1.365,0,0,1,1.322-.957h29.9A10.4,10.4,0,0,0,1462.312,1749.956Z" transform="translate(-1426.855 -1744.017)" fill="#ffa412"/>
            <g id="Grupo_71342" data-name="Grupo 71342" transform="translate(23.375)">
              <rect id="Rectángulo_31810" data-name="Rectángulo 31810" width="0.723" height="5.939" transform="translate(34.857 0)" fill="#ffa412"/>
              <rect id="Rectángulo_31811" data-name="Rectángulo 31811" width="0.723" height="5.939" transform="translate(32.41 0)" fill="#ffa412"/>
              <rect id="Rectángulo_31812" data-name="Rectángulo 31812" width="0.723" height="5.939" transform="translate(29.475 0)" fill="#ffa412"/>
              <rect id="Rectángulo_31813" data-name="Rectángulo 31813" width="0.723" height="5.939" transform="translate(24.976 0)" fill="#ffa412"/>
              <rect id="Rectángulo_31814" data-name="Rectángulo 31814" width="0.723" height="5.939" transform="translate(20.219 0)" fill="#ffa412"/>
              <rect id="Rectángulo_31815" data-name="Rectángulo 31815" width="0.723" height="5.939" transform="translate(12.926 0)" fill="#ffa412"/>
              <rect id="Rectángulo_31816" data-name="Rectángulo 31816" width="0.723" height="5.939" transform="translate(6.097 0)" fill="#ffa412"/>
              <rect id="Rectángulo_31817" data-name="Rectángulo 31817" width="0.723" height="5.939" transform="translate(0 0)" fill="#ffa412"/>
              <rect id="Rectángulo_31818" data-name="Rectángulo 31818" width="0.723" height="5.939" transform="translate(37.187 0)" fill="#ffa412"/>
              <rect id="Rectángulo_31819" data-name="Rectángulo 31819" width="0.723" height="5.939" transform="translate(38.726 0)" fill="#ffa412"/>
              <rect id="Rectángulo_31820" data-name="Rectángulo 31820" width="0.723" height="5.939" transform="translate(40.212 0)" fill="#ffa412"/>
              <path id="Trazado_141765" data-name="Trazado 141765" d="M1751.884,1744.036v5.9a1.8,1.8,0,0,1-.271.02h-.452v-5.939h.452A1.815,1.815,0,0,1,1751.884,1744.036Z" transform="translate(-1709.831 -1744.016)" fill="#ffa412"/>
              <path id="Trazado_141766" data-name="Trazado 141766" d="M1756.92,1744.937v4.8a1.533,1.533,0,0,1-.722.484v-5.765A1.531,1.531,0,0,1,1756.92,1744.937Z" transform="translate(-1713.863 -1744.366)" fill="#ffa412"/>
            </g>
          </g>
          <g id="Grupo_71345" data-name="Grupo 71345" transform="translate(0 52.95)">
            <path id="Trazado_141767" data-name="Trazado 141767" d="M1459.464,1715.539v3.353a1.152,1.152,0,0,1-.262.723,1.452,1.452,0,0,1-.145.153,1.588,1.588,0,0,1-.578.33,1.632,1.632,0,0,1-.282.066,1.744,1.744,0,0,1-.27.022h-63.618a1.49,1.49,0,0,1-1.522-1.1c-.006-.042-.012-.083-.014-.125,0-.022,0-.044,0-.068v-3.353c0-.022,0-.046,0-.067,0-.042.008-.083.014-.125a1.49,1.49,0,0,1,1.522-1.1h63.618c.04,0,.081,0,.121.006a.283.283,0,0,1,.044,0,.006.006,0,0,1,.008,0,.3.3,0,0,1,.058.006l.04.006a1.61,1.61,0,0,1,.282.066c.054.018.106.038.155.059h0l.1.048.056.032a.5.5,0,0,1,.052.032,1.159,1.159,0,0,1,.187.137c.02.016.036.034.053.05a.394.394,0,0,1,.032.03.118.118,0,0,1,.016.018l.014.014a.592.592,0,0,1,.058.066A1.147,1.147,0,0,1,1459.464,1715.539Z" transform="translate(-1392.77 -1714.245)" fill="#ffb93e"/>
            <path id="Trazado_141768" data-name="Trazado 141768" d="M1428.225,1720.185h-34.082a1.363,1.363,0,0,1-1.32-.959,1.145,1.145,0,0,1-.037-.142c-.006-.042-.012-.083-.014-.125,0-.022,0-.044,0-.068v-3.353c0-.022,0-.046,0-.067,0-.042.008-.083.014-.125a1.131,1.131,0,0,1,.037-.142,1.363,1.363,0,0,1,1.32-.959h29.9c.012.049.026.1.042.147A10.385,10.385,0,0,0,1428.225,1720.185Z" transform="translate(-1392.77 -1714.245)" fill="#ffa412"/>
            <g id="Grupo_71344" data-name="Grupo 71344" transform="translate(23.373 0.001)">
              <rect id="Rectángulo_31821" data-name="Rectángulo 31821" width="0.723" height="5.939" transform="translate(34.857 0)" fill="#ffa412"/>
              <rect id="Rectángulo_31822" data-name="Rectángulo 31822" width="0.723" height="5.939" transform="translate(32.41 0)" fill="#ffa412"/>
              <rect id="Rectángulo_31823" data-name="Rectángulo 31823" width="0.723" height="5.939" transform="translate(29.475 0)" fill="#ffa412"/>
              <rect id="Rectángulo_31824" data-name="Rectángulo 31824" width="0.723" height="5.939" transform="translate(24.976 0)" fill="#ffa412"/>
              <rect id="Rectángulo_31825" data-name="Rectángulo 31825" width="0.723" height="5.939" transform="translate(20.219 0)" fill="#ffa412"/>
              <rect id="Rectángulo_31826" data-name="Rectángulo 31826" width="0.723" height="5.939" transform="translate(12.926 0)" fill="#ffa412"/>
              <rect id="Rectángulo_31827" data-name="Rectángulo 31827" width="0.723" height="5.939" transform="translate(6.097 0)" fill="#ffa412"/>
              <rect id="Rectángulo_31828" data-name="Rectángulo 31828" width="0.723" height="5.939" transform="translate(0 0)" fill="#ffa412"/>
              <rect id="Rectángulo_31829" data-name="Rectángulo 31829" width="0.723" height="5.939" transform="translate(37.187 0)" fill="#ffa412"/>
              <rect id="Rectángulo_31830" data-name="Rectángulo 31830" width="0.723" height="5.939" transform="translate(38.726 0)" fill="#ffa412"/>
              <rect id="Rectángulo_31831" data-name="Rectángulo 31831" width="0.723" height="5.939" transform="translate(40.212 0)" fill="#ffa412"/>
              <path id="Trazado_141769" data-name="Trazado 141769" d="M1717.793,1714.269v5.9a1.787,1.787,0,0,1-.271.021h-.452v-5.939h.452A1.8,1.8,0,0,1,1717.793,1714.269Z" transform="translate(-1675.74 -1714.248)" fill="#ffa412"/>
              <path id="Trazado_141770" data-name="Trazado 141770" d="M1722.829,1715.169v4.8a1.534,1.534,0,0,1-.723.484v-5.765A1.536,1.536,0,0,1,1722.829,1715.169Z" transform="translate(-1679.771 -1714.598)" fill="#ffa412"/>
            </g>
          </g>
          <g id="Grupo_71347" data-name="Grupo 71347" transform="translate(3.287 47.158)">
            <path id="Trazado_141771" data-name="Trazado 141771" d="M1475.938,1686.512v3.355a1.143,1.143,0,0,1-.264.721,1.525,1.525,0,0,1-.721.483,1.845,1.845,0,0,1-.282.068,2.025,2.025,0,0,1-.27.02h-63.618a1.768,1.768,0,0,1-.709-.147,1.342,1.342,0,0,1-.811-.938c-.006-.028-.008-.056-.012-.084a.529.529,0,0,1,0-.057c0-.022,0-.044,0-.066v-3.355c0-.022,0-.043,0-.066a.88.88,0,0,1,.014-.125,1.488,1.488,0,0,1,1.522-1.1H1474.4a1.745,1.745,0,0,1,.27.02,1.662,1.662,0,0,1,.282.066,1.544,1.544,0,0,1,.721.485A1.142,1.142,0,0,1,1475.938,1686.512Z" transform="translate(-1409.244 -1685.219)" fill="#ffb93e"/>
            <path id="Trazado_141772" data-name="Trazado 141772" d="M1444.7,1691.158h-34.082a1.42,1.42,0,0,1-.632-.147,1.3,1.3,0,0,1-.724-.938c-.006-.028-.008-.056-.012-.084a.529.529,0,0,1,0-.057c0-.022,0-.044,0-.066v-3.355c0-.022,0-.043,0-.066a.88.88,0,0,1,.014-.125,1.113,1.113,0,0,1,.036-.138,1.36,1.36,0,0,1,1.322-.963h29.9a10.425,10.425,0,0,0,3.976,5.791C1444.558,1691.061,1444.628,1691.11,1444.7,1691.158Z" transform="translate(-1409.244 -1685.219)" fill="#ffa412"/>
            <g id="Grupo_71346" data-name="Grupo 71346" transform="translate(23.373)">
              <rect id="Rectángulo_31832" data-name="Rectángulo 31832" width="0.723" height="5.939" transform="translate(34.857 0)" fill="#ffa412"/>
              <rect id="Rectángulo_31833" data-name="Rectángulo 31833" width="0.723" height="5.939" transform="translate(32.41 0)" fill="#ffa412"/>
              <rect id="Rectángulo_31834" data-name="Rectángulo 31834" width="0.723" height="5.939" transform="translate(29.475 0)" fill="#ffa412"/>
              <rect id="Rectángulo_31835" data-name="Rectángulo 31835" width="0.723" height="5.939" transform="translate(24.976 0)" fill="#ffa412"/>
              <rect id="Rectángulo_31836" data-name="Rectángulo 31836" width="0.723" height="5.939" transform="translate(20.219 0)" fill="#ffa412"/>
              <rect id="Rectángulo_31837" data-name="Rectángulo 31837" width="0.723" height="5.939" transform="translate(12.926 0)" fill="#ffa412"/>
              <rect id="Rectángulo_31838" data-name="Rectángulo 31838" width="0.723" height="5.939" transform="translate(6.098 0)" fill="#ffa412"/>
              <rect id="Rectángulo_31839" data-name="Rectángulo 31839" width="0.723" height="5.939" transform="translate(0 0)" fill="#ffa412"/>
              <rect id="Rectángulo_31840" data-name="Rectángulo 31840" width="0.723" height="5.939" transform="translate(37.187 0)" fill="#ffa412"/>
              <rect id="Rectángulo_31841" data-name="Rectángulo 31841" width="0.723" height="5.939" transform="translate(38.726 0)" fill="#ffa412"/>
              <rect id="Rectángulo_31842" data-name="Rectángulo 31842" width="0.723" height="5.939" transform="translate(40.212 0)" fill="#ffa412"/>
              <path id="Trazado_141773" data-name="Trazado 141773" d="M1734.268,1685.236v5.9a1.8,1.8,0,0,1-.271.021h-.452v-5.939H1734A1.8,1.8,0,0,1,1734.268,1685.236Z" transform="translate(-1692.215 -1685.216)" fill="#ffa412"/>
              <path id="Trazado_141774" data-name="Trazado 141774" d="M1739.3,1686.136v4.8a1.536,1.536,0,0,1-.722.484v-5.765A1.535,1.535,0,0,1,1739.3,1686.136Z" transform="translate(-1696.247 -1685.565)" fill="#ffa412"/>
            </g>
          </g>
          <g id="Grupo_71349" data-name="Grupo 71349" transform="translate(4.811 41.219)">
            <path id="Trazado_141775" data-name="Trazado 141775" d="M1483.578,1656.741v3.353a1.139,1.139,0,0,1-.265.722c-.022.028-.046.054-.07.079a1.484,1.484,0,0,1-.439.32,1.819,1.819,0,0,1-.212.086,1.636,1.636,0,0,1-.282.065c-.044.006-.087.012-.133.016s-.093.006-.139.006h-63.616a1.491,1.491,0,0,1-1.524-1.1c-.006-.042-.012-.084-.014-.125v-3.488a1.419,1.419,0,0,1,1.355-1.216c.06-.006.121-.01.183-.01h63.616c.046,0,.093,0,.139.006s.089.008.133.016a1.647,1.647,0,0,1,.282.065,1.533,1.533,0,0,1,.721.483A1.144,1.144,0,0,1,1483.578,1656.741Z" transform="translate(-1416.884 -1655.447)" fill="#ffb93e"/>
            <path id="Trazado_141776" data-name="Trazado 141776" d="M1452.34,1661.387h-34.082a1.366,1.366,0,0,1-1.322-.959,1.122,1.122,0,0,1-.037-.142c-.006-.042-.012-.084-.014-.125v-3.488a1.336,1.336,0,0,1,1.21-1.216,1.464,1.464,0,0,1,.163-.01h29.9s0,.006,0,.01A10.415,10.415,0,0,0,1452.34,1661.387Z" transform="translate(-1416.884 -1655.447)" fill="#ffa412"/>
            <g id="Grupo_71348" data-name="Grupo 71348" transform="translate(23.373 0)">
              <rect id="Rectángulo_31843" data-name="Rectángulo 31843" width="0.723" height="5.939" transform="translate(34.857 0)" fill="#ffa412"/>
              <rect id="Rectángulo_31844" data-name="Rectángulo 31844" width="0.723" height="5.939" transform="translate(32.41 0)" fill="#ffa412"/>
              <rect id="Rectángulo_31845" data-name="Rectángulo 31845" width="0.723" height="5.939" transform="translate(29.475 0)" fill="#ffa412"/>
              <rect id="Rectángulo_31846" data-name="Rectángulo 31846" width="0.723" height="5.939" transform="translate(24.976 0)" fill="#ffa412"/>
              <rect id="Rectángulo_31847" data-name="Rectángulo 31847" width="0.723" height="5.939" transform="translate(20.219 0)" fill="#ffa412"/>
              <rect id="Rectángulo_31848" data-name="Rectángulo 31848" width="0.723" height="5.939" transform="translate(12.926 0)" fill="#ffa412"/>
              <rect id="Rectángulo_31849" data-name="Rectángulo 31849" width="0.723" height="5.939" transform="translate(6.097 0)" fill="#ffa412"/>
              <rect id="Rectángulo_31850" data-name="Rectángulo 31850" width="0.723" height="5.939" transform="translate(0 0)" fill="#ffa412"/>
              <rect id="Rectángulo_31851" data-name="Rectángulo 31851" width="0.723" height="5.939" transform="translate(37.187 0)" fill="#ffa412"/>
              <rect id="Rectángulo_31852" data-name="Rectángulo 31852" width="0.723" height="5.939" transform="translate(38.726 0)" fill="#ffa412"/>
              <rect id="Rectángulo_31853" data-name="Rectángulo 31853" width="0.723" height="5.939" transform="translate(40.212 0)" fill="#ffa412"/>
              <path id="Trazado_141777" data-name="Trazado 141777" d="M1741.906,1655.469v5.9a1.807,1.807,0,0,1-.271.021h-.452v-5.939h.452A1.76,1.76,0,0,1,1741.906,1655.469Z" transform="translate(-1699.853 -1655.448)" fill="#ffa412"/>
              <path id="Trazado_141778" data-name="Trazado 141778" d="M1746.941,1656.369v4.8a1.53,1.53,0,0,1-.722.484v-5.764A1.534,1.534,0,0,1,1746.941,1656.369Z" transform="translate(-1703.884 -1655.798)" fill="#ffa412"/>
            </g>
          </g>
          <g id="Grupo_71351" data-name="Grupo 71351" transform="translate(0.133 35.289)">
            <path id="Trazado_141779" data-name="Trazado 141779" d="M1460.13,1627.02v3.353a1.138,1.138,0,0,1-.262.721,1.52,1.52,0,0,1-.724.485,1.658,1.658,0,0,1-.28.065.65.65,0,0,1-.089.012h-.012a.367.367,0,0,1-.047,0l-.042,0-.082,0h-63.616a1.454,1.454,0,0,1-1.538-1.226c0-.022,0-.044,0-.067v-3.353c0-.022,0-.046,0-.068a.5.5,0,0,1,0-.054,1.392,1.392,0,0,1,1.154-1.131.289.289,0,0,1,.046-.01,1.83,1.83,0,0,1,.334-.032h63.616c.048,0,.092,0,.137.006l.058.006h.006c.024,0,.047.006.072.01a1.623,1.623,0,0,1,.28.065,1.522,1.522,0,0,1,.724.485A1.138,1.138,0,0,1,1460.13,1627.02Z" transform="translate(-1393.436 -1625.726)" fill="#ffb93e"/>
            <path id="Trazado_141780" data-name="Trazado 141780" d="M1428.892,1631.666h-34.08a1.346,1.346,0,0,1-1.373-1.226c0-.022,0-.044,0-.067v-3.353c0-.022,0-.046,0-.068a.5.5,0,0,1,0-.054,1.325,1.325,0,0,1,1.067-1.139.257.257,0,0,1,.058-.012,1.414,1.414,0,0,1,.245-.022h29.9c0,.016.008.028.012.043a10.409,10.409,0,0,0,4.159,5.886S1428.888,1631.662,1428.892,1631.666Z" transform="translate(-1393.436 -1625.726)" fill="#ffa412"/>
            <g id="Grupo_71350" data-name="Grupo 71350" transform="translate(23.374 0)">
              <rect id="Rectángulo_31854" data-name="Rectángulo 31854" width="0.723" height="5.939" transform="translate(34.857 0)" fill="#ffa412"/>
              <rect id="Rectángulo_31855" data-name="Rectángulo 31855" width="0.723" height="5.939" transform="translate(32.41 0)" fill="#ffa412"/>
              <rect id="Rectángulo_31856" data-name="Rectángulo 31856" width="0.723" height="5.939" transform="translate(29.475 0)" fill="#ffa412"/>
              <rect id="Rectángulo_31857" data-name="Rectángulo 31857" width="0.723" height="5.939" transform="translate(24.976 0)" fill="#ffa412"/>
              <rect id="Rectángulo_31858" data-name="Rectángulo 31858" width="0.723" height="5.939" transform="translate(20.219 0)" fill="#ffa412"/>
              <rect id="Rectángulo_31859" data-name="Rectángulo 31859" width="0.723" height="5.939" transform="translate(12.926 0)" fill="#ffa412"/>
              <rect id="Rectángulo_31860" data-name="Rectángulo 31860" width="0.723" height="5.939" transform="translate(6.098 0)" fill="#ffa412"/>
              <rect id="Rectángulo_31861" data-name="Rectángulo 31861" width="0.723" height="5.939" transform="translate(0 0)" fill="#ffa412"/>
              <rect id="Rectángulo_31862" data-name="Rectángulo 31862" width="0.723" height="5.939" transform="translate(37.187 0)" fill="#ffa412"/>
              <rect id="Rectángulo_31863" data-name="Rectángulo 31863" width="0.723" height="5.939" transform="translate(38.726 0)" fill="#ffa412"/>
              <rect id="Rectángulo_31864" data-name="Rectángulo 31864" width="0.723" height="5.939" transform="translate(40.212 0)" fill="#ffa412"/>
              <path id="Trazado_141781" data-name="Trazado 141781" d="M1718.463,1625.749v5.9a1.786,1.786,0,0,1-.271.021h-.452v-5.939h.452A1.786,1.786,0,0,1,1718.463,1625.749Z" transform="translate(-1676.41 -1625.728)" fill="#ffa412"/>
              <path id="Trazado_141782" data-name="Trazado 141782" d="M1723.5,1626.649v4.8a1.532,1.532,0,0,1-.722.484v-5.765A1.532,1.532,0,0,1,1723.5,1626.649Z" transform="translate(-1680.441 -1626.078)" fill="#ffa412"/>
            </g>
          </g>
          <g id="Grupo_71353" data-name="Grupo 71353" transform="translate(0 29.393)">
            <path id="Trazado_141783" data-name="Trazado 141783" d="M1459.464,1597.466v3.353a1.147,1.147,0,0,1-.262.721,1.69,1.69,0,0,1-.145.155,1.6,1.6,0,0,1-.578.33,1.669,1.669,0,0,1-.218.056h-.006a.552.552,0,0,1-.058.01,1.743,1.743,0,0,1-.27.022h-63.618a1.622,1.622,0,0,1-.2-.012c-.026,0-.051-.006-.075-.01a1.432,1.432,0,0,1-1.25-1.093,1.011,1.011,0,0,1-.012-.111c0-.024,0-.046,0-.068v-3.353c0-.024,0-.046,0-.068,0-.042.008-.084.014-.125a1.49,1.49,0,0,1,1.522-1.1h63.618c.04,0,.081,0,.121,0l.016,0a.221.221,0,0,0,.036,0c.018,0,.038,0,.058.008a.145.145,0,0,1,.04.006,1.632,1.632,0,0,1,.282.066q.081.027.155.06h0a1.543,1.543,0,0,1,.509.358c.02.022.04.044.058.066A1.152,1.152,0,0,1,1459.464,1597.466Z" transform="translate(-1392.77 -1596.172)" fill="#ffb93e"/>
            <path id="Trazado_141784" data-name="Trazado 141784" d="M1428.225,1602.112h-34.082l-.08,0-.087-.008a1.344,1.344,0,0,1-1.192-1.105,1.011,1.011,0,0,1-.012-.111c0-.024,0-.046,0-.068v-3.353c0-.024,0-.046,0-.068,0-.042.008-.084.014-.125a1.157,1.157,0,0,1,.037-.142,1.364,1.364,0,0,1,1.32-.959h29.9c.012.05.026.1.042.147a10.391,10.391,0,0,0,4.082,5.749C1428.184,1602.084,1428.206,1602.1,1428.225,1602.112Z" transform="translate(-1392.77 -1596.172)" fill="#ffa412"/>
            <g id="Grupo_71352" data-name="Grupo 71352" transform="translate(23.373 0)">
              <rect id="Rectángulo_31865" data-name="Rectángulo 31865" width="0.723" height="5.939" transform="translate(34.857 0)" fill="#ffa412"/>
              <rect id="Rectángulo_31866" data-name="Rectángulo 31866" width="0.723" height="5.939" transform="translate(32.41 0)" fill="#ffa412"/>
              <rect id="Rectángulo_31867" data-name="Rectángulo 31867" width="0.723" height="5.939" transform="translate(29.475 0)" fill="#ffa412"/>
              <rect id="Rectángulo_31868" data-name="Rectángulo 31868" width="0.723" height="5.939" transform="translate(24.976 0)" fill="#ffa412"/>
              <rect id="Rectángulo_31869" data-name="Rectángulo 31869" width="0.723" height="5.939" transform="translate(20.219 0)" fill="#ffa412"/>
              <rect id="Rectángulo_31870" data-name="Rectángulo 31870" width="0.723" height="5.939" transform="translate(12.926 0)" fill="#ffa412"/>
              <rect id="Rectángulo_31871" data-name="Rectángulo 31871" width="0.723" height="5.939" transform="translate(6.097 0)" fill="#ffa412"/>
              <rect id="Rectángulo_31872" data-name="Rectángulo 31872" width="0.723" height="5.939" transform="translate(0 0)" fill="#ffa412"/>
              <rect id="Rectángulo_31873" data-name="Rectángulo 31873" width="0.723" height="5.939" transform="translate(37.187 0)" fill="#ffa412"/>
              <rect id="Rectángulo_31874" data-name="Rectángulo 31874" width="0.723" height="5.939" transform="translate(38.726 0)" fill="#ffa412"/>
              <rect id="Rectángulo_31875" data-name="Rectángulo 31875" width="0.723" height="5.939" transform="translate(40.212 0)" fill="#ffa412"/>
              <path id="Trazado_141785" data-name="Trazado 141785" d="M1717.793,1596.194v5.9a1.819,1.819,0,0,1-.271.02h-.452v-5.939h.452A1.835,1.835,0,0,1,1717.793,1596.194Z" transform="translate(-1675.74 -1596.174)" fill="#ffa412"/>
              <path id="Trazado_141786" data-name="Trazado 141786" d="M1722.829,1597.094v4.8a1.537,1.537,0,0,1-.723.484v-5.765A1.535,1.535,0,0,1,1722.829,1597.094Z" transform="translate(-1679.771 -1596.523)" fill="#ffa412"/>
            </g>
          </g>
          <g id="Grupo_71355" data-name="Grupo 71355" transform="translate(3.287 23.6)">
            <path id="Trazado_141787" data-name="Trazado 141787" d="M1475.938,1568.431v3.353a1.145,1.145,0,0,1-.264.724,1.524,1.524,0,0,1-.721.483,1.639,1.639,0,0,1-.282.065,1.729,1.729,0,0,1-.27.022h-63.618a1.766,1.766,0,0,1-.709-.147,1.342,1.342,0,0,1-.811-.938c-.006-.028-.008-.056-.012-.083a.573.573,0,0,1,0-.058c0-.022,0-.044,0-.068v-3.353c0-.022,0-.046,0-.067a.91.91,0,0,1,.014-.125,1.49,1.49,0,0,1,1.522-1.1H1474.4a1.744,1.744,0,0,1,.27.022,1.639,1.639,0,0,1,.282.066,1.513,1.513,0,0,1,.721.485A1.137,1.137,0,0,1,1475.938,1568.431Z" transform="translate(-1409.244 -1567.137)" fill="#ffb93e"/>
            <path id="Trazado_141788" data-name="Trazado 141788" d="M1444.7,1573.077h-34.082a1.418,1.418,0,0,1-.632-.147,1.3,1.3,0,0,1-.724-.938c-.006-.028-.008-.056-.012-.083a.573.573,0,0,1,0-.058c0-.022,0-.044,0-.068v-3.353c0-.022,0-.046,0-.067a.91.91,0,0,1,.014-.125,1.1,1.1,0,0,1,.036-.138,1.362,1.362,0,0,1,1.322-.963h29.9a10.422,10.422,0,0,0,3.976,5.793C1444.558,1572.98,1444.628,1573.027,1444.7,1573.077Z" transform="translate(-1409.244 -1567.137)" fill="#ffa412"/>
            <g id="Grupo_71354" data-name="Grupo 71354" transform="translate(23.373 0.001)">
              <rect id="Rectángulo_31876" data-name="Rectángulo 31876" width="0.723" height="5.939" transform="translate(34.857 0)" fill="#ffa412"/>
              <rect id="Rectángulo_31877" data-name="Rectángulo 31877" width="0.723" height="5.939" transform="translate(32.41 0)" fill="#ffa412"/>
              <rect id="Rectángulo_31878" data-name="Rectángulo 31878" width="0.723" height="5.939" transform="translate(29.475 0)" fill="#ffa412"/>
              <rect id="Rectángulo_31879" data-name="Rectángulo 31879" width="0.723" height="5.939" transform="translate(24.976 0)" fill="#ffa412"/>
              <rect id="Rectángulo_31880" data-name="Rectángulo 31880" width="0.723" height="5.939" transform="translate(20.219 0)" fill="#ffa412"/>
              <rect id="Rectángulo_31881" data-name="Rectángulo 31881" width="0.723" height="5.939" transform="translate(12.926 0)" fill="#ffa412"/>
              <rect id="Rectángulo_31882" data-name="Rectángulo 31882" width="0.723" height="5.939" transform="translate(6.098 0)" fill="#ffa412"/>
              <rect id="Rectángulo_31883" data-name="Rectángulo 31883" width="0.723" height="5.939" transform="translate(0 0)" fill="#ffa412"/>
              <rect id="Rectángulo_31884" data-name="Rectángulo 31884" width="0.723" height="5.939" transform="translate(37.187 0)" fill="#ffa412"/>
              <rect id="Rectángulo_31885" data-name="Rectángulo 31885" width="0.723" height="5.939" transform="translate(38.726 0)" fill="#ffa412"/>
              <rect id="Rectángulo_31886" data-name="Rectángulo 31886" width="0.723" height="5.939" transform="translate(40.212 0)" fill="#ffa412"/>
              <path id="Trazado_141789" data-name="Trazado 141789" d="M1734.268,1567.162v5.9a1.835,1.835,0,0,1-.271.02h-.452v-5.939H1734A1.8,1.8,0,0,1,1734.268,1567.162Z" transform="translate(-1692.215 -1567.142)" fill="#ffa412"/>
              <path id="Trazado_141790" data-name="Trazado 141790" d="M1739.3,1568.062v4.8a1.534,1.534,0,0,1-.722.484v-5.765A1.535,1.535,0,0,1,1739.3,1568.062Z" transform="translate(-1696.247 -1567.491)" fill="#ffa412"/>
            </g>
          </g>
          <g id="Grupo_71357" data-name="Grupo 71357" transform="translate(8.486 17.661)">
            <path id="Trazado_141791" data-name="Trazado 141791" d="M1502,1538.667v3.354a1.149,1.149,0,0,1-.262.72l0,0c-.022.028-.046.054-.07.08a1.458,1.458,0,0,1-.34.266,1.647,1.647,0,0,1-.2.1s0,0,0,0c-.034.014-.07.028-.108.04a1.616,1.616,0,0,1-.282.065,1.721,1.721,0,0,1-.271.02h-63.618a1.489,1.489,0,0,1-1.522-1.1.887.887,0,0,1-.014-.127c0-.022,0-.044,0-.066v-3.354c0-.022,0-.044,0-.065a1.417,1.417,0,0,1,1.355-1.216,1.386,1.386,0,0,1,.181-.01h63.618a1.972,1.972,0,0,1,.271.02,1.79,1.79,0,0,1,.282.068,1.558,1.558,0,0,1,.652.4c.024.026.048.052.07.079l0,0A1.149,1.149,0,0,1,1502,1538.667Z" transform="translate(-1435.301 -1537.375)" fill="#ffb93e"/>
            <path id="Trazado_141792" data-name="Trazado 141792" d="M1470.757,1543.313h-34.082a1.361,1.361,0,0,1-1.322-.961,1.112,1.112,0,0,1-.036-.138.887.887,0,0,1-.014-.127c0-.022,0-.044,0-.066v-3.354c0-.022,0-.044,0-.065a1.333,1.333,0,0,1,1.208-1.216,1.123,1.123,0,0,1,.163-.01h29.9a.088.088,0,0,1,0,.01A10.405,10.405,0,0,0,1470.757,1543.313Z" transform="translate(-1435.301 -1537.375)" fill="#ffa412"/>
            <g id="Grupo_71356" data-name="Grupo 71356" transform="translate(23.373)">
              <rect id="Rectángulo_31887" data-name="Rectángulo 31887" width="0.723" height="5.939" transform="translate(34.857 0)" fill="#ffa412"/>
              <rect id="Rectángulo_31888" data-name="Rectángulo 31888" width="0.723" height="5.939" transform="translate(32.41 0)" fill="#ffa412"/>
              <rect id="Rectángulo_31889" data-name="Rectángulo 31889" width="0.723" height="5.939" transform="translate(29.475 0)" fill="#ffa412"/>
              <rect id="Rectángulo_31890" data-name="Rectángulo 31890" width="0.723" height="5.939" transform="translate(24.976 0)" fill="#ffa412"/>
              <rect id="Rectángulo_31891" data-name="Rectángulo 31891" width="0.723" height="5.939" transform="translate(20.219 0)" fill="#ffa412"/>
              <rect id="Rectángulo_31892" data-name="Rectángulo 31892" width="0.723" height="5.939" transform="translate(12.926 0)" fill="#ffa412"/>
              <rect id="Rectángulo_31893" data-name="Rectángulo 31893" width="0.723" height="5.939" transform="translate(6.098 0)" fill="#ffa412"/>
              <rect id="Rectángulo_31894" data-name="Rectángulo 31894" width="0.723" height="5.939" transform="translate(0 0)" fill="#ffa412"/>
              <rect id="Rectángulo_31895" data-name="Rectángulo 31895" width="0.723" height="5.939" transform="translate(37.187 0)" fill="#ffa412"/>
              <rect id="Rectángulo_31896" data-name="Rectángulo 31896" width="0.723" height="5.939" transform="translate(38.726 0)" fill="#ffa412"/>
              <rect id="Rectángulo_31897" data-name="Rectángulo 31897" width="0.723" height="5.939" transform="translate(40.212 0)" fill="#ffa412"/>
              <path id="Trazado_141793" data-name="Trazado 141793" d="M1760.326,1537.395v5.9a1.806,1.806,0,0,1-.272.021h-.452v-5.939h.452A1.775,1.775,0,0,1,1760.326,1537.395Z" transform="translate(-1718.273 -1537.374)" fill="#ffa412"/>
              <path id="Trazado_141794" data-name="Trazado 141794" d="M1765.361,1538.294v4.8a1.533,1.533,0,0,1-.722.484v-5.765A1.535,1.535,0,0,1,1765.361,1538.294Z" transform="translate(-1722.304 -1537.723)" fill="#ffa412"/>
            </g>
          </g>
          <g id="Grupo_71359" data-name="Grupo 71359" transform="translate(0.133 11.731)">
            <path id="Trazado_141795" data-name="Trazado 141795" d="M1460.13,1508.946v3.352a1.138,1.138,0,0,1-.262.721,1.521,1.521,0,0,1-.724.485,1.612,1.612,0,0,1-.28.066l-.089.012h-.012a.576.576,0,0,1-.059.006l-.036,0-.076,0h-63.616a1.618,1.618,0,0,1-1.31-.616,1.14,1.14,0,0,1-.229-.61c0-.024,0-.046,0-.067v-3.352c0-.024,0-.046,0-.068a1.365,1.365,0,0,1,1.091-1.169,1.741,1.741,0,0,1,.447-.058h63.616l.082,0a.268.268,0,0,1,.04,0,1.3,1.3,0,0,1,.151.016,1.612,1.612,0,0,1,.28.066.885.885,0,0,1,.131.05h0a1.5,1.5,0,0,1,.445.28.029.029,0,0,1,.006.008l.018.016a1.253,1.253,0,0,1,.121.129A1.144,1.144,0,0,1,1460.13,1508.946Z" transform="translate(-1393.436 -1507.652)" fill="#ffb93e"/>
            <path id="Trazado_141796" data-name="Trazado 141796" d="M1428.892,1513.592h-34.08a1.4,1.4,0,0,1-1.149-.586,1.219,1.219,0,0,1-.225-.64c0-.024,0-.046,0-.067v-3.352c0-.024,0-.046,0-.068a1.326,1.326,0,0,1,1.1-1.2,1.414,1.414,0,0,1,.278-.028h29.9c.012.046.026.091.04.137a10.391,10.391,0,0,0,4.132,5.793A.056.056,0,0,1,1428.892,1513.592Z" transform="translate(-1393.436 -1507.652)" fill="#ffa412"/>
            <g id="Grupo_71358" data-name="Grupo 71358" transform="translate(23.374 0)">
              <rect id="Rectángulo_31898" data-name="Rectángulo 31898" width="0.723" height="5.939" transform="translate(34.857 0)" fill="#ffa412"/>
              <rect id="Rectángulo_31899" data-name="Rectángulo 31899" width="0.723" height="5.939" transform="translate(32.41 0)" fill="#ffa412"/>
              <rect id="Rectángulo_31900" data-name="Rectángulo 31900" width="0.723" height="5.939" transform="translate(29.475 0)" fill="#ffa412"/>
              <rect id="Rectángulo_31901" data-name="Rectángulo 31901" width="0.723" height="5.939" transform="translate(24.976 0)" fill="#ffa412"/>
              <rect id="Rectángulo_31902" data-name="Rectángulo 31902" width="0.723" height="5.939" transform="translate(20.219 0)" fill="#ffa412"/>
              <rect id="Rectángulo_31903" data-name="Rectángulo 31903" width="0.723" height="5.939" transform="translate(12.926 0)" fill="#ffa412"/>
              <rect id="Rectángulo_31904" data-name="Rectángulo 31904" width="0.723" height="5.939" transform="translate(6.098 0)" fill="#ffa412"/>
              <rect id="Rectángulo_31905" data-name="Rectángulo 31905" width="0.723" height="5.939" transform="translate(0 0)" fill="#ffa412"/>
              <rect id="Rectángulo_31906" data-name="Rectángulo 31906" width="0.723" height="5.939" transform="translate(37.187 0)" fill="#ffa412"/>
              <rect id="Rectángulo_31907" data-name="Rectángulo 31907" width="0.723" height="5.939" transform="translate(38.726 0)" fill="#ffa412"/>
              <rect id="Rectángulo_31908" data-name="Rectángulo 31908" width="0.723" height="5.939" transform="translate(40.212 0)" fill="#ffa412"/>
              <path id="Trazado_141797" data-name="Trazado 141797" d="M1718.463,1507.674v5.9a1.755,1.755,0,0,1-.271.021h-.452v-5.939h.452A1.77,1.77,0,0,1,1718.463,1507.674Z" transform="translate(-1676.41 -1507.653)" fill="#ffa412"/>
              <path id="Trazado_141798" data-name="Trazado 141798" d="M1723.5,1508.575v4.8a1.53,1.53,0,0,1-.722.483v-5.764A1.53,1.53,0,0,1,1723.5,1508.575Z" transform="translate(-1680.441 -1508.004)" fill="#ffa412"/>
            </g>
          </g>
          <g id="Grupo_71361" data-name="Grupo 71361" transform="translate(4.81 5.93)">
            <path id="Trazado_141799" data-name="Trazado 141799" d="M1483.574,1479.867v3.354a1.142,1.142,0,0,1-.264.722,1.533,1.533,0,0,1-.723.484,1.629,1.629,0,0,1-.281.066,1.763,1.763,0,0,1-.272.021h-63.617a1.755,1.755,0,0,1-.687-.137,1.322,1.322,0,0,1-.846-1.036c0-.017,0-.035,0-.053s0-.044,0-.066v-3.354c0-.022,0-.044,0-.066a1.419,1.419,0,0,1,1.356-1.217,1.708,1.708,0,0,1,.182-.009h63.617a1.763,1.763,0,0,1,.272.021,1.629,1.629,0,0,1,.281.067,1.532,1.532,0,0,1,.723.483A1.143,1.143,0,0,1,1483.574,1479.867Z" transform="translate(-1416.879 -1478.574)" fill="#ffb93e"/>
            <path id="Trazado_141800" data-name="Trazado 141800" d="M1452.335,1484.513h-34.082a1.422,1.422,0,0,1-.614-.137,1.3,1.3,0,0,1-.755-1.036c0-.017,0-.035,0-.053s0-.044,0-.066v-3.354c0-.022,0-.044,0-.066a1.334,1.334,0,0,1,1.21-1.217,1.364,1.364,0,0,1,.162-.009h29.9l0,.009a10.42,10.42,0,0,0,3.987,5.792C1452.2,1484.422,1452.269,1484.468,1452.335,1484.513Z" transform="translate(-1416.879 -1478.574)" fill="#ffa412"/>
            <g id="Grupo_71360" data-name="Grupo 71360" transform="translate(23.374)">
              <rect id="Rectángulo_31909" data-name="Rectángulo 31909" width="0.723" height="5.939" transform="translate(34.857 0)" fill="#ffa412"/>
              <rect id="Rectángulo_31910" data-name="Rectángulo 31910" width="0.723" height="5.939" transform="translate(32.41 0)" fill="#ffa412"/>
              <rect id="Rectángulo_31911" data-name="Rectángulo 31911" width="0.723" height="5.939" transform="translate(29.475 0)" fill="#ffa412"/>
              <rect id="Rectángulo_31912" data-name="Rectángulo 31912" width="0.723" height="5.939" transform="translate(24.976 0)" fill="#ffa412"/>
              <rect id="Rectángulo_31913" data-name="Rectángulo 31913" width="0.723" height="5.939" transform="translate(20.219 0)" fill="#ffa412"/>
              <rect id="Rectángulo_31914" data-name="Rectángulo 31914" width="0.723" height="5.939" transform="translate(12.926 0)" fill="#ffa412"/>
              <rect id="Rectángulo_31915" data-name="Rectángulo 31915" width="0.723" height="5.939" transform="translate(6.097 0)" fill="#ffa412"/>
              <rect id="Rectángulo_31916" data-name="Rectángulo 31916" width="0.723" height="5.939" transform="translate(0 0)" fill="#ffa412"/>
              <rect id="Rectángulo_31917" data-name="Rectángulo 31917" width="0.723" height="5.939" transform="translate(37.187 0)" fill="#ffa412"/>
              <rect id="Rectángulo_31918" data-name="Rectángulo 31918" width="0.723" height="5.939" transform="translate(38.726 0)" fill="#ffa412"/>
              <rect id="Rectángulo_31919" data-name="Rectángulo 31919" width="0.723" height="5.939" transform="translate(40.212 0)" fill="#ffa412"/>
              <path id="Trazado_141801" data-name="Trazado 141801" d="M1741.906,1478.594v5.9a1.775,1.775,0,0,1-.271.021h-.452v-5.939h.452A1.76,1.76,0,0,1,1741.906,1478.594Z" transform="translate(-1699.853 -1478.573)" fill="#ffa412"/>
              <path id="Trazado_141802" data-name="Trazado 141802" d="M1746.941,1479.495v4.8a1.534,1.534,0,0,1-.722.484v-5.765A1.532,1.532,0,0,1,1746.941,1479.495Z" transform="translate(-1703.884 -1478.924)" fill="#ffa412"/>
            </g>
          </g>
          <g id="Grupo_71363" data-name="Grupo 71363" transform="translate(6.801)">
            <path id="Trazado_141803" data-name="Trazado 141803" d="M1493.553,1450.147v3.354a1.141,1.141,0,0,1-.264.722,1.531,1.531,0,0,1-.722.484,1.68,1.68,0,0,1-.282.067c-.03,0-.059.008-.089.011l-.05,0-.05,0-.082,0H1428.4a1.453,1.453,0,0,1-1.537-1.226c0-.022,0-.044,0-.067v-3.354c0-.022,0-.045,0-.066a1.453,1.453,0,0,1,1.537-1.226h63.617a1.77,1.77,0,0,1,.271.021,1.656,1.656,0,0,1,.282.066,1.534,1.534,0,0,1,.722.484A1.141,1.141,0,0,1,1493.553,1450.147Z" transform="translate(-1426.858 -1448.854)" fill="#ffb93e"/>
            <path id="Trazado_141804" data-name="Trazado 141804" d="M1462.314,1454.793h-34.082a1.345,1.345,0,0,1-1.372-1.226c0-.022,0-.044,0-.067v-3.354c0-.022,0-.045,0-.066a1.345,1.345,0,0,1,1.372-1.226h29.9a10.411,10.411,0,0,0,4.172,5.93Z" transform="translate(-1426.858 -1448.854)" fill="#ffa412"/>
            <g id="Grupo_71362" data-name="Grupo 71362" transform="translate(23.374)">
              <rect id="Rectángulo_31920" data-name="Rectángulo 31920" width="0.723" height="5.939" transform="translate(34.857 0)" fill="#ffa412"/>
              <rect id="Rectángulo_31921" data-name="Rectángulo 31921" width="0.723" height="5.939" transform="translate(32.41 0)" fill="#ffa412"/>
              <rect id="Rectángulo_31922" data-name="Rectángulo 31922" width="0.723" height="5.939" transform="translate(29.475 0)" fill="#ffa412"/>
              <rect id="Rectángulo_31923" data-name="Rectángulo 31923" width="0.723" height="5.939" transform="translate(24.976 0)" fill="#ffa412"/>
              <rect id="Rectángulo_31924" data-name="Rectángulo 31924" width="0.723" height="5.939" transform="translate(20.219 0)" fill="#ffa412"/>
              <rect id="Rectángulo_31925" data-name="Rectángulo 31925" width="0.723" height="5.939" transform="translate(12.926 0)" fill="#ffa412"/>
              <rect id="Rectángulo_31926" data-name="Rectángulo 31926" width="0.723" height="5.939" transform="translate(6.097 0)" fill="#ffa412"/>
              <rect id="Rectángulo_31927" data-name="Rectángulo 31927" width="0.723" height="5.939" transform="translate(0 0)" fill="#ffa412"/>
              <rect id="Rectángulo_31928" data-name="Rectángulo 31928" width="0.723" height="5.939" transform="translate(37.187 0)" fill="#ffa412"/>
              <rect id="Rectángulo_31929" data-name="Rectángulo 31929" width="0.723" height="5.939" transform="translate(38.726 0)" fill="#ffa412"/>
              <rect id="Rectángulo_31930" data-name="Rectángulo 31930" width="0.723" height="5.939" transform="translate(40.212 0)" fill="#ffa412"/>
              <path id="Trazado_141805" data-name="Trazado 141805" d="M1751.884,1448.874v5.9a1.782,1.782,0,0,1-.271.02h-.452v-5.939h.452A1.814,1.814,0,0,1,1751.884,1448.874Z" transform="translate(-1709.831 -1448.853)" fill="#ffa412"/>
              <path id="Trazado_141806" data-name="Trazado 141806" d="M1756.92,1449.775v4.8a1.533,1.533,0,0,1-.722.484v-5.765A1.532,1.532,0,0,1,1756.92,1449.775Z" transform="translate(-1713.863 -1449.204)" fill="#ffa412"/>
            </g>
          </g>
        </g>
        <g id="Grupo_71365" data-name="Grupo 71365" transform="translate(9.77)">
          <path id="Trazado_141807" data-name="Trazado 141807" d="M1597.093,1253.669s-3.341,4.7-6.4,4.77-7.724-2.18-7.724-2.18-2.813-6.268-.9-8.721a4.1,4.1,0,0,1,3.914.643,5.982,5.982,0,0,1,1.035.992,3.289,3.289,0,0,0,1.608,1.09c2.186.665,4.78-.9,5.75.611a10.249,10.249,0,0,0,1.69,2A7.71,7.71,0,0,0,1597.093,1253.669Z" transform="translate(-1553.531 -1247.3)" fill="#ffeddc"/>
          <path id="Trazado_141808" data-name="Trazado 141808" d="M1441.737,1332.289s11.81-28.617,33.068-29.162c0,0,19.623,2.181,20.713,29.162Z" transform="translate(-1441.737 -1291.989)" fill="#ffeddc"/>
          <path id="Trazado_141809" data-name="Trazado 141809" d="M1578.123,1292.647s8.521,1.895,11.15.781c0,0,.4-3.563-3.191-3.063a7.528,7.528,0,0,1-5-1.317C1579.754,1288.37,1577.77,1291.157,1578.123,1292.647Z" transform="translate(-1550.879 -1280.635)" fill="#db6a1d"/>
          <path id="Trazado_141810" data-name="Trazado 141810" d="M1606.557,1257.472c-.545.409-2.219-5.761-2.219-5.761a5.984,5.984,0,0,1,1.036.992,3.287,3.287,0,0,0,1.608,1.09C1606.987,1253.973,1607.085,1257.075,1606.557,1257.472Z" transform="translate(-1571.896 -1250.831)" fill="#e5c1a1"/>
          <path id="Trazado_141811" data-name="Trazado 141811" d="M1636.21,1267.207c-.12.071-4.061,2.431-4.595,2.431s2.9-4.431,2.9-4.431A10.263,10.263,0,0,0,1636.21,1267.207Z" transform="translate(-1593.685 -1261.634)" fill="#e5c1a1"/>
          <path id="Trazado_141812" data-name="Trazado 141812" d="M1499.548,1358.184c-.218-.187,8.358-12.628,10.72-12.719s7.669,2.726,11.511,3.089,7.567-.727,8.294,1.544,2.725,10.323,1.5,11.612S1504.264,1362.213,1499.548,1358.184Z" transform="translate(-1488.011 -1325.878)" fill="#f9ddbf"/>
        </g>
      </g>
      <path id="Trazado_141813" data-name="Trazado 141813" d="M1422.154,1501.175c0,.016,0,.03,0,.044a28.484,28.484,0,0,1-.954,5.886.091.091,0,0,0,0,.01c-.075.278-.155.556-.24.833a29.067,29.067,0,0,1-2.1,5.1,29.527,29.527,0,0,1-4,5.791c-.042.05-.085.1-.129.147a30.644,30.644,0,0,1-6.989,5.793q-.847.515-1.737.984c-.4.211-.8.409-1.21.6-.387.224-.8.417-1.183.654a16.536,16.536,0,0,1-4.042,1.663v-2.611c0-.022,0-.044,0-.066,0-.044.008-.085.014-.127a1.1,1.1,0,0,1,.037-.142,1.365,1.365,0,0,1,1.322-.957h-6.8a1.363,1.363,0,0,1-1.32-.959,1.157,1.157,0,0,1-.037-.142c-.006-.042-.012-.084-.014-.125,0-.022,0-.044,0-.068v-3.353c0-.022,0-.046,0-.067,0-.042.008-.083.014-.125a1.147,1.147,0,0,1,.037-.142,1.363,1.363,0,0,1,1.32-.959h2.655a1.3,1.3,0,0,1-.724-.938c-.006-.028-.008-.056-.012-.083a.5.5,0,0,1,0-.057c0-.022,0-.044,0-.066v-3.355c0-.022,0-.043,0-.066a.874.874,0,0,1,.014-.125,1.133,1.133,0,0,1,.036-.138,1.361,1.361,0,0,1,1.322-.963h1.524a1.366,1.366,0,0,1-1.322-.958,1.1,1.1,0,0,1-.037-.142c-.006-.042-.012-.084-.014-.125v-3.488a1.337,1.337,0,0,1,1.21-1.216h-4.513a1.346,1.346,0,0,1-1.373-1.226c0-.022,0-.044,0-.068v-3.353c0-.022,0-.046,0-.068s0-.036,0-.053a1.325,1.325,0,0,1,1.067-1.139,1.345,1.345,0,0,1-1.192-1.105,1.007,1.007,0,0,1-.012-.111c0-.024,0-.046,0-.068v-3.352c0-.024,0-.046,0-.068,0-.042.008-.083.014-.125a1.147,1.147,0,0,1,.037-.141,1.363,1.363,0,0,1,1.32-.959h2.655a1.3,1.3,0,0,1-.724-.938c-.006-.028-.008-.056-.012-.083a.542.542,0,0,1,0-.058c0-.022,0-.044,0-.068v-3.353c0-.022,0-.046,0-.067a.908.908,0,0,1,.014-.125,1.13,1.13,0,0,1,.036-.138,1.362,1.362,0,0,1,1.322-.963h5.2a1.361,1.361,0,0,1-1.322-.961,1.108,1.108,0,0,1-.036-.138.883.883,0,0,1-.014-.127c0-.022,0-.044,0-.066v-3.354c0-.022,0-.044,0-.066a1.333,1.333,0,0,1,1.208-1.216h-8.188a1.4,1.4,0,0,1-1.149-.586l0-.03.863-5.266,0-.03,1.228-7.514a32.812,32.812,0,0,1,4.215.848l.242.066.016.006q1.207.337,2.383.765l.022.008a31.51,31.51,0,0,1,9.877,5.793c.052.044.1.09.153.137a29.771,29.771,0,0,1,4.142,4.461q.372.489.721,1c.078.111.155.223.229.336a.011.011,0,0,1,.006.01q.563.831,1.069,1.707a29.224,29.224,0,0,1,2.013,4.221,28.226,28.226,0,0,1,1.542,5.793c.01.05.016.1.024.147A28.337,28.337,0,0,1,1422.154,1501.175Z" transform="translate(-1346.332 -1425.673)" fill="#e2810e" opacity="0.5"/>
      <g id="Grupo_71369" data-name="Grupo 71369" transform="translate(0 34.925)">
        <circle id="Elipse_4460" data-name="Elipse 4460" cx="31.291" cy="31.291" r="31.291" transform="matrix(0.224, -0.975, 0.975, 0.224, 0, 60.988)" fill="#e2810e"/>
        <path id="Trazado_141814" data-name="Trazado 141814" d="M1226.766,1518.122q-.578.352-1.176.682c-.135.074-.27.148-.4.219-.308.164-.617.323-.928.477a31.292,31.292,0,0,1-28.88-55.5q.6-.332,1.212-.634.592-.295,1.193-.562a31.229,31.229,0,0,1,9.392-2.525,31.3,31.3,0,0,1,19.592,57.846Z" transform="translate(-1175.362 -1452.57)" fill="#ffb93e"/>
        <g id="Grupo_71367" data-name="Grupo 71367" transform="translate(7.25 11.121)">
          <path id="Trazado_141815" data-name="Trazado 141815" d="M1224.446,1534.17a28.156,28.156,0,0,1-7.832-1.117,27.868,27.868,0,1,1,7.832,1.117Zm-.086-55.328a27.278,27.278,0,1,0,23.938,14.107A27.115,27.115,0,0,0,1224.36,1478.843Z" transform="translate(-1196.355 -1478.087)" fill="#ffa412"/>
        </g>
        <g id="Grupo_71368" data-name="Grupo 71368" transform="translate(22.161 18.578)">
          <path id="Trazado_141816" data-name="Trazado 141816" d="M1298.02,1538.759c-.062-.154-.127-.3-.194-.45a8.21,8.21,0,0,0-1.9-2.711,8.478,8.478,0,0,0-2.988-1.758,14.3,14.3,0,0,0-3.8-.713q-2.1-.129-4.559-.059a22.049,22.049,0,0,1-2.6-.053,6.519,6.519,0,0,1-1.832-.4,3.21,3.21,0,0,1-1.223-.829,4.357,4.357,0,0,1-.777-1.282,4.743,4.743,0,0,1-.353-1.5,3.225,3.225,0,0,1,.222-1.415,3.457,3.457,0,0,1,.872-1.236,5.093,5.093,0,0,1,1.6-.972,4.027,4.027,0,0,1,3.418.032,5.8,5.8,0,0,1,2.584,3.234l6.375-2.588a11.912,11.912,0,0,0-2.087-3.46,8.941,8.941,0,0,0-6.249-3.083,11.813,11.813,0,0,0-3.847.393l-1.805-4.446-3.529,1.433,1.78,4.384a13.233,13.233,0,0,0-3.24,2.305,9.9,9.9,0,0,0-2.042,2.847,7.933,7.933,0,0,0-.75,3.216,9.421,9.421,0,0,0,2.773,6.606,8.348,8.348,0,0,0,2.984,1.748,14.135,14.135,0,0,0,3.8.689,44.787,44.787,0,0,0,4.571-.005,16.928,16.928,0,0,1,2.487.017,6.481,6.481,0,0,1,1.822.4,3.443,3.443,0,0,1,1.276.866,4.692,4.692,0,0,1,.858,1.417,3.93,3.93,0,0,1,.3,1.511,3.223,3.223,0,0,1-.341,1.439,4.068,4.068,0,0,1-1.013,1.271,6.121,6.121,0,0,1-1.712,1,7.349,7.349,0,0,1-1.871.486,4.273,4.273,0,0,1-1.888-.189,4.387,4.387,0,0,1-1.723-1.114,6.768,6.768,0,0,1-1.394-2.262l-6.374,2.588a11.006,11.006,0,0,0,2.507,3.9,9.044,9.044,0,0,0,3.3,2.06,10.107,10.107,0,0,0,3.752.541,15.93,15.93,0,0,0,3.865-.639l1.646,4.057,3.507-1.424-1.655-4.076a14.23,14.23,0,0,0,3.273-2.285,9.656,9.656,0,0,0,1.975-2.579c.038-.075.076-.149.112-.225a7.843,7.843,0,0,0,.769-3.2A8.617,8.617,0,0,0,1298.02,1538.759Z" transform="translate(-1271.092 -1515.459)" fill="#ffa412"/>
        </g>
      </g>
    </g>
    <path id="Rectángulo_31931" data-name="Rectángulo 31931" d="M.658,0h477.7a.658.658,0,0,1,.658.658v0a.658.658,0,0,1-.658.658H.658A.658.658,0,0,1,0,.658v0A.658.658,0,0,1,.658,0Z" transform="translate(270.544 532.158)" fill="#2e3552"/>
    <path id="Trazado_141817" data-name="Trazado 141817" d="M1960.155,1170.863a5.667,5.667,0,0,1-2.656-.631c-1.135-.673-2.342-1.115-1.933-1.413s.614-.149,1.245.093,2.472.316,3.067-.335S1960.155,1170.863,1960.155,1170.863Z" transform="translate(-1359.111 -757.104)" fill="#ffb27d"/>
  </g>
</svg>
