<svg xmlns="http://www.w3.org/2000/svg" width="60" height="60" viewBox="0 0 60 60">
  <g id="Grupo_73053" data-name="Grupo 73053" transform="translate(-723.75 -7956.5)">
    <circle id="Elipse_4425" data-name="Elipse 4425" cx="30" cy="30" r="30" transform="translate(723.75 7956.5)" fill="#d9a171"/>
    <path id="Trazado_144089" data-name="Trazado 144089" d="M12.246,29H7.295V13.238L2.432,14.659v-3.75l9.36-3.237h.454ZM33.56,29H18.677V25.777l6.855-7.207q2.534-2.886,2.534-4.585a3.189,3.189,0,0,0-.6-2.095,2.144,2.144,0,0,0-1.743-.718,2.171,2.171,0,0,0-1.831.959,3.943,3.943,0,0,0-.7,2.4H18.237a7,7,0,0,1,.981-3.625,6.882,6.882,0,0,1,2.725-2.6,8.094,8.094,0,0,1,3.9-.937,7.962,7.962,0,0,1,5.325,1.6,5.7,5.7,0,0,1,1.868,4.585A6.658,6.658,0,0,1,32.563,16a10.76,10.76,0,0,1-1.458,2.5,36.715,36.715,0,0,1-3.186,3.508l-2.754,3.179H33.56Z" transform="translate(734.25 7968.5)" fill="#fff"/>
  </g>
</svg>
