<svg xmlns="http://www.w3.org/2000/svg" width="128" height="128" viewBox="0 0 128 128">
  <g id="Grupo_59884" data-name="Grupo 59884" transform="translate(-356 -4054)">
    <circle id="Elipse_4194" data-name="Elipse 4194" cx="64" cy="64" r="64" transform="translate(356 4054)" fill="#6595bf"/>
    <g id="asset-management" transform="translate(375.904 4073.904)">
      <g id="Grupo_59882" data-name="Grupo 59882" transform="translate(1.469 1.469)">
        <g id="Grupo_59873" data-name="Grupo 59873" transform="translate(2.81 9.898)">
          <path id="Trazado_111431" data-name="Trazado 111431" d="M21.044,8.97a39.938,39.938,0,0,0-9.955,9.955,38.53,38.53,0,0,0-3.523,6.147,37.9,37.9,0,0,0-2.4,6.746H5.155A40.592,40.592,0,0,0,4,38.964h8.6a31.271,31.271,0,0,1,.984-5.463,31.89,31.89,0,0,1,4.635-9.813A31.257,31.257,0,0,1,25.807,16.1Z" transform="translate(-4 -8.97)" fill="#ff826e"/>
        </g>
        <g id="Grupo_59874" data-name="Grupo 59874" transform="translate(19.854 2.81)">
          <path id="Trazado_111432" data-name="Trazado 111432" d="M28.843,5.155V5.17a37.9,37.9,0,0,0-6.746,2.4,38.529,38.529,0,0,0-6.147,3.523l4.764,7.131a31.89,31.89,0,0,1,9.813-4.635,31.271,31.271,0,0,1,5.463-.984V4a40.592,40.592,0,0,0-7.145,1.155Z" transform="translate(-15.95 -4)" fill="#fcd770"/>
        </g>
        <g id="Grupo_59875" data-name="Grupo 59875" transform="translate(45.597 2.81)">
          <path id="Trazado_111433" data-name="Trazado 111433" d="M54.025,11.074A40,40,0,0,1,71.082,41.082h-8.6A31.485,31.485,0,0,0,34,12.6V4A39.892,39.892,0,0,1,54.025,11.074Z" transform="translate(-34 -4)" fill="#ffeaa7"/>
        </g>
        <g id="Grupo_59876" data-name="Grupo 59876" transform="translate(45.597 45.597)">
          <path id="Trazado_111434" data-name="Trazado 111434" d="M62.482,34h8.6A40.041,40.041,0,0,1,34,71.082v-8.6A31.485,31.485,0,0,0,62.482,34Z" transform="translate(-34 -34)" fill="#ffeaa7"/>
        </g>
        <g id="Grupo_59877" data-name="Grupo 59877" transform="translate(2.81 45.597)">
          <path id="Trazado_111435" data-name="Trazado 111435" d="M21.058,64.008A40,40,0,0,1,4,34h8.6A31.485,31.485,0,0,0,41.082,62.482v8.6A39.892,39.892,0,0,1,21.058,64.008Z" transform="translate(-4 -34)" fill="#ffeaa7"/>
        </g>
        <g id="Grupo_59878" data-name="Grupo 59878" transform="translate(32.761 18.499)">
          <path id="Trazado_111436" data-name="Trazado 111436" d="M44.967,16.426,40.689,29.262H29.279L25,17.852l5.7-1.426L34.984,20.7,39.262,15Z" transform="translate(-25 -15)" fill="#d3a06c"/>
        </g>
        <g id="Grupo_59879" data-name="Grupo 59879" transform="translate(25.63 32.761)">
          <path id="Trazado_111437" data-name="Trazado 111437" d="M52.732,35.668a16.444,16.444,0,0,1,1.5,6.889A16.684,16.684,0,0,1,37.557,59.23h-.884A16.677,16.677,0,0,1,25.691,30.006L31.41,25H42.82l5.719,5.006A16.616,16.616,0,0,1,52.732,35.668Z" transform="translate(-20 -25)" fill="#cf9e76"/>
        </g>
        <g id="Grupo_59880" data-name="Grupo 59880" transform="translate(0 78.811)">
          <circle id="Elipse_4363" data-name="Elipse 4363" cx="3.5" cy="3.5" r="3.5" transform="translate(-0.372 -0.184)" fill="#ff826e"/>
        </g>
        <g id="Grupo_59881" data-name="Grupo 59881" transform="translate(78.811 0)">
          <circle id="Elipse_4364" data-name="Elipse 4364" cx="3.5" cy="3.5" r="3.5" transform="translate(-0.183 -0.372)" fill="#ff826e"/>
        </g>
      </g>
      <g id="Grupo_59883" data-name="Grupo 59883" transform="translate(0 0)">
        <path id="Trazado_111438" data-name="Trazado 111438" d="M35.131,30H32.279v2.852a4.279,4.279,0,1,0,0,8.557h2.852a1.426,1.426,0,1,1,0,2.852H30.852V42.836H28v4.279h4.279v2.852h2.852V47.115a4.279,4.279,0,1,0,0-8.557H32.279a1.426,1.426,0,0,1,0-2.852h4.279v1.426H39.41V32.852H35.131Z" transform="translate(10.509 11.361)"/>
        <path id="Trazado_111439" data-name="Trazado 111439" d="M56.082,47.3A18.1,18.1,0,0,0,49.9,33.671l-5-4.376,4.466-13.4-8.117-2.03-3.861,5.147L33.7,15.328l-8.04,2.01,4.494,11.983-4.972,4.35A18.1,18.1,0,0,0,37.1,65.4h.873a18.124,18.124,0,0,0,18.1-18.1ZM32.825,18.488,37.7,23.358l4.7-6.263,3.292.823-3.466,10.4H32.825l-3.37-8.988Zm5.153,44.061H37.1A15.252,15.252,0,0,1,27.061,35.818l5.31-4.647H42.71l5.311,4.647A15.252,15.252,0,0,1,37.978,62.549Z" transform="translate(6.672 4.485)"/>
        <path id="Trazado_111440" data-name="Trazado 111440" d="M14.484,41.668A29.987,29.987,0,0,1,41.668,14.484l1.3-.117V2.927l-1.526.108A41.626,41.626,0,0,0,3.034,41.44l-.107,1.526h11.44Zm14.635-26.39c-.841.441-1.659.92-2.455,1.429l-3.149-4.714a38.611,38.611,0,0,1,3.42-1.988Zm.406-6.471A38.193,38.193,0,0,1,33.3,7.427l1.12,5.632c-.926.294-1.831.63-2.718,1ZM24.331,18.35q-1.117.86-2.152,1.811l-4-4a39.068,39.068,0,0,1,3-2.527Zm-4.169,3.828q-.95,1.035-1.811,2.151L13.63,21.174q1.187-1.566,2.526-3Zm-3.454,4.484q-.766,1.194-1.429,2.456l-5.273-2.185A38.625,38.625,0,0,1,12,23.513ZM14.06,31.7c-.371.889-.709,1.793-1,2.718L7.427,33.3a37.833,37.833,0,0,1,1.381-3.775ZM40.114,11.785c-.994.13-1.97.309-2.934.525L36.067,6.717a37.919,37.919,0,0,1,4.046-.7ZM6.019,40.114a37.919,37.919,0,0,1,.7-4.046l5.6,1.112c-.217.963-.4,1.94-.526,2.934Z" transform="translate(-0.179 -0.179)"/>
        <path id="Trazado_111441" data-name="Trazado 111441" d="M61.482,34.3A29.987,29.987,0,0,1,34.3,61.482L33,61.6v11.44l1.526-.108a41.624,41.624,0,0,0,38.4-38.4L73.039,33H61.6Zm8.465,1.555A38.781,38.781,0,0,1,35.852,69.947V64.181A32.84,32.84,0,0,0,64.181,35.852Z" transform="translate(12.64 12.64)"/>
        <path id="Trazado_111442" data-name="Trazado 111442" d="M15.305,34.3,15.188,33H3.748l.108,1.526A41.506,41.506,0,0,0,20.187,64.569l-5.515,5.514H9.3a4.279,4.279,0,1,0,0,2.853h6.558l6.7-6.7a41.077,41.077,0,0,0,19.711,6.693l1.526.108V61.6l-1.3-.117A29.986,29.986,0,0,1,15.305,34.3ZM5.279,72.935A1.426,1.426,0,1,1,6.7,71.509,1.429,1.429,0,0,1,5.279,72.935Zm35.656-2.988A38.781,38.781,0,0,1,6.84,35.852h5.766A32.84,32.84,0,0,0,40.935,64.181Z" transform="translate(-1 12.64)"/>
        <path id="Trazado_111443" data-name="Trazado 111443" d="M67.492,6.7a4.279,4.279,0,1,0,0-2.852H60.934l-6.7,6.7A41.077,41.077,0,0,0,34.526,3.857L33,3.748v11.44l1.3.117A29.987,29.987,0,0,1,61.482,42.489l.117,1.3h11.44l-.108-1.526A41.506,41.506,0,0,0,56.6,12.219L62.115,6.7Zm4.016-2.852a1.426,1.426,0,1,1-1.426,1.426A1.429,1.429,0,0,1,71.509,3.852ZM69.947,40.935H64.181A32.84,32.84,0,0,0,35.852,12.607V6.84A38.781,38.781,0,0,1,69.947,40.935Z" transform="translate(12.64 -1)"/>
      </g>
    </g>
  </g>
</svg>
