<svg xmlns="http://www.w3.org/2000/svg" width="60" height="60" viewBox="0 0 60 60">
  <g id="Grupo_73057" data-name="Grupo 73057" transform="translate(-730 -9243.875)">
    <circle id="Elipse_4429" data-name="Elipse 4429" cx="30" cy="30" r="30" transform="translate(730 9243.875)" fill="#d9a171"/>
    <path id="Trazado_144093" data-name="Trazado 144093" d="M12.246,29H7.295V13.238L2.432,14.659v-3.75l9.36-3.237h.454ZM30.6,7.364v3.882h-.22a7.411,7.411,0,0,0-4.548,1.326,5.6,5.6,0,0,0-2.19,3.684,5.773,5.773,0,0,1,4.219-1.641,5.385,5.385,0,0,1,4.409,2.021,8.153,8.153,0,0,1,1.641,5.3,7.466,7.466,0,0,1-.959,3.735,6.846,6.846,0,0,1-2.681,2.659,7.7,7.7,0,0,1-3.816.959A7.961,7.961,0,0,1,22.4,28.26a7.1,7.1,0,0,1-2.783-2.952,9.719,9.719,0,0,1-1.025-4.424V18.907A12.312,12.312,0,0,1,20,12.982a10.248,10.248,0,0,1,4.036-4.124,11.538,11.538,0,0,1,5.815-1.494Zm-4.453,11.06a2.833,2.833,0,0,0-1.641.452,2.875,2.875,0,0,0-.981,1.109v1.473q0,4.026,2.8,4.026a2.272,2.272,0,0,0,1.882-1.007,4.09,4.09,0,0,0,.754-2.524,4.015,4.015,0,0,0-.769-2.546A2.463,2.463,0,0,0,26.147,18.424Z" transform="translate(740 9253.875)" fill="#fff"/>
  </g>
</svg>
