<svg xmlns="http://www.w3.org/2000/svg" width="128" height="128" viewBox="0 0 128 128">
  <g id="Grupo_71372" data-name="Grupo 71372" transform="translate(-356 -4663)">
    <circle id="Elipse_4197" data-name="Elipse 4197" cx="64" cy="64" r="64" transform="translate(356 4663)" fill="#6595bf"/>
    <g id="budget_2_" data-name="budget (2)" transform="translate(378.667 4681.309)">
      <g id="Grupo_59907" data-name="Grupo 59907" transform="translate(1.314 1.314)">
        <g id="Grupo_59905" data-name="Grupo 59905" transform="translate(11.608)">
          <g id="Grupo_59903" data-name="Grupo 59903">
            <path id="Trazado_111502" data-name="Trazado 111502" d="M140.032,126.852v5.8a2.9,2.9,0,0,0,2.9,2.9h55.14a2.9,2.9,0,0,0,2.9-2.9V60.1a2.9,2.9,0,0,0-2.9-2.9h-5.8Z" transform="translate(-131.326 -48.495)" fill="#d3e2eb"/>
            <path id="Trazado_111503" data-name="Trazado 111503" d="M90.332,82.956a2.9,2.9,0,0,0,2.9,2.9h55.14a2.9,2.9,0,0,0,2.9-2.9V10.4a2.9,2.9,0,0,0-2.9-2.9H93.234a2.9,2.9,0,0,0-2.9,2.9Z" transform="translate(-90.332 -7.501)" fill="#ecf0f9"/>
            <path id="Trazado_111504" data-name="Trazado 111504" d="M402.7,7.5h-4.029a2.9,2.9,0,0,1,2.9,2.9V82.955a2.9,2.9,0,0,1-2.9,2.9H402.7a2.9,2.9,0,0,0,2.9-2.9V10.4a2.9,2.9,0,0,0-2.9-2.9Z" transform="translate(-344.653 -7.5)" fill="#d8e4f0"/>
            <path id="Trazado_111505" data-name="Trazado 111505" d="M452.4,57.2h-4.029a2.9,2.9,0,0,1,2.9,2.9v72.552a2.9,2.9,0,0,1-2.9,2.9H452.4a2.9,2.9,0,0,0,2.9-2.9V60.1A2.9,2.9,0,0,0,452.4,57.2Z" transform="translate(-385.647 -48.494)" fill="#b0c4d8"/>
          </g>
          <g id="Grupo_59904" data-name="Grupo 59904" transform="translate(20.315 5.804)">
            <path id="Trazado_111506" data-name="Trazado 111506" d="M222.311,46.438H207.7a1.4,1.4,0,0,1-1.4-1.4v-3a1.4,1.4,0,0,1,1.4-1.4h14.61a1.4,1.4,0,0,1,1.4,1.4v3A1.4,1.4,0,0,1,222.311,46.438Z" transform="translate(-206.3 -40.634)" fill="#d9a171"/>
            <path id="Trazado_111507" data-name="Trazado 111507" d="M302.242,377.771H290.534a1.4,1.4,0,0,1-1.4-1.4v-3a1.4,1.4,0,0,1,1.4-1.4h11.708a1.4,1.4,0,0,1,1.4,1.4v3A1.4,1.4,0,0,1,302.242,377.771Z" transform="translate(-274.622 -313.925)" fill="#d9a171"/>
          </g>
        </g>
        <g id="Grupo_59906" data-name="Grupo 59906" transform="translate(0 46.434)">
          <circle id="Elipse_4365" data-name="Elipse 4365" cx="17.413" cy="17.413" r="17.413" fill="#ffe179"/>
          <circle id="Elipse_4366" data-name="Elipse 4366" cx="11.608" cy="11.608" r="11.608" transform="translate(5.804 5.804)" fill="#ffcb5b"/>
          <path id="Trazado_111508" data-name="Trazado 111508" d="M113.981,272.567a17.591,17.591,0,0,0-2.015.117,17.413,17.413,0,0,1,0,34.592,17.413,17.413,0,1,0,2.015-34.709Z" transform="translate(-96.568 -272.567)" fill="#fc6"/>
          <path id="Trazado_111509" data-name="Trazado 111509" d="M113.981,305.7a11.678,11.678,0,0,0-2.015.178,11.606,11.606,0,0,1,0,22.861,11.608,11.608,0,1,0,2.015-23.039Z" transform="translate(-96.568 -299.896)" fill="#ffb85b"/>
        </g>
      </g>
      <g id="Grupo_59908" data-name="Grupo 59908" transform="translate(0 0)">
        <path id="Trazado_111510" data-name="Trazado 111510" d="M103.616,327.129a1.59,1.59,0,0,1,1.588,1.588,1.314,1.314,0,0,0,2.628,0,4.222,4.222,0,0,0-2.9-4.005v-.348a1.314,1.314,0,0,0-2.628,0v.348a4.215,4.215,0,0,0,1.314,8.221,1.588,1.588,0,1,1-1.588,1.588,1.314,1.314,0,1,0-2.628,0,4.223,4.223,0,0,0,2.9,4.005v.348a1.314,1.314,0,1,0,2.628,0v-.348a4.215,4.215,0,0,0-1.314-8.221,1.588,1.588,0,1,1,0-3.176Z" transform="translate(-84.89 -266.459)"/>
        <path id="Trazado_111511" data-name="Trazado 111511" d="M73.668,304.413a1.314,1.314,0,0,0-2.245,1.366,10.29,10.29,0,1,1-3.359-3.4,1.314,1.314,0,0,0,1.391-2.229,12.918,12.918,0,1,0,4.212,4.26Z" transform="translate(-43.895 -245.961)"/>
        <path id="Trazado_111512" data-name="Trazado 111512" d="M96.238,8.706h-4.49V4.216A4.221,4.221,0,0,0,87.531,0H32.391a4.221,4.221,0,0,0-4.216,4.216V19A1.314,1.314,0,1,0,30.8,19V4.216a1.59,1.59,0,0,1,1.589-1.588h55.14A1.59,1.59,0,0,1,89.12,4.216V76.768a1.59,1.59,0,0,1-1.588,1.588H48.567a18.7,18.7,0,0,0,3.922-20.609,1.322,1.322,0,0,0,.217.019H64.314a1.314,1.314,0,1,0,0-2.628H52.706a1.313,1.313,0,0,0-1.167.713A18.725,18.725,0,0,0,30.8,46.979V24.256a1.314,1.314,0,0,0-2.628,0V47.841a18.726,18.726,0,0,0,7.118,36.046c.535,0,1.064-.024,1.588-.068v1.656A4.221,4.221,0,0,0,41.1,89.691h55.14a4.221,4.221,0,0,0,4.216-4.216V12.922A4.221,4.221,0,0,0,96.238,8.706ZM19.195,65.16a16.1,16.1,0,1,1,16.1,16.1A16.117,16.117,0,0,1,19.195,65.16ZM97.826,85.475a1.59,1.59,0,0,1-1.588,1.588H41.1a1.59,1.59,0,0,1-1.588-1.588V83.408A18.622,18.622,0,0,0,45.3,80.985H87.531a4.221,4.221,0,0,0,4.216-4.216V11.334h4.49a1.59,1.59,0,0,1,1.588,1.588Z" transform="translate(-16.567 0)"/>
        <path id="Trazado_111513" data-name="Trazado 111513" d="M216.125,33.133h-14.61a2.718,2.718,0,0,0-2.715,2.715v3a2.718,2.718,0,0,0,2.715,2.715h14.61a2.718,2.718,0,0,0,2.715-2.715v-3A2.718,2.718,0,0,0,216.125,33.133Zm.088,5.717a.088.088,0,0,1-.088.088h-14.61a.088.088,0,0,1-.088-.088v-3a.088.088,0,0,1,.088-.088h14.61a.088.088,0,0,1,.088.088Z" transform="translate(-166.877 -27.329)"/>
        <path id="Trazado_111514" data-name="Trazado 111514" d="M296.056,364.467H284.348a2.718,2.718,0,0,0-2.715,2.715v3a2.718,2.718,0,0,0,2.715,2.715h11.708a2.718,2.718,0,0,0,2.715-2.715v-3A2.718,2.718,0,0,0,296.056,364.467Zm.088,5.717a.088.088,0,0,1-.088.088H284.348a.088.088,0,0,1-.088-.088v-3a.088.088,0,0,1,.088-.088h11.708a.088.088,0,0,1,.088.088Z" transform="translate(-235.199 -300.621)"/>
        <path id="Trazado_111515" data-name="Trazado 111515" d="M242.8,115.967H216.681a1.314,1.314,0,1,0,0,2.628H242.8a1.314,1.314,0,0,0,0-2.628Z" transform="translate(-180.542 -95.652)"/>
        <path id="Trazado_111516" data-name="Trazado 111516" d="M151.815,124.4h3a2.718,2.718,0,0,0,2.715-2.715v-3a2.718,2.718,0,0,0-2.715-2.715h-3a2.718,2.718,0,0,0-2.715,2.715v3A2.718,2.718,0,0,0,151.815,124.4Zm-.088-5.717a.088.088,0,0,1,.088-.088h3a.088.088,0,0,1,.088.088v3a.088.088,0,0,1-.088.088h-3a.088.088,0,0,1-.088-.088Z" transform="translate(-125.883 -95.652)"/>
        <path id="Trazado_111517" data-name="Trazado 111517" d="M216.68,151.728h11.608a1.314,1.314,0,1,0,0-2.628H216.68a1.314,1.314,0,0,0,0,2.628Z" transform="translate(-180.541 -122.981)"/>
        <path id="Trazado_111518" data-name="Trazado 111518" d="M242.8,198.8H216.681a1.314,1.314,0,1,0,0,2.628H242.8a1.314,1.314,0,0,0,0-2.628Z" transform="translate(-180.542 -163.975)"/>
        <path id="Trazado_111519" data-name="Trazado 111519" d="M149.1,204.517a2.718,2.718,0,0,0,2.715,2.715h3a2.718,2.718,0,0,0,2.715-2.715v-3a2.718,2.718,0,0,0-2.715-2.715h-3a2.718,2.718,0,0,0-2.715,2.715Zm2.628-3a.088.088,0,0,1,.088-.088h3a.088.088,0,0,1,.088.088v3a.088.088,0,0,1-.088.088h-3a.088.088,0,0,1-.088-.088Z" transform="translate(-125.883 -163.975)"/>
        <path id="Trazado_111520" data-name="Trazado 111520" d="M216.68,234.561h11.608a1.314,1.314,0,1,0,0-2.628H216.68a1.314,1.314,0,1,0,0,2.628Z" transform="translate(-180.541 -191.304)"/>
        <path id="Trazado_111521" data-name="Trazado 111521" d="M242.8,281.633H216.681a1.314,1.314,0,1,0,0,2.628H242.8a1.314,1.314,0,0,0,0-2.628Z" transform="translate(-180.542 -232.297)"/>
      </g>
    </g>
  </g>
</svg>
