<svg xmlns="http://www.w3.org/2000/svg" width="505" height="296.938" viewBox="0 0 505 296.938">
  <g id="politicas-01" transform="translate(-22.42 -22.648)">
    <path id="Trazado_110789" data-name="Trazado 110789" d="M53.422,309.954s-56.394-53.976.806-132.123c51.108-69.826,12.945-103.186,65.4-137.209,53.024-34.4,98.138-13.455,148.894,13.131S389.371,16.693,465.1,50.531s64.841,85.558,46.108,138.735c-15.814,44.891,32.274,77.326,6.043,120.756C517.252,310.021,51.81,308.334,53.422,309.954Z" transform="translate(-4.955)" fill="#ebf3fa"/>
    <g id="Grupo_59816" data-name="Grupo 59816" transform="translate(398.173 90.574)" opacity="0.5">
      <path id="Trazado_110797" data-name="Trazado 110797" d="M2009.968,342.191l12.2,46.687a3.884,3.884,0,0,1-2.766,4.725l-81.9,21.408a3.884,3.884,0,0,1-4.725-2.766l-12.2-46.687a3.884,3.884,0,0,1,2.766-4.725l81.9-21.408A3.886,3.886,0,0,1,2009.968,342.191Z" transform="translate(-1920.451 -339.3)" fill="#aac9f5"/>
      <path id="Trazado_110798" data-name="Trazado 110798" d="M2103.964,606.392l-21.827,5.707a1.74,1.74,0,0,1-2.118-1.241l-.055-.209a1.742,1.742,0,0,1,1.24-2.12l21.835-5.705a1.741,1.741,0,0,1,2.118,1.241l.055.209A1.74,1.74,0,0,1,2103.964,606.392Z" transform="translate(-2048.407 -550.721)" fill="#cde0fb"/>
      <path id="Trazado_110799" data-name="Trazado 110799" d="M2126.705,503.342a4.21,4.21,0,0,1,.095,2.066,1.9,1.9,0,0,1-3.23.846,5.01,5.01,0,0,1-1.029-3.9,1.916,1.916,0,0,1,3.251-.849A4.229,4.229,0,0,1,2126.705,503.342Zm-1,.259a4.11,4.11,0,0,0-.5-1.213q-.46-.7-1.053-.541c-.407.107-.628.433-.666.988a4,4,0,0,0,.154,1.312q.533,2.037,1.581,1.764c.395-.1.618-.435.651-.988A4.158,4.158,0,0,0,2125.7,503.6Z" transform="translate(-2082.569 -468.977)" fill="#cde0fb"/>
      <path id="Trazado_110800" data-name="Trazado 110800" d="M2149.374,497.419a4.215,4.215,0,0,1,.095,2.066,1.9,1.9,0,0,1-3.234.844,4.985,4.985,0,0,1-1.029-3.9,1.916,1.916,0,0,1,3.25-.849A4.221,4.221,0,0,1,2149.374,497.419Zm-1,.259a4.143,4.143,0,0,0-.5-1.213c-.309-.464-.658-.644-1.055-.541s-.626.433-.664.988a3.99,3.99,0,0,0,.154,1.312q.53,2.035,1.571,1.764c.395-.1.618-.435.653-.988A4.106,4.106,0,0,0,2148.37,497.678Z" transform="translate(-2100.755 -464.225)" fill="#cde0fb"/>
      <path id="Trazado_110801" data-name="Trazado 110801" d="M2183.757,488.431a4.207,4.207,0,0,1,.095,2.064,1.9,1.9,0,0,1-3.234.846,5,5,0,0,1-1.029-3.9,1.916,1.916,0,0,1,3.249-.849A4.205,4.205,0,0,1,2183.757,488.431Zm-1,.257a4.15,4.15,0,0,0-.5-1.213q-.461-.693-1.054-.541t-.666.988a4,4,0,0,0,.154,1.312q.534,2.039,1.58,1.766c.4-.1.619-.437.652-.988A4.175,4.175,0,0,0,2182.756,488.688Z" transform="translate(-2128.347 -457.011)" fill="#cde0fb"/>
      <path id="Trazado_110802" data-name="Trazado 110802" d="M2206.442,482.5a4.215,4.215,0,0,1,.1,2.066,1.9,1.9,0,0,1-3.234.846,4.987,4.987,0,0,1-1.029-3.9,1.916,1.916,0,0,1,3.249-.849A4.246,4.246,0,0,1,2206.442,482.5Zm-1,.259a4.153,4.153,0,0,0-.5-1.213q-.463-.7-1.055-.541t-.664.988a4.009,4.009,0,0,0,.154,1.312q.529,2.039,1.571,1.766.593-.156.654-.988a4.119,4.119,0,0,0-.162-1.324Z" transform="translate(-2146.55 -452.252)" fill="#cde0fb"/>
      <path id="Trazado_110803" data-name="Trazado 110803" d="M2229.133,476.569a4.19,4.19,0,0,1,.1,2.066,1.9,1.9,0,0,1-3.236.846,5,5,0,0,1-1.027-3.9,1.916,1.916,0,0,1,3.249-.849A4.224,4.224,0,0,1,2229.133,476.569Zm-1,.259a4.146,4.146,0,0,0-.5-1.213q-.462-.7-1.055-.541t-.664.988a4.062,4.062,0,0,0,.152,1.312q.534,2.037,1.581,1.766.593-.156.654-.988A4.164,4.164,0,0,0,2228.131,476.827Z" transform="translate(-2164.76 -447.494)" fill="#cde0fb"/>
      <path id="Trazado_110804" data-name="Trazado 110804" d="M2251.823,470.639a4.189,4.189,0,0,1,.095,2.066,1.9,1.9,0,0,1-3.234.846,5,5,0,0,1-1.028-3.9,1.916,1.916,0,0,1,3.25-.849A4.223,4.223,0,0,1,2251.823,470.639Zm-1,.259a4.154,4.154,0,0,0-.5-1.213q-.462-.7-1.055-.541c-.4.107-.628.433-.665.988a3.99,3.99,0,0,0,.154,1.312q.534,2.037,1.58,1.766.593-.156.652-.988A4.162,4.162,0,0,0,2250.821,470.9Z" transform="translate(-2182.967 -442.735)" fill="#cde0fb"/>
      <path id="Trazado_110805" data-name="Trazado 110805" d="M2286.2,461.65a4.187,4.187,0,0,1,.1,2.064,1.9,1.9,0,0,1-3.236.845,4.994,4.994,0,0,1-1.028-3.9,1.916,1.916,0,0,1,3.25-.849A4.225,4.225,0,0,1,2286.2,461.65Zm-1,.257a4.2,4.2,0,0,0-.5-1.213q-.463-.7-1.055-.541a.96.96,0,0,0-.666.988,4.1,4.1,0,0,0,.154,1.312q.533,2.039,1.581,1.766.593-.158.654-.988A4.177,4.177,0,0,0,2285.2,461.907Z" transform="translate(-2210.554 -435.521)" fill="#cde0fb"/>
      <path id="Trazado_110806" data-name="Trazado 110806" d="M2308.892,455.721a4.2,4.2,0,0,1,.094,2.064,1.9,1.9,0,0,1-3.233.845,4.994,4.994,0,0,1-1.027-3.9,1.916,1.916,0,0,1,3.25-.849A4.223,4.223,0,0,1,2308.892,455.721Zm-1,.257a4.2,4.2,0,0,0-.5-1.213q-.463-.7-1.055-.541t-.666.988a4,4,0,0,0,.154,1.312q.533,2.039,1.581,1.766c.4-.1.618-.437.652-.988A4.155,4.155,0,0,0,2307.89,455.978Z" transform="translate(-2228.762 -430.763)" fill="#cde0fb"/>
      <path id="Trazado_110807" data-name="Trazado 110807" d="M2331.573,449.791a4.213,4.213,0,0,1,.095,2.064,1.9,1.9,0,0,1-3.234.845,4.986,4.986,0,0,1-1.029-3.9,1.916,1.916,0,0,1,3.25-.849A4.229,4.229,0,0,1,2331.573,449.791Zm-1,.257a4.132,4.132,0,0,0-.5-1.213c-.308-.464-.658-.644-1.055-.541s-.626.435-.664.988a3.977,3.977,0,0,0,.155,1.312q.531,2.039,1.58,1.766.593-.158.652-.988a4.106,4.106,0,0,0-.17-1.326Z" transform="translate(-2246.961 -426.004)" fill="#cde0fb"/>
      <path id="Trazado_110808" data-name="Trazado 110808" d="M2354.263,443.859a4.218,4.218,0,0,1,.1,2.066,1.9,1.9,0,0,1-3.234.846,4.988,4.988,0,0,1-1.029-3.9,1.916,1.916,0,0,1,3.249-.849,4.248,4.248,0,0,1,.919,1.841Zm-1,.259a4.172,4.172,0,0,0-.5-1.213q-.463-.7-1.055-.541t-.664.988a4,4,0,0,0,.154,1.312q.529,2.037,1.58,1.766.593-.156.654-.988a4.109,4.109,0,0,0-.171-1.324Z" transform="translate(-2265.169 -421.245)" fill="#cde0fb"/>
      <path id="Trazado_110809" data-name="Trazado 110809" d="M1976.693,437.13l-21.361,5.583a1.74,1.74,0,0,1-2.117-1.241h0a1.74,1.74,0,0,1,1.24-2.118l21.361-5.583a1.738,1.738,0,0,1,2.118,1.239h0A1.742,1.742,0,0,1,1976.693,437.13Z" transform="translate(-1946.697 -415.064)" fill="#cde0fb"/>
      <path id="Trazado_110810" data-name="Trazado 110810" d="M2327.724,395.817a2.648,2.648,0,0,0-.988-1.466.285.285,0,0,0-.417.087l-.073.128a.282.282,0,0,0,.073.366,1.946,1.946,0,0,1,.613,2.343.285.285,0,0,0,.115.356l.128.075a.284.284,0,0,0,.4-.128,2.651,2.651,0,0,0,.144-1.76Z" transform="translate(-2246.052 -383.431)" fill="#cde0fb"/>
      <path id="Trazado_110811" data-name="Trazado 110811" d="M2332.168,390.389a4.082,4.082,0,0,0-1.673-2.357.283.283,0,0,0-.4.1l-.041.073a.284.284,0,0,0,.089.377,3.438,3.438,0,0,1,1.146,4.382.285.285,0,0,0,.107.373l.071.043a.283.283,0,0,0,.4-.113A4.067,4.067,0,0,0,2332.168,390.389Z" transform="translate(-2249.111 -378.371)" fill="#cde0fb"/>
      <path id="Trazado_110812" data-name="Trazado 110812" d="M2336.043,385.641a5.331,5.331,0,0,0-2.263-3.133.284.284,0,0,0-.4.1h0a.28.28,0,0,0,.091.377,4.775,4.775,0,0,1,1.629,6.233.281.281,0,0,0,.1.373h0a.284.284,0,0,0,.4-.109A5.333,5.333,0,0,0,2336.043,385.641Z" transform="translate(-2251.78 -373.938)" fill="#cde0fb"/>
      <path id="Trazado_110813" data-name="Trazado 110813" d="M2339.846,380.515a6.688,6.688,0,0,0-2.9-3.967.285.285,0,0,0-.4.1l-.073.124a.283.283,0,0,0,.095.379,5.991,5.991,0,0,1,2.064,7.9.281.281,0,0,0,.1.375l.124.075a.285.285,0,0,0,.4-.111A6.685,6.685,0,0,0,2339.846,380.515Z" transform="translate(-2254.263 -369.156)" fill="#cde0fb"/>
    </g>
    <rect id="Rectángulo_28159" data-name="Rectángulo 28159" width="270.104" height="183.375" rx="33.78" transform="translate(155.592 121.5)" fill="#2b478b"/>
    <rect id="Rectángulo_28160" data-name="Rectángulo 28160" width="257.92" height="175.103" transform="translate(161.682 127.907)" fill="#dde7fe"/>
    <rect id="Rectángulo_28161" data-name="Rectángulo 28161" width="334.335" height="11.738" rx="5.869" transform="translate(123.474 297.747)" fill="#2b478b"/>
    <rect id="Rectángulo_28162" data-name="Rectángulo 28162" width="257.92" height="170.451" transform="translate(161.682 127.907)" fill="#aec3ff"/>
    <path id="Trazado_110814" data-name="Trazado 110814" d="M291.94,1448.073a12.934,12.934,0,0,1,.381-3.358c.381-.836,1.778-4.255,1.778-4.255h5.456a30.153,30.153,0,0,1,1.079,4.136c.063,1.019,0,3.481,0,3.481Z" transform="translate(-216.277 -1137.724)" fill="#233862"/>
    <path id="Trazado_110815" data-name="Trazado 110815" d="M431.888,1448.073a12.934,12.934,0,0,0-.381-3.358c-.381-.836-1.778-4.255-1.778-4.255h-5.454a30.161,30.161,0,0,0-1.079,4.136c-.063,1.019,0,3.481,0,3.481Z" transform="translate(-321.581 -1137.724)" fill="#233862"/>
    <path id="Trazado_110816" data-name="Trazado 110816" d="M328.307,750.092a46.3,46.3,0,0,1-.952,8.137L321.33,762.2l22.681,3.208-5.409-7.062s-1.634-7.534-.776-10.322S328.307,750.092,328.307,750.092Z" transform="translate(-239.861 -581.386)" fill="#ffb27d"/>
    <path id="Trazado_110817" data-name="Trazado 110817" d="M356.49,765.88s1.794,4.079,5.172,3.989,4.148-3.7,4.148-3.7Z" transform="translate(-268.075 -596.407)" fill="#ed985f"/>
    <path id="Trazado_110818" data-name="Trazado 110818" d="M337.073,683.215a49.18,49.18,0,0,0-1.853-6.7c-.763-1.569-1.395-8.51,7.043-8.87,0,0,3.236.36,5.012-.66,0,0,0,1.019-.445,1.383a5.828,5.828,0,0,1,5.2,1.738c2.284,2.4-1.523,10.788-1.331,12.768Z" transform="translate(-250.674 -517.044)" fill="#2c3a64"/>
    <path id="Trazado_110819" data-name="Trazado 110819" d="M352.464,715.467c-2.448-.039-6.954-3.119-6.954-6.934v-5.95a2.431,2.431,0,0,1,2.284-2.533h9.34a2.425,2.425,0,0,1,2.284,2.533V708.2C359.417,712.2,355.271,715.514,352.464,715.467Z" transform="translate(-259.264 -543.582)" fill="#ffb27d"/>
    <path id="Trazado_110820" data-name="Trazado 110820" d="M344.244,700.323s.012-3.576,3.011-4.125,9.707,1.742,10.658-.865-12.967-2.568-13.668-.9S344.244,700.323,344.244,700.323Z" transform="translate(-257.998 -538.136)" fill="#2c3a64"/>
    <path id="Trazado_110821" data-name="Trazado 110821" d="M290.917,1036.56s.954,27.542-.472,43.263.01,37.583.01,37.583a11.386,11.386,0,0,0,9.514,0s5.427-30.357,5.393-37.583c-.038-7.7,5.907-42.054,5.907-42.054Z" transform="translate(-214.571 -813.615)" fill="#2b478b"/>
    <path id="Trazado_110822" data-name="Trazado 110822" d="M381.8,1117.214a11.387,11.387,0,0,1-9.514,0s-5.427-30.359-5.391-37.584c.014-3.25-1.035-11.26-2.256-19.421-1.667-11.169-3.643-22.633-3.643-22.633l21.138-1.247s-1.744,27.588-.316,43.3S381.8,1117.214,381.8,1117.214Z" transform="translate(-271.694 -813.43)" fill="#2b478b"/>
    <path id="Trazado_110823" data-name="Trazado 110823" d="M325.333,853.835a111.837,111.837,0,0,1-17.234,1.647,87.953,87.953,0,0,1-10.585-.764c-3.429-.429-5.889-.883-5.889-.883s-1.827.15-.749-8.36c.822-6.478.565-12.325.381-18.342-.02-.67,0-1.46.037-2.341.352-7.015,2.6-19.644,4.309-20.322a32.814,32.814,0,0,1,7.041-1.33c0,.083,2.61,3.686,5.705,4.091a10.723,10.723,0,0,0,5.541-3.975,63.854,63.854,0,0,1,8.692,1.58s.324,1.339,1.547,24.549C324.606,838.584,327.928,853.865,325.333,853.835Z" transform="translate(-215.15 -626.306)" fill="#d9a171"/>
    <path id="Trazado_110824" data-name="Trazado 110824" d="M381.7,1137.76c.014-3.25-1.035-11.26-2.256-19.421a37.475,37.475,0,0,1,4.346-9.569C387.692,1119.11,381.7,1137.76,381.7,1137.76Z" transform="translate(-286.491 -871.559)" fill="#233862"/>
    <path id="Trazado_110825" data-name="Trazado 110825" d="M207.544,836.873c-.215.17.535,1.924,1.638,4.212,2.274,4.7,6.047,11.638,6.047,11.638a19.657,19.657,0,0,1-1.146,3.161,78.134,78.134,0,0,1-13.056-11.8c-3.674-4.324-4.427-6.806-4.427-6.806,14.139-27.189,24.087-28.19,24.087-28.19l-1.175,17.977S208.2,836.36,207.544,836.873Z" transform="translate(-139.771 -631.081)" fill="#d9a171"/>
    <path id="Trazado_110826" data-name="Trazado 110826" d="M285,1024.265s3.427-3,4.822-1.319,1.65,4.316.571,4.137-3.3-1.14-3.617-.66-1.738,1.4-2.173.667S285,1024.265,285,1024.265Z" transform="translate(-210.285 -802.279)" fill="#ffb27d"/>
    <path id="Trazado_110827" data-name="Trazado 110827" d="M233.242,982.7a19.658,19.658,0,0,1-1.146,3.161,78.119,78.119,0,0,1-13.056-11.8,16.854,16.854,0,0,0,8.155-3.009C229.469,975.75,233.242,982.7,233.242,982.7Z" transform="translate(-157.778 -761.046)" fill="#ffb27d"/>
    <path id="Trazado_110828" data-name="Trazado 110828" d="M471.409,838.436s-.755,2.481-4.427,6.806a78.471,78.471,0,0,1-13.058,11.8,19.883,19.883,0,0,1-1.146-3.161s3.775-6.938,6.047-11.638c1.1-2.288,1.855-4.042,1.64-4.212-.508-.4-7.42-6.073-10.5-8.6l-1.466-1.2-.705-17.7S457.27,811.247,471.409,838.436Z" transform="translate(-341.339 -632.228)" fill="#d9a171"/>
    <path id="Trazado_110829" data-name="Trazado 110829" d="M452.228,1024.265s-3.425-3-4.822-1.319-1.65,4.316-.571,4.137,3.3-1.14,3.617-.66,1.738,1.4,2.173.667S452.228,1024.265,452.228,1024.265Z" transform="translate(-340.036 -802.279)" fill="#ffb27d"/>
    <path id="Trazado_110830" data-name="Trazado 110830" d="M473,982.7a19.652,19.652,0,0,0,1.146,3.161,78.04,78.04,0,0,0,13.056-11.8,16.854,16.854,0,0,1-8.155-3.009C476.783,975.75,473,982.7,473,982.7Z" transform="translate(-361.569 -761.046)" fill="#ffb27d"/>
    <path id="Trazado_110831" data-name="Trazado 110831" d="M348.174,796.21a2.329,2.329,0,0,0-1.294,1.474s4.04,3.927,6.683,3.986Z" transform="translate(-260.363 -620.745)" fill="#2b478b"/>
    <path id="Trazado_110832" data-name="Trazado 110832" d="M380.71,800.86l5.215-5.66a2.307,2.307,0,0,1,1.061,1.778C386.986,796.97,382.952,801.01,380.71,800.86Z" transform="translate(-287.51 -619.935)" fill="#2b478b"/>
    <path id="Trazado_110833" data-name="Trazado 110833" d="M364.275,821.644s-3.979,32.459-2.594,36.414a26.346,26.346,0,0,0,2.428,5.03,1.452,1.452,0,0,0,2.442,0c1.057-1.732,2.438-4.241,2.438-5.514,0-2.062-3.02-35.954-3.02-35.954Z" transform="translate(-272.006 -641.135)" fill="#2b478b"/>
    <path id="Trazado_110834" data-name="Trazado 110834" d="M369.366,813.144a26.48,26.48,0,0,1,3.87-.089.381.381,0,0,1,.31.571c-.411.7-1.248,1.906-2.124,1.906C370.192,815.533,368.276,813.223,369.366,813.144Z" transform="translate(-278.148 -634.226)" fill="#2b478b"/>
    <path id="Trazado_110835" data-name="Trazado 110835" d="M370.84,758.062a2.724,2.724,0,0,0,2.094.94,2.523,2.523,0,0,0,1.958-.94A14.058,14.058,0,0,0,370.84,758.062Z" transform="translate(-279.59 -590.01)" fill="#fff"/>
    <rect id="Rectángulo_28163" data-name="Rectángulo 28163" width="166.804" height="177.632" transform="translate(222.446 108.039)" fill="#cfdeff"/>
    <rect id="Rectángulo_28164" data-name="Rectángulo 28164" width="31.88" height="2.062" rx="0.25" transform="translate(310.154 253.702)" fill="#2b478b"/>
    <rect id="Rectángulo_28165" data-name="Rectángulo 28165" width="39.778" height="2.062" rx="0.24" transform="translate(310.154 249.012)" fill="#2b478b"/>
    <rect id="Rectángulo_28166" data-name="Rectángulo 28166" width="137.865" height="96.998" transform="translate(236.914 138.035)" fill="#aec3ff"/>
    <rect id="Rectángulo_28167" data-name="Rectángulo 28167" width="0.221" height="102.472" transform="translate(269.243 132.561)" fill="#1f1f89"/>
    <rect id="Rectángulo_28168" data-name="Rectángulo 28168" width="0.221" height="102.472" transform="translate(355.574 132.561)" fill="#1f1f89"/>
    <rect id="Rectángulo_28169" data-name="Rectángulo 28169" width="0.221" height="102.472" transform="translate(283.903 132.561)" fill="#1f1f89"/>
    <rect id="Rectángulo_28170" data-name="Rectángulo 28170" width="137.865" height="0.221" transform="translate(236.914 216.885)" fill="#1f1f89"/>
    <rect id="Rectángulo_28171" data-name="Rectángulo 28171" width="137.865" height="0.221" transform="translate(236.914 196.585)" fill="#1f1f89"/>
    <rect id="Rectángulo_28172" data-name="Rectángulo 28172" width="137.865" height="0.221" transform="translate(236.914 176.285)" fill="#1f1f89"/>
    <rect id="Rectángulo_28173" data-name="Rectángulo 28173" width="137.865" height="0.221" transform="translate(236.914 155.984)" fill="#1f1f89"/>
    <rect id="Rectángulo_28174" data-name="Rectángulo 28174" width="137.865" height="19.684" transform="translate(236.914 120.495)" fill="#d9a171"/>
    <path id="Trazado_110836" data-name="Trazado 110836" d="M1682.173,1192.345a24.321,24.321,0,0,1-8.524,1.26c-3.633-.286-5.68-2.084-5.76-5.065a7.463,7.463,0,0,1,3.011-6.112c-.02-.162-.036-.324-.049-.486-.133-1.667.245-2.766,1.122-3.291,1.419-.836,3.526.308,3.615.356l-.472.762c-.472-.261-1.875-.831-2.651-.37-.67.4-.749,1.486-.692,2.371a20.387,20.387,0,0,1,6.462-2.73,36.376,36.376,0,0,1,6.088-.988,4.75,4.75,0,0,1,.053-.545c.063-.409.214-.887.64-.988a.718.718,0,0,1,.753.372,2.048,2.048,0,0,1,.286,1.071c.676-.014,1.3,0,1.861.036a.046.046,0,0,1,.016-.034,9.53,9.53,0,0,1,.144-3.07c.235-1.019.624-1.537,1.167-1.58a.719.719,0,0,1,.739.433c.3.691-.265,2.568-1.09,4.346.772.125,1.3.326,1.464.61a.632.632,0,0,1-.2.826,1.149,1.149,0,0,1-1.365.276,1.269,1.269,0,0,1-.5-.541,9.125,9.125,0,0,1-1.841,2.588.958.958,0,0,1-1.086.148.981.981,0,0,1-.235-.178,11.739,11.739,0,0,1-.711,1.383c-.976,1.62-2.076,2.452-3.18,2.4a1.854,1.854,0,0,1-1.185-.5,16.23,16.23,0,0,1-2.139,3.325,2.585,2.585,0,0,1-2.79.934c-1.812-.533-3.449-3.008-4.062-5.938a6.431,6.431,0,0,0-2.248,5.061c.069,2.542,1.721,3.951,4.905,4.208,8.042.632,22.141-6.428,23.21-11.624h0C1696.066,1185.328,1689.375,1190.14,1682.173,1192.345Zm-10.285-9.565c.49,3.092,2.13,5.363,3.521,5.774a1.617,1.617,0,0,0,1.778-.646,15.038,15.038,0,0,0,2.248-3.629,5.058,5.058,0,0,1-.395-1.152,7.841,7.841,0,0,1,0-3.376,24.44,24.44,0,0,0-4.4,1.446,14.57,14.57,0,0,0-2.75,1.582Zm8.584,1.446a1.071,1.071,0,0,0,.822.527c.705.03,1.557-.684,2.327-1.958a11.319,11.319,0,0,0,.962-2.054,8.213,8.213,0,0,1-.261-1.792c-1.035.079-2.163.212-3.325.409C1681.6,1180.472,1681.253,1182.353,1680.472,1184.226Zm5.085-3.469c.146.415.276.5.278.5a8.285,8.285,0,0,0,1.66-2.384c-.444-.016-.942-.018-1.488,0a10.253,10.253,0,0,1-.45,1.887Zm-5.478-1.132a6.384,6.384,0,0,0-.119,3.3C1680.429,1181.46,1680.524,1180.2,1680.079,1179.625Zm9.19-.563Zm-.138-4.524a5.14,5.14,0,0,0-.221.922A6.227,6.227,0,0,0,1689.131,1174.538Z" transform="translate(-1320.406 -923.349)" fill="#f77d48"/>
    <path id="Trazado_110837" data-name="Trazado 110837" d="M672.5,1127.988l-70.454-.439a5.687,5.687,0,0,1-5.652-5.729l.46-74.059a5.687,5.687,0,0,1,5.729-5.652l70.462.439a5.691,5.691,0,0,1,5.654,5.729l-.462,74.059a5.685,5.685,0,0,1-5.737,5.652Z" transform="translate(-460.582 -818.068)" fill="#5e6178"/>
    <path id="Trazado_110838" data-name="Trazado 110838" d="M691.931,1085.674l-67.506-.421a2.5,2.5,0,0,1-2.485-2.517l.053-8.572a2.5,2.5,0,0,1,2.527-2.485l67.506.421a2.5,2.5,0,0,1,2.485,2.515l-.053,8.571a2.5,2.5,0,0,1-2.527,2.487Z" transform="translate(-481.085 -841.796)" fill="#aec3ff"/>
    <path id="Trazado_110839" data-name="Trazado 110839" d="M714.818,1264.735l-5.78-.038a2.612,2.612,0,0,1-2.6-2.63l.036-5.78a2.614,2.614,0,0,1,2.631-2.6l5.778.036a2.615,2.615,0,0,1,2.6,2.631l-.037,5.778A2.614,2.614,0,0,1,714.818,1264.735Z" transform="translate(-548.893 -987.85)" fill="#eaccb2"/>
    <path id="Trazado_110840" data-name="Trazado 110840" d="M714.38,1333.119l-5.778-.035a2.616,2.616,0,0,1-2.6-2.635l.036-5.778a2.617,2.617,0,0,1,2.631-2.6l5.78.035a2.614,2.614,0,0,1,2.6,2.631l-.036,5.78a2.613,2.613,0,0,1-2.629,2.6Z" transform="translate(-548.539 -1042.722)" fill="#eaccb2"/>
    <path id="Trazado_110841" data-name="Trazado 110841" d="M713.968,1401.5l-5.78-.036a2.613,2.613,0,0,1-2.6-2.631l.036-5.781a2.614,2.614,0,0,1,2.631-2.6l5.778.036a2.617,2.617,0,0,1,2.6,2.639l-.037,5.78A2.614,2.614,0,0,1,713.968,1401.5Z" transform="translate(-548.21 -1097.601)" fill="#eaccb2"/>
    <path id="Trazado_110842" data-name="Trazado 110842" d="M788.458,1265.185l-5.778-.036a2.615,2.615,0,0,1-2.6-2.631l.037-5.778a2.614,2.614,0,0,1,2.629-2.6l5.78.038a2.612,2.612,0,0,1,2.6,2.629l-.036,5.781a2.613,2.613,0,0,1-2.633,2.6Z" transform="translate(-607.985 -988.211)" fill="#eaccb2"/>
    <path id="Trazado_110843" data-name="Trazado 110843" d="M788.038,1333.574l-5.78-.036a2.614,2.614,0,0,1-2.6-2.631l.035-5.78a2.613,2.613,0,0,1,2.631-2.6l5.778.036a2.615,2.615,0,0,1,2.6,2.625l-.036,5.781a2.614,2.614,0,0,1-2.631,2.6Z" transform="translate(-607.648 -1043.091)" fill="#eaccb2"/>
    <path id="Trazado_110844" data-name="Trazado 110844" d="M787.608,1401.965l-5.778-.038a2.613,2.613,0,0,1-2.6-2.629l.035-5.78a2.614,2.614,0,0,1,2.631-2.6l5.78.036a2.613,2.613,0,0,1,2.6,2.631l-.036,5.778A2.616,2.616,0,0,1,787.608,1401.965Z" transform="translate(-607.303 -1097.971)" fill="#eaccb2"/>
    <path id="Trazado_110845" data-name="Trazado 110845" d="M859.056,1334.039l-5.778-.036a2.614,2.614,0,0,1-2.6-2.631l.036-5.778a2.616,2.616,0,0,1,2.631-2.594l5.778.036a2.617,2.617,0,0,1,2.6,2.631l-.038,5.78A2.614,2.614,0,0,1,859.056,1334.039Z" transform="translate(-664.638 -1043.468)" fill="#2b478b"/>
    <path id="Trazado_110846" data-name="Trazado 110846" d="M858.628,1402.4l-5.78-.035a2.614,2.614,0,0,1-2.6-2.631l.036-5.78a2.614,2.614,0,0,1,2.631-2.6l5.78.036a2.614,2.614,0,0,1,2.6,2.631l-.036,5.779A2.616,2.616,0,0,1,858.628,1402.4Z" transform="translate(-664.293 -1098.324)" fill="#eaccb2"/>
    <path id="Trazado_110847" data-name="Trazado 110847" d="M644.968,1193.554l-5.78-.036a2.614,2.614,0,0,1-2.6-2.631l.02-3.427a2.618,2.618,0,0,1,2.629-2.6l5.78.036a2.614,2.614,0,0,1,2.6,2.631l-.02,3.428A2.618,2.618,0,0,1,644.968,1193.554Z" transform="translate(-492.841 -932.618)" fill="#d9a171"/>
    <path id="Trazado_110848" data-name="Trazado 110848" d="M644.508,1265.262l-5.78-.036a2.613,2.613,0,0,1-2.6-2.631l.022-3.427a2.614,2.614,0,0,1,2.631-2.6l5.778.036a2.616,2.616,0,0,1,2.606,2.631l-.022,3.427a2.614,2.614,0,0,1-2.637,2.6Z" transform="translate(-492.472 -990.161)" fill="#d9a171"/>
    <path id="Trazado_110849" data-name="Trazado 110849" d="M644.058,1336.964l-5.778-.036a2.617,2.617,0,0,1-2.6-2.631l.022-3.427a2.616,2.616,0,0,1,2.631-2.6l5.78.036a2.613,2.613,0,0,1,2.6,2.631l-.022,3.428A2.616,2.616,0,0,1,644.058,1336.964Z" transform="translate(-492.111 -1047.697)" fill="#d9a171"/>
    <path id="Trazado_110850" data-name="Trazado 110850" d="M643.618,1408.692l-5.78-.036a2.614,2.614,0,0,1-2.6-2.631l.022-3.428a2.614,2.614,0,0,1,2.631-2.6l5.778.036a2.615,2.615,0,0,1,2.6,2.631l-.022,3.427A2.613,2.613,0,0,1,643.618,1408.692Z" transform="translate(-491.758 -1105.257)" fill="#d9a171"/>
    <path id="Trazado_110851" data-name="Trazado 110851" d="M715.222,1196.32l-5.782-.041a2.618,2.618,0,0,1-2.6-2.631l.036-5.78a2.613,2.613,0,0,1,2.631-2.6l5.78.035a2.614,2.614,0,0,1,2.6,2.632l-.036,5.78a2.613,2.613,0,0,1-2.627,2.6Z" transform="translate(-549.213 -932.947)" fill="#d9a171"/>
    <path id="Trazado_110852" data-name="Trazado 110852" d="M788.888,1196.8l-5.78-.036a2.614,2.614,0,0,1-2.6-2.631l.035-5.781a2.614,2.614,0,0,1,2.629-2.6l5.78.036a2.614,2.614,0,0,1,2.6,2.631l-.035,5.778A2.617,2.617,0,0,1,788.888,1196.8Z" transform="translate(-608.33 -933.34)" fill="#d9a171"/>
    <path id="Trazado_110853" data-name="Trazado 110853" d="M859.908,1197.245l-5.78-.035a2.613,2.613,0,0,1-2.6-2.631l.036-5.78a2.613,2.613,0,0,1,2.625-2.6l5.778.035a2.618,2.618,0,0,1,2.6,2.631l-.038,5.778A2.613,2.613,0,0,1,859.908,1197.245Z" transform="translate(-665.32 -933.693)" fill="#d9a171"/>
    <path id="Trazado_110854" data-name="Trazado 110854" d="M926.218,1266.375l-5.78-.035a2.616,2.616,0,0,1-2.6-2.631l.036-5.78a2.614,2.614,0,0,1,2.631-2.6l5.78.036a2.614,2.614,0,0,1,2.6,2.632l-.036,5.78A2.616,2.616,0,0,1,926.218,1266.375Z" transform="translate(-718.531 -989.166)" fill="#f99746"/>
    <path id="Trazado_110855" data-name="Trazado 110855" d="M926.648,1197.985l-5.78-.035a2.614,2.614,0,0,1-2.6-2.632l.035-5.778a2.616,2.616,0,0,1,2.631-2.6l5.778.035a2.618,2.618,0,0,1,2.6,2.632l-.036,5.78a2.612,2.612,0,0,1-2.631,2.6Z" transform="translate(-718.876 -934.287)" fill="#d9a171"/>
    <path id="Trazado_110856" data-name="Trazado 110856" d="M925.376,1348.271l-5.78-.036a2.614,2.614,0,0,1-2.6-2.63l.121-19.289a2.613,2.613,0,0,1,2.631-2.6l5.778.036a2.615,2.615,0,0,1,2.6,2.631l-.12,19.289A2.614,2.614,0,0,1,925.376,1348.271Z" transform="translate(-717.857 -1044.046)" fill="#f99746"/>
    <path id="Trazado_110857" data-name="Trazado 110857" d="M741.738,1095.766l.012-1.851.269-.705a.569.569,0,0,1,.439.445l-.016,2.469-.178.174Zm.525.709.174.176-.014,2.469a.569.569,0,0,1-.445.439l-.259-.708V1097Z" transform="translate(-577.203 -859.073)" fill="#2b478b"/>
    <path id="Trazado_110858" data-name="Trazado 110858" d="M754.5,1094.183l-.012,1.675-.531.526-.176-.178.014-2.292Zm-.737,4.844.014-2.292.178-.176.525.531v1.675Zm3.082.636-2.645-.016a.569.569,0,0,1-.437-.444l.707-.259,2.116.012Zm-.229-5.644-2.108-.014-.7-.269a.567.567,0,0,1,.445-.437l2.635.016Zm.166,1.853.01-1.851.269-.705a.569.569,0,0,1,.439.444l-.016,2.469-.176.174Zm.524.707.176.178-.016,2.469a.565.565,0,0,1-.445.438l-.259-.707.012-1.851Z" transform="translate(-586.865 -859.146)" fill="#2b478b"/>
    <path id="Trazado_110859" data-name="Trazado 110859" d="M781.733,1094.343l-.01,1.677-.533.526-.176-.178.016-2.293Zm-.733,4.846.016-2.294.176-.174.527.531-.012,1.675Zm3.084.636-2.645-.016a.569.569,0,0,1-.439-.445l.707-.259,2.116.012Zm-.229-5.644-2.108-.014-.7-.269a.567.567,0,0,1,.443-.438l2.637.018Zm.164,1.853.012-1.853.269-.7a.569.569,0,0,1,.439.445l-.016,2.467-.178.176Zm.523.707.176.178-.016,2.469a.565.565,0,0,1-.443.439l-.261-.707.012-1.853Z" transform="translate(-608.723 -859.274)" fill="#2b478b"/>
    <path id="Trazado_110860" data-name="Trazado 110860" d="M808.937,1094.513v1.675l-.533.527-.174-.178.014-2.293Zm-.735,4.846.014-2.293.178-.174.525.531-.01,1.675Zm3.082.636-2.645-.016a.569.569,0,0,1-.439-.445l.707-.261,2.116.014Zm-.229-5.644-2.108-.014-.7-.269a.565.565,0,0,1,.445-.438l2.635.018Zm.164,1.853.012-1.853.269-.7a.569.569,0,0,1,.439.445l-.016,2.467-.178.176Zm.525.707.176.178-.016,2.469a.565.565,0,0,1-.445.437l-.259-.705.01-1.853Z" transform="translate(-630.55 -859.41)" fill="#2b478b"/>
    <path id="Trazado_110861" data-name="Trazado 110861" d="M836.143,1094.667l-.012,1.675-.531.526-.176-.176.014-2.293Zm-.737,4.846.016-2.294.176-.174.527.531-.012,1.675Zm3.076.632-2.643-.016a.569.569,0,0,1-.439-.444l.707-.261,2.116.014Zm-.229-5.644-2.106-.014-.705-.269a.569.569,0,0,1,.445-.438l2.635.018Zm.166,1.853.012-1.853.269-.7a.567.567,0,0,1,.437.445l-.014,2.467-.178.176Zm.523.707.176.178-.016,2.469a.565.565,0,0,1-.443.437l-.261-.705.012-1.853Z" transform="translate(-652.377 -859.531)" fill="#2b478b"/>
    <path id="Trazado_110862" data-name="Trazado 110862" d="M863.387,1094.877v1.675l-.533.526-.174-.176.014-2.293Zm-.735,4.851.014-2.293.178-.174.525.531v1.675Zm3.082.636-2.645-.018a.564.564,0,0,1-.439-.443l.707-.261,2.116.014Zm-.229-5.644-2.108-.014-.7-.269a.565.565,0,0,1,.442-.438l2.637.018Zm.164,1.853.012-1.853.269-.7a.567.567,0,0,1,.438.444l-.016,2.467-.178.176Zm.525.707.174.178-.014,2.469a.569.569,0,0,1-.445.436l-.261-.7.012-1.853Z" transform="translate(-674.244 -859.707)" fill="#2b478b"/>
    <path id="Trazado_110863" data-name="Trazado 110863" d="M890.607,1095.023l-.01,1.675-.531.526-.176-.178.014-2.292Zm-.735,4.846.014-2.293.178-.174.525.531v1.675Zm3.082.636-2.645-.018a.565.565,0,0,1-.439-.443l.707-.261,2.116.014Zm-.229-5.644-2.108-.014-.7-.269a.567.567,0,0,1,.445-.438l2.635.016Zm.164,1.851.012-1.851.269-.7a.566.566,0,0,1,.439.444l-.016,2.467-.176.176Zm.525.709.176.178-.016,2.467a.567.567,0,0,1-.444.438l-.259-.707.012-1.851Z" transform="translate(-696.086 -859.82)" fill="#2b478b"/>
    <path id="Trazado_110864" data-name="Trazado 110864" d="M917.837,1095.225l-.012,1.675-.531.526-.176-.178.016-2.292Zm-.737,4.846.016-2.294.176-.176.528.533-.012,1.675Zm3.082.636-2.643-.018a.565.565,0,0,1-.439-.443l.707-.261,2.116.014Zm-.229-5.636-2.106-.014-.7-.269a.565.565,0,0,1,.443-.438l2.635.016Zm.166,1.851.012-1.851.269-.7a.567.567,0,0,1,.439.443l-.016,2.469-.178.176Zm.524.709.176.178-.016,2.467a.565.565,0,0,1-.443.439l-.261-.707.012-1.851Z" transform="translate(-717.937 -859.988)" fill="#2b478b"/>
    <path id="Trazado_110865" data-name="Trazado 110865" d="M945.057,1095.413v1.675l-.533.525-.174-.178.014-2.292Zm-.735,4.844.014-2.292.178-.176.525.533-.01,1.675Zm3.082.638-2.645-.018a.565.565,0,0,1-.439-.443l.707-.261,2.116.014Zm-.229-5.646-2.108-.012-.7-.269a.565.565,0,0,1,.443-.438l2.637.016Zm.164,1.853.012-1.851.269-.7a.565.565,0,0,1,.439.443l-.016,2.469-.178.176Zm.525.709.174.178-.014,2.467a.569.569,0,0,1-.444.439l-.261-.707.012-1.851Z" transform="translate(-739.78 -860.133)" fill="#2b478b"/>
    <path id="Trazado_110866" data-name="Trazado 110866" d="M1104.025,1450.754v2.868a.988.988,0,0,1-.225.616,1.3,1.3,0,0,1-.618.413,1.351,1.351,0,0,1-.241.059,1.507,1.507,0,0,1-.231.016h-54.385a1.271,1.271,0,0,1-1.3-.938.671.671,0,0,1-.012-.111V1450.7a.649.649,0,0,1,.012-.109,1.273,1.273,0,0,1,1.3-.941h54.393a1.493,1.493,0,0,1,.231.018,1.36,1.36,0,0,1,.241.057,1.32,1.32,0,0,1,.618.413A.987.987,0,0,1,1104.025,1450.754Z" transform="translate(-822.184 -1145.099)" fill="#ffb93e"/>
    <path id="Trazado_110867" data-name="Trazado 110867" d="M1077.36,1454.726h-29.126a1.164,1.164,0,0,1-1.13-.818.627.627,0,0,1-.032-.12.711.711,0,0,1-.012-.111V1450.7a.666.666,0,0,1,.012-.109.7.7,0,0,1,.032-.122,1.167,1.167,0,0,1,1.13-.818h25.559A8.89,8.89,0,0,0,1077.36,1454.726Z" transform="translate(-822.224 -1145.098)" fill="#ffa412"/>
    <rect id="Rectángulo_28175" data-name="Rectángulo 28175" width="0.618" height="5.077" transform="translate(274.605 304.551)" fill="#ffa412"/>
    <rect id="Rectángulo_28176" data-name="Rectángulo 28176" width="0.618" height="5.077" transform="translate(272.513 304.551)" fill="#ffa412"/>
    <rect id="Rectángulo_28177" data-name="Rectángulo 28177" width="0.618" height="5.077" transform="translate(270.004 304.551)" fill="#ffa412"/>
    <rect id="Rectángulo_28178" data-name="Rectángulo 28178" width="0.618" height="5.077" transform="translate(266.158 304.551)" fill="#ffa412"/>
    <rect id="Rectángulo_28179" data-name="Rectángulo 28179" width="0.618" height="5.077" transform="translate(262.09 304.551)" fill="#ffa412"/>
    <rect id="Rectángulo_28180" data-name="Rectángulo 28180" width="0.618" height="5.077" transform="translate(255.855 304.551)" fill="#ffa412"/>
    <rect id="Rectángulo_28181" data-name="Rectángulo 28181" width="0.618" height="5.077" transform="translate(250.02 304.551)" fill="#ffa412"/>
    <rect id="Rectángulo_28182" data-name="Rectángulo 28182" width="0.618" height="5.077" transform="translate(244.807 304.551)" fill="#ffa412"/>
    <rect id="Rectángulo_28183" data-name="Rectángulo 28183" width="0.618" height="5.077" transform="translate(276.596 304.551)" fill="#ffa412"/>
    <rect id="Rectángulo_28184" data-name="Rectángulo 28184" width="0.618" height="5.077" transform="translate(277.912 304.551)" fill="#ffa412"/>
    <rect id="Rectángulo_28185" data-name="Rectángulo 28185" width="0.618" height="5.077" transform="translate(279.182 304.551)" fill="#ffa412"/>
    <path id="Trazado_110868" data-name="Trazado 110868" d="M1327.586,1449.668v5.042a1.482,1.482,0,0,1-.231.018h-.395v-5.077h.395A1.467,1.467,0,0,1,1327.586,1449.668Z" transform="translate(-1046.83 -1145.099)" fill="#ffa412"/>
    <path id="Trazado_110869" data-name="Trazado 110869" d="M1331.968,1450.4v4.1a1.324,1.324,0,0,1-.618.415v-4.939A1.3,1.3,0,0,1,1331.968,1450.4Z" transform="translate(-1050.353 -1145.364)" fill="#ffa412"/>
    <path id="Trazado_110870" data-name="Trazado 110870" d="M1074.59,1425.05v2.866a.988.988,0,0,1-.223.619,1.608,1.608,0,0,1-.124.13,1.373,1.373,0,0,1-.494.283,1.59,1.59,0,0,1-.241.055,1.527,1.527,0,0,1-.231.018h-54.387a1.272,1.272,0,0,1-1.3-.941.637.637,0,0,1-.012-.107.562.562,0,0,1,0-.057v-2.866a.5.5,0,0,1,0-.057.641.641,0,0,1,.012-.109,1.272,1.272,0,0,1,1.3-.94h54.387a.965.965,0,0,1,.1,0h.043a.256.256,0,0,1,.049,0h.036a1.391,1.391,0,0,1,.241.057,1.087,1.087,0,0,1,.132.051h0l.085.04.048.028.043.027a1.041,1.041,0,0,1,.16.117c.018.014.03.03.045.043l.028.024.014.016.012.012a.73.73,0,0,1,.049.057A.989.989,0,0,1,1074.59,1425.05Z" transform="translate(-798.564 -1124.47)" fill="#ffb93e"/>
    <path id="Trazado_110871" data-name="Trazado 110871" d="M1047.885,1429.026h-29.136a1.164,1.164,0,0,1-1.128-.82.638.638,0,0,1-.031-.12.672.672,0,0,1-.012-.107c0-.019,0-.038,0-.057v-2.866a.562.562,0,0,1,0-.057.666.666,0,0,1,.012-.109.637.637,0,0,1,.031-.12,1.164,1.164,0,0,1,1.128-.82h25.559a.452.452,0,0,0,.035.126A8.892,8.892,0,0,0,1047.885,1429.026Z" transform="translate(-798.564 -1124.475)" fill="#ffa412"/>
    <rect id="Rectángulo_28186" data-name="Rectángulo 28186" width="0.618" height="5.077" transform="translate(268.791 299.474)" fill="#ffa412"/>
    <rect id="Rectángulo_28187" data-name="Rectángulo 28187" width="0.618" height="5.077" transform="translate(266.699 299.474)" fill="#ffa412"/>
    <rect id="Rectángulo_28188" data-name="Rectángulo 28188" width="0.618" height="5.077" transform="translate(264.188 299.474)" fill="#ffa412"/>
    <rect id="Rectángulo_28189" data-name="Rectángulo 28189" width="0.618" height="5.077" transform="translate(260.344 299.474)" fill="#ffa412"/>
    <rect id="Rectángulo_28190" data-name="Rectángulo 28190" width="0.618" height="5.077" transform="translate(256.276 299.474)" fill="#ffa412"/>
    <rect id="Rectángulo_28191" data-name="Rectángulo 28191" width="0.618" height="5.077" transform="translate(250.042 299.474)" fill="#ffa412"/>
    <rect id="Rectángulo_28192" data-name="Rectángulo 28192" width="0.618" height="5.077" transform="translate(244.204 299.474)" fill="#ffa412"/>
    <rect id="Rectángulo_28193" data-name="Rectángulo 28193" width="0.618" height="5.077" transform="translate(238.991 299.474)" fill="#ffa412"/>
    <rect id="Rectángulo_28194" data-name="Rectángulo 28194" width="0.618" height="5.077" transform="translate(270.782 299.474)" fill="#ffa412"/>
    <rect id="Rectángulo_28195" data-name="Rectángulo 28195" width="0.618" height="5.077" transform="translate(272.098 299.474)" fill="#ffa412"/>
    <rect id="Rectángulo_28196" data-name="Rectángulo 28196" width="0.618" height="5.077" transform="translate(273.368 299.474)" fill="#ffa412"/>
    <path id="Trazado_110872" data-name="Trazado 110872" d="M1298.148,1423.982v5.042a1.518,1.518,0,0,1-.233.018h-.4v-5.059h.4a1.55,1.55,0,0,1,.233,0Z" transform="translate(-1023.206 -1124.498)" fill="#ffa412"/>
    <path id="Trazado_110873" data-name="Trazado 110873" d="M1302.5,1424.743v4.1a1.309,1.309,0,0,1-.616.413v-4.927A1.309,1.309,0,0,1,1302.5,1424.743Z" transform="translate(-1026.704 -1124.781)" fill="#ffa412"/>
    <path id="Trazado_110874" data-name="Trazado 110874" d="M1088.865,1399.994v2.868a.973.973,0,0,1-.227.617,1.3,1.3,0,0,1-.616.413,1.6,1.6,0,0,1-.241.057,1.766,1.766,0,0,1-.231.018h-54.385a1.528,1.528,0,0,1-.607-.126,1.15,1.15,0,0,1-.693-.8.43.43,0,0,1,0-.071.373.373,0,0,1,0-.05c0-.018,0-.037,0-.056v-2.868a.5.5,0,0,1,0-.057.894.894,0,0,1,.012-.107,1.272,1.272,0,0,1,1.3-.94h54.385a1.265,1.265,0,0,1,.231.018,1.212,1.212,0,0,1,.241.055,1.308,1.308,0,0,1,.616.415A.968.968,0,0,1,1088.865,1399.994Z" transform="translate(-810.029 -1104.366)" fill="#ffb93e"/>
    <path id="Trazado_110875" data-name="Trazado 110875" d="M1062.158,1403.966h-29.136a1.233,1.233,0,0,1-.539-.127,1.116,1.116,0,0,1-.618-.8.43.43,0,0,1,0-.071.369.369,0,0,1,0-.049c0-.018,0-.037,0-.055v-2.868a.5.5,0,0,1,0-.057.894.894,0,0,1,.012-.107.844.844,0,0,1,.032-.118,1.16,1.16,0,0,1,1.128-.822h25.559a8.906,8.906,0,0,0,3.4,4.951A1.323,1.323,0,0,0,1062.158,1403.966Z" transform="translate(-810.029 -1104.366)" fill="#ffa412"/>
    <rect id="Rectángulo_28197" data-name="Rectángulo 28197" width="0.618" height="5.077" transform="translate(271.6 294.523)" fill="#ffa412"/>
    <rect id="Rectángulo_28198" data-name="Rectángulo 28198" width="0.618" height="5.077" transform="translate(269.508 294.523)" fill="#ffa412"/>
    <rect id="Rectángulo_28199" data-name="Rectángulo 28199" width="0.618" height="5.077" transform="translate(266.999 294.523)" fill="#ffa412"/>
    <rect id="Rectángulo_28200" data-name="Rectángulo 28200" width="0.618" height="5.077" transform="translate(263.153 294.523)" fill="#ffa412"/>
    <rect id="Rectángulo_28201" data-name="Rectángulo 28201" width="0.618" height="5.077" transform="translate(259.085 294.523)" fill="#ffa412"/>
    <rect id="Rectángulo_28202" data-name="Rectángulo 28202" width="0.618" height="5.077" transform="translate(252.851 294.523)" fill="#ffa412"/>
    <rect id="Rectángulo_28203" data-name="Rectángulo 28203" width="0.618" height="5.077" transform="translate(247.013 294.523)" fill="#ffa412"/>
    <rect id="Rectángulo_28204" data-name="Rectángulo 28204" width="0.618" height="5.077" transform="translate(241.802 294.523)" fill="#ffa412"/>
    <rect id="Rectángulo_28205" data-name="Rectángulo 28205" width="0.618" height="5.077" transform="translate(273.591 294.523)" fill="#ffa412"/>
    <rect id="Rectángulo_28206" data-name="Rectángulo 28206" width="0.618" height="5.077" transform="translate(274.907 294.523)" fill="#ffa412"/>
    <rect id="Rectángulo_28207" data-name="Rectángulo 28207" width="0.618" height="5.077" transform="translate(276.177 294.523)" fill="#ffa412"/>
    <path id="Trazado_110876" data-name="Trazado 110876" d="M1312.376,1398.936v5.043a1.789,1.789,0,0,1-.231.018h-.4v-5.077h.4A1.787,1.787,0,0,1,1312.376,1398.936Z" transform="translate(-1034.625 -1104.391)" fill="#ffa412"/>
    <path id="Trazado_110877" data-name="Trazado 110877" d="M1316.758,1399.633v4.1a1.307,1.307,0,0,1-.618.415v-4.939a1.333,1.333,0,0,1,.618.423Z" transform="translate(-1038.147 -1104.623)" fill="#ffa412"/>
    <path id="Trazado_110878" data-name="Trazado 110878" d="M1095.373,1374.293v2.866a.976.976,0,0,1-.225.616c-.018.024-.04.046-.059.069a1.313,1.313,0,0,1-.375.273,1.458,1.458,0,0,1-.182.073,1.375,1.375,0,0,1-.241.055.971.971,0,0,1-.115.014h-54.512a1.274,1.274,0,0,1-1.3-.942.971.971,0,0,1-.012-.107v-2.981a1.2,1.2,0,0,1,1.158-1.039,1.381,1.381,0,0,1,.156,0h54.5a1.062,1.062,0,0,1,.115.014,1.447,1.447,0,0,1,.241.055,1.323,1.323,0,0,1,.616.413.987.987,0,0,1,.233.62Z" transform="translate(-815.234 -1083.743)" fill="#ffb93e"/>
    <path id="Trazado_110879" data-name="Trazado 110879" d="M1068.7,1378.29h-29.136a1.166,1.166,0,0,1-1.13-.82.878.878,0,0,1-.032-.123,1.04,1.04,0,0,1-.012-.106v-2.981a1.14,1.14,0,0,1,1.035-1.039,1.048,1.048,0,0,1,.138,0h25.559A8.9,8.9,0,0,0,1068.7,1378.29Z" transform="translate(-815.266 -1083.766)" fill="#ffa412"/>
    <rect id="Rectángulo_28208" data-name="Rectángulo 28208" width="0.618" height="5.077" transform="translate(272.902 289.444)" fill="#ffa412"/>
    <rect id="Rectángulo_28209" data-name="Rectángulo 28209" width="0.618" height="5.077" transform="translate(270.81 289.444)" fill="#ffa412"/>
    <rect id="Rectángulo_28210" data-name="Rectángulo 28210" width="0.618" height="5.077" transform="translate(268.301 289.444)" fill="#ffa412"/>
    <rect id="Rectángulo_28211" data-name="Rectángulo 28211" width="0.618" height="5.077" transform="translate(264.457 289.444)" fill="#ffa412"/>
    <rect id="Rectángulo_28212" data-name="Rectángulo 28212" width="0.618" height="5.077" transform="translate(260.389 289.444)" fill="#ffa412"/>
    <rect id="Rectángulo_28213" data-name="Rectángulo 28213" width="0.618" height="5.077" transform="translate(254.155 289.444)" fill="#ffa412"/>
    <rect id="Rectángulo_28214" data-name="Rectángulo 28214" width="0.618" height="5.077" transform="translate(248.317 289.444)" fill="#ffa412"/>
    <rect id="Rectángulo_28215" data-name="Rectángulo 28215" width="0.618" height="5.077" transform="translate(243.104 289.444)" fill="#ffa412"/>
    <rect id="Rectángulo_28216" data-name="Rectángulo 28216" width="0.618" height="5.077" transform="translate(274.895 289.444)" fill="#ffa412"/>
    <rect id="Rectángulo_28217" data-name="Rectángulo 28217" width="0.618" height="5.077" transform="translate(276.211 289.444)" fill="#ffa412"/>
    <rect id="Rectángulo_28218" data-name="Rectángulo 28218" width="0.618" height="5.077" transform="translate(277.481 289.444)" fill="#ffa412"/>
    <path id="Trazado_110880" data-name="Trazado 110880" d="M1319.008,1373.2v5.042a1.554,1.554,0,0,1-.233.018h-.385v-5.077h.385A1.554,1.554,0,0,1,1319.008,1373.2Z" transform="translate(-1039.953 -1083.736)" fill="#ffa412"/>
    <path id="Trazado_110881" data-name="Trazado 110881" d="M1323.348,1373.933v4.1a1.32,1.32,0,0,1-.618.415v-4.939A1.32,1.32,0,0,1,1323.348,1373.933Z" transform="translate(-1043.435 -1084)" fill="#ffa412"/>
    <path id="Trazado_110882" data-name="Trazado 110882" d="M1075.162,1348.572v2.866a.968.968,0,0,1-.225.616,1.3,1.3,0,0,1-.618.415,1.37,1.37,0,0,1-.239.055.347.347,0,0,1-.077,0h-54.539a1.245,1.245,0,0,1-1.316-1.049.5.5,0,0,1,0-.057v-2.867a.5.5,0,0,1,0-.057.312.312,0,0,1,0-.045,1.185,1.185,0,0,1,.988-.968h.038a1.523,1.523,0,0,1,.286-.028h54.387a1.1,1.1,0,0,1,.118,0h.109a1.369,1.369,0,0,1,.239.055,1.286,1.286,0,0,1,.618.415A.964.964,0,0,1,1075.162,1348.572Z" transform="translate(-799.022 -1063.09)" fill="#ffb93e"/>
    <path id="Trazado_110883" data-name="Trazado 110883" d="M1048.457,1352.6h-29.134a1.152,1.152,0,0,1-1.175-1.049.5.5,0,0,1,0-.057v-2.866a.5.5,0,0,1,0-.057.315.315,0,0,1,0-.046,1.132,1.132,0,0,1,.913-.974.143.143,0,0,1,.049-.01,1.171,1.171,0,0,1,.209-.02h25.555l.012.037a8.887,8.887,0,0,0,3.556,5.031A.1.1,0,0,1,1048.457,1352.6Z" transform="translate(-799.022 -1063.145)" fill="#ffa412"/>
    <rect id="Rectángulo_28219" data-name="Rectángulo 28219" width="0.618" height="5.077" transform="translate(268.906 284.375)" fill="#ffa412"/>
    <rect id="Rectángulo_28220" data-name="Rectángulo 28220" width="0.618" height="5.077" transform="translate(266.811 284.375)" fill="#ffa412"/>
    <rect id="Rectángulo_28221" data-name="Rectángulo 28221" width="0.618" height="5.077" transform="translate(264.303 284.375)" fill="#ffa412"/>
    <rect id="Rectángulo_28222" data-name="Rectángulo 28222" width="0.618" height="5.077" transform="translate(260.458 284.375)" fill="#ffa412"/>
    <rect id="Rectángulo_28223" data-name="Rectángulo 28223" width="0.618" height="5.077" transform="translate(256.391 284.375)" fill="#ffa412"/>
    <rect id="Rectángulo_28224" data-name="Rectángulo 28224" width="0.618" height="5.077" transform="translate(250.156 284.375)" fill="#ffa412"/>
    <rect id="Rectángulo_28225" data-name="Rectángulo 28225" width="0.618" height="5.077" transform="translate(244.319 284.375)" fill="#ffa412"/>
    <rect id="Rectángulo_28226" data-name="Rectángulo 28226" width="0.618" height="5.077" transform="translate(239.105 284.375)" fill="#ffa412"/>
    <rect id="Rectángulo_28227" data-name="Rectángulo 28227" width="0.618" height="5.077" transform="translate(270.897 284.375)" fill="#ffa412"/>
    <rect id="Rectángulo_28228" data-name="Rectángulo 28228" width="0.618" height="5.077" transform="translate(272.212 284.375)" fill="#ffa412"/>
    <rect id="Rectángulo_28229" data-name="Rectángulo 28229" width="0.618" height="5.077" transform="translate(273.483 284.375)" fill="#ffa412"/>
    <path id="Trazado_110884" data-name="Trazado 110884" d="M1298.768,1347.538v5.042a1.554,1.554,0,0,1-.233.018h-.385v-5.077h.385A1.523,1.523,0,0,1,1298.768,1347.538Z" transform="translate(-1023.711 -1063.145)" fill="#ffa412"/>
    <path id="Trazado_110885" data-name="Trazado 110885" d="M1303.116,1348.315v4.1a1.326,1.326,0,0,1-.616.415V1347.9A1.308,1.308,0,0,1,1303.116,1348.315Z" transform="translate(-1027.202 -1063.45)" fill="#ffa412"/>
    <path id="Trazado_110886" data-name="Trazado 110886" d="M1074.624,1323.114v2.866a.987.987,0,0,1-.223.617,1.275,1.275,0,0,1-.125.132,1.365,1.365,0,0,1-.494.283,1.618,1.618,0,0,1-.2.047h-.047a1.5,1.5,0,0,1-.231.018h-54.383a1.646,1.646,0,0,1-.17,0h-.063a1.22,1.22,0,0,1-1.069-.934.537.537,0,0,1,0-.1.562.562,0,0,1,0-.057v-2.874a.56.56,0,0,1,0-.057.655.655,0,0,1,.012-.107,1.272,1.272,0,0,1,1.3-.94h54.608a1.376,1.376,0,0,1,.241.055l.132.051h0a1.33,1.33,0,0,1,.435.306l.05.055A.988.988,0,0,1,1074.624,1323.114Z" transform="translate(-798.599 -1042.674)" fill="#ffb93e"/>
    <path id="Trazado_110887" data-name="Trazado 110887" d="M1047.919,1327.086h-29.279a1.149,1.149,0,0,1-1.019-.944.533.533,0,0,1,0-.1.557.557,0,0,1,0-.057v-2.875a.562.562,0,0,1,0-.057.647.647,0,0,1,.012-.106.635.635,0,0,1,.032-.121,1.164,1.164,0,0,1,1.128-.82h25.559c.01.042.022.084.036.125a8.889,8.889,0,0,0,3.489,4.915Z" transform="translate(-798.599 -1042.673)" fill="#ffa412"/>
    <rect id="Rectángulo_28230" data-name="Rectángulo 28230" width="0.618" height="5.077" transform="translate(268.791 279.336)" fill="#ffa412"/>
    <rect id="Rectángulo_28231" data-name="Rectángulo 28231" width="0.618" height="5.077" transform="translate(266.699 279.336)" fill="#ffa412"/>
    <rect id="Rectángulo_28232" data-name="Rectángulo 28232" width="0.618" height="5.077" transform="translate(264.188 279.336)" fill="#ffa412"/>
    <rect id="Rectángulo_28233" data-name="Rectángulo 28233" width="0.618" height="5.077" transform="translate(260.344 279.336)" fill="#ffa412"/>
    <rect id="Rectángulo_28234" data-name="Rectángulo 28234" width="0.618" height="5.077" transform="translate(256.276 279.336)" fill="#ffa412"/>
    <rect id="Rectángulo_28235" data-name="Rectángulo 28235" width="0.618" height="5.077" transform="translate(250.042 279.336)" fill="#ffa412"/>
    <rect id="Rectángulo_28236" data-name="Rectángulo 28236" width="0.618" height="5.077" transform="translate(244.204 279.336)" fill="#ffa412"/>
    <rect id="Rectángulo_28237" data-name="Rectángulo 28237" width="0.618" height="5.077" transform="translate(238.991 279.336)" fill="#ffa412"/>
    <rect id="Rectángulo_28238" data-name="Rectángulo 28238" width="0.618" height="5.077" transform="translate(270.782 279.336)" fill="#ffa412"/>
    <rect id="Rectángulo_28239" data-name="Rectángulo 28239" width="0.618" height="5.077" transform="translate(272.098 279.336)" fill="#ffa412"/>
    <rect id="Rectángulo_28240" data-name="Rectángulo 28240" width="0.618" height="5.077" transform="translate(273.368 279.336)" fill="#ffa412"/>
    <path id="Trazado_110888" data-name="Trazado 110888" d="M1298.148,1322.02v5.041a1.5,1.5,0,0,1-.233.018h-.4V1322h.4A1.49,1.49,0,0,1,1298.148,1322.02Z" transform="translate(-1023.206 -1042.666)" fill="#ffa412"/>
    <path id="Trazado_110889" data-name="Trazado 110889" d="M1302.5,1322.8v4.1a1.311,1.311,0,0,1-.616.413v-4.929A1.326,1.326,0,0,1,1302.5,1322.8Z" transform="translate(-1026.704 -1042.971)" fill="#ffa412"/>
    <path id="Trazado_110890" data-name="Trazado 110890" d="M1088.865,1298.012v2.858a.97.97,0,0,1-.227.618,1.29,1.29,0,0,1-.616.413,1.384,1.384,0,0,1-.241.057,1.5,1.5,0,0,1-.231.018h-54.385a1.532,1.532,0,0,1-.607-.125,1.15,1.15,0,0,1-.693-.8.455.455,0,0,1,0-.073.341.341,0,0,1,0-.047.534.534,0,0,1,0-.059v-2.924a1.044,1.044,0,0,1,.012-.107,1.274,1.274,0,0,1,1.3-.94h54.385a1.465,1.465,0,0,1,.231.018,1.6,1.6,0,0,1,.241.055,1.308,1.308,0,0,1,.616.415A.969.969,0,0,1,1088.865,1298.012Z" transform="translate(-810.029 -1022.525)" fill="#ffb93e"/>
    <path id="Trazado_110891" data-name="Trazado 110891" d="M1062.158,1302.016h-29.136a1.226,1.226,0,0,1-.539-.124,1.117,1.117,0,0,1-.618-.8.455.455,0,0,1,0-.073.342.342,0,0,1,0-.047.532.532,0,0,1,0-.059v-2.924a1.048,1.048,0,0,1,.012-.107.867.867,0,0,1,.032-.118,1.161,1.161,0,0,1,1.128-.822h25.559a8.909,8.909,0,0,0,3.4,4.952Z" transform="translate(-810.029 -1022.556)" fill="#ffa412"/>
    <rect id="Rectángulo_28241" data-name="Rectángulo 28241" width="0.618" height="5.077" transform="translate(271.6 274.383)" fill="#ffa412"/>
    <rect id="Rectángulo_28242" data-name="Rectángulo 28242" width="0.618" height="5.077" transform="translate(269.508 274.383)" fill="#ffa412"/>
    <rect id="Rectángulo_28243" data-name="Rectángulo 28243" width="0.618" height="5.077" transform="translate(266.999 274.383)" fill="#ffa412"/>
    <rect id="Rectángulo_28244" data-name="Rectángulo 28244" width="0.618" height="5.077" transform="translate(263.153 274.383)" fill="#ffa412"/>
    <rect id="Rectángulo_28245" data-name="Rectángulo 28245" width="0.618" height="5.077" transform="translate(259.085 274.383)" fill="#ffa412"/>
    <rect id="Rectángulo_28246" data-name="Rectángulo 28246" width="0.618" height="5.077" transform="translate(252.851 274.383)" fill="#ffa412"/>
    <rect id="Rectángulo_28247" data-name="Rectángulo 28247" width="0.618" height="5.077" transform="translate(247.013 274.383)" fill="#ffa412"/>
    <rect id="Rectángulo_28248" data-name="Rectángulo 28248" width="0.618" height="5.077" transform="translate(241.802 274.383)" fill="#ffa412"/>
    <rect id="Rectángulo_28249" data-name="Rectángulo 28249" width="0.618" height="5.077" transform="translate(273.591 274.383)" fill="#ffa412"/>
    <rect id="Rectángulo_28250" data-name="Rectángulo 28250" width="0.618" height="5.077" transform="translate(274.907 274.383)" fill="#ffa412"/>
    <rect id="Rectángulo_28251" data-name="Rectángulo 28251" width="0.618" height="5.077" transform="translate(276.177 274.383)" fill="#ffa412"/>
    <path id="Trazado_110892" data-name="Trazado 110892" d="M1312.376,1296.928v5.042a1.5,1.5,0,0,1-.231.018h-.4v-5.077h.4A1.5,1.5,0,0,1,1312.376,1296.928Z" transform="translate(-1034.625 -1022.533)" fill="#ffa412"/>
    <path id="Trazado_110893" data-name="Trazado 110893" d="M1316.758,1297.733v4.1a1.3,1.3,0,0,1-.618.413v-4.927A1.3,1.3,0,0,1,1316.758,1297.733Z" transform="translate(-1038.147 -1022.862)" fill="#ffa412"/>
    <path id="Trazado_110894" data-name="Trazado 110894" d="M1111.35,1272.4v2.869a.989.989,0,0,1-.223.615h0c-.018.024-.04.045-.059.067a1.174,1.174,0,0,1-.29.237,1.315,1.315,0,0,1-.174.085h0a.916.916,0,0,1-.091.036,1.584,1.584,0,0,1-.241.055,1.5,1.5,0,0,1-.231.018h-54.379a1.274,1.274,0,0,1-1.3-.941.657.657,0,0,1-.012-.109.52.52,0,0,1,0-.055v-2.869a.52.52,0,0,1,0-.055,1.2,1.2,0,0,1,1.158-1.041,1.234,1.234,0,0,1,.156,0h54.385a1.482,1.482,0,0,1,.231.018,1.38,1.38,0,0,1,.241.057,1.336,1.336,0,0,1,.557.344c.02.023.041.045.059.069h0A.987.987,0,0,1,1111.35,1272.4Z" transform="translate(-828.07 -1001.989)" fill="#ffb93e"/>
    <path id="Trazado_110895" data-name="Trazado 110895" d="M1084.6,1276.34h-29.136a1.163,1.163,0,0,1-1.13-.822c-.012-.039-.022-.079-.03-.118a.627.627,0,0,1-.012-.109.527.527,0,0,1,0-.056v-2.868a.522.522,0,0,1,0-.055,1.14,1.14,0,0,1,1.033-1.041,1.046,1.046,0,0,1,.138,0h25.559A8.9,8.9,0,0,0,1084.6,1276.34Z" transform="translate(-828.03 -1001.956)" fill="#ffa412"/>
    <rect id="Rectángulo_28252" data-name="Rectángulo 28252" width="0.618" height="5.077" transform="translate(276.045 269.306)" fill="#ffa412"/>
    <rect id="Rectángulo_28253" data-name="Rectángulo 28253" width="0.618" height="5.077" transform="translate(273.953 269.306)" fill="#ffa412"/>
    <rect id="Rectángulo_28254" data-name="Rectángulo 28254" width="0.618" height="5.077" transform="translate(271.444 269.306)" fill="#ffa412"/>
    <rect id="Rectángulo_28255" data-name="Rectángulo 28255" width="0.618" height="5.077" transform="translate(267.598 269.306)" fill="#ffa412"/>
    <rect id="Rectángulo_28256" data-name="Rectángulo 28256" width="0.618" height="5.077" transform="translate(263.53 269.306)" fill="#ffa412"/>
    <rect id="Rectángulo_28257" data-name="Rectángulo 28257" width="0.618" height="5.077" transform="translate(257.296 269.306)" fill="#ffa412"/>
    <rect id="Rectángulo_28258" data-name="Rectángulo 28258" width="0.618" height="5.077" transform="translate(251.458 269.306)" fill="#ffa412"/>
    <rect id="Rectángulo_28259" data-name="Rectángulo 28259" width="0.618" height="5.077" transform="translate(246.247 269.306)" fill="#ffa412"/>
    <rect id="Rectángulo_28260" data-name="Rectángulo 28260" width="0.618" height="5.077" transform="translate(278.036 269.306)" fill="#ffa412"/>
    <rect id="Rectángulo_28261" data-name="Rectángulo 28261" width="0.618" height="5.077" transform="translate(279.352 269.306)" fill="#ffa412"/>
    <rect id="Rectángulo_28262" data-name="Rectángulo 28262" width="0.618" height="5.077" transform="translate(280.622 269.306)" fill="#ffa412"/>
    <path id="Trazado_110896" data-name="Trazado 110896" d="M1334.876,1271.258v5.041a1.463,1.463,0,0,1-.231.018h-.4v-5.077h.4A1.463,1.463,0,0,1,1334.876,1271.258Z" transform="translate(-1052.68 -1001.934)" fill="#ffa412"/>
    <path id="Trazado_110897" data-name="Trazado 110897" d="M1339.258,1272.033v4.1a1.3,1.3,0,0,1-.619.413v-4.927A1.3,1.3,0,0,1,1339.258,1272.033Z" transform="translate(-1056.202 -1002.239)" fill="#ffa412"/>
    <path id="Trazado_110898" data-name="Trazado 110898" d="M1075.153,1246.614v2.864a.968.968,0,0,1-.225.619,1.3,1.3,0,0,1-.619.413,1.359,1.359,0,0,1-.239.057h-.087a.361.361,0,0,1-.051,0h-54.478a1.383,1.383,0,0,1-1.12-.526.988.988,0,0,1-.2-.522V1246.6a.561.561,0,0,1,0-.059,1.168,1.168,0,0,1,.932-1,1.44,1.44,0,0,1,.383-.049h54.488a.4.4,0,0,1,.128.014,1.381,1.381,0,0,1,.239.057.722.722,0,0,1,.113.042h0a1.3,1.3,0,0,1,.381.239h0l.016.014a.929.929,0,0,1,.1.111A.97.97,0,0,1,1075.153,1246.614Z" transform="translate(-799.014 -981.27)" fill="#ffb93e"/>
    <path id="Trazado_110899" data-name="Trazado 110899" d="M1048.417,1250.657h-29.135a1.2,1.2,0,0,1-.988-.5,1.056,1.056,0,0,1-.2-.547v-2.924a.532.532,0,0,1,0-.059,1.134,1.134,0,0,1,.936-1.023,1.181,1.181,0,0,1,.239-.023h25.555l.035.117a8.874,8.874,0,0,0,3.532,4.952Z" transform="translate(-798.981 -981.343)" fill="#ffa412"/>
    <rect id="Rectángulo_28263" data-name="Rectángulo 28263" width="0.618" height="5.077" transform="translate(268.906 264.237)" fill="#ffa412"/>
    <rect id="Rectángulo_28264" data-name="Rectángulo 28264" width="0.618" height="5.077" transform="translate(266.811 264.237)" fill="#ffa412"/>
    <rect id="Rectángulo_28265" data-name="Rectángulo 28265" width="0.618" height="5.077" transform="translate(264.303 264.237)" fill="#ffa412"/>
    <rect id="Rectángulo_28266" data-name="Rectángulo 28266" width="0.618" height="5.077" transform="translate(260.458 264.237)" fill="#ffa412"/>
    <rect id="Rectángulo_28267" data-name="Rectángulo 28267" width="0.618" height="5.077" transform="translate(256.391 264.237)" fill="#ffa412"/>
    <rect id="Rectángulo_28268" data-name="Rectángulo 28268" width="0.618" height="5.077" transform="translate(250.156 264.237)" fill="#ffa412"/>
    <rect id="Rectángulo_28269" data-name="Rectángulo 28269" width="0.618" height="5.077" transform="translate(244.319 264.237)" fill="#ffa412"/>
    <rect id="Rectángulo_28270" data-name="Rectángulo 28270" width="0.618" height="5.077" transform="translate(239.105 264.237)" fill="#ffa412"/>
    <rect id="Rectángulo_28271" data-name="Rectángulo 28271" width="0.618" height="5.077" transform="translate(270.897 264.237)" fill="#ffa412"/>
    <rect id="Rectángulo_28272" data-name="Rectángulo 28272" width="0.618" height="5.077" transform="translate(272.212 264.237)" fill="#ffa412"/>
    <rect id="Rectángulo_28273" data-name="Rectángulo 28273" width="0.618" height="5.077" transform="translate(273.483 264.237)" fill="#ffa412"/>
    <path id="Trazado_110900" data-name="Trazado 110900" d="M1298.768,1245.6v5.042a1.539,1.539,0,0,1-.233.018h-.385v-5.077h.385a1.518,1.518,0,0,1,.233.018Z" transform="translate(-1023.711 -981.343)" fill="#ffa412"/>
    <path id="Trazado_110901" data-name="Trazado 110901" d="M1303.116,1246.405v4.1a1.307,1.307,0,0,1-.616.413V1246A1.306,1.306,0,0,1,1303.116,1246.405Z" transform="translate(-1027.202 -981.68)" fill="#ffa412"/>
    <path id="Trazado_110902" data-name="Trazado 110902" d="M1095.4,1221.6v2.868a.989.989,0,0,1-.225.616,1.3,1.3,0,0,1-.618.413,1.177,1.177,0,0,1-.239.057,1.534,1.534,0,0,1-.233.018h-54.383a1.5,1.5,0,0,1-.593-.117,1.132,1.132,0,0,1-.723-.885v-3.026a1.2,1.2,0,0,1,1.16-1.041,1.388,1.388,0,0,1,.156,0h54.383a1.537,1.537,0,0,1,.233.018,1.321,1.321,0,0,1,.239.057,1.3,1.3,0,0,1,.618.413A.988.988,0,0,1,1095.4,1221.6Z" transform="translate(-815.266 -961.216)" fill="#ffb93e"/>
    <path id="Trazado_110903" data-name="Trazado 110903" d="M1068.716,1225.57h-29.136a1.214,1.214,0,0,1-.524-.117,1.112,1.112,0,0,1-.646-.885v-3.027a1.144,1.144,0,0,1,1.035-1.041,1.087,1.087,0,0,1,.138,0h25.559a8.89,8.89,0,0,0,3.408,4.952A1.906,1.906,0,0,0,1068.716,1225.57Z" transform="translate(-815.282 -961.216)" fill="#ffa412"/>
    <rect id="Rectángulo_28274" data-name="Rectángulo 28274" width="0.618" height="5.077" transform="translate(272.902 259.277)" fill="#ffa412"/>
    <rect id="Rectángulo_28275" data-name="Rectángulo 28275" width="0.618" height="5.077" transform="translate(270.81 259.277)" fill="#ffa412"/>
    <rect id="Rectángulo_28276" data-name="Rectángulo 28276" width="0.618" height="5.077" transform="translate(268.301 259.277)" fill="#ffa412"/>
    <rect id="Rectángulo_28277" data-name="Rectángulo 28277" width="0.618" height="5.077" transform="translate(264.457 259.277)" fill="#ffa412"/>
    <rect id="Rectángulo_28278" data-name="Rectángulo 28278" width="0.618" height="5.077" transform="translate(260.389 259.277)" fill="#ffa412"/>
    <rect id="Rectángulo_28279" data-name="Rectángulo 28279" width="0.618" height="5.077" transform="translate(254.155 259.277)" fill="#ffa412"/>
    <rect id="Rectángulo_28280" data-name="Rectángulo 28280" width="0.618" height="5.077" transform="translate(248.317 259.277)" fill="#ffa412"/>
    <rect id="Rectángulo_28281" data-name="Rectángulo 28281" width="0.618" height="5.077" transform="translate(243.104 259.277)" fill="#ffa412"/>
    <rect id="Rectángulo_28282" data-name="Rectángulo 28282" width="0.618" height="5.077" transform="translate(274.895 259.277)" fill="#ffa412"/>
    <rect id="Rectángulo_28283" data-name="Rectángulo 28283" width="0.618" height="5.077" transform="translate(276.211 259.277)" fill="#ffa412"/>
    <rect id="Rectángulo_28284" data-name="Rectángulo 28284" width="0.618" height="5.077" transform="translate(277.481 259.277)" fill="#ffa412"/>
    <path id="Trazado_110904" data-name="Trazado 110904" d="M1319.008,1220.488v5.041a1.522,1.522,0,0,1-.233.018h-.385v-5.077h.385A1.507,1.507,0,0,1,1319.008,1220.488Z" transform="translate(-1039.953 -961.193)" fill="#ffa412"/>
    <path id="Trazado_110905" data-name="Trazado 110905" d="M1323.348,1221.263v4.1a1.307,1.307,0,0,1-.618.413v-4.927A1.3,1.3,0,0,1,1323.348,1221.263Z" transform="translate(-1043.435 -961.498)" fill="#ffa412"/>
    <path id="Trazado_110906" data-name="Trazado 110906" d="M1104.022,1195.914v2.868a.99.99,0,0,1-.225.617,1.306,1.306,0,0,1-.619.413,1.371,1.371,0,0,1-.241.057h-54.616a1.242,1.242,0,0,1-1.314-1.047v-2.908c0-.019,0-.037,0-.056a1.242,1.242,0,0,1,1.314-1.049h54.393a1.5,1.5,0,0,1,.231.018,1.353,1.353,0,0,1,.241.057,1.3,1.3,0,0,1,.618.413A.988.988,0,0,1,1104.022,1195.914Z" transform="translate(-822.181 -940.602)" fill="#ffb93e"/>
    <path id="Trazado_110907" data-name="Trazado 110907" d="M1077.355,1199.886H1048.23a1.149,1.149,0,0,1-1.173-1.047v-2.925a.466.466,0,0,1,0-.055,1.149,1.149,0,0,1,1.173-1.049h25.557a8.9,8.9,0,0,0,3.556,5.069Z" transform="translate(-822.221 -940.601)" fill="#ffa412"/>
    <rect id="Rectángulo_28285" data-name="Rectángulo 28285" width="0.618" height="5.077" transform="translate(274.605 254.208)" fill="#ffa412"/>
    <rect id="Rectángulo_28286" data-name="Rectángulo 28286" width="0.618" height="5.077" transform="translate(272.513 254.208)" fill="#ffa412"/>
    <rect id="Rectángulo_28287" data-name="Rectángulo 28287" width="0.618" height="5.077" transform="translate(270.004 254.208)" fill="#ffa412"/>
    <rect id="Rectángulo_28288" data-name="Rectángulo 28288" width="0.618" height="5.077" transform="translate(266.158 254.208)" fill="#ffa412"/>
    <rect id="Rectángulo_28289" data-name="Rectángulo 28289" width="0.618" height="5.077" transform="translate(262.09 254.208)" fill="#ffa412"/>
    <rect id="Rectángulo_28290" data-name="Rectángulo 28290" width="0.618" height="5.077" transform="translate(255.855 254.208)" fill="#ffa412"/>
    <rect id="Rectángulo_28291" data-name="Rectángulo 28291" width="0.618" height="5.077" transform="translate(250.02 254.208)" fill="#ffa412"/>
    <rect id="Rectángulo_28292" data-name="Rectángulo 28292" width="0.618" height="5.077" transform="translate(244.807 254.208)" fill="#ffa412"/>
    <rect id="Rectángulo_28293" data-name="Rectángulo 28293" width="0.618" height="5.077" transform="translate(276.596 254.208)" fill="#ffa412"/>
    <rect id="Rectángulo_28294" data-name="Rectángulo 28294" width="0.618" height="5.077" transform="translate(277.912 254.208)" fill="#ffa412"/>
    <rect id="Rectángulo_28295" data-name="Rectángulo 28295" width="0.618" height="5.077" transform="translate(279.182 254.208)" fill="#ffa412"/>
    <path id="Trazado_110908" data-name="Trazado 110908" d="M1327.586,1194.828v5.041a1.482,1.482,0,0,1-.231.018h-.395v-5.077h.395A1.482,1.482,0,0,1,1327.586,1194.828Z" transform="translate(-1046.83 -940.602)" fill="#ffa412"/>
    <path id="Trazado_110909" data-name="Trazado 110909" d="M1331.968,1195.571v4.093a1.306,1.306,0,0,1-.618.413v-4.927A1.3,1.3,0,0,1,1331.968,1195.571Z" transform="translate(-1050.353 -940.875)" fill="#ffa412"/>
    <path id="Trazado_110910" data-name="Trazado 110910" d="M1193.844,1026.228s-2.854,4.022-5.474,4.077-6.6-1.863-6.6-1.863-2.4-5.36-.772-7.458a3.5,3.5,0,0,1,3.346.551,5.226,5.226,0,0,1,.885.847,2.81,2.81,0,0,0,1.383.932c1.867.569,4.085-.769,4.915.521a8.787,8.787,0,0,0,1.444,1.711A6.666,6.666,0,0,0,1193.844,1026.228Z" transform="translate(-929.243 -800.953)" fill="#ffeddc"/>
    <path id="Trazado_110911" data-name="Trazado 110911" d="M1059.85,1093.929s10.1-24.464,28.279-24.929c0,0,16.776,1.865,17.706,24.931Z" transform="translate(-832.487 -839.646)" fill="#ffeddc"/>
    <path id="Trazado_110912" data-name="Trazado 110912" d="M1177.6,1059.912s7.284,1.62,9.532.667c0,0,.34-3.046-2.728-2.617a6.445,6.445,0,0,1-4.273-1.126C1179,1056.255,1177.3,1058.637,1177.6,1059.912Z" transform="translate(-926.95 -829.813)" fill="#db6a1d"/>
    <path id="Trazado_110913" data-name="Trazado 110913" d="M1202.137,1029.525c-.466.35-1.9-4.925-1.9-4.925a5.25,5.25,0,0,1,.885.847,2.808,2.808,0,0,0,1.383.933C1202.5,1026.534,1202.587,1029.185,1202.137,1029.525Z" transform="translate(-945.143 -804.017)" fill="#e5c1a1"/>
    <path id="Trazado_110914" data-name="Trazado 110914" d="M1227.722,1037.961a30.185,30.185,0,0,1-3.927,2.078c-.456,0,2.483-3.789,2.483-3.789A8.806,8.806,0,0,0,1227.722,1037.961Z" transform="translate(-964.006 -813.366)" fill="#e5c1a1"/>
    <path id="Trazado_110915" data-name="Trazado 110915" d="M1109.756,1116.449c-.186-.16,7.145-10.794,9.164-10.865s6.557,2.331,9.842,2.641,6.468-.622,7.09,1.32,2.329,8.827,1.28,9.927S1113.788,1119.888,1109.756,1116.449Z" transform="translate(-872.531 -869.001)" fill="#f9ddbf"/>
    <path id="Trazado_110916" data-name="Trazado 110916" d="M1042.714,1239.718v.038a24.319,24.319,0,0,1-.816,5.032h0c-.063.237-.132.474-.2.711a24.842,24.842,0,0,1-1.792,4.358,25.276,25.276,0,0,1-3.418,4.95l-.109.127a26.239,26.239,0,0,1-5.976,4.951q-.723.443-1.485.841c-.342.18-.687.35-1.033.516a10.978,10.978,0,0,0-1.011.559,14.178,14.178,0,0,1-3.455,1.42v-2.288a.661.661,0,0,1,.012-.109.7.7,0,0,1,.031-.122,1.168,1.168,0,0,1,1.13-.818h-5.816a1.164,1.164,0,0,1-1.128-.82.8.8,0,0,1-.043-.227.527.527,0,0,1,0-.057v-2.866a.5.5,0,0,1,0-.057.653.653,0,0,1,.012-.109.644.644,0,0,1,.032-.12,1.164,1.164,0,0,1,1.128-.82h2.258a1.115,1.115,0,0,1-.618-.8.433.433,0,0,1,0-.071.369.369,0,0,1,0-.049.466.466,0,0,1,0-.055v-2.868a.5.5,0,0,1,0-.057.918.918,0,0,1,.012-.107.853.853,0,0,1,.032-.119,1.16,1.16,0,0,1,1.128-.822h1.3a1.166,1.166,0,0,1-1.13-.82.866.866,0,0,1-.032-.122.98.98,0,0,1-.012-.107v-2.981a1.14,1.14,0,0,1,1.035-1.039h-3.872a1.152,1.152,0,0,1-1.175-1.049.5.5,0,0,1,0-.057v-2.866a.5.5,0,0,1,0-.057.312.312,0,0,1,0-.045,1.132,1.132,0,0,1,.913-.974,1.149,1.149,0,0,1-1.019-.944.537.537,0,0,1,0-.1.527.527,0,0,1,0-.057v-2.857a.56.56,0,0,1,0-.057.634.634,0,0,1,.012-.106.626.626,0,0,1,.032-.121,1.163,1.163,0,0,1,1.128-.819h2.264a1.117,1.117,0,0,1-.618-.8.455.455,0,0,1,0-.073.346.346,0,0,1,0-.048.532.532,0,0,1,0-.059v-2.924a.947.947,0,0,1,.012-.107.848.848,0,0,1,.032-.118,1.161,1.161,0,0,1,1.128-.822h4.445a1.164,1.164,0,0,1-1.13-.822q-.018-.059-.03-.119a.66.66,0,0,1-.012-.109.525.525,0,0,1,0-.055v-2.868a.525.525,0,0,1,0-.055,1.14,1.14,0,0,1,1.033-1.041h-7.013a1.2,1.2,0,0,1-.988-.5v-.026l.737-4.5v-.026l1.051-6.424a28.533,28.533,0,0,1,3.6.725l.2.057h.012q1.035.289,2.039.654h.018a26.914,26.914,0,0,1,8.443,4.953c.045.037.089.075.13.117a25.305,25.305,0,0,1,3.542,3.814c.211.279.417.561.616.852.065.095.132.2.2.286h0q.482.711.915,1.46a24.867,24.867,0,0,1,1.721,3.609,24.117,24.117,0,0,1,1.319,4.953.679.679,0,0,0,.02.125A24.3,24.3,0,0,1,1042.714,1239.718Z" transform="translate(-798.583 -955.343)" fill="#e2810e" opacity="0.5"/>
    <circle id="Elipse_4341" data-name="Elipse 4341" cx="26.75" cy="26.75" r="26.75" transform="translate(173.55 281.756) rotate(-45)" fill="#e2810e"/>
    <path id="Trazado_110917" data-name="Trazado 110917" d="M873.6,1254.056q-.5.3-1.006.593c-.117.063-.231.126-.346.186-.265.142-.528.277-.79.409a26.752,26.752,0,0,1-27.422-45.734,26.419,26.419,0,0,1,2.73-1.725c.342-.188.688-.37,1.035-.541s.678-.328,1.019-.48a26.585,26.585,0,0,1,3.187-1.185,26.32,26.32,0,0,1,4.844-.988,26.756,26.756,0,0,1,16.748,49.452Z" transform="translate(-650.345 -948.329)" fill="#ffb93e"/>
    <path id="Trazado_110918" data-name="Trazado 110918" d="M871.851,1267.852a23.988,23.988,0,1,1,11.537-2.989A23.988,23.988,0,0,1,871.851,1267.852Zm-.073-47.3a23.311,23.311,0,1,0,20.464,12.05A23.31,23.31,0,0,0,871.778,1220.553Z" transform="translate(-662.328 -960.713)" fill="#ffa412"/>
    <path id="Trazado_110919" data-name="Trazado 110919" d="M935.611,1272.183c-.053-.132-.109-.259-.166-.4a6.989,6.989,0,0,0-1.622-2.317,7.253,7.253,0,0,0-2.554-1.5,12.239,12.239,0,0,0-3.246-.61q-1.79-.109-3.9-.049a19.078,19.078,0,0,1-2.224-.046,5.565,5.565,0,0,1-1.566-.342,2.767,2.767,0,0,1-1.047-.709,3.77,3.77,0,0,1-.664-1.1,4.056,4.056,0,0,1-.3-1.286,2.78,2.78,0,0,1,.2-1.209,2.952,2.952,0,0,1,.747-1.057,4.346,4.346,0,0,1,1.363-.83,3.434,3.434,0,0,1,2.924.027,4.969,4.969,0,0,1,2.209,2.766l5.45-2.212a10.221,10.221,0,0,0-1.778-2.964,7.64,7.64,0,0,0-5.334-2.635,10.1,10.1,0,0,0-3.289.336l-1.543-3.8-3.017,1.224,1.521,3.754a11.349,11.349,0,0,0-2.766,1.975,8.426,8.426,0,0,0-1.744,2.434,6.733,6.733,0,0,0-.642,2.748,8.054,8.054,0,0,0,2.371,5.648,7.149,7.149,0,0,0,2.55,1.5,12.158,12.158,0,0,0,3.248.592,38.415,38.415,0,0,0,3.907,0,14.35,14.35,0,0,1,2.126.016,5.488,5.488,0,0,1,1.559.346,2.937,2.937,0,0,1,1.091.741,3.962,3.962,0,0,1,.733,1.211,3.366,3.366,0,0,1,.261,1.292,2.793,2.793,0,0,1-.29,1.231,3.5,3.5,0,0,1-.867,1.087,5.236,5.236,0,0,1-1.462.859,6.416,6.416,0,0,1-1.6.415,3.636,3.636,0,0,1-1.614-.162,3.756,3.756,0,0,1-1.474-.952,5.82,5.82,0,0,1-1.185-1.934l-5.474,2.2a9.421,9.421,0,0,0,2.144,3.333,7.728,7.728,0,0,0,2.823,1.76,8.614,8.614,0,0,0,3.208.462,13.5,13.5,0,0,0,3.3-.545l1.409,3.469,3-1.219-1.414-3.485a12.118,12.118,0,0,0,2.8-1.952,8.256,8.256,0,0,0,1.689-2.2l.1-.2a6.685,6.685,0,0,0,.656-2.734A7.384,7.384,0,0,0,935.611,1272.183Z" transform="translate(-714.342 -986.695)" fill="#ffa412"/>
    <path id="Trazado_110920" data-name="Trazado 110920" d="M842.2,621.457a1.244,1.244,0,0,0-.211,1.33h0a8.156,8.156,0,0,0,2.628,2.843c.158.126.3.241.421.346a1.262,1.262,0,0,1,.095.085l.073.063c1.154,1.049.725,1.294,2.8,3.424,2.371,2.428,3.983,2.459,4.441,2.234.4-.2-.413-1.484-1.3-2.934-.043-.069-.085-.14-.13-.211-.119-.2-.235-.4-.352-.583-1.039-1.744-.79-2.568-.557-5.18.184-2.122,3.214-11.867,3.214-11.867l-4.5-.737s-1.3,7.752-2.785,8.955c-.79.64-1.689.656-2.452,1.132-.055.033-.109.067-.16.1A5.869,5.869,0,0,0,842.2,621.457Z" transform="translate(-657.583 -471.537)" fill="#ffb27d"/>
    <path id="Trazado_110921" data-name="Trazado 110921" d="M842.2,662.406a1.244,1.244,0,0,0-.211,1.329h0a9.5,9.5,0,0,0,2.631,2.835c.156.127.294.245.417.354.034.028.065.055.095.085l.073.063c1.154,1.049.725,1.294,2.8,3.424,2.371,2.428,3.983,2.459,4.441,2.234.4-.2-.413-1.484-1.3-2.934a10,10,0,0,1-4.208-3.054c-1.428-1.794-2.386-4.107-3.358-5.442-.055.034-.109.067-.16.1A5.861,5.861,0,0,0,842.2,662.406Z" transform="translate(-657.583 -512.487)" fill="#233862"/>
    <path id="Trazado_110922" data-name="Trazado 110922" d="M1012.194,611.978c.288,1.383,2.266,1.142,4.474.593s1.687.089,4.834-.281,4.091-1.553,4.184-2.021c.083-.417-1.474-.551-3.145-.731l-.63-.071c-1.887-.223-3.275-1.43-4.994-2.416-1.626-.934-4.073-4.771-4.073-4.771l-4.315.373s2.29,3.426,3.177,4.915a5.226,5.226,0,0,1,.444,2.94A5.52,5.52,0,0,0,1012.194,611.978Z" transform="translate(-791.305 -465.126)" fill="#ffb27d"/>
    <path id="Trazado_110923" data-name="Trazado 110923" d="M1031.255,642.023c2.208-.557,1.687.089,4.834-.281s4.091-1.553,4.184-2.021c.083-.417-1.474-.551-3.145-.731l-.014.032a8.889,8.889,0,0,1-4.5,1.432c-2.136.067-4.4-.527-5.877-.494a5.512,5.512,0,0,0,.043,1.476C1027.069,642.825,1029.046,642.578,1031.255,642.023Z" transform="translate(-805.891 -494.584)" fill="#233862"/>
    <path id="Trazado_110924" data-name="Trazado 110924" d="M882.868,484.267l-3.951,10.889-5.17,14.224a8.521,8.521,0,0,1-2.8-.237,12.126,12.126,0,0,1-2.716-1.3s1.355-15.237,4.022-24a15.577,15.577,0,0,1,2.313-5.1C878.754,473.714,882.868,484.267,882.868,484.267Z" transform="translate(-678.721 -364.906)" fill="#a66d58"/>
    <path id="Trazado_110925" data-name="Trazado 110925" d="M762.726,417.24c-2.649-.836-10.183.314-17.75,1.849l-1.6-2.6-16.373-1.164s-5.316,12.013-2.305,19.622c.443,1.118,3.161,1.663,3.161,1.665s9.593.1,12.756.081c8.139-.057,17.187-5.715,18.358-5.958,1.92-.4,2.716,3.443,4.67,7.469s18.208,17.764,18.208,17.764a14.227,14.227,0,0,0,3.507-.4,3.458,3.458,0,0,0,1.5-.962S768.7,419.129,762.726,417.24Z" transform="translate(-562.804 -315.108)" fill="#d9a171"/>
    <path id="Trazado_110926" data-name="Trazado 110926" d="M705.016,174.223a5.8,5.8,0,0,0-3.161-.79,9.643,9.643,0,0,1-1.565-.091c-6.207-.79-9.878,8.248-10.075,10.978-.369,5.036-3.026,5.822-6.752,9-7.461,6.387-5.206,13.7-1.077,16.4,2.475,1.62,6.81-.047,6.81-.047.061.041,11.837-6.693,17.641-9.943C715.565,198.431,708.54,176.291,705.016,174.223Z" transform="translate(-526.526 -120.885)" fill="#233862"/>
    <path id="Trazado_110927" data-name="Trazado 110927" d="M764.357,256.409c.026.016-2.861,1.023-4.8.182-1.825-.79-3.226-3.777-3.2-3.779.828-.043,1.731-.772,2.4-5.531l.354.124,5.94,2.09s-.415,1.9-.68,3.718C764.148,254.732,764.031,256.2,764.357,256.409Z" transform="translate(-588.949 -180.256)" fill="#ffb27d"/>
    <path id="Trazado_110928" data-name="Trazado 110928" d="M776.238,250.02s-.253,1.335-.6,3.244a6.921,6.921,0,0,1-5.334-5.334Z" transform="translate(-600.137 -180.777)" fill="#ed975d"/>
    <path id="Trazado_110929" data-name="Trazado 110929" d="M774.672,210.135s-8.117-1.031-7.4-6.077.156-8.576,5.369-8.131,5.942,2.515,6.112,4.257S776.8,210.281,774.672,210.135Z" transform="translate(-597.674 -139.017)" fill="#ffb27d"/>
    <path id="Trazado_110930" data-name="Trazado 110930" d="M768.9,195.622s-5.158,4.51-8.692,4.9-4.874-.739-4.874-.739a13.789,13.789,0,0,0,3.3-4.544,2.485,2.485,0,0,1,2.037-1.48C763.19,193.526,767.969,193.394,768.9,195.622Z" transform="translate(-588.125 -137.209)" fill="#233862"/>
    <path id="Trazado_110931" data-name="Trazado 110931" d="M807.54,197.785a12.833,12.833,0,0,1,2.305,2.908,9.822,9.822,0,0,1,.3,5.217s2.669-5.28,1.118-7.827C809.622,195.384,807.54,197.785,807.54,197.785Z" transform="translate(-630.021 -139.749)" fill="#233862"/>
    <path id="Trazado_110932" data-name="Trazado 110932" d="M743.4,289.98c-.128,16.416.024,12.985-1.76,14.555a6.9,6.9,0,0,1-3.244.727c-5.032.369-13.886-.4-14.224-1.326-1.185-3.21-.369-4.216-1.383-9.137-.1-.523-.235-1.088-.385-1.7-.832-3.38-1.626-4.526,1.2-9.982,2.568-4.939,5.235-8.961,5.478-8.819,6.885,4.022,7.412.593,7.412.593S743.468,281.974,743.4,289.98Z" transform="translate(-561.084 -201.931)" fill="#aec3ff"/>
    <path id="Trazado_110933" data-name="Trazado 110933" d="M878.878,521.39l-5.17,14.223a8.515,8.515,0,0,1-2.8-.237,12.12,12.12,0,0,1-2.716-1.3s1.355-15.237,4.022-24Z" transform="translate(-678.689 -391.14)" fill="#d9a171"/>
    <path id="Trazado_110934" data-name="Trazado 110934" d="M796.92,277.33s7.062,1.146,7.912,4.178,5.85,20.845,5.85,20.845-3.582.67-5.249-.974-5.873-15.33-5.873-15.33Z" transform="translate(-621.499 -204.369)" fill="#aec3ff"/>
    <path id="Trazado_110935" data-name="Trazado 110935" d="M743.116,360.735c-5.032.369-13.886-.4-14.224-1.326-1.185-3.21-.369-4.216-1.383-9.137l2.37-6.853s-.336,7.622,1.924,9.6,9.218,3.8,10.322,5.464A6.162,6.162,0,0,1,743.116,360.735Z" transform="translate(-565.8 -257.403)" fill="#8ea3ed"/>
    <path id="Trazado_110936" data-name="Trazado 110936" d="M777.2,411.8s4.958-1.142,5.763-.705a11.818,11.818,0,0,1,3.022,2.582c.257.557-1.778-.411-2.448-.583a5.847,5.847,0,0,0-2.106.476,7.112,7.112,0,0,1-3.777.407Z" transform="translate(-605.674 -311.63)" fill="#ffb27d"/>
    <path id="Trazado_110937" data-name="Trazado 110937" d="M694.785,274.3s-6.665.456-8.949,3.692c-3.218,4.555-9.528,23.905-5.816,26.473,4.182,2.87,18.939.624,18.939.624s.476-2.3-.217-3.408-11.819-2.833-12.327-3.341,6.341-10.049,6.321-11.588S694.785,274.3,694.785,274.3Z" transform="translate(-526.782 -201.938)" fill="#aec3ff"/>
    <path id="Trazado_110938" data-name="Trazado 110938" d="M807.63,418.48a10.007,10.007,0,0,0,1.383,1.493,1.019,1.019,0,0,0,.563.117l-.711-1.256Z" transform="translate(-630.093 -317.635)" fill="#ffb27d"/>
    <path id="Trazado_110939" data-name="Trazado 110939" d="M806.37,411.5l3.034,1.446a.533.533,0,0,1-.5.2,7.175,7.175,0,0,1-1.314-.352Z" transform="translate(-629.082 -312.034)" fill="#ffb27d"/>
    <path id="Trazado_110940" data-name="Trazado 110940" d="M811.4,363.4l23.929-.168L842.4,345.28l-23.892.17Z" transform="translate(-633.118 -258.896)" fill="#233862"/>
    <path id="Trazado_110941" data-name="Trazado 110941" d="M805.576,432.61l-31.6.223,0,.7,31.317-.221Z" transform="translate(-603.09 -328.974)" fill="#233862"/>
    <path id="Trazado_110942" data-name="Trazado 110942" d="M892.2,386.454a.831.831,0,0,0-.82-1.134,1.636,1.636,0,0,0-1.458,1.15.832.832,0,0,0,.82,1.134A1.632,1.632,0,0,0,892.2,386.454Z" transform="translate(-696.094 -291.026)" fill="#ebf3fa"/>
    <path id="Trazado_110943" data-name="Trazado 110943" d="M1848.841,724.922a6.48,6.48,0,0,0-5.136.263c-8.724.36-9.048,9.3-8.025,12.629,1.438,4.674-3.65,8.36,1.994,10.251,6.55,2.195,12.05-1.27,11.671-.14C1870.065,749.556,1855.731,727.209,1848.841,724.922Z" transform="translate(-1454.46 -563.228)" fill="#2a539b"/>
    <path id="Trazado_110944" data-name="Trazado 110944" d="M1807.144,871.36a22.648,22.648,0,0,1-2.333,3.526c-1.811,2.272-11.323-3.117-10.5-3.526s5.451-13.566,7.406-15.891a8.347,8.347,0,0,1,4.346-2.649Z" transform="translate(-1421.813 -666.172)" fill="#2b478b"/>
    <path id="Trazado_110945" data-name="Trazado 110945" d="M1983.362,1412.2s2.625,2.4,2.112,4.1-2.881,2.837-3.2,4.919-1.6,3.214-2.754,3.214h-5.5s-.847-1.464,1.2-1.9,2.821-2.886,2.693-5.156a39.513,39.513,0,0,1,.2-5.3l4.346-1.009Z" transform="translate(-1565.928 -1114.141)" fill="#4075c1"/>
    <path id="Trazado_110946" data-name="Trazado 110946" d="M1848.778,1422s.944,10.15-.2,10.719l-14.751-.032s0-1.7,2.37-2.08,6.531-1.766,7.236-4.856S1848.778,1422,1848.778,1422Z" transform="translate(-1453.568 -1122.911)" fill="#4075c1"/>
    <path id="Trazado_110947" data-name="Trazado 110947" d="M1858.679,861.2a58.969,58.969,0,0,1,0,6.817c-.146,2.465-2.64,5.768-2.993,6.584-.889,2.049-1.889,2.383-1.889,2.383l-7.746,1.9-2.724.666-8.587-2.568s-3.911-10.918-2.341-17.064a47.209,47.209,0,0,1,3.971-10.413s5.836-1.312,16.132-.593Z" transform="translate(-1452.121 -662.866)" fill="#2b478b"/>
    <path id="Trazado_110948" data-name="Trazado 110948" d="M1907.991,919.845c-.146,2.465-3.376,5.681-3.73,6.5-.889,2.049-1.889,2.382-1.889,2.382l-7.746,1.9-2.066-2.914s12.532-3.495,10.162-14.549Z" transform="translate(-1500.697 -714.592)" fill="#163560"/>
    <path id="Trazado_110949" data-name="Trazado 110949" d="M1830.119,1000.26s-4.253,13.236-4.526,17.744,8.129,64.025,8.467,66.1c.318,1.958,2.75,3.2,2.75,3.2a3.675,3.675,0,0,0,2.712.209,6.618,6.618,0,0,0,2.914-1.383s3.311-42.447,1.262-57.611a240.125,240.125,0,0,1-2.072-28.275Z" transform="translate(-1446.954 -784.477)" fill="#cc9565"/>
    <path id="Trazado_110950" data-name="Trazado 110950" d="M1872.2,998.3s6.487,8.7,7.092,14.589.948,26.551,2.236,32.288,6.023,16.774,6.023,34.666a3.6,3.6,0,0,1-2.011,1.58,16.1,16.1,0,0,1-1.778.49,2.782,2.782,0,0,1-3.11-1.476c-3.2-6.444-13.4-27.228-13.919-31.543-.369-3.052-3.588-23.259-10.61-35.116-1.685-2.847,1.035-14.166,1.035-14.166Z" transform="translate(-1471.016 -782.913)" fill="#d9a171"/>
    <path id="Trazado_110951" data-name="Trazado 110951" d="M1844.11,990a8.913,8.913,0,0,0,5.1,1.42c4.052.081,14.089-1.033,14.089-1.033a8.313,8.313,0,0,1,.429,2.568s-12.26,3.092-19.36.45A4.5,4.5,0,0,1,1844.11,990Z" transform="translate(-1461.624 -776.252)" fill="#163560"/>
    <path id="Trazado_110952" data-name="Trazado 110952" d="M1858.489,997.814a2.108,2.108,0,1,1,1.849-2.092A1.984,1.984,0,0,1,1858.489,997.814Zm0-3.572a1.5,1.5,0,1,0,1.236,1.48A1.376,1.376,0,0,0,1858.489,994.242Z" transform="translate(-1471.872 -779.165)" fill="#fff"/>
    <path id="Trazado_110953" data-name="Trazado 110953" d="M1799.127,947.51l-18.427.174-9.069-21.312,18.427-.172Z" transform="translate(-1403.656 -725.056)" fill="#d35b31"/>
    <path id="Trazado_110954" data-name="Trazado 110954" d="M1860.217,971.628l-1.351-1.661a4.743,4.743,0,0,0-1.58-.952c-.666-.138-2.064-.948-2.2-.719s1.077,1.851,1.077,1.851h.061c-1.383,1.047-4.9.123-5.334.549-.526.518.723,1.636,1.383,2.264s2.586,1.675,4.081,1.211c1.091-.34,2.809-.685,2.809-.685Z" transform="translate(-1467.156 -758.803)" fill="#ffb27d"/>
    <path id="Trazado_110955" data-name="Trazado 110955" d="M1778.172,942.576s1.158-1.316,1.895-.684-.2,3.736-.895,3.422S1777.769,942.961,1778.172,942.576Z" transform="translate(-1408.811 -737.51)" fill="#ffb27d"/>
    <path id="Trazado_110956" data-name="Trazado 110956" d="M1898.059,849.87s6.146.431,8.494,6.158,6.685,15.15,5.755,19.1c-.371,1.58-4.848,7.025-23.508,3.556a4.367,4.367,0,0,1,1.412-2.869s13.155-4.223,13.131-5.063c-.042-1.59-1.778-2.963-9.125-10.312C1892.22,858.446,1898.059,849.87,1898.059,849.87Z" transform="translate(-1497.679 -663.805)" fill="#2b478b"/>
    <path id="Trazado_110957" data-name="Trazado 110957" d="M1882.733,818.524c.182-.243-.051-1.017-.342-2.461a26.893,26.893,0,0,1-.7-5.6l-.4.065-6.539,1.1s.15,1.748.154,3.4v.042c0,1.43-.4,3.591.1,3.874C1877.494,820.387,1882.036,819.456,1882.733,818.524Z" transform="translate(-1486.412 -632.18)" fill="#ffb27d"/>
    <path id="Trazado_110958" data-name="Trazado 110958" d="M1874.79,811.888s.13,2.465.135,4.113c3.658-.089,5.612-3.641,6.4-5.211Z" transform="translate(-1486.437 -632.445)" fill="#e8945b"/>
    <path id="Trazado_110959" data-name="Trazado 110959" d="M1854.563,769.83s8.572-1.219,7.73-6.545-.3-9.071-5.812-8.516-6.246,2.754-6.4,4.6S1852.313,770.012,1854.563,769.83Z" transform="translate(-1466.604 -587.447)" fill="#ffb27d"/>
    <path id="Trazado_110960" data-name="Trazado 110960" d="M1862.68,751.475s3.337,5.873,7.076,6.225,5.136-.859,5.136-.859a10.308,10.308,0,0,1-4.285-5.478S1863.974,748.221,1862.68,751.475Z" transform="translate(-1476.719 -583.663)" fill="#2a539b"/>
    <path id="Trazado_110961" data-name="Trazado 110961" d="M1850.138,756.337a5.372,5.372,0,0,0-2.146,2.3,8.718,8.718,0,0,0-.375,5.073s-2.44-3.965-.842-6.683C1848.476,754.148,1850.138,756.337,1850.138,756.337Z" transform="translate(-1463.521 -588.111)" fill="#2a539b"/>
    <rect id="Rectángulo_28296" data-name="Rectángulo 28296" width="505" height="1.387" rx="0.693" transform="translate(22.42 309.428)" fill="#2e3552"/>
  </g>
</svg>
