<svg xmlns="http://www.w3.org/2000/svg" xmlns:xlink="http://www.w3.org/1999/xlink" width="420" height="292.897" viewBox="0 0 420 292.897">
  <defs>
    <clipPath id="clip-path">
      <rect id="Rectángulo_5726" data-name="Rectángulo 5726" width="269.905" height="199.04" fill="none"/>
    </clipPath>
  </defs>
  <g id="Grupo_59717" data-name="Grupo 59717" transform="translate(1469.962 -2421.139)">
    <g id="Grupo_59467" data-name="Grupo 59467" transform="translate(-1105.17 2544.262)">
      <g id="Grupo_59445" data-name="Grupo 59445">
        <g id="Grupo_59430" data-name="Grupo 59430">
          <path id="Trazado_103996" data-name="Trazado 103996" d="M-939.514,2592.262s-6.082-.437-5.522,13.207a158.1,158.1,0,0,0,1.952,20.91s-.178,3.025-2.521,2.432-6.75-3.538-8.927-1.337c-2.257,2.283-1.455,5.783,1.54,9.907s9.224,13.4,9.784,14.239c.55.825.771,2.373-.89,2.224s-12.871-3.948-14.356,1.479,8.745,15.544,9.843,16.671,1.156,1.839.711,2.521-4.093-.95-7.325-1.9-7.148-1.484-7.742,1.718,3.912,12.577,20.786,22.429l8.118,4.053,7.683-4.9c15.8-11.49,19.35-21.268,18.438-24.4s-4.754-2.2-7.875-.936-6.588,3.258-7.1,2.624-.524-1.349.455-2.58,10.146-12.321,8.126-17.573-12.794-.35-14.432-.036-1.573-1.248-1.108-2.124c.473-.892,5.743-10.744,8.311-15.147s3.016-7.966.54-10.011c-2.385-1.972-6.476,1.4-8.749,2.224s-2.752-2.167-2.752-2.167a158.132,158.132,0,0,0-.15-21c-.808-13.631-6.961-12.531-6.961-12.531" transform="translate(963.02 -2592.24)" fill="#375a64"/>
        </g>
        <g id="Grupo_59432" data-name="Grupo 59432" transform="translate(23.985 12.241)">
          <g id="Grupo_59431" data-name="Grupo 59431">
            <path id="Trazado_103997" data-name="Trazado 103997" d="M-929.687,2609.252s.016.1.032.285l.065.837c.051.752.124,1.834.219,3.223.186,2.8.425,6.849.7,11.856.557,10.013,1.207,23.852,1.874,39.138s1.284,29.131,1.784,39.146c.254,5,.46,9.045.6,11.86.069,1.39.123,2.473.161,3.225q.022.536.034.839c.006.189,0,.286,0,.286s-.016-.1-.032-.284-.037-.48-.065-.838c-.051-.751-.125-1.833-.218-3.221-.186-2.8-.426-6.848-.7-11.855-.556-10.013-1.207-23.853-1.875-39.145s-1.284-29.124-1.784-39.139c-.254-5-.46-9.046-.6-11.86-.069-1.389-.123-2.474-.161-3.225-.014-.358-.026-.637-.034-.84S-929.687,2609.252-929.687,2609.252Z" transform="translate(929.689 -2609.252)" fill="#e1e1e1"/>
          </g>
        </g>
        <g id="Grupo_59434" data-name="Grupo 59434" transform="translate(14.486 39.599)">
          <g id="Grupo_59433" data-name="Grupo 59433">
            <path id="Trazado_103998" data-name="Trazado 103998" d="M-942.888,2647.271a2.669,2.669,0,0,1,.505.42c.312.284.75.708,1.287,1.238,1.071,1.061,2.512,2.565,4.071,4.256l3.97,4.344,1.209,1.311a2.651,2.651,0,0,1,.422.5,2.713,2.713,0,0,1-.508-.417c-.312-.285-.75-.709-1.282-1.244-1.061-1.072-2.481-2.595-4.039-4.285l-4-4.314-1.215-1.3A2.668,2.668,0,0,1-942.888,2647.271Z" transform="translate(942.889 -2647.27)" fill="#e1e1e1"/>
          </g>
        </g>
        <g id="Grupo_59436" data-name="Grupo 59436" transform="translate(26.757 37.732)">
          <g id="Grupo_59435" data-name="Grupo 59435">
            <path id="Trazado_103999" data-name="Trazado 103999" d="M-925.836,2658.346c-.061-.06,2.907-3.17,6.63-6.943s6.791-6.786,6.852-6.726-2.906,3.169-6.63,6.944S-925.776,2658.406-925.836,2658.346Z" transform="translate(925.837 -2644.676)" fill="#e1e1e1"/>
          </g>
        </g>
        <g id="Grupo_59438" data-name="Grupo 59438" transform="translate(26.723 66.049)">
          <g id="Grupo_59437" data-name="Grupo 59437">
            <path id="Trazado_104000" data-name="Trazado 104000" d="M-925.883,2692.9a2.824,2.824,0,0,1,.566-.36l1.588-.891c1.34-.753,3.186-1.8,5.182-3.026s3.772-2.391,5.049-3.246l1.515-1.01a2.786,2.786,0,0,1,.577-.342,2.753,2.753,0,0,1-.507.439c-.338.266-.835.643-1.459,1.093-1.248.9-3.006,2.1-5.012,3.332s-3.872,2.249-5.241,2.955c-.686.35-1.244.625-1.636.8A2.779,2.779,0,0,1-925.883,2692.9Z" transform="translate(925.883 -2684.027)" fill="#e1e1e1"/>
          </g>
        </g>
        <g id="Grupo_59440" data-name="Grupo 59440" transform="translate(13.275 66.691)">
          <g id="Grupo_59439" data-name="Grupo 59439">
            <path id="Trazado_104001" data-name="Trazado 104001" d="M-944.572,2684.922a2.353,2.353,0,0,1,.562.263c.35.187.853.467,1.472.817,1.236.7,2.932,1.691,4.8,2.8s3.543,2.127,4.75,2.878c.6.376,1.089.684,1.421.9a2.391,2.391,0,0,1,.5.367,2.39,2.39,0,0,1-.561-.264c-.351-.187-.854-.466-1.472-.817-1.235-.7-2.932-1.691-4.8-2.8s-3.543-2.127-4.749-2.877c-.6-.375-1.089-.684-1.421-.9A2.43,2.43,0,0,1-944.572,2684.922Z" transform="translate(944.573 -2684.92)" fill="#e1e1e1"/>
          </g>
        </g>
        <g id="Grupo_59442" data-name="Grupo 59442" transform="translate(10.607 87.455)">
          <g id="Grupo_59441" data-name="Grupo 59441">
            <path id="Trazado_104002" data-name="Trazado 104002" d="M-948.279,2713.777a3.964,3.964,0,0,1,.714.346l1.89,1.042c1.588.892,3.772,2.142,6.174,3.54s4.569,2.678,6.13,3.619l1.839,1.127a3.933,3.933,0,0,1,.653.45,3.819,3.819,0,0,1-.714-.345l-1.89-1.042c-1.588-.891-3.772-2.142-6.175-3.54s-4.569-2.678-6.129-3.618l-1.839-1.127A3.846,3.846,0,0,1-948.279,2713.777Z" transform="translate(948.279 -2713.775)" fill="#e1e1e1"/>
          </g>
        </g>
        <g id="Grupo_59444" data-name="Grupo 59444" transform="translate(27.659 85.462)">
          <g id="Grupo_59443" data-name="Grupo 59443">
            <path id="Trazado_104003" data-name="Trazado 104003" d="M-924.583,2722.764a4.569,4.569,0,0,1,.706-.473l1.973-1.2c1.665-1.015,3.961-2.424,6.452-4.049s4.714-3.148,6.314-4.264l1.9-1.318a4.417,4.417,0,0,1,.717-.455,4.451,4.451,0,0,1-.645.552c-.428.34-1.056.82-1.841,1.4-1.569,1.162-3.774,2.719-6.273,4.345s-4.814,3.01-6.51,3.978c-.849.482-1.541.865-2.024,1.117A4.4,4.4,0,0,1-924.583,2722.764Z" transform="translate(924.583 -2711.004)" fill="#e1e1e1"/>
          </g>
        </g>
      </g>
      <g id="Grupo_59466" data-name="Grupo 59466" transform="translate(17.402 111.231)">
        <g id="Grupo_59447" data-name="Grupo 59447">
          <g id="Grupo_59446" data-name="Grupo 59446">
            <path id="Trazado_104004" data-name="Trazado 104004" d="M-916.379,2746.816h-22.458l7.33,55.486h7.8Z" transform="translate(938.837 -2746.816)" fill="#e1e1e1"/>
          </g>
        </g>
        <g id="Grupo_59450" data-name="Grupo 59450" transform="translate(1.164 4.533)">
          <g id="Grupo_59449" data-name="Grupo 59449">
            <g id="Grupo_59448" data-name="Grupo 59448">
              <path id="Trazado_104005" data-name="Trazado 104005" d="M-937.219,2755.4c-.009.006.025.079.12.2a1.416,1.416,0,0,0,.542.387,2.716,2.716,0,0,0,2.372-.291c.907-.5,1.7-1.483,2.912-1.917a6.369,6.369,0,0,1,4.13.082,17.656,17.656,0,0,1,3.846,1.863,26.683,26.683,0,0,0,3.127,1.678,8.648,8.648,0,0,0,2.306.667,4.15,4.15,0,0,0,.652.044c.149,0,.227-.006.227-.019a11.725,11.725,0,0,1-3.081-.928,30.884,30.884,0,0,1-3.058-1.731,17.06,17.06,0,0,0-3.911-1.924,6.6,6.6,0,0,0-4.359-.047,5.753,5.753,0,0,0-1.641,1.014,12.865,12.865,0,0,1-1.285,1,2.642,2.642,0,0,1-2.188.38A2.26,2.26,0,0,1-937.219,2755.4Z" transform="translate(937.22 -2753.115)" fill="#aed3f2"/>
            </g>
          </g>
        </g>
        <g id="Grupo_59453" data-name="Grupo 59453" transform="translate(1.983 12.967)">
          <g id="Grupo_59452" data-name="Grupo 59452">
            <g id="Grupo_59451" data-name="Grupo 59451">
              <path id="Trazado_104006" data-name="Trazado 104006" d="M-936.08,2768.909c.03.019.178-.229.529-.6a5.017,5.017,0,0,1,1.794-1.138,8.009,8.009,0,0,1,3.123-.47,32.793,32.793,0,0,1,3.908.532,13.422,13.422,0,0,0,4,.166,11,11,0,0,0,3.149-.9,10.038,10.038,0,0,0,1.893-1.125,2.719,2.719,0,0,0,.6-.54,20.012,20.012,0,0,1-2.6,1.428,11.478,11.478,0,0,1-3.086.8,13.753,13.753,0,0,1-3.9-.192,29.362,29.362,0,0,0-3.956-.508,7.9,7.9,0,0,0-3.23.568,4.708,4.708,0,0,0-1.8,1.281,3.217,3.217,0,0,0-.34.5C-936.062,2768.836-936.091,2768.9-936.08,2768.909Z" transform="translate(936.082 -2764.836)" fill="#aed3f2"/>
            </g>
          </g>
        </g>
        <g id="Grupo_59456" data-name="Grupo 59456" transform="translate(3.256 20.962)">
          <g id="Grupo_59455" data-name="Grupo 59455">
            <g id="Grupo_59454" data-name="Grupo 59454">
              <path id="Trazado_104007" data-name="Trazado 104007" d="M-917.654,2777.495a1.922,1.922,0,0,0-.619-.321,6.629,6.629,0,0,0-1.862-.4,11.829,11.829,0,0,0-2.814.161c-1.048.17-2.17.458-3.349.709a14.087,14.087,0,0,1-3.345.378,7.305,7.305,0,0,1-2.655-.574,6.14,6.14,0,0,1-2.014-1.5,1.753,1.753,0,0,0,.381.586,4.752,4.752,0,0,0,1.525,1.148,7.15,7.15,0,0,0,2.749.676,13.476,13.476,0,0,0,3.435-.356c1.192-.253,2.307-.551,3.332-.736a12.85,12.85,0,0,1,2.742-.235A10.346,10.346,0,0,1-917.654,2777.495Z" transform="translate(934.313 -2775.947)" fill="#aed3f2"/>
            </g>
          </g>
        </g>
        <g id="Grupo_59459" data-name="Grupo 59459" transform="translate(3.969 28.901)">
          <g id="Grupo_59458" data-name="Grupo 59458">
            <g id="Grupo_59457" data-name="Grupo 59457">
              <path id="Trazado_104008" data-name="Trazado 104008" d="M-933.321,2788.283a3.648,3.648,0,0,1,2.18-.219,10.543,10.543,0,0,1,2.281.849,8.653,8.653,0,0,0,2.961.817,8.885,8.885,0,0,0,5.372-1.245,7.6,7.6,0,0,0,1.337-1.028c.273-.291.414-.458.4-.476a19.607,19.607,0,0,1-1.863,1.28,9.207,9.207,0,0,1-5.21,1.1c-2.126-.122-3.758-1.39-5.232-1.557a3.331,3.331,0,0,0-1.694.146C-933.172,2788.1-933.333,2788.271-933.321,2788.283Z" transform="translate(933.322 -2786.979)" fill="#aed3f2"/>
            </g>
          </g>
        </g>
        <g id="Grupo_59462" data-name="Grupo 59462" transform="translate(5.22 37.753)">
          <g id="Grupo_59461" data-name="Grupo 59461">
            <g id="Grupo_59460" data-name="Grupo 59460">
              <path id="Trazado_104009" data-name="Trazado 104009" d="M-931.583,2802.383a4.3,4.3,0,0,0,1.872-.372c1.129-.377,2.526-1.243,4.159-1.891a6.774,6.774,0,0,1,2.386-.5,4.385,4.385,0,0,1,1.918.438,4.237,4.237,0,0,1,1.387,1.2,1.016,1.016,0,0,0-.213-.473,3.084,3.084,0,0,0-1.052-.953,4.415,4.415,0,0,0-2.036-.547,6.7,6.7,0,0,0-2.522.5c-1.691.674-3.044,1.565-4.122,1.992C-930.87,2802.23-931.592,2802.324-931.583,2802.383Z" transform="translate(931.583 -2799.281)" fill="#aed3f2"/>
            </g>
          </g>
        </g>
        <g id="Grupo_59465" data-name="Grupo 59465" transform="translate(6.321 45.797)">
          <g id="Grupo_59464" data-name="Grupo 59464">
            <g id="Grupo_59463" data-name="Grupo 59463">
              <path id="Trazado_104010" data-name="Trazado 104010" d="M-930.053,2810.473a5.24,5.24,0,0,0,1.422.461,25.631,25.631,0,0,0,3.555.6,25.766,25.766,0,0,0,3.6.1,5.2,5.2,0,0,0,1.485-.176c-.006-.111-2.276-.013-5.052-.293S-930.026,2810.366-930.053,2810.473Z" transform="translate(930.053 -2810.459)" fill="#aed3f2"/>
            </g>
          </g>
        </g>
      </g>
    </g>
    <g id="Grupo_59469" data-name="Grupo 59469" transform="translate(-1469.962 2711.527)">
      <g id="Grupo_59468" data-name="Grupo 59468">
        <path id="Trazado_104011" data-name="Trazado 104011" d="M-1058.571,2825.406c0,.4-92.1.721-205.686.721-113.624,0-205.705-.322-205.705-.721s92.081-.722,205.705-.722C-1150.671,2824.684-1058.571,2825.007-1058.571,2825.406Z" transform="translate(1469.962 -2824.684)" fill="#344154"/>
      </g>
    </g>
    <g id="Grupo_59488" data-name="Grupo 59488" transform="translate(-1256.008 2421.139)">
      <g id="Grupo_59470" data-name="Grupo 59470">
        <path id="Rectángulo_5713" data-name="Rectángulo 5713" d="M0,0H148.493a0,0,0,0,1,0,0V136.878a16.22,16.22,0,0,1-16.22,16.22H0a0,0,0,0,1,0,0V0A0,0,0,0,1,0,0Z" fill="#ececec"/>
      </g>
      <g id="Grupo_59485" data-name="Grupo 59485" transform="translate(16.347 45.003)">
        <g id="Grupo_59472" data-name="Grupo 59472">
          <g id="Grupo_59471" data-name="Grupo 59471">
            <path id="Trazado_104012" data-name="Trazado 104012" d="M-1030.035,2484.241c0,.311-26.839.562-59.939.562s-59.944-.252-59.944-.562,26.833-.562,59.944-.562S-1030.035,2483.93-1030.035,2484.241Z" transform="translate(1149.918 -2483.678)" fill="#5e6178"/>
          </g>
        </g>
        <g id="Grupo_59474" data-name="Grupo 59474" transform="translate(1.424 10.372)">
          <g id="Grupo_59473" data-name="Grupo 59473">
            <path id="Trazado_104013" data-name="Trazado 104013" d="M-1088.709,2498.653c0,.31-13.26.562-29.614.562s-29.616-.252-29.616-.562,13.258-.562,29.616-.562S-1088.709,2498.343-1088.709,2498.653Z" transform="translate(1147.939 -2498.091)" fill="#5e6178"/>
          </g>
        </g>
        <g id="Grupo_59476" data-name="Grupo 59476" transform="translate(68.658 9.411)">
          <g id="Grupo_59475" data-name="Grupo 59475">
            <path id="Trazado_104014" data-name="Trazado 104014" d="M-1038.818,2497.318c0,.311-3.512.562-7.844.562s-7.844-.251-7.844-.562,3.511-.562,7.844-.562S-1038.818,2497.008-1038.818,2497.318Z" transform="translate(1054.506 -2496.756)" fill="#5e6178"/>
          </g>
        </g>
        <g id="Grupo_59478" data-name="Grupo 59478" transform="translate(92.029 8.77)">
          <g id="Grupo_59477" data-name="Grupo 59477">
            <path id="Trazado_104015" data-name="Trazado 104015" d="M-990.971,2496.428c0,.311-6.953.563-15.528.563s-15.529-.252-15.529-.562,6.951-.562,15.529-.562S-990.971,2496.118-990.971,2496.428Z" transform="translate(1022.027 -2495.866)" fill="#5e6178"/>
          </g>
        </g>
        <g id="Grupo_59480" data-name="Grupo 59480" transform="translate(0 20.296)">
          <g id="Grupo_59479" data-name="Grupo 59479">
            <path id="Trazado_104016" data-name="Trazado 104016" d="M-1094.21,2512.445c0,.311-12.472.563-27.853.563s-27.855-.252-27.855-.563,12.468-.562,27.855-.562S-1094.21,2512.135-1094.21,2512.445Z" transform="translate(1149.918 -2511.884)" fill="#5e6178"/>
          </g>
        </g>
        <g id="Grupo_59482" data-name="Grupo 59482" transform="translate(62.255 20.011)">
          <g id="Grupo_59481" data-name="Grupo 59481">
            <path id="Trazado_104017" data-name="Trazado 104017" d="M-1002.573,2512.048c0,.31-13.619.562-30.414.562s-30.417-.252-30.417-.562,13.615-.562,30.417-.562S-1002.573,2511.738-1002.573,2512.048Z" transform="translate(1063.404 -2511.487)" fill="#5e6178"/>
          </g>
        </g>
        <g id="Grupo_59484" data-name="Grupo 59484" transform="translate(96.001 29.998)">
          <g id="Grupo_59483" data-name="Grupo 59483">
            <path id="Trazado_104018" data-name="Trazado 104018" d="M-989.423,2525.927c0,.311-6.064.562-13.542.562s-13.543-.251-13.543-.562,6.063-.562,13.543-.562S-989.423,2525.617-989.423,2525.927Z" transform="translate(1016.508 -2525.365)" fill="#5e6178"/>
          </g>
        </g>
      </g>
      <g id="Grupo_59487" data-name="Grupo 59487" transform="translate(17.772 33.886)">
        <g id="Grupo_59486" data-name="Grupo 59486">
          <path id="Trazado_104019" data-name="Trazado 104019" d="M-1082.308,2468.792c0,.31-14.693.562-32.814.562s-32.817-.252-32.817-.562,14.69-.562,32.817-.562S-1082.308,2468.481-1082.308,2468.792Z" transform="translate(1147.939 -2468.229)" fill="#d9a171"/>
        </g>
      </g>
    </g>
    <g id="Grupo_59509" data-name="Grupo 59509" transform="translate(-1435.605 2506.892)">
      <g id="Grupo_59504" data-name="Grupo 59504">
        <g id="Grupo_59503" data-name="Grupo 59503">
          <g id="Grupo_59502" data-name="Grupo 59502">
            <g id="Grupo_59491" data-name="Grupo 59491" transform="translate(12.468)">
              <g id="Grupo_59490" data-name="Grupo 59490">
                <g id="Grupo_59489" data-name="Grupo 59489">
                  <rect id="Rectángulo_5714" data-name="Rectángulo 5714" width="308.464" height="203.985" rx="14.567" fill="#344154"/>
                </g>
              </g>
            </g>
            <g id="Grupo_59494" data-name="Grupo 59494" transform="translate(0 188.898)">
              <g id="Grupo_59493" data-name="Grupo 59493">
                <g id="Grupo_59492" data-name="Grupo 59492">
                  <path id="Rectángulo_5715" data-name="Rectángulo 5715" d="M0,0H334.2a0,0,0,0,1,0,0V.051a17.8,17.8,0,0,1-17.8,17.8H17.8A17.8,17.8,0,0,1,0,.051V0A0,0,0,0,1,0,0Z" fill="#344154"/>
                </g>
              </g>
            </g>
            <g id="Grupo_59497" data-name="Grupo 59497" transform="translate(21.179 8.104)">
              <g id="Grupo_59496" data-name="Grupo 59496">
                <g id="Grupo_59495" data-name="Grupo 59495">
                  <rect id="Rectángulo_5716" data-name="Rectángulo 5716" width="291.042" height="172.262" fill="#5e6178"/>
                </g>
              </g>
            </g>
            <g id="Grupo_59501" data-name="Grupo 59501" transform="translate(136.723 188.698)">
              <g id="Grupo_59500" data-name="Grupo 59500">
                <g id="Grupo_59499" data-name="Grupo 59499">
                  <g id="Grupo_59498" data-name="Grupo 59498">
                    <path id="Trazado_104020" data-name="Trazado 104020" d="M-1232.216,2802.736c-.006,0,.1-.007.322-.01l.978-.009,3.8-.021,14.1-.058,47.151-.1h.348l-.175.3c-.594,1.016-1.231,2.107-1.872,3.206l-1.979,3.389-.058.1h-.115l-58.355-.11h-.05l-.026-.042-3.056-4.97-.768-1.259c-.171-.28-.247-.416-.247-.416s.1.151.29.437.464.716.816,1.261l3.117,4.85-.076-.043,58.355-.108-.172.1,1.979-3.39,1.872-3.207.172.3-46.958-.1-14.168-.057-3.86-.021-1.011-.01C-1232.089,2802.743-1232.216,2802.736-1232.216,2802.736Z" transform="translate(1232.216 -2802.536)" fill="#5e6178"/>
                  </g>
                </g>
              </g>
            </g>
          </g>
        </g>
      </g>
      <g id="Grupo_59508" data-name="Grupo 59508" transform="translate(12.468 188.71)">
        <g id="Grupo_59505" data-name="Grupo 59505" transform="translate(0 0.188)">
          <line id="Línea_256" data-name="Línea 256" x2="308.464" fill="#344154"/>
        </g>
        <g id="Grupo_59507" data-name="Grupo 59507">
          <g id="Grupo_59506" data-name="Grupo 59506">
            <path id="Trazado_104021" data-name="Trazado 104021" d="M-1096.426,2802.741c0,.1-69.058.187-154.225.187-85.2,0-154.24-.083-154.24-.187s69.043-.188,154.24-.188C-1165.484,2802.553-1096.426,2802.637-1096.426,2802.741Z" transform="translate(1404.89 -2802.553)" fill="#5e6178"/>
          </g>
        </g>
      </g>
    </g>
    <g id="Grupo_59557" data-name="Grupo 59557" transform="translate(-1308.783 2480.353)">
      <g id="Grupo_59510" data-name="Grupo 59510" transform="translate(142.079 0.241)">
        <path id="Trazado_104022" data-name="Trazado 104022" d="M-1031.383,2503.762h0a8.617,8.617,0,0,1,8.616,8.617v17.681h-25.766v-16.312a9.986,9.986,0,0,1,9.986-9.986Z" transform="translate(1048.532 -2503.762)" fill="#344154"/>
      </g>
      <g id="Grupo_59512" data-name="Grupo 59512" transform="translate(50.638)">
        <g id="Grupo_59511" data-name="Grupo 59511">
          <path id="Trazado_104023" data-name="Trazado 104023" d="M-1067.016,2503.668c0,.1-24.311.166-54.292.14s-54.3-.132-54.3-.236,24.306-.166,54.3-.139S-1067.015,2503.564-1067.016,2503.668Z" transform="translate(1175.605 -2503.427)" fill="#344154"/>
        </g>
      </g>
      <g id="Grupo_59513" data-name="Grupo 59513" transform="translate(0.358 0.145)">
        <path id="Trazado_104024" data-name="Trazado 104024" d="M-1086.834,2503.7l-10.745-.074-15.608.1h-114.661a17.628,17.628,0,0,0-17.628,17.629V2710.8h148.493V2513.39C-1096.549,2503.725-1086.834,2503.7-1086.834,2503.7Z" transform="translate(1245.477 -2503.629)" fill="#fafafa"/>
      </g>
      <g id="Grupo_59514" data-name="Grupo 59514" transform="translate(0 0.025)">
        <path id="Trazado_104025" data-name="Trazado 104025" d="M-1086.974,2503.656l-89.536.2-44.769.034-5.6,0c-.938-.018-1.856.037-2.775.086a18.276,18.276,0,0,0-2.715.495,17.437,17.437,0,0,0-9.137,5.876,17.536,17.536,0,0,0-2.734,4.771,13.649,13.649,0,0,0-.446,1.306l-.343,1.338a19.076,19.076,0,0,0-.32,2.74c-.08,3.708-.018,7.455-.034,11.18l.12,179.074-.358-.358,148.493.1-.261.261.071-106.5.085-53.25.053-26.624.013-6.656.006-3.328a10.9,10.9,0,0,1,.07-1.662,8.992,8.992,0,0,1,.26-1.644,8.814,8.814,0,0,1,3.6-5.422,10.413,10.413,0,0,1,2.986-1.442A12.588,12.588,0,0,1-1086.974,2503.656Zm0,0a12.559,12.559,0,0,0-3.266.581,10.389,10.389,0,0,0-2.975,1.451,8.77,8.77,0,0,0-3.561,5.412,8.882,8.882,0,0,0-.253,1.636,10.9,10.9,0,0,0-.063,1.659l.006,3.328.013,6.656.053,26.626.086,53.251.072,106.5v.262h-.262l-148.493.1h-.358v-.358l.12-179.074c.021-3.735-.037-7.452.049-11.2a19.422,19.422,0,0,1,.333-2.811l.354-1.372a14.067,14.067,0,0,1,.458-1.34,17.988,17.988,0,0,1,2.811-4.891,17.867,17.867,0,0,1,9.376-6.012,18.494,18.494,0,0,1,2.782-.5c.943-.051,1.887-.1,2.816-.084l5.6,0,44.768.034Z" transform="translate(1245.975 -2503.462)" fill="#344154"/>
      </g>
      <g id="Grupo_59516" data-name="Grupo 59516" transform="translate(64.627 35.722)">
        <g id="Grupo_59515" data-name="Grupo 59515">
          <path id="Trazado_104026" data-name="Trazado 104026" d="M-1092.317,2553.632c0,.31-14.294.562-31.922.562s-31.926-.252-31.926-.562,14.291-.562,31.926-.562S-1092.317,2553.321-1092.317,2553.632Z" transform="translate(1156.165 -2553.069)" fill="#d9a171"/>
        </g>
      </g>
      <g id="Grupo_59518" data-name="Grupo 59518" transform="translate(65.908 45.923)">
        <g id="Grupo_59517" data-name="Grupo 59517">
          <path id="Trazado_104027" data-name="Trazado 104027" d="M-1129.7,2567.807c0,.31-5.527.562-12.343.562s-12.344-.252-12.344-.562,5.526-.562,12.344-.562S-1129.7,2567.5-1129.7,2567.807Z" transform="translate(1154.385 -2567.245)" fill="#5e6178"/>
        </g>
      </g>
      <g id="Grupo_59520" data-name="Grupo 59520" transform="translate(12.596 77.04)">
        <g id="Grupo_59519" data-name="Grupo 59519">
          <path id="Trazado_104028" data-name="Trazado 104028" d="M-1181.587,2611.05c0,.311-10.5.563-23.441.563s-23.442-.252-23.442-.563,10.493-.562,23.442-.562S-1181.587,2610.74-1181.587,2611.05Z" transform="translate(1228.47 -2610.488)" fill="#5e6178"/>
        </g>
      </g>
      <g id="Grupo_59522" data-name="Grupo 59522" transform="translate(65.686 77.04)">
        <g id="Grupo_59521" data-name="Grupo 59521">
          <path id="Trazado_104029" data-name="Trazado 104029" d="M-1107.81,2611.05c0,.311-10.5.563-23.44.563s-23.443-.252-23.443-.563,10.494-.562,23.443-.562S-1107.81,2610.74-1107.81,2611.05Z" transform="translate(1154.693 -2610.488)" fill="#d9a171"/>
        </g>
      </g>
      <g id="Grupo_59524" data-name="Grupo 59524" transform="translate(12.596 85.351)">
        <g id="Grupo_59523" data-name="Grupo 59523">
          <path id="Trazado_104030" data-name="Trazado 104030" d="M-1181.587,2622.6c0,.31-10.5.562-23.441.562s-23.442-.252-23.442-.562,10.493-.562,23.442-.562S-1181.587,2622.289-1181.587,2622.6Z" transform="translate(1228.47 -2622.037)" fill="#5e6178"/>
        </g>
      </g>
      <g id="Grupo_59526" data-name="Grupo 59526" transform="translate(12.596 93.661)">
        <g id="Grupo_59525" data-name="Grupo 59525">
          <path id="Trazado_104031" data-name="Trazado 104031" d="M-1181.587,2634.147c0,.311-10.5.563-23.441.563s-23.442-.252-23.442-.563,10.493-.562,23.442-.562S-1181.587,2633.837-1181.587,2634.147Z" transform="translate(1228.47 -2633.585)" fill="#d9a171"/>
        </g>
      </g>
      <g id="Grupo_59528" data-name="Grupo 59528" transform="translate(65.908 62.85)">
        <g id="Grupo_59527" data-name="Grupo 59527">
          <path id="Trazado_104032" data-name="Trazado 104032" d="M-1129.7,2591.33c0,.311-5.527.562-12.343.562s-12.344-.251-12.344-.562,5.526-.562,12.344-.562S-1129.7,2591.02-1129.7,2591.33Z" transform="translate(1154.385 -2590.768)" fill="#5e6178"/>
        </g>
      </g>
      <g id="Grupo_59530" data-name="Grupo 59530" transform="translate(116.951 77.04)">
        <g id="Grupo_59529" data-name="Grupo 59529">
          <path id="Trazado_104033" data-name="Trazado 104033" d="M-1066.993,2611.05c0,.311-3.685.563-8.229.563s-8.229-.252-8.229-.563,3.684-.562,8.229-.562S-1066.993,2610.74-1066.993,2611.05Z" transform="translate(1083.451 -2610.488)" fill="#5e6178"/>
        </g>
      </g>
      <g id="Grupo_59532" data-name="Grupo 59532" transform="translate(95.453 45.923)">
        <g id="Grupo_59531" data-name="Grupo 59531">
          <path id="Trazado_104034" data-name="Trazado 104034" d="M-1070.968,2567.807c0,.31-9.483.562-21.178.562s-21.181-.252-21.181-.562,9.481-.562,21.181-.562S-1070.968,2567.5-1070.968,2567.807Z" transform="translate(1113.326 -2567.245)" fill="#5e6178"/>
        </g>
      </g>
      <g id="Grupo_59534" data-name="Grupo 59534" transform="translate(65.908 54.026)">
        <g id="Grupo_59533" data-name="Grupo 59533">
          <path id="Trazado_104035" data-name="Trazado 104035" d="M-1084.392,2579.068c0,.311-15.67.562-34.995.562s-35-.251-35-.562,15.666-.562,35-.562S-1084.392,2578.758-1084.392,2579.068Z" transform="translate(1154.385 -2578.506)" fill="#5e6178"/>
        </g>
      </g>
      <g id="Grupo_59536" data-name="Grupo 59536" transform="translate(65.686 85.351)">
        <g id="Grupo_59535" data-name="Grupo 59535">
          <path id="Trazado_104036" data-name="Trazado 104036" d="M-1086.97,2622.6c0,.31-15.162.562-33.86.562s-33.863-.252-33.863-.562,15.158-.562,33.863-.562S-1086.97,2622.289-1086.97,2622.6Z" transform="translate(1154.693 -2622.037)" fill="#5e6178"/>
        </g>
      </g>
      <g id="Grupo_59538" data-name="Grupo 59538" transform="translate(69.861 109.409)">
        <g id="Grupo_59537" data-name="Grupo 59537">
          <path id="Trazado_104037" data-name="Trazado 104037" d="M-1085.343,2656.032c0,.311-14.227.562-31.773.562s-31.775-.251-31.775-.562,14.224-.562,31.775-.562S-1085.343,2655.722-1085.343,2656.032Z" transform="translate(1148.891 -2655.47)" fill="#d9a171"/>
        </g>
      </g>
      <g id="Grupo_59540" data-name="Grupo 59540" transform="translate(69.861 117.497)">
        <g id="Grupo_59539" data-name="Grupo 59539">
          <path id="Trazado_104038" data-name="Trazado 104038" d="M-1085.343,2667.272c0,.31-14.227.562-31.773.562s-31.775-.252-31.775-.562,14.224-.562,31.775-.562S-1085.343,2666.962-1085.343,2667.272Z" transform="translate(1148.891 -2666.71)" fill="#5e6178"/>
        </g>
      </g>
      <g id="Grupo_59542" data-name="Grupo 59542" transform="translate(69.861 125.585)">
        <g id="Grupo_59541" data-name="Grupo 59541">
          <path id="Trazado_104039" data-name="Trazado 104039" d="M-1085.343,2678.511c0,.311-14.227.563-31.773.563s-31.775-.252-31.775-.563,14.224-.562,31.775-.562S-1085.343,2678.2-1085.343,2678.511Z" transform="translate(1148.891 -2677.949)" fill="#5e6178"/>
        </g>
      </g>
      <g id="Grupo_59544" data-name="Grupo 59544" transform="translate(69.861 133.673)">
        <g id="Grupo_59543" data-name="Grupo 59543">
          <path id="Trazado_104040" data-name="Trazado 104040" d="M-1085.343,2689.751c0,.311-14.227.562-31.773.562s-31.775-.251-31.775-.562,14.224-.562,31.775-.562S-1085.343,2689.441-1085.343,2689.751Z" transform="translate(1148.891 -2689.189)" fill="#5e6178"/>
        </g>
      </g>
      <g id="Grupo_59546" data-name="Grupo 59546" transform="translate(69.861 141.761)">
        <g id="Grupo_59545" data-name="Grupo 59545">
          <path id="Trazado_104041" data-name="Trazado 104041" d="M-1112.308,2700.991c0,.156-2.047.3-5.358.4s-7.882.165-12.933.165-9.625-.062-12.936-.165-5.357-.242-5.357-.4,2.047-.3,5.357-.4,7.884-.165,12.936-.165,9.623.063,12.933.165S-1112.308,2700.836-1112.308,2700.991Z" transform="translate(1148.891 -2700.429)" fill="#5e6178"/>
        </g>
      </g>
      <g id="Grupo_59548" data-name="Grupo 59548" transform="translate(67.159 94.096)">
        <g id="Grupo_59547" data-name="Grupo 59547">
          <path id="Trazado_104042" data-name="Trazado 104042" d="M-1097.91,2634.752c0,.31-12.254.562-27.367.562s-27.369-.252-27.369-.562,12.251-.562,27.369-.562S-1097.91,2634.442-1097.91,2634.752Z" transform="translate(1152.646 -2634.19)" fill="#5e6178"/>
        </g>
      </g>
      <g id="Grupo_59552" data-name="Grupo 59552" transform="translate(67.159 187.661)">
        <g id="Grupo_59549" data-name="Grupo 59549">
          <path id="Trazado_104043" data-name="Trazado 104043" d="M-1150.085,2765.5a1.281,1.281,0,0,1-1.281,1.281,1.281,1.281,0,0,1-1.28-1.281,1.279,1.279,0,0,1,1.28-1.28A1.28,1.28,0,0,1-1150.085,2765.5Z" transform="translate(1152.646 -2764.215)" fill="#344154"/>
        </g>
        <g id="Grupo_59550" data-name="Grupo 59550" transform="translate(7.601)">
          <path id="Trazado_104044" data-name="Trazado 104044" d="M-1139.522,2765.5a1.28,1.28,0,0,1-1.28,1.281,1.281,1.281,0,0,1-1.281-1.281,1.28,1.28,0,0,1,1.281-1.28A1.279,1.279,0,0,1-1139.522,2765.5Z" transform="translate(1142.083 -2764.215)" fill="#344154"/>
        </g>
        <g id="Grupo_59551" data-name="Grupo 59551" transform="translate(15.202)">
          <path id="Trazado_104045" data-name="Trazado 104045" d="M-1128.958,2765.5a1.281,1.281,0,0,1-1.281,1.281,1.281,1.281,0,0,1-1.281-1.281,1.28,1.28,0,0,1,1.281-1.28A1.28,1.28,0,0,1-1128.958,2765.5Z" transform="translate(1131.52 -2764.215)" fill="#344154"/>
        </g>
      </g>
      <g id="Grupo_59554" data-name="Grupo 59554" transform="translate(66.043 158.615)">
        <g id="Grupo_59553" data-name="Grupo 59553">
          <path id="Trazado_104046" data-name="Trazado 104046" d="M-1107.314,2724.412c0,.31-10.5.562-23.441.562s-23.442-.252-23.442-.562,10.494-.562,23.442-.562S-1107.314,2724.1-1107.314,2724.412Z" transform="translate(1154.197 -2723.85)" fill="#d9a171"/>
        </g>
      </g>
      <g id="Grupo_59556" data-name="Grupo 59556" transform="translate(66.043 166.925)">
        <g id="Grupo_59555" data-name="Grupo 59555">
          <path id="Trazado_104047" data-name="Trazado 104047" d="M-1086.475,2735.96c0,.311-15.161.563-33.86.563s-33.862-.252-33.862-.562,15.158-.562,33.862-.562S-1086.475,2735.65-1086.475,2735.96Z" transform="translate(1154.197 -2735.398)" fill="#5e6178"/>
        </g>
      </g>
    </g>
    <g id="Grupo_59583" data-name="Grupo 59583" transform="translate(-1163.831 2654.077)">
      <g id="Grupo_59563" data-name="Grupo 59563" transform="translate(26.171 7.608)">
        <g id="Grupo_59560" data-name="Grupo 59560" transform="translate(0 0)">
          <g id="Grupo_59559" data-name="Grupo 59559">
            <g id="Grupo_59558" data-name="Grupo 59558">
              <rect id="Rectángulo_5717" data-name="Rectángulo 5717" width="39.894" height="49.9" transform="translate(0 39.893) rotate(-89.632)" fill="#aed3f2"/>
            </g>
          </g>
        </g>
        <rect id="Rectángulo_5718" data-name="Rectángulo 5718" width="34.871" height="46.394" transform="translate(1.736 37.393) rotate(-89.632)" fill="#d9a171"/>
        <path id="Trazado_104048" data-name="Trazado 104048" d="M-1005.758,2798.978l16.343-21.571,9.95,13.625,6.855-7.205,13.245,15.449Z" transform="translate(1007.495 -2761.585)" fill="#d9a171" opacity="0.2"/>
        <g id="Grupo_59562" data-name="Grupo 59562" transform="translate(25.089 9.582)" opacity="0.2">
          <g id="Grupo_59561" data-name="Grupo 59561">
            <path id="Trazado_104049" data-name="Trazado 104049" d="M-966,2772.413a3.653,3.653,0,0,1-3.676,3.63,3.653,3.653,0,0,1-3.63-3.677,3.653,3.653,0,0,1,3.676-3.629A3.652,3.652,0,0,1-966,2772.413Z" transform="translate(973.305 -2768.736)" fill="#d9a171"/>
          </g>
        </g>
      </g>
      <g id="Grupo_59569" data-name="Grupo 59569" transform="translate(18.853 3.443)">
        <g id="Grupo_59566" data-name="Grupo 59566" transform="translate(0 0)">
          <g id="Grupo_59565" data-name="Grupo 59565" transform="translate(0)">
            <g id="Grupo_59564" data-name="Grupo 59564">
              <rect id="Rectángulo_5719" data-name="Rectángulo 5719" width="39.894" height="49.9" transform="translate(0 39.893) rotate(-89.632)" fill="#aed3f2"/>
            </g>
          </g>
        </g>
        <rect id="Rectángulo_5720" data-name="Rectángulo 5720" width="34.871" height="46.394" transform="translate(1.736 37.392) rotate(-89.632)" fill="#d9a171"/>
        <path id="Trazado_104050" data-name="Trazado 104050" d="M-1015.927,2793.189l16.343-21.571,9.951,13.625,6.854-7.206,13.245,15.449Z" transform="translate(1017.664 -2755.797)" fill="#d9a171" opacity="0.2"/>
        <g id="Grupo_59568" data-name="Grupo 59568" transform="translate(25.089 9.582)" opacity="0.2">
          <g id="Grupo_59567" data-name="Grupo 59567">
            <path id="Trazado_104051" data-name="Trazado 104051" d="M-976.169,2766.623a3.653,3.653,0,0,1-3.676,3.63,3.653,3.653,0,0,1-3.629-3.676,3.652,3.652,0,0,1,3.676-3.629A3.653,3.653,0,0,1-976.169,2766.623Z" transform="translate(983.474 -2762.947)" fill="#d9a171"/>
          </g>
        </g>
      </g>
      <g id="Grupo_59575" data-name="Grupo 59575" transform="translate(12.336 0)">
        <g id="Grupo_59572" data-name="Grupo 59572" transform="translate(0)">
          <g id="Grupo_59571" data-name="Grupo 59571">
            <g id="Grupo_59570" data-name="Grupo 59570">
              <rect id="Rectángulo_5721" data-name="Rectángulo 5721" width="39.894" height="49.9" transform="translate(0 39.893) rotate(-89.632)" fill="#aed3f2"/>
            </g>
          </g>
        </g>
        <rect id="Rectángulo_5722" data-name="Rectángulo 5722" width="34.871" height="46.394" transform="translate(1.736 37.393) rotate(-89.632)" fill="#d9a171"/>
        <path id="Trazado_104052" data-name="Trazado 104052" d="M-1024.983,2788.405l16.343-21.571,9.951,13.625,6.855-7.206,13.245,15.449Z" transform="translate(1026.72 -2751.013)" fill="#d9a171" opacity="0.2"/>
        <g id="Grupo_59574" data-name="Grupo 59574" transform="translate(25.089 9.582)" opacity="0.2">
          <g id="Grupo_59573" data-name="Grupo 59573">
            <path id="Trazado_104053" data-name="Trazado 104053" d="M-985.225,2761.84a3.653,3.653,0,0,1-3.677,3.629,3.653,3.653,0,0,1-3.63-3.676,3.653,3.653,0,0,1,3.676-3.63A3.653,3.653,0,0,1-985.225,2761.84Z" transform="translate(992.531 -2758.163)" fill="#d9a171"/>
          </g>
        </g>
      </g>
      <g id="Grupo_59581" data-name="Grupo 59581" transform="translate(5.019 4.285)">
        <g id="Grupo_59578" data-name="Grupo 59578" transform="translate(0 0)">
          <g id="Grupo_59577" data-name="Grupo 59577">
            <g id="Grupo_59576" data-name="Grupo 59576">
              <rect id="Rectángulo_5723" data-name="Rectángulo 5723" width="39.894" height="49.9" transform="translate(0 39.893) rotate(-89.632)" fill="#aed3f2"/>
            </g>
          </g>
        </g>
        <rect id="Rectángulo_5724" data-name="Rectángulo 5724" width="34.871" height="46.394" transform="translate(1.736 37.392) rotate(-89.632)" fill="#5e6178"/>
        <path id="Trazado_104054" data-name="Trazado 104054" d="M-1035.153,2794.36l16.343-21.571,9.951,13.625,6.855-7.205,13.245,15.449Z" transform="translate(1036.889 -2756.968)" fill="#d9a171" opacity="0.2"/>
        <g id="Grupo_59580" data-name="Grupo 59580" transform="translate(25.089 9.582)" opacity="0.2">
          <g id="Grupo_59579" data-name="Grupo 59579">
            <path id="Trazado_104055" data-name="Trazado 104055" d="M-995.394,2767.794a3.653,3.653,0,0,1-3.676,3.629,3.653,3.653,0,0,1-3.63-3.677,3.653,3.653,0,0,1,3.676-3.629A3.653,3.653,0,0,1-995.394,2767.794Z" transform="translate(1002.7 -2764.118)" fill="#d9a171"/>
          </g>
        </g>
      </g>
      <g id="Grupo_59582" data-name="Grupo 59582" transform="translate(0 19.119)">
        <rect id="Rectángulo_5725" data-name="Rectángulo 5725" width="28.809" height="38.518" transform="translate(55.174 0)" fill="#344154"/>
        <path id="Trazado_104056" data-name="Trazado 104056" d="M-1044.54,2771.416v38.519h57.618v-38.519Zm34.934,9.116h-12.25a2.651,2.651,0,0,1-2.651-2.651,2.651,2.651,0,0,1,2.651-2.651h12.25a2.65,2.65,0,0,1,2.651,2.651A2.651,2.651,0,0,1-1009.606,2780.532Z" transform="translate(1044.54 -2771.416)" fill="#d9a171"/>
      </g>
    </g>
    <g id="Grupo_59710" data-name="Grupo 59710" transform="translate(-1378.17 2514.996)">
      <g id="Grupo_59709" data-name="Grupo 59709" clip-path="url(#clip-path)">
        <g id="Grupo_59708" data-name="Grupo 59708" transform="translate(40.466 12.943)">
          <g id="Grupo_59620" data-name="Grupo 59620" transform="translate(0 74.849)">
            <g id="Grupo_59593" data-name="Grupo 59593" transform="translate(0 99.598)">
              <g id="Grupo_59584" data-name="Grupo 59584">
                <path id="Trazado_104057" data-name="Trazado 104057" d="M-1081.364,2818.449l-77.134-4.723c-.487-1.1-.81-1.746-.81-1.746l-20.906.416-6.8-.416s-.1.207-.269.557l-70.176,1.4c-13.991,0-28.7,8.536-28.7,19.443-.177,10.381,4.85,21.648,17.386,21.393l95.614-.321,95.613.321c12.536.255,15.851-7.3,15.87-16.272C-1060.214,2821.8-1070.676,2818.589-1081.364,2818.449Z" transform="translate(1286.166 -2811.98)" fill="#5e6178"/>
              </g>
              <g id="Grupo_59586" data-name="Grupo 59586" transform="translate(26.167 13.576)">
                <g id="Grupo_59585" data-name="Grupo 59585">
                  <path id="Trazado_104058" data-name="Trazado 104058" d="M-1249.8,2860.068s.155-.018.46-.027l1.352-.025,5.208-.049,19.239-.083,64.2-.085-.269.285c-.131-2.1-.271-4.339-.413-6.6-.288-4.626-.571-9.175-.84-13.5l.238.249-59.143-6.581-17.525-2.005-4.722-.565-1.222-.159a2.728,2.728,0,0,1-.414-.071,2.484,2.484,0,0,1,.419.02l1.227.11,4.732.472,17.543,1.844,59.162,6.4.223.025.014.224c.271,4.328.556,8.878.845,13.5.141,2.26.281,4.5.411,6.6l.018.286h-.286l-64.2-.085-19.239-.083-5.208-.049-1.352-.025C-1249.648,2860.086-1249.8,2860.068-1249.8,2860.068Z" transform="translate(1249.803 -2830.846)" fill="#344154"/>
                </g>
              </g>
              <g id="Grupo_59588" data-name="Grupo 59588" transform="translate(25.357 9.042)">
                <g id="Grupo_59587" data-name="Grupo 59587">
                  <path id="Trazado_104059" data-name="Trazado 104059" d="M-1230.405,2830.871c-.059.073-1.018-.7-2.7-1.728a29.407,29.407,0,0,0-7.022-3.086,29.445,29.445,0,0,0-7.59-1.116c-1.973-.024-3.2.121-3.208.028a2.732,2.732,0,0,1,.848-.2,17.852,17.852,0,0,1,2.357-.214,25.46,25.46,0,0,1,7.742.979,25.441,25.441,0,0,1,7.078,3.283,17.552,17.552,0,0,1,1.884,1.434C-1230.6,2830.626-1230.382,2830.844-1230.405,2830.871Z" transform="translate(1250.928 -2824.545)" fill="#344154"/>
                </g>
              </g>
              <g id="Grupo_59590" data-name="Grupo 59590" transform="translate(130.735 11.261)">
                <g id="Grupo_59589" data-name="Grupo 59589">
                  <path id="Trazado_104060" data-name="Trazado 104060" d="M-1036.408,2827.634c.034.145-15.18,3.824-33.977,8.216s-34.069,7.836-34.1,7.691,15.177-3.823,33.98-8.216S-1036.442,2827.488-1036.408,2827.634Z" transform="translate(1104.487 -2827.629)" fill="#344154"/>
                </g>
              </g>
              <g id="Grupo_59592" data-name="Grupo 59592" transform="translate(175.139 9.758)">
                <g id="Grupo_59591" data-name="Grupo 59591">
                  <path id="Trazado_104061" data-name="Trazado 104061" d="M-1031.969,2825.561a30.389,30.389,0,0,0-5.961,2.854,30.347,30.347,0,0,0-4.844,4.5,5.306,5.306,0,0,1,1.038-1.687,15.766,15.766,0,0,1,3.5-3.257,15.766,15.766,0,0,1,4.315-2.062A5.312,5.312,0,0,1-1031.969,2825.561Z" transform="translate(1042.78 -2825.54)" fill="#344154"/>
                </g>
              </g>
            </g>
            <g id="Grupo_59594" data-name="Grupo 59594" transform="translate(126.988 21.805)">
              <path id="Trazado_104062" data-name="Trazado 104062" d="M-1079.444,2703.873l24.432,42.53a18.071,18.071,0,0,1,.494,17.083h0a18.07,18.07,0,0,1-16.673,9.982l-37.516-1.059-.988-13.643,33.041-6.327-22.277-38.556Z" transform="translate(1109.695 -2703.873)" fill="#ffbf9d"/>
            </g>
            <g id="Grupo_59595" data-name="Grupo 59595" transform="translate(46.547 21.805)">
              <path id="Trazado_104063" data-name="Trazado 104063" d="M-1201.847,2776.653l34.5,9.138.75-10.345-31.791-18.466,23.218-43.1-19.487-10.011-24.432,42.53h0a19.918,19.918,0,0,0,11.5,28.423Z" transform="translate(1221.482 -2703.873)" fill="#ffbf9d"/>
            </g>
            <g id="Grupo_59596" data-name="Grupo 59596" transform="translate(61.026)">
              <path id="Trazado_104064" data-name="Trazado 104064" d="M-1115.521,2722.683l23.579-12.417a119.391,119.391,0,0,0-10.1-16.846c-7.305-10.1-18.629-17.162-31.488-19.848h0l-27.121.32a35.867,35.867,0,0,0-9.672,2.226l.02-.1c-14.719,3.246-31.052,35.348-31.052,35.348l21.457,11.3.474,3.375a22.92,22.92,0,0,0,5.592,12.026l-6.249,41.1,69.639,1.44-8.867-29.431Z" transform="translate(1201.36 -2673.571)" fill="#d9a171"/>
            </g>
            <g id="Grupo_59598" data-name="Grupo 59598" transform="translate(82.805 34.502)">
              <g id="Grupo_59597" data-name="Grupo 59597">
                <path id="Trazado_104065" data-name="Trazado 104065" d="M-1164.719,2751.726a4.985,4.985,0,0,1-1.036-.784,15.013,15.013,0,0,1-2.368-2.648,17.232,17.232,0,0,1-2.906-11.2,36.543,36.543,0,0,1,1.592-6.248c.625-1.874,1.258-3.533,1.81-4.918s1.029-2.494,1.374-3.252a5.674,5.674,0,0,1,.594-1.155,6.275,6.275,0,0,1-.4,1.233c-.324.885-.73,1.993-1.212,3.308-.5,1.4-1.1,3.066-1.693,4.937a39.1,39.1,0,0,0-1.529,6.159,17.754,17.754,0,0,0,.586,6.236,16.6,16.6,0,0,0,2.1,4.688A28.978,28.978,0,0,0-1164.719,2751.726Z" transform="translate(1171.094 -2721.518)" fill="#344154"/>
              </g>
            </g>
            <g id="Grupo_59601" data-name="Grupo 59601" transform="translate(74.811 69.669)">
              <g id="Grupo_59599" data-name="Grupo 59599">
                <path id="Trazado_104066" data-name="Trazado 104066" d="M-1178.271,2816.226l-3.932-45.837h84.826L-1103,2816.8Z" transform="translate(1182.203 -2770.388)" fill="#344154"/>
              </g>
              <g id="Grupo_59600" data-name="Grupo 59600" transform="translate(37.012 19.044)">
                <path id="Trazado_104067" data-name="Trazado 104067" d="M-1119.967,2802.254a5.4,5.4,0,0,1-5.4,5.4,5.4,5.4,0,0,1-5.4-5.4,5.4,5.4,0,0,1,5.4-5.4A5.4,5.4,0,0,1-1119.967,2802.254Z" transform="translate(1130.769 -2796.853)" fill="#fafafa"/>
              </g>
            </g>
            <g id="Grupo_59615" data-name="Grupo 59615" transform="translate(115.74 124.461)">
              <g id="Grupo_59602" data-name="Grupo 59602">
                <path id="Trazado_104068" data-name="Trazado 104068" d="M-1125.326,2846.531l14.4,2.01V2864.2l-13.245-.342Z" transform="translate(1125.326 -2846.531)" fill="#ffbf9d"/>
              </g>
              <g id="Grupo_59612" data-name="Grupo 59612" transform="translate(14.402 2.011)">
                <g id="Grupo_59603" data-name="Grupo 59603">
                  <path id="Trazado_104069" data-name="Trazado 104069" d="M-1105.311,2849.325h6.475a7.178,7.178,0,0,1,3.589.962l3.414,1.972a53.219,53.219,0,0,0,5.967,2.846c3.937,1.265,10.561,2.968,11.955,4.043,3.984,3.071,2.772,6.7.584,7.083-1.922.333-31.985-1.251-31.985-1.251Z" transform="translate(1105.311 -2849.325)" fill="#d9a171"/>
                </g>
                <g id="Grupo_59605" data-name="Grupo 59605" transform="translate(9.93 6.188)">
                  <g id="Grupo_59604" data-name="Grupo 59604">
                    <path id="Trazado_104070" data-name="Trazado 104070" d="M-1090.8,2866.1a10.212,10.212,0,0,1-.7-4.069,10.207,10.207,0,0,1,.453-4.1,35.89,35.89,0,0,1,.086,4.088A36.062,36.062,0,0,1-1090.8,2866.1Z" transform="translate(1091.512 -2857.925)" fill="#344154"/>
                  </g>
                </g>
                <g id="Grupo_59607" data-name="Grupo 59607" transform="translate(13.467 6.804)">
                  <g id="Grupo_59606" data-name="Grupo 59606">
                    <path id="Trazado_104071" data-name="Trazado 104071" d="M-1086.355,2866.251a13.169,13.169,0,0,1-.24-3.738,13.151,13.151,0,0,1,.3-3.733,13.151,13.151,0,0,1,.24,3.737A13.185,13.185,0,0,1-1086.355,2866.251Z" transform="translate(1086.596 -2858.78)" fill="#344154"/>
                  </g>
                </g>
                <g id="Grupo_59609" data-name="Grupo 59609" transform="translate(16.634 7.191)">
                  <g id="Grupo_59608" data-name="Grupo 59608">
                    <path id="Trazado_104072" data-name="Trazado 104072" d="M-1081.491,2867.023a14.031,14.031,0,0,1-.569-3.831,14.034,14.034,0,0,1-.031-3.873,14.074,14.074,0,0,1,.569,3.832A14.067,14.067,0,0,1-1081.491,2867.023Z" transform="translate(1082.195 -2859.318)" fill="#344154"/>
                  </g>
                </g>
                <g id="Grupo_59611" data-name="Grupo 59611" transform="translate(1.39 3.677)">
                  <g id="Grupo_59610" data-name="Grupo 59610">
                    <path id="Trazado_104073" data-name="Trazado 104073" d="M-1096.935,2860.951a4.469,4.469,0,0,1-1.328-.417,12.441,12.441,0,0,1-3.235-2c-.306-.262-.617-.551-.925-.868a3.692,3.692,0,0,1-.825-1.169,1.631,1.631,0,0,1,.181-1.607,1.224,1.224,0,0,1,.8-.443,2.072,2.072,0,0,1,.873.1,6.571,6.571,0,0,1,4.233,5.318,6.578,6.578,0,0,1-2.878,6.151,4.082,4.082,0,0,1-1.484.667,1.722,1.722,0,0,1-.845-.041,1.128,1.128,0,0,1-.653-.575,1.634,1.634,0,0,1,.19-1.492,4.6,4.6,0,0,1,.832-1,9.946,9.946,0,0,1,3.183-2.085,4.08,4.08,0,0,1,1.341-.378c.013.042-.461.186-1.255.571a10.709,10.709,0,0,0-3,2.163,4.28,4.28,0,0,0-.738.934,1.238,1.238,0,0,0-.152,1.091.857.857,0,0,0,1.011.347,3.658,3.658,0,0,0,1.292-.613,6.129,6.129,0,0,0,2.62-5.672,6.131,6.131,0,0,0-3.847-4.912,1.02,1.02,0,0,0-1.16.17,1.18,1.18,0,0,0-.13,1.147,6.322,6.322,0,0,0,1.584,1.91A17.374,17.374,0,0,0-1096.935,2860.951Z" transform="translate(1103.379 -2854.435)" fill="#344154"/>
                  </g>
                </g>
              </g>
              <g id="Grupo_59614" data-name="Grupo 59614" transform="translate(21.939 2.192)">
                <g id="Grupo_59613" data-name="Grupo 59613">
                  <path id="Trazado_104074" data-name="Trazado 104074" d="M-1070.389,2866.3a3.8,3.8,0,0,0,.789-.984,3.7,3.7,0,0,0-.424-3.265,7.271,7.271,0,0,0-4-3.016c-1.83-.659-4.015-.977-6.218-1.664a43.352,43.352,0,0,1-10.7-4.875c-1.271-.81-2.252-1.536-2.916-2.054a5.8,5.8,0,0,1-.981-.866,6.374,6.374,0,0,1,1.1.7c.7.463,1.706,1.136,2.991,1.9a48.337,48.337,0,0,0,10.653,4.683c2.17.678,4.333,1,6.236,1.714a7.528,7.528,0,0,1,4.162,3.3,3.84,3.84,0,0,1,.277,3.544,2.2,2.2,0,0,1-.667.737C-1070.271,2866.271-1070.38,2866.316-1070.389,2866.3Z" transform="translate(1094.838 -2849.577)" fill="#344154"/>
                </g>
              </g>
            </g>
            <g id="Grupo_59617" data-name="Grupo 59617" transform="translate(75.498 11.036)">
              <g id="Grupo_59616" data-name="Grupo 59616">
                <path id="Trazado_104075" data-name="Trazado 104075" d="M-1104.425,2689.124a.822.822,0,0,1,0,.221c-.012.171-.028.384-.047.646q-.083.907-.229,2.5c-.223,2.223-.543,5.406-.944,9.4l-.024.243-.217-.115-12.506-6.583.3-.083-6.793,11.461-.145.246-.227-.174-11.439-8.772h.329c-1.59,1.245-3.276,2.568-4.983,3.905l-6.792,5.318-.25.2-.15-.278-6.471-11.97.324.109-13.721,6.114-.252.112-.046-.27c-.8-4.7-1.492-8.8-2.071-12.2l.211.119-7.857,3-2.09.774-.541.188a.693.693,0,0,1-.188.051.683.683,0,0,1,.173-.091l.525-.228,2.061-.851,7.8-3.131.178-.072.034.19c.609,3.4,1.342,7.489,2.183,12.185l-.3-.158,13.69-6.183.212-.1.112.205,6.5,11.955-.4-.083,6.788-5.323,4.985-3.9.164-.129.165.126,11.421,8.8-.372.071,6.844-11.429.11-.184.187.1,12.45,6.688-.241.127c.466-3.991.837-7.168,1.1-9.388q.2-1.592.314-2.495l.092-.641A.826.826,0,0,1-1104.425,2689.124Z" transform="translate(1181.249 -2688.907)" fill="#aed3f2"/>
              </g>
            </g>
            <g id="Grupo_59619" data-name="Grupo 59619" transform="translate(70.466 22.146)">
              <g id="Grupo_59618" data-name="Grupo 59618">
                <path id="Trazado_104076" data-name="Trazado 104076" d="M-1096.32,2704.986a1.509,1.509,0,0,1-.058.3l-.217.879-.886,3.389c-.8,2.98-1.955,7.261-3.394,12.605l-.055.2-.193-.093-14.613-7.014.286-.074-12.309,17.555-.18.258-.222-.225-11.829-11.989-2.483-2.519.335.039-15.942,10-.228.143-.132-.233-8.595-15.179.27.1-16.392,5.642-.156.054-.053-.154c-1.552-4.5-2.783-8.073-3.637-10.549l-.943-2.8-.232-.725a1.11,1.11,0,0,1-.064-.25,1.1,1.1,0,0,1,.107.235l.273.709,1.024,2.776,3.781,10.5-.209-.1,16.352-5.758.176-.063.094.164,8.65,15.147-.36-.091,15.929-10.018.183-.115.152.154,2.483,2.518,11.819,12-.4.034,12.364-17.516.113-.159.174.085,14.567,7.108-.247.111c1.5-5.325,2.71-9.592,3.549-12.562.418-1.442.745-2.568.976-3.364l.264-.867A1.43,1.43,0,0,1-1096.32,2704.986Z" transform="translate(1188.242 -2704.347)" fill="#aed3f2"/>
              </g>
            </g>
          </g>
          <g id="Grupo_59707" data-name="Grupo 59707" transform="translate(92.301)">
            <g id="Grupo_59621" data-name="Grupo 59621" transform="translate(7.093)">
              <path id="Trazado_104077" data-name="Trazado 104077" d="M-1095.5,2594.921a15.207,15.207,0,0,1-11.58-3.654c3.774,1.9,8.8-.71,10.13-4.724s.239-11.482-3.057-14.13a13.068,13.068,0,0,0-11.367-2.445c-3.885,1.04-8,6.946-9.273,10.762l.073.117c-.6-.238-1.2-.461-1.806-.665a31.129,31.129,0,0,0-13.409-1.623,21.746,21.746,0,0,0-12.255,5.4l26.342,42.34c4.784-.421,9.023-3.648,11.53-7.745s3.469-8.971,3.705-13.769c.06-1.2.056-2.42.006-3.635l8.472,1.362a18.889,18.889,0,0,0-5.632-5.034A7.075,7.075,0,0,0-1095.5,2594.921Z" transform="translate(1148.04 -2569.556)" fill="#344154"/>
            </g>
            <g id="Grupo_59695" data-name="Grupo 59695" transform="translate(1.13 15.387)">
              <g id="Grupo_59694" data-name="Grupo 59694">
                <g id="Grupo_59693" data-name="Grupo 59693">
                  <g id="Grupo_59687" data-name="Grupo 59687">
                    <g id="Grupo_59686" data-name="Grupo 59686">
                      <g id="Grupo_59675" data-name="Grupo 59675">
                        <g id="Grupo_59674" data-name="Grupo 59674">
                          <g id="Grupo_59673" data-name="Grupo 59673">
                            <g id="Grupo_59626" data-name="Grupo 59626">
                              <g id="Grupo_59625" data-name="Grupo 59625">
                                <g id="Grupo_59624" data-name="Grupo 59624">
                                  <g id="Grupo_59623" data-name="Grupo 59623">
                                    <g id="Grupo_59622" data-name="Grupo 59622">
                                      <path id="Trazado_104078" data-name="Trazado 104078" d="M-1131.117,2666.629a13.249,13.249,0,0,0,12.963-13.092l.612-52.676h0a4.193,4.193,0,0,0-3.751-4.253l-22.249-5.624c-7.125-.753-11.863,8.021-12.314,15.171-.5,7.945-.8,17.665.143,23.593,1.893,11.92,11.029,13.437,11.029,13.437,0-.031.006,4.613.034,10.261a13.251,13.251,0,0,0,13.534,13.182Z" transform="translate(1156.328 -2590.939)" fill="#ffbf9d"/>
                                    </g>
                                  </g>
                                </g>
                              </g>
                            </g>
                            <g id="Grupo_59638" data-name="Grupo 59638" transform="translate(2.555 18.666)">
                              <g id="Grupo_59631" data-name="Grupo 59631" transform="translate(2.537 2.885)">
                                <g id="Grupo_59630" data-name="Grupo 59630">
                                  <g id="Grupo_59629" data-name="Grupo 59629">
                                    <g id="Grupo_59628" data-name="Grupo 59628">
                                      <g id="Grupo_59627" data-name="Grupo 59627">
                                        <path id="Trazado_104079" data-name="Trazado 104079" d="M-1149.25,2622.27a1.529,1.529,0,0,0,1.474,1.542,1.462,1.462,0,0,0,1.576-1.378,1.53,1.53,0,0,0-1.472-1.543A1.464,1.464,0,0,0-1149.25,2622.27Z" transform="translate(1149.251 -2620.888)" fill="#344154"/>
                                      </g>
                                    </g>
                                  </g>
                                </g>
                              </g>
                              <g id="Grupo_59637" data-name="Grupo 59637">
                                <g id="Grupo_59636" data-name="Grupo 59636">
                                  <g id="Grupo_59635" data-name="Grupo 59635">
                                    <g id="Grupo_59634" data-name="Grupo 59634">
                                      <g id="Grupo_59633" data-name="Grupo 59633">
                                        <g id="Grupo_59632" data-name="Grupo 59632">
                                          <path id="Trazado_104080" data-name="Trazado 104080" d="M-1152.753,2618.486c.19.2,1.349-.658,2.993-.653,1.643-.02,2.85.827,3.029.625.088-.089-.106-.449-.631-.832a4.2,4.2,0,0,0-2.425-.747,4.023,4.023,0,0,0-2.382.768C-1152.675,2618.036-1152.846,2618.4-1152.753,2618.486Z" transform="translate(1152.777 -2616.879)" fill="#344154"/>
                                        </g>
                                      </g>
                                    </g>
                                  </g>
                                </g>
                              </g>
                            </g>
                            <g id="Grupo_59650" data-name="Grupo 59650" transform="translate(18.725 18.973)">
                              <g id="Grupo_59643" data-name="Grupo 59643" transform="translate(2.017 2.578)">
                                <g id="Grupo_59642" data-name="Grupo 59642">
                                  <g id="Grupo_59641" data-name="Grupo 59641">
                                    <g id="Grupo_59640" data-name="Grupo 59640">
                                      <g id="Grupo_59639" data-name="Grupo 59639">
                                        <path id="Trazado_104081" data-name="Trazado 104081" d="M-1127.5,2622.27a1.528,1.528,0,0,0,1.474,1.542,1.462,1.462,0,0,0,1.576-1.378,1.529,1.529,0,0,0-1.472-1.543A1.462,1.462,0,0,0-1127.5,2622.27Z" transform="translate(1127.503 -2620.888)" fill="#344154"/>
                                      </g>
                                    </g>
                                  </g>
                                </g>
                              </g>
                              <g id="Grupo_59649" data-name="Grupo 59649">
                                <g id="Grupo_59648" data-name="Grupo 59648">
                                  <g id="Grupo_59647" data-name="Grupo 59647">
                                    <g id="Grupo_59646" data-name="Grupo 59646">
                                      <g id="Grupo_59645" data-name="Grupo 59645">
                                        <g id="Grupo_59644" data-name="Grupo 59644">
                                          <path id="Trazado_104082" data-name="Trazado 104082" d="M-1130.282,2618.912c.19.2,1.35-.657,2.993-.653,1.643-.019,2.85.827,3.029.625.088-.089-.1-.449-.631-.832a4.2,4.2,0,0,0-2.424-.748,4.03,4.03,0,0,0-2.383.77C-1130.2,2618.462-1130.375,2618.823-1130.282,2618.912Z" transform="translate(1130.306 -2617.305)" fill="#344154"/>
                                        </g>
                                      </g>
                                    </g>
                                  </g>
                                </g>
                              </g>
                            </g>
                            <g id="Grupo_59656" data-name="Grupo 59656" transform="translate(8.588 19.073)">
                              <g id="Grupo_59655" data-name="Grupo 59655">
                                <g id="Grupo_59654" data-name="Grupo 59654">
                                  <g id="Grupo_59653" data-name="Grupo 59653">
                                    <g id="Grupo_59652" data-name="Grupo 59652">
                                      <g id="Grupo_59651" data-name="Grupo 59651">
                                        <path id="Trazado_104083" data-name="Trazado 104083" d="M-1140.2,2631.151a10.924,10.924,0,0,0-2.672-.482c-.42-.043-.818-.126-.889-.413a2.141,2.141,0,0,1,.281-1.245q.593-1.524,1.242-3.2c1.725-4.553,2.974-8.3,2.791-8.367s-1.732,3.569-3.457,8.123q-.623,1.685-1.19,3.217a2.432,2.432,0,0,0-.218,1.649,1.054,1.054,0,0,0,.691.615,2.893,2.893,0,0,0,.713.1A10.673,10.673,0,0,0-1140.2,2631.151Z" transform="translate(1144.394 -2617.444)" fill="#344154"/>
                                      </g>
                                    </g>
                                  </g>
                                </g>
                              </g>
                            </g>
                            <g id="Grupo_59661" data-name="Grupo 59661" transform="translate(11.643 47.988)">
                              <g id="Grupo_59660" data-name="Grupo 59660">
                                <g id="Grupo_59659" data-name="Grupo 59659">
                                  <g id="Grupo_59658" data-name="Grupo 59658">
                                    <g id="Grupo_59657" data-name="Grupo 59657">
                                      <path id="Trazado_104084" data-name="Trazado 104084" d="M-1140.148,2661.885a30.32,30.32,0,0,0,15.963-4.258s-3.873,8.188-15.8,7.073Z" transform="translate(1140.148 -2657.626)" fill="#ff9a6c"/>
                                    </g>
                                  </g>
                                </g>
                              </g>
                            </g>
                            <g id="Grupo_59666" data-name="Grupo 59666" transform="translate(13.31 35.626)">
                              <g id="Grupo_59665" data-name="Grupo 59665">
                                <g id="Grupo_59664" data-name="Grupo 59664">
                                  <g id="Grupo_59663" data-name="Grupo 59663">
                                    <g id="Grupo_59662" data-name="Grupo 59662">
                                      <path id="Trazado_104085" data-name="Trazado 104085" d="M-1137.666,2641.565a2.961,2.961,0,0,1,2.657-1.1,2.706,2.706,0,0,1,1.87,1,1.716,1.716,0,0,1,.13,1.961,1.988,1.988,0,0,1-2.156.545,6.216,6.216,0,0,1-2.1-1.255,1.809,1.809,0,0,1-.47-.486.55.55,0,0,1,0-.612" transform="translate(1137.831 -2640.448)" fill="#ff9a6c"/>
                                    </g>
                                  </g>
                                </g>
                              </g>
                            </g>
                            <g id="Grupo_59672" data-name="Grupo 59672" transform="translate(12.377 33.917)">
                              <g id="Grupo_59671" data-name="Grupo 59671">
                                <g id="Grupo_59670" data-name="Grupo 59670">
                                  <g id="Grupo_59669" data-name="Grupo 59669">
                                    <g id="Grupo_59668" data-name="Grupo 59668">
                                      <g id="Grupo_59667" data-name="Grupo 59667">
                                        <path id="Trazado_104086" data-name="Trazado 104086" d="M-1133.884,2638.073c-.268-.015-.271,1.771-1.8,3.038s-3.429,1.072-3.442,1.321c-.025.112.424.347,1.227.368a4.447,4.447,0,0,0,2.874-1,3.868,3.868,0,0,0,1.394-2.547C-1133.563,2638.505-1133.762,2638.063-1133.884,2638.073Z" transform="translate(1139.127 -2638.072)" fill="#344154"/>
                                      </g>
                                    </g>
                                  </g>
                                </g>
                              </g>
                            </g>
                          </g>
                        </g>
                      </g>
                      <g id="Grupo_59680" data-name="Grupo 59680" transform="translate(18 16.467)">
                        <g id="Grupo_59679" data-name="Grupo 59679">
                          <g id="Grupo_59678" data-name="Grupo 59678">
                            <g id="Grupo_59677" data-name="Grupo 59677">
                              <g id="Grupo_59676" data-name="Grupo 59676">
                                <path id="Trazado_104087" data-name="Trazado 104087" d="M-1131.3,2615.055c.163.447,1.8.235,3.735.468,1.935.194,3.491.759,3.747.358.115-.192-.157-.613-.786-1.046a6.248,6.248,0,0,0-2.777-.972,6.255,6.255,0,0,0-2.923.344C-1131.017,2614.492-1131.374,2614.843-1131.3,2615.055Z" transform="translate(1131.313 -2613.822)" fill="#344154"/>
                              </g>
                            </g>
                          </g>
                        </g>
                      </g>
                      <g id="Grupo_59685" data-name="Grupo 59685" transform="translate(2.766 15.533)">
                        <g id="Grupo_59684" data-name="Grupo 59684">
                          <g id="Grupo_59683" data-name="Grupo 59683">
                            <g id="Grupo_59682" data-name="Grupo 59682">
                              <g id="Grupo_59681" data-name="Grupo 59681">
                                <path id="Trazado_104088" data-name="Trazado 104088" d="M-1152.442,2614.23c.289.373,1.423-.015,2.786-.032,1.362-.066,2.516.251,2.782-.139.116-.19-.065-.564-.569-.919a3.854,3.854,0,0,0-2.265-.612,3.851,3.851,0,0,0-2.221.751C-1152.411,2613.663-1152.569,2614.048-1152.442,2614.23Z" transform="translate(1152.484 -2612.525)" fill="#344154"/>
                              </g>
                            </g>
                          </g>
                        </g>
                      </g>
                    </g>
                  </g>
                  <g id="Grupo_59689" data-name="Grupo 59689" transform="translate(37.1 24.361)">
                    <g id="Grupo_59688" data-name="Grupo 59688">
                      <path id="Trazado_104089" data-name="Trazado 104089" d="M-1104.405,2625.167a2.987,2.987,0,0,1,3.116.156,5.7,5.7,0,0,1,2.467,6.559,5.7,5.7,0,0,1-5.949,3.7" transform="translate(1104.771 -2624.792)" fill="#ffbf9d"/>
                    </g>
                  </g>
                  <g id="Grupo_59692" data-name="Grupo 59692" transform="translate(38.025 27.019)">
                    <g id="Grupo_59691" data-name="Grupo 59691">
                      <g id="Grupo_59690" data-name="Grupo 59690">
                        <path id="Trazado_104090" data-name="Trazado 104090" d="M-1103.213,2633.067c.034-.085.464.1,1.038-.163a2.075,2.075,0,0,0,1.023-2.037,2.1,2.1,0,0,0-1.272-1.911c-.6-.244-1.035-.125-1.06-.217-.042-.059.405-.376,1.192-.2a2.188,2.188,0,0,1,1.166.727,2.654,2.654,0,0,1,.592,1.568,2.369,2.369,0,0,1-1.492,2.48C-1102.836,2633.528-1103.276,2633.115-1103.213,2633.067Z" transform="translate(1103.486 -2628.487)" fill="#ff9a6c"/>
                      </g>
                    </g>
                  </g>
                </g>
              </g>
            </g>
            <g id="Grupo_59697" data-name="Grupo 59697" transform="translate(40.762 48.467)">
              <g id="Grupo_59696" data-name="Grupo 59696">
                <path id="Trazado_104091" data-name="Trazado 104091" d="M-1099.328,2637.842a2.45,2.45,0,0,1,.547.385l1.46,1.192,5.144,4.369.173.147-.147.176c-1.915,2.3-4.049,5.18-6.448,8.189-.543.678-1.085,1.343-1.613,1.963l-.441.519-.03-.68c-.217-4.853-.384-9.15-.479-12.234-.035-1.468-.065-2.685-.087-3.635a6.772,6.772,0,0,1,.035-1.324,6.66,6.66,0,0,1,.158,1.315c.066.948.15,2.162.25,3.627.191,3.08.422,7.373.656,12.226l-.471-.16,1.6-1.955c2.391-3,4.551-5.865,6.52-8.147l.026.322-5.02-4.515-1.379-1.289A2.47,2.47,0,0,1-1099.328,2637.842Z" transform="translate(1101.252 -2636.91)" fill="#5e6178"/>
              </g>
            </g>
            <g id="Grupo_59698" data-name="Grupo 59698" transform="translate(0 10.223)">
              <path id="Trazado_104092" data-name="Trazado 104092" d="M-1139.317,2583.762a43.41,43.41,0,0,0-8.691.949,14.558,14.558,0,0,0-7.515,4.231,8.837,8.837,0,0,0-2.076,8.129,6.4,6.4,0,0,0,6.6,4.6c2.2-.3,4.3-1.922,6.424-1.275,2,.61,3.107,3.055,5.167,3.436,2.033.376,3.843-1.449,5.9-1.627,2.273-.2,4.245,1.668,5.257,3.713s1.4,4.355,2.411,6.4a5.186,5.186,0,0,0,3.071,2.922,4.222,4.222,0,0,0,3.716-1.046,8.63,8.63,0,0,0,2.176-3.331,18.811,18.811,0,0,0-1.219-16.423,18.814,18.814,0,0,0-13.822-8.953" transform="translate(1157.898 -2583.762)" fill="#344154"/>
            </g>
            <g id="Grupo_59700" data-name="Grupo 59700" transform="translate(34.782 11.259)">
              <g id="Grupo_59699" data-name="Grupo 59699">
                <path id="Trazado_104093" data-name="Trazado 104093" d="M-1096.72,2596.826c-.093.027-.37-.961-1.1-2.421a17.522,17.522,0,0,0-3.835-5.023,17.55,17.55,0,0,0-5.386-3.308c-1.525-.581-2.536-.756-2.519-.851.006-.037.262-.021.725.04a10.789,10.789,0,0,1,1.921.453,15.661,15.661,0,0,1,5.621,3.267,15.666,15.666,0,0,1,3.818,5.261,10.743,10.743,0,0,1,.644,1.866C-1096.725,2596.563-1096.684,2596.817-1096.72,2596.826Z" transform="translate(1109.562 -2585.203)" fill="#d9a171"/>
              </g>
            </g>
            <g id="Grupo_59702" data-name="Grupo 59702" transform="translate(39.768 3.906)">
              <g id="Grupo_59701" data-name="Grupo 59701">
                <path id="Trazado_104094" data-name="Trazado 104094" d="M-1085.659,2576.5a19.73,19.73,0,0,0-2.87-.889,11.445,11.445,0,0,0-6.992,1.052,15.525,15.525,0,0,0-5.4,4.7c-1.105,1.5-1.621,2.551-1.7,2.509a2.315,2.315,0,0,1,.283-.775,14.892,14.892,0,0,1,1.108-1.953,14.514,14.514,0,0,1,5.475-4.964,11.1,11.1,0,0,1,7.308-.943,8.174,8.174,0,0,1,2.116.789C-1085.872,2576.286-1085.642,2576.473-1085.659,2576.5Z" transform="translate(1102.633 -2574.984)" fill="#5e6178"/>
              </g>
            </g>
            <g id="Grupo_59704" data-name="Grupo 59704" transform="translate(38.865 19.426)">
              <g id="Grupo_59703" data-name="Grupo 59703">
                <path id="Trazado_104095" data-name="Trazado 104095" d="M-1097.471,2596.552a7.512,7.512,0,0,1,.018,2.452,19.4,19.4,0,0,1-1.489,5.733,19.427,19.427,0,0,1-3.146,5.02,7.492,7.492,0,0,1-1.795,1.669,31.32,31.32,0,0,0,4.445-6.9A31.346,31.346,0,0,0-1097.471,2596.552Z" transform="translate(1103.888 -2596.552)" fill="#5e6178"/>
              </g>
            </g>
            <g id="Grupo_59706" data-name="Grupo 59706" transform="translate(41.26 19.679)">
              <g id="Grupo_59705" data-name="Grupo 59705">
                <path id="Trazado_104096" data-name="Trazado 104096" d="M-1096.193,2596.9c.035-.011.137.232.292.683a11.563,11.563,0,0,1,.466,1.965,16.772,16.772,0,0,1-.322,6.643,16.775,16.775,0,0,1-2.873,6,11.545,11.545,0,0,1-1.344,1.507c-.35.324-.554.489-.581.463-.068-.068.671-.813,1.616-2.193a18.9,18.9,0,0,0,2.659-5.909,18.89,18.89,0,0,0,.466-6.463C-1095.99,2597.939-1096.285,2596.931-1096.193,2596.9Z" transform="translate(1100.559 -2596.904)" fill="#5e6178"/>
              </g>
            </g>
          </g>
        </g>
      </g>
    </g>
    <g id="Grupo_59716" data-name="Grupo 59716" transform="translate(-1420.582 2618.987)">
      <g id="Grupo_59715" data-name="Grupo 59715" transform="translate(8.283)">
        <g id="Grupo_59712" data-name="Grupo 59712" transform="translate(0 21.223)">
          <rect id="Rectángulo_5727" data-name="Rectángulo 5727" width="25.85" height="70.724" fill="#6595bf"/>
          <rect id="Rectángulo_5728" data-name="Rectángulo 5728" width="16.265" height="30.715" transform="translate(4.792 4.647)" fill="#aed3f2"/>
          <path id="Trazado_104109" data-name="Trazado 104109" d="M-1367.967,2800.582a6.389,6.389,0,0,1-6.39,6.39,6.39,6.39,0,0,1-6.39-6.39,6.39,6.39,0,0,1,6.39-6.39A6.39,6.39,0,0,1-1367.967,2800.582Z" transform="translate(1387.282 -2744.816)" fill="#aed3f2"/>
          <rect id="Rectángulo_5729" data-name="Rectángulo 5729" width="10.166" height="2.614" transform="translate(7.842 10.311)" fill="#6595bf"/>
          <rect id="Rectángulo_5730" data-name="Rectángulo 5730" width="10.166" height="2.614" transform="translate(7.842 15.829)" fill="#6595bf"/>
        </g>
        <g id="Grupo_59713" data-name="Grupo 59713" transform="translate(28.018 9.504)">
          <rect id="Rectángulo_5731" data-name="Rectángulo 5731" width="25.85" height="82.454" fill="#6595bf"/>
          <rect id="Rectángulo_5732" data-name="Rectángulo 5732" width="16.265" height="30.715" transform="translate(4.792 4.647)" fill="#aed3f2"/>
          <path id="Trazado_104110" data-name="Trazado 104110" d="M-1329.032,2800.6a6.39,6.39,0,0,1-6.39,6.39,6.39,6.39,0,0,1-6.39-6.39,6.39,6.39,0,0,1,6.39-6.39A6.39,6.39,0,0,1-1329.032,2800.6Z" transform="translate(1348.347 -2733.102)" fill="#aed3f2"/>
          <rect id="Rectángulo_5733" data-name="Rectángulo 5733" width="10.166" height="2.614" transform="translate(7.842 10.311)" fill="#6595bf"/>
          <rect id="Rectángulo_5734" data-name="Rectángulo 5734" width="10.166" height="2.614" transform="translate(7.842 15.829)" fill="#6595bf"/>
        </g>
        <g id="Grupo_59714" data-name="Grupo 59714" transform="translate(56.035)">
          <rect id="Rectángulo_5735" data-name="Rectángulo 5735" width="25.85" height="91.958" fill="#6595bf"/>
          <rect id="Rectángulo_5736" data-name="Rectángulo 5736" width="16.265" height="30.715" transform="translate(4.792 4.647)" fill="#aed3f2"/>
          <path id="Trazado_104111" data-name="Trazado 104111" d="M-1290.1,2800.6a6.39,6.39,0,0,1-6.389,6.39,6.391,6.391,0,0,1-6.39-6.39,6.391,6.391,0,0,1,6.39-6.39A6.39,6.39,0,0,1-1290.1,2800.6Z" transform="translate(1309.411 -2723.597)" fill="#aed3f2"/>
          <rect id="Rectángulo_5737" data-name="Rectángulo 5737" width="10.166" height="2.614" transform="translate(7.842 10.311)" fill="#6595bf"/>
          <rect id="Rectángulo_5738" data-name="Rectángulo 5738" width="10.166" height="2.614" transform="translate(7.842 15.829)" fill="#6595bf"/>
        </g>
      </g>
      <path id="Trazado_104112" data-name="Trazado 104112" d="M-1401.339,2803.833l48.178-30.9,10.823,10.867,30.155-21.217-7.593-3.965h16.889l-4.189,15.526-2.488-8.943-34.039,24.183-10.473-10.69-45.167,28.933Z" transform="translate(1401.339 -2713.619)" fill="#d9a171"/>
    </g>
  </g>
</svg>
