<svg xmlns="http://www.w3.org/2000/svg" width="114" height="114" viewBox="0 0 114 114">
  <g id="Grupo_73064" data-name="Grupo 73064" transform="translate(-712 -4765.576)">
    <circle id="Elipse_4435" data-name="Elipse 4435" cx="57" cy="57" r="57" transform="translate(712 4765.576)" fill="#14944b"/>
    <g id="Grupo_71381" data-name="Grupo 71381" transform="translate(-42.127 4147.099)">
      <path id="Trazado_143415" data-name="Trazado 143415" d="M829.954,706.248a1.259,1.259,0,0,1-.263-.028l-49.947-10.608a1.265,1.265,0,0,1-.727-2.025c.222-.287,5.5-7.328-.185-21.506-2.259-5.64-.167-19.733-.077-20.33a1.264,1.264,0,0,1,.835-1l39.339-13.7a1.266,1.266,0,0,1,1.6,1.631c-.059.163-5.91,16.387-.083,26.791l1.231,2.185c6.14,10.861,13.78,24.377,9.476,37.719A1.265,1.265,0,0,1,829.954,706.248ZM782,693.505l47.074,10c3.207-11.959-3.873-24.484-9.595-34.606l-1.235-2.193c-5.026-8.974-2.371-21.242-.873-26.437l-36.221,12.615c-.6,4.391-1.534,14.349.031,18.259C785.9,682.92,783.558,690.391,782,693.505Z" transform="translate(2.398)" fill="#fff"/>
      <path id="Trazado_143416" data-name="Trazado 143416" d="M771.231,678.586s-.706,8.946,12.006,9.181v-5.649l11.3,9.416-11.092,8v-5.179S768.406,697.183,771.231,678.586Z" transform="translate(0 14.441)" fill="#fff"/>
      <path id="Trazado_143417" data-name="Trazado 143417" d="M826.174,639.419v20.07l-10.035-10.035Z" transform="translate(15.708 0.848)" fill="#fff"/>
      <rect id="Rectángulo_32262" data-name="Rectángulo 32262" width="18.42" height="7.768" transform="translate(838.816 646.417)" fill="#fff"/>
      <g id="Grupo_71380" data-name="Grupo 71380" transform="translate(784.284 650.302)">
        <path id="Trazado_143418" data-name="Trazado 143418" d="M780.83,650.7a14.994,14.994,0,0,1,2.154-.706,3.836,3.836,0,0,1,2.5-.024,1.905,1.905,0,0,1,1.055,1.352,1.988,1.988,0,0,1-.831,2.118l.009.032a1.9,1.9,0,0,1,1.316,1.115c.435.764.9,1.657,1.113,1.9l-1.682.426a9.32,9.32,0,0,1-.939-1.567c-.424-.857-.8-1.026-1.472-.869l-.5.128.725,2.861-1.63.414Zm2.425,2.72.648-.164c.82-.209,1.2-.742,1.041-1.379-.17-.668-.709-.889-1.467-.709a4.316,4.316,0,0,0-.731.242Z" transform="translate(-780.83 -645.858)" fill="#fff"/>
        <path id="Trazado_143419" data-name="Trazado 143419" d="M787.167,649.172l1.061,4.189c.318,1.253.954,1.771,1.8,1.557.865-.22,1.187-.944.861-2.229l-1.061-4.191,1.641-.415,1.036,4.082c.568,2.247-.3,3.6-2.2,4.084-1.835.465-3.174-.276-3.761-2.6l-1.029-4.06Z" transform="translate(-779.205 -646.446)" fill="#fff"/>
        <path id="Trazado_143420" data-name="Trazado 143420" d="M792.882,649.171l-1.955.5-.352-1.382,5.594-1.418.352,1.382-1.988.5,1.494,5.9-1.653.418Z" transform="translate(-777.448 -646.868)" fill="#fff"/>
      </g>
      <path id="Trazado_143421" data-name="Trazado 143421" d="M795.735,644.949l2.4,15.525,11.89-2.656,1.872-18.874Z" transform="translate(8.626 0.684)" fill="#fff"/>
      <path id="Trazado_143422" data-name="Trazado 143422" d="M779.129,661.266l.562-1.794,24.7-5.935.234,1.708Z" transform="translate(2.864 5.748)" fill="#fff"/>
      <rect id="Rectángulo_32263" data-name="Rectángulo 32263" width="37.409" height="1.346" transform="matrix(0.977, -0.212, 0.212, 0.977, 784.141, 673.099)" fill="#fff"/>
      <rect id="Rectángulo_32264" data-name="Rectángulo 32264" width="44.697" height="1.347" transform="translate(785.019 687.668) rotate(-5.098)" fill="#fff"/>
      <rect id="Rectángulo_32265" data-name="Rectángulo 32265" width="14.978" height="11.285" transform="translate(804.361 672.694) rotate(-9.355)" fill="#fff"/>
    </g>
  </g>
</svg>
