<svg xmlns="http://www.w3.org/2000/svg" width="128" height="128" viewBox="0 0 128 128">
  <g id="Grupo_71373" data-name="Grupo 71373" transform="translate(-356 -4855)">
    <circle id="Elipse_4198" data-name="Elipse 4198" cx="64" cy="64" r="64" transform="translate(356 4855)" fill="#6595bf"/>
    <g id="budget_1_" data-name="budget (1)" transform="translate(378.667 4879)">
      <g id="Grupo_59901" data-name="Grupo 59901" transform="translate(1.333 1.333)">
        <g id="Grupo_59887" data-name="Grupo 59887" transform="translate(13.333)">
          <path id="Trazado_111481" data-name="Trazado 111481" d="M70.667,4.667v20l-.053.053L61.333,34H54.667a6.679,6.679,0,0,0-5.333,2.667H30.667v32H60V74H25.333V34A13.338,13.338,0,0,0,12,20.667V16.44a2.624,2.624,0,0,1,.24-1.107H22.667a2.675,2.675,0,0,0,2.667-2.667V2.24A2.624,2.624,0,0,1,26.44,2H68a2.675,2.675,0,0,1,2.667,2.667Z" transform="translate(-12 -2)" fill="#e6e9ed"/>
        </g>
        <g id="Grupo_59888" data-name="Grupo 59888" transform="translate(32 34.667)">
          <path id="Trazado_111482" data-name="Trazado 111482" d="M51.667,50.4a7.266,7.266,0,0,1-1.613-1.773,7.515,7.515,0,0,1-1.067-2.267h-.013L43.333,52,42,52.533l-4.933,1.973A2.242,2.242,0,0,1,34.04,52a2.28,2.28,0,0,1,.12-.4l2.507-6.267L38,44l8-8a2.675,2.675,0,0,1-2.667-2.667V32a6.588,6.588,0,0,1,1.333-4H26V60H55.333V53.333Z" transform="translate(-26 -28)" fill="#ffeaa7"/>
        </g>
        <g id="Grupo_59889" data-name="Grupo 59889" transform="translate(32 5.333)">
          <path id="Trazado_111483" data-name="Trazado 111483" d="M26,6H60.667v5.333H26Z" transform="translate(-26 -6)" fill="#d9a171"/>
        </g>
        <g id="Grupo_59890" data-name="Grupo 59890" transform="translate(13.573 0.24)">
          <path id="Trazado_111484" data-name="Trazado 111484" d="M25.273,2.18V12.607a2.675,2.675,0,0,1-2.667,2.667H12.18a2.689,2.689,0,0,1,.547-.787l11.76-11.76A2.689,2.689,0,0,1,25.273,2.18Z" transform="translate(-12.18 -2.18)" fill="#f2e9e4"/>
        </g>
        <g id="Grupo_59891" data-name="Grupo 59891" transform="translate(42.667 40)">
          <path id="Trazado_111485" data-name="Trazado 111485" d="M46,32V42.827a7.571,7.571,0,0,0,.32,2.2h-.013l-5.64,5.64L34,44l1.333-1.333,8-8A2.686,2.686,0,0,0,46,32Z" transform="translate(-34 -32)" fill="#6595bf"/>
        </g>
        <g id="Grupo_59893" data-name="Grupo 59893" transform="translate(40 52)">
          <path id="Trazado_111487" data-name="Trazado 111487" d="M41.333,47.667,40,48.2l-4.933,1.973a2.242,2.242,0,0,1-3.027-2.507,2.28,2.28,0,0,1,.12-.4L34.667,41Z" transform="translate(-32 -41)" fill="#aab2bd"/>
        </g>
        <g id="Grupo_59894" data-name="Grupo 59894" transform="translate(61.333 56)">
          <path id="Trazado_111488" data-name="Trazado 111488" d="M62.667,44l2.667,16H48V48Z" transform="translate(-48 -44)" fill="#e8e8e8"/>
        </g>
        <g id="Grupo_59895" data-name="Grupo 59895" transform="translate(49.333 32)">
          <path id="Trazado_111489" data-name="Trazado 111489" d="M43.547,35.88a2.607,2.607,0,0,1-1.88.787A2.675,2.675,0,0,1,39,34V32.667a6.588,6.588,0,0,1,1.333-4A6.679,6.679,0,0,1,45.667,26h6.667l-5.507,5.507a4.136,4.136,0,0,0-1.16-.173,1.337,1.337,0,0,0-1.333,1.333V34A2.607,2.607,0,0,1,43.547,35.88Z" transform="translate(-39 -26)" fill="#f0d0b4"/>
        </g>
        <g id="Grupo_59896" data-name="Grupo 59896" transform="translate(54.667 37.173)">
          <path id="Trazado_111490" data-name="Trazado 111490" d="M59.867,31.173a36.658,36.658,0,0,1,4.467,17.533l-14.667,4L46,49.773A7.266,7.266,0,0,1,44.387,48,8.033,8.033,0,0,1,43,43.533V31.373a1.337,1.337,0,0,1,1.333-1.333,4.136,4.136,0,0,1,1.16.173,4.078,4.078,0,0,1,1.667,1,3.99,3.99,0,0,1,1.173,2.827v6.667L59.16,29.88Z" transform="translate(-43 -29.88)" fill="#f0d0b4"/>
        </g>
        <g id="Grupo_59897" data-name="Grupo 59897" transform="translate(0 32)">
          <path id="Trazado_111491" data-name="Trazado 111491" d="M28.667,26V68.667A5.332,5.332,0,0,1,23.333,74h-16A5.332,5.332,0,0,1,2,68.667V26A13.321,13.321,0,0,0,7.333,36.667V46a1.337,1.337,0,0,0,1.333,1.333H22A1.337,1.337,0,0,0,23.333,46V36.667A13.321,13.321,0,0,0,28.667,26Z" transform="translate(-2 -26)" fill="#969faa"/>
        </g>
        <g id="Grupo_59898" data-name="Grupo 59898" transform="translate(5.367 58.675)">
          <path id="Trazado_111492" data-name="Trazado 111492" d="M20.762,61.953H7.358a1.334,1.334,0,0,1-1.333-1.333V47.339a1.334,1.334,0,0,1,1.333-1.333h13.4a1.334,1.334,0,0,1,1.333,1.333v13.28A1.331,1.331,0,0,1,20.762,61.953Z" transform="translate(-6.025 -46.006)" fill="#eaccb2"/>
        </g>
        <g id="Grupo_59900" data-name="Grupo 59900" transform="translate(0 18.667)">
          <path id="Trazado_111494" data-name="Trazado 111494" d="M28.667,29.333A13.333,13.333,0,1,1,15.333,16,13.321,13.321,0,0,1,28.667,29.333Z" transform="translate(-2 -16)" fill="#fcd770"/>
        </g>
      </g>
      <g id="Grupo_59902" data-name="Grupo 59902" transform="translate(0)">
        <path id="Trazado_111495" data-name="Trazado 111495" d="M75.035,40.168l-.229-.421L81.9,32.656a6.022,6.022,0,0,0-6.229-9.976V5a4,4,0,0,0-4-4H30.105a3.976,3.976,0,0,0-2.829,1.172L15.505,13.943a3.971,3.971,0,0,0-1.172,2.829v2.963A14.681,14.681,0,0,0,1,34.333V77a6.674,6.674,0,0,0,6.667,6.667h16A6.674,6.674,0,0,0,30.333,77V75.667H82.575L79.663,58.195A38.054,38.054,0,0,0,75.035,40.168Zm1.933,17.156-13,3.545-3.135-2.508a6.64,6.64,0,0,1-2.5-5.207V41A2.669,2.669,0,0,1,61,43.667V53h2.667V50.885l9.165-9.165A35.352,35.352,0,0,1,76.968,57.324ZM58.333,38.333A2.669,2.669,0,0,0,55.667,41v1.333a1.333,1.333,0,0,1-2.667,0V41a5.339,5.339,0,0,1,5.333-5.333h3.448l-2.739,2.739a5.2,5.2,0,0,0-.709-.072ZM43.732,61.1l1.755-4.389,3.807,3.807L44.9,62.269a.924.924,0,0,1-1.236-.839A.87.87,0,0,1,43.732,61.1Zm7.935-1.981-4.781-4.781,8.063-8.063a3.891,3.891,0,0,0,.719-.184v7.067a9.379,9.379,0,0,0,.181,1.779ZM50.579,43.667H35.667V38.333H50.8A7.967,7.967,0,0,0,50.333,41v1.333A3.955,3.955,0,0,0,50.579,43.667ZM35.667,46.333H51.115l-5.333,5.333H35.667Zm0,8h7.9l-2.133,5.333H35.667Zm0,8h5.464A3.557,3.557,0,0,0,45.9,64.745L49,63.5v4.164H35.667Zm16,.1.749-.3,4.44-4.44c.048.087.092.175.144.26v9.711H51.667Zm8-1.6,2.667,2.133v4.693H59.667ZM81,28.381a3.36,3.36,0,0,1-.991,2.391L63.667,47.115V43.667a5.3,5.3,0,0,0-1.992-4.123L75.228,25.991A3.381,3.381,0,0,1,81,28.381ZM27.667,5.552V13a1.336,1.336,0,0,1-1.333,1.333H18.885Zm-12,16.781a12,12,0,1,1-12,12,12.015,12.015,0,0,1,12-12ZM9,47.381a14.538,14.538,0,0,0,13.333,0v6.952H9ZM23.667,81h-16a4,4,0,0,1-4-4V42.74a14.8,14.8,0,0,0,2.667,2.9v8.695A2.669,2.669,0,0,0,9,57H22.333A2.669,2.669,0,0,0,25,54.333V45.639a14.8,14.8,0,0,0,2.667-2.9V77A4,4,0,0,1,23.667,81Zm6.667-8V34.333A14.681,14.681,0,0,0,17,19.735V17h9.333a4,4,0,0,0,4-4V3.667H71.667A1.336,1.336,0,0,1,73,5V24.448L64.448,33H58.333a7.977,7.977,0,0,0-5.947,2.667H33V70.333H62.333V73ZM65,73V63.352l12.26-3.344L79.425,73Z" transform="translate(-1 -1)"/>
        <path id="Trazado_111496" data-name="Trazado 111496" d="M11.667,34.807v2.86h2.667v-2.86a3.791,3.791,0,0,0,.563-7.016l-2.6-1.3a1.14,1.14,0,0,1,.509-2.159h.389a1.14,1.14,0,0,1,1.139,1.139V27H17V25.472a3.8,3.8,0,0,0-2.667-3.612V19H11.667v2.86a3.791,3.791,0,0,0-.563,7.016l2.6,1.3a1.14,1.14,0,0,1-.509,2.159h-.389a1.14,1.14,0,0,1-1.139-1.139V29.667H9v1.528A3.8,3.8,0,0,0,11.667,34.807Z" transform="translate(1.667 5)"/>
        <path id="Trazado_111497" data-name="Trazado 111497" d="M21,45H7.667A2.669,2.669,0,0,0,5,47.667V61a2.669,2.669,0,0,0,2.667,2.667H21A2.669,2.669,0,0,0,23.667,61V47.667A2.669,2.669,0,0,0,21,45Zm0,5.333H18.333V47.667H21ZM15.667,61H13V58.333h2.667Zm0-5.333H13V53h2.667Zm-5.333,0H7.667V53h2.667ZM13,50.333V47.667h2.667v2.667Zm-2.667-2.667v2.667H7.667V47.667ZM7.667,58.333h2.667V61H7.667ZM18.333,61V53H21v8Z" transform="translate(0.333 13.667)"/>
        <path id="Trazado_111498" data-name="Trazado 111498" d="M62.333,5H25v8H62.333Zm-2.667,5.333h-32V7.667h32Z" transform="translate(7 0.333)"/>
        <path id="Trazado_111499" data-name="Trazado 111499" d="M25,13H62.333v2.667H25Z" transform="translate(7 3)"/>
        <path id="Trazado_111500" data-name="Trazado 111500" d="M25,17H62.333v2.667H25Z" transform="translate(7 4.333)"/>
        <path id="Trazado_111501" data-name="Trazado 111501" d="M25,21H46.333v2.667H25Z" transform="translate(7 5.667)"/>
      </g>
    </g>
  </g>
</svg>
