<svg xmlns="http://www.w3.org/2000/svg" width="127" height="127" viewBox="0 0 127 127">
  <g id="Grupo_71374" data-name="Grupo 71374" transform="translate(-356 -4663)">
    <circle id="Elipse_4197" data-name="Elipse 4197" cx="63.5" cy="63.5" r="63.5" transform="translate(356 4663)" fill="#6595bf"/>
    <g id="budget_2_" data-name="budget (2)" transform="translate(378.49 4681.167)">
      <g id="Grupo_59907" data-name="Grupo 59907" transform="translate(1.303 1.304)">
        <g id="Grupo_59905" data-name="Grupo 59905" transform="translate(11.518)">
          <g id="Grupo_59903" data-name="Grupo 59903">
            <path id="Trazado_111502" data-name="Trazado 111502" d="M140.032,126.308v5.758a2.88,2.88,0,0,0,2.879,2.88h54.709a2.88,2.88,0,0,0,2.88-2.88V60.08a2.879,2.879,0,0,0-2.88-2.879h-5.759Z" transform="translate(-131.394 -48.563)" fill="#d3e2eb"/>
            <path id="Trazado_111503" data-name="Trazado 111503" d="M90.332,82.366a2.88,2.88,0,0,0,2.88,2.88h54.709a2.88,2.88,0,0,0,2.88-2.88V10.38a2.88,2.88,0,0,0-2.88-2.879H93.212a2.88,2.88,0,0,0-2.88,2.879Z" transform="translate(-90.332 -7.501)" fill="#ecf0f9"/>
            <path id="Trazado_111504" data-name="Trazado 111504" d="M402.664,7.5h-4a2.879,2.879,0,0,1,2.879,2.879V82.365a2.88,2.88,0,0,1-2.879,2.88h4a2.88,2.88,0,0,0,2.88-2.88V10.38a2.88,2.88,0,0,0-2.88-2.88Z" transform="translate(-345.075 -7.5)" fill="#d8e4f0"/>
            <path id="Trazado_111505" data-name="Trazado 111505" d="M452.364,57.2h-4a2.88,2.88,0,0,1,2.88,2.879v71.986a2.88,2.88,0,0,1-2.88,2.88h4a2.88,2.88,0,0,0,2.88-2.88V60.08A2.88,2.88,0,0,0,452.364,57.2Z" transform="translate(-386.136 -48.562)" fill="#b0c4d8"/>
          </g>
          <g id="Grupo_59904" data-name="Grupo 59904" transform="translate(20.156 5.759)">
            <path id="Trazado_111506" data-name="Trazado 111506" d="M222.186,46.393h-14.5A1.391,1.391,0,0,1,206.3,45V42.024a1.391,1.391,0,0,1,1.39-1.39h14.5a1.391,1.391,0,0,1,1.39,1.39V45A1.391,1.391,0,0,1,222.186,46.393Z" transform="translate(-206.3 -40.634)" fill="#d9a171"/>
            <path id="Trazado_111507" data-name="Trazado 111507" d="M302.14,377.726H290.523a1.391,1.391,0,0,1-1.39-1.39v-2.978a1.391,1.391,0,0,1,1.39-1.39H302.14a1.391,1.391,0,0,1,1.391,1.39v2.978A1.391,1.391,0,0,1,302.14,377.726Z" transform="translate(-274.736 -314.378)" fill="#d9a171"/>
          </g>
        </g>
        <g id="Grupo_59906" data-name="Grupo 59906" transform="translate(0 46.071)">
          <circle id="Elipse_4365" data-name="Elipse 4365" cx="17.277" cy="17.277" r="17.277" fill="#ffe179"/>
          <circle id="Elipse_4366" data-name="Elipse 4366" cx="11.518" cy="11.518" r="11.518" transform="translate(5.759 5.759)" fill="#ffcb5b"/>
          <path id="Trazado_111508" data-name="Trazado 111508" d="M113.965,272.567a17.451,17.451,0,0,0-2,.116,17.277,17.277,0,0,1,0,34.322,17.277,17.277,0,1,0,2-34.437Z" transform="translate(-96.688 -272.567)" fill="#fc6"/>
          <path id="Trazado_111509" data-name="Trazado 111509" d="M113.965,305.7a11.586,11.586,0,0,0-2,.176,11.516,11.516,0,0,1,0,22.683,11.517,11.517,0,1,0,2-22.859Z" transform="translate(-96.688 -299.941)" fill="#ffb85b"/>
        </g>
      </g>
      <g id="Grupo_59908" data-name="Grupo 59908">
        <path id="Trazado_111510" data-name="Trazado 111510" d="M103.583,327.1a1.577,1.577,0,0,1,1.576,1.576,1.3,1.3,0,0,0,2.607,0,4.189,4.189,0,0,0-2.879-3.974v-.345a1.3,1.3,0,1,0-2.607,0v.345a4.183,4.183,0,0,0,1.3,8.157,1.576,1.576,0,1,1-1.576,1.576,1.3,1.3,0,1,0-2.607,0,4.19,4.19,0,0,0,2.879,3.974v.345a1.3,1.3,0,1,0,2.607,0v-.345a4.183,4.183,0,0,0-1.3-8.157,1.576,1.576,0,1,1,0-3.152Z" transform="translate(-85.003 -266.901)"/>
        <path id="Trazado_111511" data-name="Trazado 111511" d="M73.48,304.364a1.3,1.3,0,0,0-2.227,1.355,10.209,10.209,0,1,1-3.332-3.371,1.3,1.3,0,0,0,1.381-2.211,12.817,12.817,0,1,0,4.179,4.227Z" transform="translate(-43.94 -246.369)"/>
        <path id="Trazado_111512" data-name="Trazado 111512" d="M95.615,8.638H91.16V4.183A4.188,4.188,0,0,0,86.977,0H32.268a4.188,4.188,0,0,0-4.183,4.183V18.852a1.3,1.3,0,1,0,2.607,0V4.183a1.578,1.578,0,0,1,1.576-1.576H86.977a1.578,1.578,0,0,1,1.576,1.576V76.169a1.578,1.578,0,0,1-1.576,1.576H48.317A18.553,18.553,0,0,0,52.208,57.3a1.312,1.312,0,0,0,.215.019H63.941a1.3,1.3,0,0,0,0-2.607H52.424a1.3,1.3,0,0,0-1.158.707,18.579,18.579,0,0,0-20.574-8.8V24.067a1.3,1.3,0,0,0-2.607,0v23.4a18.579,18.579,0,0,0,7.063,35.764c.531,0,1.056-.024,1.576-.067v1.643a4.188,4.188,0,0,0,4.183,4.183H95.615A4.188,4.188,0,0,0,99.8,84.807V12.821A4.188,4.188,0,0,0,95.615,8.638ZM19.174,64.651A15.973,15.973,0,1,1,35.147,80.624,15.991,15.991,0,0,1,19.174,64.651ZM97.191,84.807a1.578,1.578,0,0,1-1.576,1.576H40.906a1.578,1.578,0,0,1-1.576-1.576V82.757a18.476,18.476,0,0,0,5.741-2.4H86.977a4.188,4.188,0,0,0,4.183-4.183V11.245h4.455a1.578,1.578,0,0,1,1.576,1.576Z" transform="translate(-16.567 0)"/>
        <path id="Trazado_111513" data-name="Trazado 111513" d="M215.99,33.133h-14.5a2.7,2.7,0,0,0-2.694,2.694V38.8a2.7,2.7,0,0,0,2.694,2.694h14.5a2.7,2.7,0,0,0,2.694-2.694V35.827A2.7,2.7,0,0,0,215.99,33.133Zm.087,5.672a.087.087,0,0,1-.087.087h-14.5a.087.087,0,0,1-.087-.087V35.827a.087.087,0,0,1,.087-.087h14.5a.087.087,0,0,1,.087.087Z" transform="translate(-167.126 -27.374)"/>
        <path id="Trazado_111514" data-name="Trazado 111514" d="M295.943,364.467H284.327a2.7,2.7,0,0,0-2.694,2.694v2.978a2.7,2.7,0,0,0,2.694,2.694h11.616a2.7,2.7,0,0,0,2.694-2.694v-2.978A2.7,2.7,0,0,0,295.943,364.467Zm.087,5.672a.087.087,0,0,1-.087.087H284.327a.087.087,0,0,1-.087-.087v-2.978a.087.087,0,0,1,.087-.087h11.616a.087.087,0,0,1,.087.087Z" transform="translate(-235.562 -301.119)"/>
        <path id="Trazado_111515" data-name="Trazado 111515" d="M242.586,115.967H216.671a1.3,1.3,0,1,0,0,2.607h25.915a1.3,1.3,0,0,0,0-2.607Z" transform="translate(-180.814 -95.811)"/>
        <path id="Trazado_111516" data-name="Trazado 111516" d="M151.794,124.333h2.978a2.7,2.7,0,0,0,2.694-2.694v-2.978a2.7,2.7,0,0,0-2.694-2.694h-2.978a2.7,2.7,0,0,0-2.694,2.694v2.978A2.7,2.7,0,0,0,151.794,124.333Zm-.087-5.672a.087.087,0,0,1,.087-.087h2.978a.087.087,0,0,1,.087.087v2.978a.087.087,0,0,1-.087.087h-2.978a.087.087,0,0,1-.087-.087Z" transform="translate(-126.065 -95.811)"/>
        <path id="Trazado_111517" data-name="Trazado 111517" d="M216.67,151.707h11.518a1.3,1.3,0,0,0,0-2.607H216.67a1.3,1.3,0,0,0,0,2.607Z" transform="translate(-180.813 -123.185)"/>
        <path id="Trazado_111518" data-name="Trazado 111518" d="M242.586,198.8H216.671a1.3,1.3,0,1,0,0,2.607h25.915a1.3,1.3,0,0,0,0-2.607Z" transform="translate(-180.814 -164.247)"/>
        <path id="Trazado_111519" data-name="Trazado 111519" d="M149.1,204.472a2.7,2.7,0,0,0,2.694,2.694h2.978a2.7,2.7,0,0,0,2.694-2.694v-2.978a2.7,2.7,0,0,0-2.694-2.694h-2.978a2.7,2.7,0,0,0-2.694,2.694Zm2.607-2.978a.087.087,0,0,1,.087-.087h2.978a.087.087,0,0,1,.087.087v2.978a.087.087,0,0,1-.087.087h-2.978a.087.087,0,0,1-.087-.087Z" transform="translate(-126.065 -164.247)"/>
        <path id="Trazado_111520" data-name="Trazado 111520" d="M216.67,234.54h11.518a1.3,1.3,0,1,0,0-2.607H216.67a1.3,1.3,0,1,0,0,2.607Z" transform="translate(-180.813 -191.621)"/>
        <path id="Trazado_111521" data-name="Trazado 111521" d="M242.586,281.633H216.671a1.3,1.3,0,1,0,0,2.607h25.915a1.3,1.3,0,0,0,0-2.607Z" transform="translate(-180.814 -232.683)"/>
      </g>
    </g>
  </g>
</svg>
