<svg xmlns="http://www.w3.org/2000/svg" width="60" height="60" viewBox="0 0 60 60">
  <g id="Grupo_73050" data-name="Grupo 73050" transform="translate(-205 -7212.271)">
    <circle id="Elipse_4422" data-name="Elipse 4422" cx="30" cy="30" r="30" transform="translate(205 7212.271)" fill="#d9a171"/>
    <path id="Trazado_144086" data-name="Trazado 144086" d="M11.03,20.753a5.214,5.214,0,0,1-3.574,1.436,5.771,5.771,0,0,1-4.6-1.963,7.733,7.733,0,0,1-1.7-5.244,7.87,7.87,0,0,1,.952-3.809A7.144,7.144,0,0,1,4.783,8.39a7.288,7.288,0,0,1,3.8-1.025A7.075,7.075,0,0,1,12.4,8.426a7.15,7.15,0,0,1,2.659,3A10.315,10.315,0,0,1,16.04,15.9v1.89a12.821,12.821,0,0,1-1.384,6.123A9.556,9.556,0,0,1,10.708,27.9a12.336,12.336,0,0,1-5.977,1.392H4.424V25.338l.938-.015Q10.459,25.074,11.03,20.753ZM8.789,18.629A2.4,2.4,0,0,0,11.1,17.237V15.187a5.332,5.332,0,0,0-.688-3.032,2.159,2.159,0,0,0-1.86-.981,2.041,2.041,0,0,0-1.743,1.113,4.946,4.946,0,0,0-.7,2.7,4.435,4.435,0,0,0,.718,2.659A2.3,2.3,0,0,0,8.789,18.629Z" transform="translate(226 7222.271)" fill="#fff"/>
  </g>
</svg>
