<svg xmlns="http://www.w3.org/2000/svg" width="60" height="60" viewBox="0 0 60 60">
  <g id="Grupo_73051" data-name="Grupo 73051" transform="translate(-730 -7486.5)">
    <circle id="Elipse_4423" data-name="Elipse 4423" cx="30" cy="30" r="30" transform="translate(730 7486.5)" fill="#d9a171"/>
    <path id="Trazado_144087" data-name="Trazado 144087" d="M12.246,29H7.295V13.238L2.432,14.659v-3.75l9.36-3.237h.454Zm21.24-8.716a10.184,10.184,0,0,1-1.941,6.665,6.707,6.707,0,0,1-5.471,2.344,6.743,6.743,0,0,1-5.508-2.358,10.168,10.168,0,0,1-1.948-6.65v-3.9a10.184,10.184,0,0,1,1.941-6.665,6.724,6.724,0,0,1,5.486-2.344,6.726,6.726,0,0,1,5.493,2.358A10.193,10.193,0,0,1,33.486,16.4ZM28.55,15.758a7.607,7.607,0,0,0-.6-3.435,2.008,2.008,0,0,0-1.9-1.135,1.96,1.96,0,0,0-1.853,1.055,7.166,7.166,0,0,0-.623,3.193v5.449a7.664,7.664,0,0,0,.6,3.494,2.015,2.015,0,0,0,1.9,1.106,1.988,1.988,0,0,0,1.86-1.077,7.317,7.317,0,0,0,.615-3.376Z" transform="translate(740.5 7496.5)" fill="#fff"/>
  </g>
</svg>
