<svg xmlns="http://www.w3.org/2000/svg" width="535.326" height="352" viewBox="0 0 535.326 352">
  <g id="Grupo_71012" data-name="Grupo 71012" transform="translate(-33.15 -81.013)">
    <g id="Grupo_71317" data-name="Grupo 71317" transform="translate(33.15 81.013)">
      <path id="Trazado_141548" data-name="Trazado 141548" d="M520.451,418.517H447.743a6.91,6.91,0,0,1-6.909-6.91h0a6.909,6.909,0,0,1,6.909-6.909h72.708a6.91,6.91,0,0,1,6.91,6.909h0A6.91,6.91,0,0,1,520.451,418.517Z" transform="translate(-14.892 -66.517)" fill="#dee5da"/>
      <g id="Grupo_71013" data-name="Grupo 71013" transform="translate(47.476 185.541)">
        <g id="Grupo_71012-2" data-name="Grupo 71012">
          <path id="Trazado_141549" data-name="Trazado 141549" d="M97.731,296.882a19.14,19.14,0,1,1,19.141-19.14A19.162,19.162,0,0,1,97.731,296.882Zm0-30.22a11.08,11.08,0,1,0,11.081,11.08A11.093,11.093,0,0,0,97.731,266.661Z" transform="translate(-78.591 -258.601)" fill="#fff"/>
        </g>
      </g>
      <g id="Grupo_71015" data-name="Grupo 71015" transform="translate(177.42 71.413)">
        <g id="Grupo_71014" data-name="Grupo 71014">
          <path id="Trazado_141550" data-name="Trazado 141550" d="M221.806,187.046a18.841,18.841,0,1,1,18.841-18.841A18.862,18.862,0,0,1,221.806,187.046Zm0-29.747a10.906,10.906,0,1,0,10.906,10.906A10.919,10.919,0,0,0,221.806,157.3Z" transform="translate(-202.965 -149.365)" fill="#dee5da"/>
        </g>
      </g>
      <g id="Grupo_71024" data-name="Grupo 71024" transform="translate(0 218.205)">
        <g id="Grupo_71016" data-name="Grupo 71016">
          <path id="Trazado_141551" data-name="Trazado 141551" d="M136.056,356.931c-1.221-3.112-2.192-6.346-5.117-7.636-3.836-1.694-7.947,1.326-11.945,2.592a14.864,14.864,0,0,1-16.5-5.95c-2.832-4.4-3.844-10.843-8.822-12.461-4.474-1.454-9.291,2.217-13.882,1.192-4.78-1.069-6.948-6.426-9.774-10.427-5.077-7.186-13.434-10.676-20.9-14.753-4.159-2.271-19.938-10.591-15.027-17.158,1.644-2.2,4.773-2.824,7.463-2.277s5.071,2.05,7.434,3.448,4.871,2.752,7.609,2.946c6.524.466,12.325-5.676,18.791-4.7,7.366,1.116,10.891,10.644,18.122,12.432,6.823,1.688,13.839-4.28,20.648-2.533,6.227,1.6,9.477,8.935,15.544,11.063,5.569,1.954,11.681-1.05,17.551-.453,6.407.651,11.588,5.454,15.569,10.514,5.192,6.6,9.39,15.064,7.2,23.165-1.649,6.09-6.606,10.715-11.835,14.246-3.011,2.033-6.283,3.856-9.878,4.382s-7.586-.462-9.907-3.258A15.764,15.764,0,0,1,136.056,356.931Z" transform="translate(-33.15 -289.865)" fill="#d86f56"/>
        </g>
        <g id="Grupo_71017" data-name="Grupo 71017" transform="translate(0.356 2.832)">
          <path id="Trazado_141552" data-name="Trazado 141552" d="M170.289,347.084a.275.275,0,0,1-.309.177A80.262,80.262,0,0,1,138.5,333.838c-1.022-.729-2.03-1.484-3.037-2.238a58.9,58.9,0,0,0-8.406-5.576,29.3,29.3,0,0,0-12.468-3.154c-1.408-.036-2.846.032-4.238.1-1.489.071-3.03.143-4.55.09-6.83-.238-13.964-3-21.2-8.214-.844-.607-1.679-1.238-2.517-1.87-3.279-2.475-6.669-5.034-10.616-6.156a33.368,33.368,0,0,0-8.217-.9c-1.581-.043-3.216-.087-4.812-.26-8.013-.868-15.91-4.871-24.851-12.6a.274.274,0,0,1,.358-.415c8.852,7.651,16.654,11.612,24.551,12.466,1.574.171,3.2.214,4.768.257a33.786,33.786,0,0,1,8.352.926c4.046,1.149,7.478,3.74,10.8,6.245.834.629,1.666,1.258,2.507,1.863,7.148,5.147,14.18,7.877,20.9,8.112,1.5.052,3.028-.02,4.506-.09,1.4-.066,2.848-.134,4.277-.1a29.831,29.831,0,0,1,12.7,3.213,59.39,59.39,0,0,1,8.486,5.626c1,.752,2.008,1.5,3.027,2.231a79.707,79.707,0,0,0,31.264,13.33.275.275,0,0,1,.218.32C170.3,347.057,170.293,347.071,170.289,347.084Z" transform="translate(-33.49 -292.575)" fill="#eff4ed"/>
        </g>
        <g id="Grupo_71018" data-name="Grupo 71018" transform="translate(43.616 30.516)">
          <path id="Trazado_141553" data-name="Trazado 141553" d="M93.117,319.439a.3.3,0,0,1-.047.083,5.949,5.949,0,0,1-3.1,1.928,13.045,13.045,0,0,1-3.813.217,21.588,21.588,0,0,0-2.252-.015c-3.122.2-6.034,1.819-8.6,3.244a.273.273,0,0,1-.265-.477c2.619-1.454,5.589-3.1,8.833-3.312a21.814,21.814,0,0,1,2.31.014,12.449,12.449,0,0,0,3.653-.2,5.391,5.391,0,0,0,2.816-1.746.274.274,0,0,1,.47.265Z" transform="translate(-74.896 -319.073)" fill="#eff4ed"/>
        </g>
        <g id="Grupo_71019" data-name="Grupo 71019" transform="translate(33.706 6.95)">
          <path id="Trazado_141554" data-name="Trazado 141554" d="M74.64,308.062a.258.258,0,0,1-.051.088.274.274,0,0,1-.387.026,8.536,8.536,0,0,1-2.134-3.849,9.5,9.5,0,0,0-1.676-3.347,9.632,9.632,0,0,0-2.154-1.6,7.157,7.157,0,0,1-2.792-2.454.273.273,0,1,1,.479-.263,6.671,6.671,0,0,0,2.6,2.25,10.035,10.035,0,0,1,2.273,1.7,9.9,9.9,0,0,1,1.788,3.538,8.02,8.02,0,0,0,1.979,3.617A.274.274,0,0,1,74.64,308.062Z" transform="translate(-65.411 -296.518)" fill="#eff4ed"/>
        </g>
        <g id="Grupo_71020" data-name="Grupo 71020" transform="translate(70.33 17.508)">
          <path id="Trazado_141555" data-name="Trazado 141555" d="M111.054,321.857a.265.265,0,0,1-.025.052.273.273,0,0,1-.376.089,6.969,6.969,0,0,1-2.635-3.514c-.259-.658-.47-1.34-.674-2-.21-.684-.428-1.393-.7-2.062a12.768,12.768,0,0,0-2.8-4.217c-.416-.414-.87-.809-1.311-1.189a17.257,17.257,0,0,1-2.007-1.944.274.274,0,0,1,.422-.349,16.768,16.768,0,0,0,1.943,1.88c.448.387.91.789,1.338,1.215a13.289,13.289,0,0,1,2.92,4.4c.28.692.5,1.41.716,2.106.2.651.407,1.324.66,1.962a6.449,6.449,0,0,0,2.412,3.249A.272.272,0,0,1,111.054,321.857Z" transform="translate(-100.465 -306.623)" fill="#eff4ed"/>
        </g>
        <g id="Grupo_71021" data-name="Grupo 71021" transform="translate(74.667 38.395)">
          <path id="Trazado_141556" data-name="Trazado 141556" d="M128.61,327a.274.274,0,0,1-.279.181,8.523,8.523,0,0,0-6.2,2.075,17.532,17.532,0,0,0-2.993,3.9,14.248,14.248,0,0,1-3.977,4.674,14.542,14.542,0,0,1-4.975,1.711,12.464,12.464,0,0,0-5.129,1.889.274.274,0,1,1-.331-.436,13.078,13.078,0,0,1,5.346-1.989,14.077,14.077,0,0,0,4.79-1.636,13.6,13.6,0,0,0,3.812-4.5,17.927,17.927,0,0,1,3.095-4.023,9.076,9.076,0,0,1,6.607-2.211.273.273,0,0,1,.251.295A.261.261,0,0,1,128.61,327Z" transform="translate(-104.616 -326.614)" fill="#eff4ed"/>
        </g>
        <g id="Grupo_71022" data-name="Grupo 71022" transform="translate(109.63 30.99)">
          <path id="Trazado_141557" data-name="Trazado 141557" d="M147.749,339.912a.249.249,0,0,1-.025.053.274.274,0,0,1-.378.087c-1.907-1.193-2.281-3.732-2.335-5.14-.022-.569-.013-1.149,0-1.709a13.1,13.1,0,0,0-.311-3.812c-.55-1.907-1.9-3.372-3.324-4.923A15.331,15.331,0,0,1,138.1,319.9a.274.274,0,0,1,.51-.2,14.905,14.905,0,0,0,3.165,4.4,10.153,10.153,0,0,1,3.781,9.114c-.009.554-.019,1.125,0,1.68.049,1.3.384,3.638,2.079,4.7A.272.272,0,0,1,147.749,339.912Z" transform="translate(-138.081 -319.527)" fill="#eff4ed"/>
        </g>
        <g id="Grupo_71023" data-name="Grupo 71023" transform="translate(109.368 53.408)">
          <path id="Trazado_141558" data-name="Trazado 141558" d="M153.108,341.349l-.009.024a11.69,11.69,0,0,1-2.71,4.148,11.545,11.545,0,0,1-4.918,2.062,20.321,20.321,0,0,0-2.964.9,19.272,19.272,0,0,0-4.236,2.742.273.273,0,1,1-.336-.43,19.62,19.62,0,0,1,4.36-2.816,20.7,20.7,0,0,1,3.046-.924,10.969,10.969,0,0,0,4.693-1.947,11.269,11.269,0,0,0,2.569-3.962.273.273,0,0,1,.506.207Z" transform="translate(-137.83 -340.984)" fill="#eff4ed"/>
        </g>
      </g>
      <g id="Grupo_71032" data-name="Grupo 71032" transform="translate(320.941 119.646)">
        <g id="Grupo_71025" data-name="Grupo 71025" transform="translate(0)">
          <path id="Trazado_141559" data-name="Trazado 141559" d="M347.122,290.353c3.131-1.869,6.877-2.83,9.462-5.4,4.624-4.6,3.855-12.5,7.671-17.8,5.59-7.754,18.978-7.417,23.091-16.046,1.684-3.536,1.278-7.748,2.71-11.392,3.56-9.055,15.908-10.447,22.878-17.235,6.5-6.328,7.324-16.454,13.729-22.739,5.185-5.089,15.868-7.042,17.447,2.727.9,5.585-2.372,10.914-5.623,15.544s-6.783,9.674-6.479,15.323c.349,6.458,5.725,12.48,3.964,18.7-1.983,7.007-11.533,9.038-14.863,15.516-3.429,6.673,1.1,14.969-.881,22.2-2.643,9.646-15.182,13.074-19.821,21.935-2.575,4.918-2.4,10.982-5.27,15.732-3.2,5.29-9.586,7.865-15.735,8.493-15.707,1.6-31.876-8.429-37.414-23.216-2.7-7.222-2.475-16.543,3.593-21.3A14.549,14.549,0,0,1,347.122,290.353Z" transform="translate(-340.334 -195.53)" fill="#75c68a"/>
        </g>
        <g id="Grupo_71026" data-name="Grupo 71026" transform="translate(16.117 2.018)">
          <path id="Trazado_141560" data-name="Trazado 141560" d="M355.888,330.666a.275.275,0,0,1-.126-.263c.651-5.763,3.988-11.525,10.2-17.615,1.479-1.45,3.041-2.87,4.554-4.242A69.387,69.387,0,0,0,380.4,298.24c3.6-4.987,5.809-10.9,7.942-16.611,1.928-5.16,3.921-10.5,6.944-15.189,2.894-4.494,6.742-8.415,10.462-12.207,5.069-5.164,10.31-10.505,13.02-17.251A55.5,55.5,0,0,0,421.079,229c.466-1.971.947-4.011,1.581-5.973,3.207-9.917,10.413-18.179,16.771-25.468a.274.274,0,1,1,.413.359c-6.324,7.249-13.49,15.466-16.663,25.276-.628,1.941-1.105,3.969-1.568,5.93a55.956,55.956,0,0,1-2.334,8.064c-2.75,6.848-8.029,12.228-13.136,17.431-3.7,3.773-7.53,7.674-10.393,12.121-2.99,4.642-4.973,9.949-6.889,15.084-2.147,5.749-4.367,11.693-8.014,16.74a69.606,69.606,0,0,1-9.963,10.391c-1.507,1.369-3.066,2.783-4.538,4.227-6.118,6-9.4,11.652-10.039,17.286a.273.273,0,0,1-.3.241A.279.279,0,0,1,355.888,330.666Z" transform="translate(-355.76 -197.462)" fill="#eff4ed"/>
        </g>
        <g id="Grupo_71027" data-name="Grupo 71027" transform="translate(63.318 50.542)">
          <path id="Trazado_141561" data-name="Trazado 141561" d="M401.068,255.717a.274.274,0,0,1,.156-.506,44.925,44.925,0,0,0,9.377-.306,15.017,15.017,0,0,0,8.214-3.99c.5-.52.961-1.1,1.405-1.665.346-.436.691-.872,1.058-1.289a15.381,15.381,0,0,1,5.689-4.034.274.274,0,0,1,.208.507,14.828,14.828,0,0,0-5.486,3.891c-.362.409-.7.837-1.04,1.265-.453.574-.922,1.166-1.441,1.706a15.558,15.558,0,0,1-8.514,4.149,45.307,45.307,0,0,1-9.492.314A.292.292,0,0,1,401.068,255.717Z" transform="translate(-400.939 -243.906)" fill="#eff4ed"/>
        </g>
        <g id="Grupo_71028" data-name="Grupo 71028" transform="translate(67.465 34.102)">
          <path id="Trazado_141562" data-name="Trazado 141562" d="M406.719,249.466a.281.281,0,0,1-.1-.105c-.848-1.627-.631-3.476-.422-5.265a19.613,19.613,0,0,0,.188-2.519,18.168,18.168,0,0,0-.741-4.224c-.207-.8-.421-1.636-.568-2.469-.238-1.356-.557-4.717,1.63-6.646a.277.277,0,0,1,.387.024.274.274,0,0,1-.025.387c-1.98,1.745-1.675,4.875-1.452,6.14.143.812.354,1.633.559,2.427a18.475,18.475,0,0,1,.757,4.354,20.119,20.119,0,0,1-.191,2.59c-.208,1.784-.406,3.471.365,4.948a.275.275,0,0,1-.116.369A.271.271,0,0,1,406.719,249.466Z" transform="translate(-404.908 -228.17)" fill="#eff4ed"/>
        </g>
        <g id="Grupo_71029" data-name="Grupo 71029" transform="translate(43.305 84.046)">
          <path id="Trazado_141563" data-name="Trazado 141563" d="M381.911,291.512a.274.274,0,0,1,.162-.506,13.824,13.824,0,0,0,9.011-2.693c.669-.5,1.309-1.078,1.929-1.636a11.081,11.081,0,0,1,8.776-3.714,15.4,15.4,0,0,0,4.326-.7,15.233,15.233,0,0,0,3.83-2.366l5.066-3.867a.274.274,0,0,1,.332.435l-5.065,3.867a15.694,15.694,0,0,1-3.973,2.446,15.88,15.88,0,0,1-4.48.73,14.314,14.314,0,0,0-4.588.8,14.075,14.075,0,0,0-3.857,2.77c-.63.566-1.28,1.152-1.967,1.667a14.377,14.377,0,0,1-9.375,2.8A.274.274,0,0,1,381.911,291.512Z" transform="translate(-381.783 -275.974)" fill="#eff4ed"/>
        </g>
        <g id="Grupo_71030" data-name="Grupo 71030" transform="translate(41.451 64.596)">
          <path id="Trazado_141564" data-name="Trazado 141564" d="M385.353,285.193l-.337-1.533a.273.273,0,0,1,.117-.286,10.143,10.143,0,0,0-.433-1.572,3.8,3.8,0,0,0-.2-.433,3.168,3.168,0,0,1-.287-.729c-.032-.139-.06-.273-.086-.4a4.005,4.005,0,0,0-.26-.918c-.163-.364-.339-.723-.516-1.087-.217-.445-.436-.894-.64-1.362-.493-1.134-.868-2.143-1.281-3.31-.131-.371-.278-.742-.425-1.113a11.5,11.5,0,0,1-.955-3.383,16.614,16.614,0,0,1,.3-4.586,10.508,10.508,0,0,1,.709-2.014,9.029,9.029,0,0,0,.71-2.1,3.932,3.932,0,0,0,.022-.825c-.007-.173-.014-.347-.008-.521a3.227,3.227,0,0,0-.047-.474,2.21,2.21,0,0,1,.007-1.005.275.275,0,0,1,.351-.163.271.271,0,0,1,.163.352,1.965,1.965,0,0,0,.022.741,3.883,3.883,0,0,1,.05.562c0,.164,0,.325.008.486a4.519,4.519,0,0,1-.028.938,9.618,9.618,0,0,1-.748,2.227,10,10,0,0,0-.676,1.909,16.063,16.063,0,0,0-.291,4.436,11.027,11.027,0,0,0,.917,3.22c.15.378.3.754.433,1.132.409,1.157.779,2.156,1.267,3.274.2.46.417.9.63,1.34.18.369.357.734.523,1.1a4.548,4.548,0,0,1,.3,1.036c.025.124.05.252.08.384a2.688,2.688,0,0,0,.244.608,4.259,4.259,0,0,1,.221.493,5.672,5.672,0,0,1,.454,2.646Z" transform="translate(-380.009 -257.357)" fill="#eff4ed"/>
        </g>
        <g id="Grupo_71031" data-name="Grupo 71031" transform="translate(16.423 93.403)">
          <path id="Trazado_141565" data-name="Trazado 141565" d="M359.785,315.218a.285.285,0,0,1-.084-.083c-3.547-5.4-4.585-11.781-2.773-17.06a31.587,31.587,0,0,1,1.584-3.612c.424-.867.864-1.764,1.23-2.668a9.3,9.3,0,0,0,.606-6.5.273.273,0,1,1,.517-.178,9.821,9.821,0,0,1-.616,6.885c-.372.924-.816,1.829-1.245,2.7a31.291,31.291,0,0,0-1.558,3.547c-1.756,5.122-.743,11.321,2.713,16.585a.273.273,0,0,1-.374.381Z" transform="translate(-356.053 -284.93)" fill="#eff4ed"/>
        </g>
      </g>
      <g id="Grupo_71040" data-name="Grupo 71040" transform="translate(186.259 92.083)">
        <g id="Grupo_71033" data-name="Grupo 71033" transform="translate(0 0.065)">
          <path id="Trazado_141566" data-name="Trazado 141566" d="M228.791,279.238c.049-3.655,1.783-7.411,1.148-11.072-1.1-6.367-8.686-9.747-10.632-15.909-2.057-6.519,2.907-13.572,1.363-20.231-1.171-5.053-5.816-8.654-7.379-13.6-1.258-3.978-.367-8.265.183-12.4,1.316-9.918-.17-18.9-1.835-28.622-1.719-10.035,7.438-11.3,7.794-1.3.194,5.443.171,11.7,4.332,15.219,3.142,2.655,7.963,2.962,10.6,6.122,4.236,5.084-.186,13.274,2.647,19.253,2.214,4.675,8.14,6.5,10.848,10.909,3.9,6.348-.357,15.131,2.851,21.854,2.353,4.932,7.986,7.282,11.729,11.266,6.859,7.3,5.825,20.259-1.687,26.887s-19.911,6.351-27.587-.086a11.762,11.762,0,0,1-4.092-5.809A9.369,9.369,0,0,1,228.791,279.238Z" transform="translate(-211.426 -169.211)" fill="#75c68a"/>
        </g>
        <g id="Grupo_71034" data-name="Grupo 71034" transform="translate(3.291)">
          <path id="Trazado_141567" data-name="Trazado 141567" d="M254.489,291.459a.208.208,0,0,1-.056.018.21.21,0,0,1-.238-.176,33.284,33.284,0,0,0-5.928-14.41c-1.009-1.392-2.149-2.73-3.25-4.025a42.7,42.7,0,0,1-4.88-6.538c-2.49-4.419-3.3-9.535-4.088-14.482a52.345,52.345,0,0,0-2.921-12.109,51.331,51.331,0,0,0-2.6-5.079c-.687-1.232-1.4-2.5-2.02-3.8a34.948,34.948,0,0,1-3.342-12.878c-.076-1.246-.087-2.524-.1-3.76-.025-3.089-.05-6.285-1.115-9.2a27.251,27.251,0,0,0-3.047-5.5c-.6-.917-1.23-1.866-1.784-2.834-4.785-8.361-4.634-18.883-4.511-27.339a.209.209,0,1,1,.418.006c-.121,8.4-.272,18.864,4.456,27.126.547.957,1.169,1.9,1.77,2.811a27.558,27.558,0,0,1,3.09,5.583c1.09,2.979,1.116,6.21,1.141,9.336.009,1.231.02,2.5.094,3.738a34.552,34.552,0,0,0,3.3,12.722c.615,1.283,1.323,2.551,2.007,3.777a51.9,51.9,0,0,1,2.615,5.119,52.659,52.659,0,0,1,2.949,12.207c.78,4.909,1.586,9.987,4.039,14.341a42.376,42.376,0,0,0,4.834,6.473c1.106,1.3,2.252,2.645,3.27,4.051a33.673,33.673,0,0,1,6,14.59A.209.209,0,0,1,254.489,291.459Z" transform="translate(-214.575 -169.149)" fill="#eff4ed"/>
        </g>
        <g id="Grupo_71035" data-name="Grupo 71035" transform="translate(14.077 29.726)">
          <path id="Trazado_141568" data-name="Trazado 141568" d="M225.2,210.954a.209.209,0,0,1-.193-.37,8.257,8.257,0,0,0,3.985-5.912,17.359,17.359,0,0,0,.093-2.546,9.626,9.626,0,0,1,.626-4.407.209.209,0,1,1,.375.183,9.2,9.2,0,0,0-.584,4.218,17.709,17.709,0,0,1-.1,2.609,8.68,8.68,0,0,1-4.19,6.217Z" transform="translate(-224.899 -197.601)" fill="#eff4ed"/>
        </g>
        <g id="Grupo_71036" data-name="Grupo 71036" transform="translate(3.447 45.11)">
          <path id="Trazado_141569" data-name="Trazado 141569" d="M226.185,222.472a.2.2,0,0,1-.1.019,9.457,9.457,0,0,1-6.986-3.956,20.536,20.536,0,0,1-1.223-2.077c-.822-1.534-1.6-2.983-3.035-3.739a.208.208,0,1,1,.194-.369c1.549.815,2.393,2.388,3.21,3.91a19.723,19.723,0,0,0,1.2,2.035,9.038,9.038,0,0,0,6.675,3.78.208.208,0,0,1,.073.4Z" transform="translate(-214.725 -212.325)" fill="#eff4ed"/>
        </g>
        <g id="Grupo_71037" data-name="Grupo 71037" transform="translate(24.305 55.405)">
          <path id="Trazado_141570" data-name="Trazado 141570" d="M234.987,245.995a.208.208,0,0,1-.223-.349c1.719-1.435,1.97-4.031,2-6.133l0-.351c.026-2.244.053-4.567,1.39-6.353a10.043,10.043,0,0,1,.732-.843,9.776,9.776,0,0,0,.709-.818,6.428,6.428,0,0,0,1.069-4.249,19.6,19.6,0,0,0-1.007-4.449.209.209,0,0,1,.4-.123,19.954,19.954,0,0,1,1.024,4.544,6.844,6.844,0,0,1-1.151,4.527,9.9,9.9,0,0,1-.74.854,9.9,9.9,0,0,0-.7.808c-1.256,1.679-1.282,3.93-1.306,6.109l-.005.352c-.028,2.191-.3,4.9-2.148,6.447A.231.231,0,0,1,234.987,245.995Z" transform="translate(-234.689 -222.179)" fill="#eff4ed"/>
        </g>
        <g id="Grupo_71038" data-name="Grupo 71038" transform="translate(10.439 78.327)">
          <path id="Trazado_141571" data-name="Trazado 141571" d="M237.506,258.046a.208.208,0,0,1-.134.015,11.442,11.442,0,0,1-6.464-4.083c-.405-.522-.77-1.088-1.124-1.633a11.521,11.521,0,0,0-2.218-2.777,11.7,11.7,0,0,0-2.26-1.346c-.418-.209-.849-.424-1.261-.662a4.923,4.923,0,0,1-2.624-3.2.2.2,0,0,1,.173-.238.208.208,0,0,1,.239.173,4.533,4.533,0,0,0,2.421,2.9c.4.232.826.444,1.239.65a9.06,9.06,0,0,1,4.643,4.269c.348.539.707,1.1,1.1,1.6a11.018,11.018,0,0,0,6.225,3.933.21.21,0,0,1,.159.249A.207.207,0,0,1,237.506,258.046Z" transform="translate(-221.417 -244.118)" fill="#eff4ed"/>
        </g>
        <g id="Grupo_71039" data-name="Grupo 71039" transform="translate(39.478 88.908)">
          <path id="Trazado_141572" data-name="Trazado 141572" d="M249.509,276.851a.209.209,0,0,1-.258-.311,8.428,8.428,0,0,0,1.579-4.878,17.2,17.2,0,0,0-.211-2.314,9.51,9.51,0,0,1,.915-6.612,11.029,11.029,0,0,0,.707-8.244.209.209,0,0,1,.412-.071,11.439,11.439,0,0,1-.734,8.479,9.112,9.112,0,0,0-.885,6.392,17.642,17.642,0,0,1,.214,2.371,8.838,8.838,0,0,1-1.657,5.121A.211.211,0,0,1,249.509,276.851Z" transform="translate(-249.212 -254.246)" fill="#eff4ed"/>
        </g>
      </g>
      <g id="Grupo_71049" data-name="Grupo 71049" transform="translate(228.917 144.914)">
        <g id="Grupo_71041" data-name="Grupo 71041">
          <path id="Trazado_141573" data-name="Trazado 141573" d="M293.847,228.884c-3.443,3.455-9.068,4.457-11.719,8.551-1.647,2.54-1.782,5.768-3.026,8.528-3.124,6.931-12.251,9.291-16.03,15.888-2.278,3.979-2.288,8.993-4.788,12.836-1.242,1.908-3.031,3.411-4.282,5.314-3.757,5.719-1.154,14.4,4.942,17.514s14.319.469,17.874-5.377c3.212-5.281,2.911-12.264,6.609-17.217,2.767-3.7,7.609-6.044,8.785-10.516,1.093-4.157-1.445-8.9.517-12.723,1.644-3.207,6.014-4.684,6.808-8.2.329-1.461-.056-2.98-.048-4.477.02-3.372,2-6.362,3.555-9.352,1.171-2.249,3.287-7.038,1.065-9.286-2.363-2.392-5.751,2.462-6.875,4.072A32.026,32.026,0,0,1,293.847,228.884Z" transform="translate(-252.255 -219.715)" fill="#d86f56"/>
        </g>
        <g id="Grupo_71042" data-name="Grupo 71042" transform="translate(6.98 0.308)">
          <path id="Trazado_141574" data-name="Trazado 141574" d="M259.015,298.256a.141.141,0,0,1-.028-.021.155.155,0,0,1-.011-.219c4.171-4.634,6.311-10.715,8.38-16.6,2.035-5.783,4.14-11.763,8.177-16.414,1.006-1.16,2.145-2.252,3.247-3.308,2.277-2.183,4.633-4.439,5.848-7.353a23.131,23.131,0,0,0,1.262-5.166,32.493,32.493,0,0,1,.789-3.839c1.382-4.736,4.822-8.537,8.148-12.212,3.52-3.89,7.161-7.912,8.255-13a.156.156,0,0,1,.185-.119.157.157,0,0,1,.119.185c-1.112,5.164-4.781,9.219-8.329,13.139-3.3,3.649-6.718,7.423-8.079,12.09a32.363,32.363,0,0,0-.781,3.8,23.316,23.316,0,0,1-1.282,5.236c-1.24,2.973-3.618,5.253-5.919,7.458-1.1,1.051-2.232,2.138-3.228,3.287-4,4.605-6.092,10.557-8.118,16.313-2.08,5.909-4.231,12.019-8.444,16.7A.154.154,0,0,1,259.015,298.256Z" transform="translate(-258.936 -220.01)" fill="#eff4ed"/>
        </g>
        <g id="Grupo_71043" data-name="Grupo 71043" transform="translate(32.627 16.378)">
          <path id="Trazado_141575" data-name="Trazado 141575" d="M285.055,247.456a.154.154,0,0,1-.045-.038,5.122,5.122,0,0,1-1.152-2.946,10.148,10.148,0,0,1,.111-1.786,7.691,7.691,0,0,0,.064-2.139,7.967,7.967,0,0,0-.249-.989,4.773,4.773,0,0,1,.339-4.069.156.156,0,0,1,.2-.087.158.158,0,0,1,.088.2,6.086,6.086,0,0,0-.61,2.606,5.99,5.99,0,0,0,.28,1.26,8.147,8.147,0,0,1,.258,1.029,8.051,8.051,0,0,1-.063,2.225,9.906,9.906,0,0,0-.108,1.73,4.8,4.8,0,0,0,1.081,2.767.156.156,0,0,1-.2.235Z" transform="translate(-283.483 -235.392)" fill="#eff4ed"/>
        </g>
        <g id="Grupo_71044" data-name="Grupo 71044" transform="translate(36.227 17.045)">
          <path id="Trazado_141576" data-name="Trazado 141576" d="M287.009,241.483a.15.15,0,0,1-.041-.031.155.155,0,0,1,.011-.219,5.184,5.184,0,0,1,2.749-1.082c.26-.038.521-.068.784-.1a10.324,10.324,0,0,0,2.051-.376A5.065,5.065,0,0,0,295,237.93c.113-.15.22-.309.329-.469a3.2,3.2,0,0,1,1.5-1.424.155.155,0,1,1,.1.295,2.937,2.937,0,0,0-1.337,1.3c-.111.164-.223.327-.337.482a5.38,5.38,0,0,1-2.584,1.853,10.469,10.469,0,0,1-2.113.39c-.26.029-.518.06-.775.1a4.9,4.9,0,0,0-2.585,1.006A.154.154,0,0,1,287.009,241.483Z" transform="translate(-286.929 -236.029)" fill="#eff4ed"/>
        </g>
        <g id="Grupo_71045" data-name="Grupo 71045" transform="translate(23.097 40.398)">
          <path id="Trazado_141577" data-name="Trazado 141577" d="M274.442,264.264a.154.154,0,0,1-.071-.083.156.156,0,0,1,.092-.2l4-1.464a12.5,12.5,0,0,1,2.381-.7c.218-.033.439-.055.659-.077a7.656,7.656,0,0,0,.988-.141,8.238,8.238,0,0,0,2.848-1.567,6.33,6.33,0,0,1,3.7-1.655.156.156,0,1,1,0,.311,6.017,6.017,0,0,0-3.514,1.6,8.5,8.5,0,0,1-2.961,1.618,8.01,8.01,0,0,1-1.029.147c-.214.022-.429.043-.641.076a12.139,12.139,0,0,0-2.322.68l-4,1.464A.157.157,0,0,1,274.442,264.264Z" transform="translate(-274.362 -258.382)" fill="#eff4ed"/>
        </g>
        <g id="Grupo_71046" data-name="Grupo 71046" transform="translate(15.753 39.288)">
          <path id="Trazado_141578" data-name="Trazado 141578" d="M269.5,273.022a.163.163,0,0,1-.053-.047,5.762,5.762,0,0,1-.941-4.137c.048-.306.122-.616.193-.916a3.044,3.044,0,0,0-.313-3.1,6.231,6.231,0,0,1-.35-.611,6.482,6.482,0,0,1-.317-3.344,5.7,5.7,0,0,0-.369-3.311.155.155,0,1,1,.271-.153,6,6,0,0,1,.408,3.487,6.26,6.26,0,0,0,.287,3.186,6.194,6.194,0,0,0,.333.581,3.334,3.334,0,0,1,.353,3.341c-.07.295-.143.6-.189.893a5.44,5.44,0,0,0,.891,3.912.155.155,0,0,1-.041.215A.151.151,0,0,1,269.5,273.022Z" transform="translate(-267.333 -257.319)" fill="#eff4ed"/>
        </g>
        <g id="Grupo_71047" data-name="Grupo 71047" transform="translate(12.257 61.197)">
          <path id="Trazado_141579" data-name="Trazado 141579" d="M264.066,287.414a.152.152,0,0,1-.079-.149.155.155,0,0,1,.168-.141,3.833,3.833,0,0,0,2.859-1.356c.146-.138.29-.279.436-.421a5.187,5.187,0,0,1,3.29-1.961,6.715,6.715,0,0,0,.964-.256,6.819,6.819,0,0,0,2.647-2.326l.2-.247a5.347,5.347,0,0,1,3.272-2.267.156.156,0,0,1,.036.309,5.084,5.084,0,0,0-3.066,2.154l-.2.245a5.283,5.283,0,0,1-3.789,2.69,6.581,6.581,0,0,0-.974.259,6.673,6.673,0,0,0-2.164,1.619c-.146.143-.292.286-.439.425a4.112,4.112,0,0,1-3.1,1.441A.153.153,0,0,1,264.066,287.414Z" transform="translate(-263.986 -278.289)" fill="#eff4ed"/>
        </g>
        <g id="Grupo_71048" data-name="Grupo 71048" transform="translate(6.155 58.303)">
          <path id="Trazado_141580" data-name="Trazado 141580" d="M261.8,292.168l-.024-.016a7.357,7.357,0,0,1-2.542-6.418c.049-.4.133-.8.213-1.182a7.378,7.378,0,0,0,.237-2.128,7.47,7.47,0,0,0-.753-2.351c-.138-.309-.281-.63-.4-.951-.323-.842-.731-2.423.164-3.545a.155.155,0,1,1,.242.193c-.8,1-.415,2.46-.115,3.241.119.313.26.629.4.935a5.8,5.8,0,0,1,.536,4.668c-.079.379-.161.772-.209,1.157a7.037,7.037,0,0,0,2.433,6.141.155.155,0,0,1,.02.218A.156.156,0,0,1,261.8,292.168Z" transform="translate(-258.146 -275.519)" fill="#eff4ed"/>
        </g>
      </g>
      <g id="Grupo_71074" data-name="Grupo 71074" transform="translate(41.961 105.459)">
        <g id="Grupo_71056" data-name="Grupo 71056">
          <g id="Grupo_71052" data-name="Grupo 71052">
            <g id="Grupo_71050" data-name="Grupo 71050">
              <rect id="Rectángulo_31712" data-name="Rectángulo 31712" width="116.39" height="163.299" rx="6.58" transform="translate(183.616 140.241) rotate(149.182)" fill="#fff"/>
            </g>
            <g id="Grupo_71051" data-name="Grupo 71051" transform="translate(0.723 0.723)">
              <path id="Trazado_141581" data-name="Trazado 141581" d="M151.849,376.824,75.232,248.39a8.713,8.713,0,0,1,3.016-11.935L166.4,183.871a8.715,8.715,0,0,1,11.935,3.016l76.617,128.434a8.714,8.714,0,0,1-3.016,11.935l-88.147,52.584A8.714,8.714,0,0,1,151.849,376.824ZM80.123,239.6a5.052,5.052,0,0,0-1.749,6.918l76.617,128.433a5.05,5.05,0,0,0,6.916,1.747l88.147-52.584A5.048,5.048,0,0,0,251.8,317.2L175.187,188.762a5.052,5.052,0,0,0-6.918-1.748Z" transform="translate(-74.004 -182.644)" fill="#05657f"/>
            </g>
          </g>
          <g id="Grupo_71055" data-name="Grupo 71055" transform="translate(26.284 5.118)">
            <g id="Grupo_71053" data-name="Grupo 71053" transform="translate(0 6.759)">
              <rect id="Rectángulo_31713" data-name="Rectángulo 31713" width="46.977" height="18.142" rx="2.011" transform="translate(49.638 15.58) rotate(149.182)" fill="#fb8130"/>
            </g>
            <g id="Grupo_71054" data-name="Grupo 71054" transform="translate(0.487)">
              <path id="Trazado_141582" data-name="Trazado 141582" d="M99.212,204.046l7.263,12.177L133.7,199.982,126.436,187.8a1.958,1.958,0,0,0-2.684-.678L99.89,201.362A1.957,1.957,0,0,0,99.212,204.046Zm9.3.957a3.055,3.055,0,0,1,1.058-4.19l9.1-5.43a3.055,3.055,0,1,1,3.13,5.248l-9.1,5.43A3.056,3.056,0,0,1,108.51,205Z" transform="translate(-98.935 -186.85)" fill="#fb8130"/>
            </g>
          </g>
        </g>
        <g id="Grupo_71060" data-name="Grupo 71060" transform="translate(43.799 48.262)">
          <g id="Grupo_71059" data-name="Grupo 71059">
            <g id="Grupo_71058" data-name="Grupo 71058">
              <g id="Grupo_71057" data-name="Grupo 71057">
                <path id="Trazado_141583" data-name="Trazado 141583" d="M119.077,262.8l50.172-29.93a2.541,2.541,0,0,0,.881-3.483h0a2.542,2.542,0,0,0-3.484-.881l-50.172,29.93a2.541,2.541,0,0,0-.88,3.483h0A2.54,2.54,0,0,0,119.077,262.8Z" transform="translate(-115.234 -228.145)" fill="#05657f"/>
              </g>
            </g>
          </g>
        </g>
        <g id="Grupo_71072" data-name="Grupo 71072" transform="translate(47.378 62.64)">
          <g id="Grupo_71071" data-name="Grupo 71071">
            <g id="Grupo_71062" data-name="Grupo 71062">
              <g id="Grupo_71061" data-name="Grupo 71061">
                <path id="Trazado_141584" data-name="Trazado 141584" d="M121.674,284.82,187.4,245.614a1.994,1.994,0,0,0,.691-2.733h0a1.994,1.994,0,0,0-2.734-.692L119.632,281.4a1.994,1.994,0,0,0-.691,2.734h0A1.994,1.994,0,0,0,121.674,284.82Z" transform="translate(-118.659 -241.907)" fill="#dee5da"/>
              </g>
            </g>
            <g id="Grupo_71064" data-name="Grupo 71064" transform="translate(6.322 10.412)">
              <g id="Grupo_71063" data-name="Grupo 71063">
                <path id="Trazado_141585" data-name="Trazado 141585" d="M127.725,294.971l66.033-39.393a1.992,1.992,0,0,0,.691-2.733h0a1.993,1.993,0,0,0-2.733-.691l-66.033,39.392a1.993,1.993,0,0,0-.691,2.733h0A1.993,1.993,0,0,0,127.725,294.971Z" transform="translate(-124.71 -251.873)" fill="#dee5da"/>
              </g>
            </g>
            <g id="Grupo_71066" data-name="Grupo 71066" transform="translate(12.644 21.01)">
              <g id="Grupo_71065" data-name="Grupo 71065">
                <path id="Trazado_141586" data-name="Trazado 141586" d="M133.776,305.114l66.034-39.391a1.994,1.994,0,0,0,.69-2.734h0a1.993,1.993,0,0,0-2.733-.691l-66.033,39.392a1.993,1.993,0,0,0-.691,2.733h0A1.993,1.993,0,0,0,133.776,305.114Z" transform="translate(-130.761 -262.016)" fill="#dee5da"/>
              </g>
            </g>
            <g id="Grupo_71068" data-name="Grupo 71068" transform="translate(18.966 31.607)">
              <g id="Grupo_71067" data-name="Grupo 71067">
                <path id="Trazado_141587" data-name="Trazado 141587" d="M139.827,315.258l66.034-39.392a1.993,1.993,0,0,0,.69-2.733h0a1.993,1.993,0,0,0-2.733-.692l-66.033,39.392a1.993,1.993,0,0,0-.691,2.733h0A1.993,1.993,0,0,0,139.827,315.258Z" transform="translate(-136.812 -272.159)" fill="#dee5da"/>
              </g>
            </g>
            <g id="Grupo_71070" data-name="Grupo 71070" transform="translate(25.288 42.205)">
              <g id="Grupo_71069" data-name="Grupo 71069">
                <path id="Trazado_141588" data-name="Trazado 141588" d="M145.878,325.4l66.033-39.392a1.993,1.993,0,0,0,.691-2.733h0a1.993,1.993,0,0,0-2.733-.691l-66.033,39.391a1.993,1.993,0,0,0-.691,2.733h0A1.993,1.993,0,0,0,145.878,325.4Z" transform="translate(-142.863 -282.303)" fill="#dee5da"/>
              </g>
            </g>
          </g>
        </g>
        <g id="Grupo_71073" data-name="Grupo 71073" transform="translate(82.179 147.738)">
          <path id="Trazado_141589" data-name="Trazado 141589" d="M154.649,339.381,175.99,326.65a1.772,1.772,0,1,0-1.816-3.043l-21.341,12.731a1.772,1.772,0,0,0,1.816,3.043Z" transform="translate(-151.969 -323.357)" fill="#dee5da"/>
        </g>
      </g>
      <g id="Grupo_71075" data-name="Grupo 71075" transform="translate(52.037 318.603)">
        <path id="Trazado_141590" data-name="Trazado 141590" d="M541.694,399.779H89.388a6.928,6.928,0,0,1,0-13.82H541.694a6.928,6.928,0,0,1,0,13.82Z" transform="translate(-82.956 -385.959)" fill="#dee5da"/>
      </g>
      <g id="Grupo_71254" data-name="Grupo 71254" transform="translate(283.96 143.412)">
        <g id="Grupo_71148" data-name="Grupo 71148" transform="translate(0 16.346)">
          <g id="Grupo_71081" data-name="Grupo 71081">
            <g id="Grupo_71079" data-name="Grupo 71079" transform="translate(0.001)">
              <g id="Grupo_71076" data-name="Grupo 71076" transform="translate(0 0.002)">
                <rect id="Rectángulo_31714" data-name="Rectángulo 31714" width="38.039" height="5.522" rx="0.783" fill="#ffc78a"/>
              </g>
              <g id="Grupo_71077" data-name="Grupo 71077" transform="translate(5.164)">
                <rect id="Rectángulo_31715" data-name="Rectángulo 31715" width="15.951" height="5.498" fill="#ff7a17"/>
              </g>
              <g id="Grupo_71078" data-name="Grupo 71078" transform="translate(28.617 0.028)">
                <rect id="Rectángulo_31716" data-name="Rectángulo 31716" width="6.814" height="5.47" fill="#fff"/>
              </g>
            </g>
            <g id="Grupo_71080" data-name="Grupo 71080" transform="translate(0 4.386)">
              <path id="Trazado_141591" data-name="Trazado 141591" d="M304.938,238.121v.32a.821.821,0,0,0,.818.818h36.4a.821.821,0,0,0,.818-.818v-.32Z" transform="translate(-304.938 -238.121)" fill="#ff7a17"/>
            </g>
          </g>
          <g id="Grupo_71087" data-name="Grupo 71087" transform="translate(0 5.524)">
            <g id="Grupo_71085" data-name="Grupo 71085" transform="translate(0.001)">
              <g id="Grupo_71082" data-name="Grupo 71082">
                <rect id="Rectángulo_31717" data-name="Rectángulo 31717" width="38.039" height="5.521" rx="0.783" fill="#ffc78a"/>
              </g>
              <g id="Grupo_71083" data-name="Grupo 71083" transform="translate(5.164 0.002)">
                <rect id="Rectángulo_31718" data-name="Rectángulo 31718" width="15.951" height="5.494" fill="#ff7a17"/>
              </g>
              <g id="Grupo_71084" data-name="Grupo 71084" transform="translate(28.617 0.025)">
                <rect id="Rectángulo_31719" data-name="Rectángulo 31719" width="6.814" height="5.47" fill="#fff"/>
              </g>
            </g>
            <g id="Grupo_71086" data-name="Grupo 71086" transform="translate(0 4.384)">
              <path id="Trazado_141592" data-name="Trazado 141592" d="M304.938,243.406v.32a.821.821,0,0,0,.818.818h36.4a.821.821,0,0,0,.818-.818v-.32Z" transform="translate(-304.938 -243.406)" fill="#ff7a17"/>
            </g>
          </g>
          <g id="Grupo_71093" data-name="Grupo 71093" transform="translate(0 10.977)">
            <g id="Grupo_71091" data-name="Grupo 71091" transform="translate(0.001)">
              <g id="Grupo_71088" data-name="Grupo 71088">
                <rect id="Rectángulo_31720" data-name="Rectángulo 31720" width="38.039" height="5.522" rx="0.783" fill="#ffc78a"/>
              </g>
              <g id="Grupo_71089" data-name="Grupo 71089" transform="translate(5.164 0.003)">
                <rect id="Rectángulo_31721" data-name="Rectángulo 31721" width="15.951" height="5.494" fill="#ff7a17"/>
              </g>
              <g id="Grupo_71090" data-name="Grupo 71090" transform="translate(28.617 0.026)">
                <rect id="Rectángulo_31722" data-name="Rectángulo 31722" width="6.814" height="5.47" fill="#fff"/>
              </g>
            </g>
            <g id="Grupo_71092" data-name="Grupo 71092" transform="translate(0 4.384)">
              <path id="Trazado_141593" data-name="Trazado 141593" d="M304.938,248.626v.32a.821.821,0,0,0,.818.818h36.4a.821.821,0,0,0,.818-.818v-.32Z" transform="translate(-304.938 -248.626)" fill="#ff7a17"/>
            </g>
          </g>
          <g id="Grupo_71099" data-name="Grupo 71099" transform="translate(0 16.429)">
            <g id="Grupo_71097" data-name="Grupo 71097" transform="translate(0.001)">
              <g id="Grupo_71094" data-name="Grupo 71094" transform="translate(0 0.002)">
                <rect id="Rectángulo_31723" data-name="Rectángulo 31723" width="38.039" height="5.522" rx="0.783" fill="#ffc78a"/>
              </g>
              <g id="Grupo_71095" data-name="Grupo 71095" transform="translate(5.164)">
                <rect id="Rectángulo_31724" data-name="Rectángulo 31724" width="15.951" height="5.498" fill="#ff7a17"/>
              </g>
              <g id="Grupo_71096" data-name="Grupo 71096" transform="translate(28.617 0.027)">
                <rect id="Rectángulo_31725" data-name="Rectángulo 31725" width="6.814" height="5.47" fill="#fff"/>
              </g>
            </g>
            <g id="Grupo_71098" data-name="Grupo 71098" transform="translate(0 4.386)">
              <path id="Trazado_141594" data-name="Trazado 141594" d="M304.938,253.846v.32a.821.821,0,0,0,.818.818h36.4a.821.821,0,0,0,.818-.818v-.32Z" transform="translate(-304.938 -253.846)" fill="#ff7a17"/>
            </g>
          </g>
          <g id="Grupo_71105" data-name="Grupo 71105" transform="translate(0 21.953)">
            <g id="Grupo_71103" data-name="Grupo 71103" transform="translate(0.001)">
              <g id="Grupo_71100" data-name="Grupo 71100">
                <rect id="Rectángulo_31726" data-name="Rectángulo 31726" width="38.039" height="5.522" rx="0.783" fill="#ffc78a"/>
              </g>
              <g id="Grupo_71101" data-name="Grupo 71101" transform="translate(5.164 0.002)">
                <rect id="Rectángulo_31727" data-name="Rectángulo 31727" width="15.951" height="5.494" fill="#ff7a17"/>
              </g>
              <g id="Grupo_71102" data-name="Grupo 71102" transform="translate(28.617 0.025)">
                <rect id="Rectángulo_31728" data-name="Rectángulo 31728" width="6.814" height="5.47" fill="#fff"/>
              </g>
            </g>
            <g id="Grupo_71104" data-name="Grupo 71104" transform="translate(0 4.384)">
              <path id="Trazado_141595" data-name="Trazado 141595" d="M304.938,259.131v.32a.821.821,0,0,0,.818.818h36.4a.821.821,0,0,0,.818-.818v-.32Z" transform="translate(-304.938 -259.131)" fill="#ff7a17"/>
            </g>
          </g>
          <g id="Grupo_71111" data-name="Grupo 71111" transform="translate(0 27.406)">
            <g id="Grupo_71109" data-name="Grupo 71109" transform="translate(0.001)">
              <g id="Grupo_71106" data-name="Grupo 71106">
                <rect id="Rectángulo_31729" data-name="Rectángulo 31729" width="38.039" height="5.522" rx="0.783" fill="#ffc78a"/>
              </g>
              <g id="Grupo_71107" data-name="Grupo 71107" transform="translate(5.164 0.003)">
                <rect id="Rectángulo_31730" data-name="Rectángulo 31730" width="15.951" height="5.494" fill="#ff7a17"/>
              </g>
              <g id="Grupo_71108" data-name="Grupo 71108" transform="translate(28.617 0.026)">
                <rect id="Rectángulo_31731" data-name="Rectángulo 31731" width="6.814" height="5.471" fill="#fff"/>
              </g>
            </g>
            <g id="Grupo_71110" data-name="Grupo 71110" transform="translate(0 4.385)">
              <path id="Trazado_141596" data-name="Trazado 141596" d="M304.938,264.351v.319a.822.822,0,0,0,.818.819h36.4a.822.822,0,0,0,.818-.819v-.319Z" transform="translate(-304.938 -264.351)" fill="#ff7a17"/>
            </g>
          </g>
          <g id="Grupo_71117" data-name="Grupo 71117" transform="translate(0 32.824)">
            <g id="Grupo_71115" data-name="Grupo 71115" transform="translate(0.001)">
              <g id="Grupo_71112" data-name="Grupo 71112" transform="translate(0 0.002)">
                <rect id="Rectángulo_31732" data-name="Rectángulo 31732" width="38.039" height="5.521" rx="0.783" fill="#ffc78a"/>
              </g>
              <g id="Grupo_71113" data-name="Grupo 71113" transform="translate(5.164)">
                <rect id="Rectángulo_31733" data-name="Rectángulo 31733" width="15.951" height="5.498" fill="#ff7a17"/>
              </g>
              <g id="Grupo_71114" data-name="Grupo 71114" transform="translate(28.617 0.028)">
                <rect id="Rectángulo_31734" data-name="Rectángulo 31734" width="6.814" height="5.47" fill="#fff"/>
              </g>
            </g>
            <g id="Grupo_71116" data-name="Grupo 71116" transform="translate(0 4.386)">
              <path id="Trazado_141597" data-name="Trazado 141597" d="M304.938,269.538v.32a.821.821,0,0,0,.818.818h36.4a.821.821,0,0,0,.818-.818v-.32Z" transform="translate(-304.938 -269.538)" fill="#ff7a17"/>
            </g>
          </g>
          <g id="Grupo_71123" data-name="Grupo 71123" transform="translate(0 38.348)">
            <g id="Grupo_71121" data-name="Grupo 71121" transform="translate(0.001)">
              <g id="Grupo_71118" data-name="Grupo 71118">
                <rect id="Rectángulo_31735" data-name="Rectángulo 31735" width="38.039" height="5.522" rx="0.783" fill="#ffc78a"/>
              </g>
              <g id="Grupo_71119" data-name="Grupo 71119" transform="translate(5.164 0.003)">
                <rect id="Rectángulo_31736" data-name="Rectángulo 31736" width="15.951" height="5.493" fill="#ff7a17"/>
              </g>
              <g id="Grupo_71120" data-name="Grupo 71120" transform="translate(28.617 0.025)">
                <rect id="Rectángulo_31737" data-name="Rectángulo 31737" width="6.814" height="5.47" fill="#fff"/>
              </g>
            </g>
            <g id="Grupo_71122" data-name="Grupo 71122" transform="translate(0 4.384)">
              <path id="Trazado_141598" data-name="Trazado 141598" d="M304.938,274.823v.32a.821.821,0,0,0,.818.818h36.4a.821.821,0,0,0,.818-.818v-.32Z" transform="translate(-304.938 -274.823)" fill="#ff7a17"/>
            </g>
          </g>
          <g id="Grupo_71129" data-name="Grupo 71129" transform="translate(0 43.801)">
            <g id="Grupo_71127" data-name="Grupo 71127" transform="translate(0.001)">
              <g id="Grupo_71124" data-name="Grupo 71124">
                <rect id="Rectángulo_31738" data-name="Rectángulo 31738" width="38.039" height="5.521" rx="0.783" fill="#ffc78a"/>
              </g>
              <g id="Grupo_71125" data-name="Grupo 71125" transform="translate(5.164 0.002)">
                <rect id="Rectángulo_31739" data-name="Rectángulo 31739" width="15.951" height="5.494" fill="#ff7a17"/>
              </g>
              <g id="Grupo_71126" data-name="Grupo 71126" transform="translate(28.617 0.025)">
                <rect id="Rectángulo_31740" data-name="Rectángulo 31740" width="6.814" height="5.47" fill="#fff"/>
              </g>
            </g>
            <g id="Grupo_71128" data-name="Grupo 71128" transform="translate(0 4.384)">
              <path id="Trazado_141599" data-name="Trazado 141599" d="M304.938,280.043v.32a.82.82,0,0,0,.818.817h36.4a.82.82,0,0,0,.818-.817v-.32Z" transform="translate(-304.938 -280.043)" fill="#ff7a17"/>
            </g>
          </g>
          <g id="Grupo_71135" data-name="Grupo 71135" transform="translate(0 49.253)">
            <g id="Grupo_71133" data-name="Grupo 71133" transform="translate(0.001)">
              <g id="Grupo_71130" data-name="Grupo 71130" transform="translate(0 0.002)">
                <rect id="Rectángulo_31741" data-name="Rectángulo 31741" width="38.039" height="5.521" rx="0.783" fill="#ffc78a"/>
              </g>
              <g id="Grupo_71131" data-name="Grupo 71131" transform="translate(5.164)">
                <rect id="Rectángulo_31742" data-name="Rectángulo 31742" width="15.951" height="5.498" fill="#ff7a17"/>
              </g>
              <g id="Grupo_71132" data-name="Grupo 71132" transform="translate(28.617 0.028)">
                <rect id="Rectángulo_31743" data-name="Rectángulo 31743" width="6.814" height="5.47" fill="#fff"/>
              </g>
            </g>
            <g id="Grupo_71134" data-name="Grupo 71134" transform="translate(0 4.387)">
              <path id="Trazado_141600" data-name="Trazado 141600" d="M304.938,285.263v.32a.82.82,0,0,0,.818.817h36.4a.82.82,0,0,0,.818-.817v-.32Z" transform="translate(-304.938 -285.263)" fill="#ff7a17"/>
            </g>
          </g>
          <g id="Grupo_71141" data-name="Grupo 71141" transform="translate(0 54.777)">
            <g id="Grupo_71139" data-name="Grupo 71139" transform="translate(0.001)">
              <g id="Grupo_71136" data-name="Grupo 71136">
                <rect id="Rectángulo_31744" data-name="Rectángulo 31744" width="38.039" height="5.522" rx="0.783" fill="#ffc78a"/>
              </g>
              <g id="Grupo_71137" data-name="Grupo 71137" transform="translate(5.164 0.003)">
                <rect id="Rectángulo_31745" data-name="Rectángulo 31745" width="15.951" height="5.494" fill="#ff7a17"/>
              </g>
              <g id="Grupo_71138" data-name="Grupo 71138" transform="translate(28.617 0.025)">
                <rect id="Rectángulo_31746" data-name="Rectángulo 31746" width="6.814" height="5.471" fill="#fff"/>
              </g>
            </g>
            <g id="Grupo_71140" data-name="Grupo 71140" transform="translate(0 4.385)">
              <path id="Trazado_141601" data-name="Trazado 141601" d="M304.938,290.548v.32a.821.821,0,0,0,.818.818h36.4a.821.821,0,0,0,.818-.818v-.32Z" transform="translate(-304.938 -290.548)" fill="#ff7a17"/>
            </g>
          </g>
          <g id="Grupo_71147" data-name="Grupo 71147" transform="translate(0 60.23)">
            <g id="Grupo_71145" data-name="Grupo 71145" transform="translate(0.001)">
              <g id="Grupo_71142" data-name="Grupo 71142">
                <rect id="Rectángulo_31747" data-name="Rectángulo 31747" width="38.039" height="5.521" rx="0.783" fill="#ffc78a"/>
              </g>
              <g id="Grupo_71143" data-name="Grupo 71143" transform="translate(5.164 0.003)">
                <rect id="Rectángulo_31748" data-name="Rectángulo 31748" width="15.951" height="5.493" fill="#ff7a17"/>
              </g>
              <g id="Grupo_71144" data-name="Grupo 71144" transform="translate(28.617 0.026)">
                <rect id="Rectángulo_31749" data-name="Rectángulo 31749" width="6.814" height="5.47" fill="#fff"/>
              </g>
            </g>
            <g id="Grupo_71146" data-name="Grupo 71146" transform="translate(0 4.385)">
              <path id="Trazado_141602" data-name="Trazado 141602" d="M304.938,295.768v.32a.82.82,0,0,0,.818.817h36.4a.82.82,0,0,0,.818-.817v-.32Z" transform="translate(-304.938 -295.768)" fill="#ff7a17"/>
            </g>
          </g>
        </g>
        <g id="Grupo_71241" data-name="Grupo 71241" transform="translate(34.77)">
          <g id="Grupo_71221" data-name="Grupo 71221" transform="translate(0 16.346)">
            <g id="Grupo_71154" data-name="Grupo 71154">
              <g id="Grupo_71152" data-name="Grupo 71152">
                <g id="Grupo_71149" data-name="Grupo 71149" transform="translate(0 0.002)">
                  <rect id="Rectángulo_31750" data-name="Rectángulo 31750" width="38.038" height="5.522" rx="0.783" fill="#ffc78a"/>
                </g>
                <g id="Grupo_71150" data-name="Grupo 71150" transform="translate(5.164)">
                  <rect id="Rectángulo_31751" data-name="Rectángulo 31751" width="15.952" height="5.498" fill="#ff7a17"/>
                </g>
                <g id="Grupo_71151" data-name="Grupo 71151" transform="translate(28.617 0.028)">
                  <rect id="Rectángulo_31752" data-name="Rectángulo 31752" width="6.814" height="5.47" fill="#fff"/>
                </g>
              </g>
              <g id="Grupo_71153" data-name="Grupo 71153" transform="translate(0 4.386)">
                <path id="Trazado_141603" data-name="Trazado 141603" d="M338.218,238.121v.32a.82.82,0,0,0,.818.818h36.4a.82.82,0,0,0,.818-.818v-.32Z" transform="translate(-338.218 -238.121)" fill="#ff7a17"/>
              </g>
            </g>
            <g id="Grupo_71160" data-name="Grupo 71160" transform="translate(0 5.524)">
              <g id="Grupo_71158" data-name="Grupo 71158">
                <g id="Grupo_71155" data-name="Grupo 71155">
                  <rect id="Rectángulo_31753" data-name="Rectángulo 31753" width="38.038" height="5.521" rx="0.783" fill="#ffc78a"/>
                </g>
                <g id="Grupo_71156" data-name="Grupo 71156" transform="translate(5.164 0.002)">
                  <rect id="Rectángulo_31754" data-name="Rectángulo 31754" width="15.952" height="5.494" fill="#ff7a17"/>
                </g>
                <g id="Grupo_71157" data-name="Grupo 71157" transform="translate(28.617 0.025)">
                  <rect id="Rectángulo_31755" data-name="Rectángulo 31755" width="6.814" height="5.47" fill="#fff"/>
                </g>
              </g>
              <g id="Grupo_71159" data-name="Grupo 71159" transform="translate(0 4.384)">
                <path id="Trazado_141604" data-name="Trazado 141604" d="M338.218,243.406v.32a.82.82,0,0,0,.818.818h36.4a.82.82,0,0,0,.818-.818v-.32Z" transform="translate(-338.218 -243.406)" fill="#ff7a17"/>
              </g>
            </g>
            <g id="Grupo_71166" data-name="Grupo 71166" transform="translate(0 10.977)">
              <g id="Grupo_71164" data-name="Grupo 71164">
                <g id="Grupo_71161" data-name="Grupo 71161">
                  <rect id="Rectángulo_31756" data-name="Rectángulo 31756" width="38.038" height="5.522" rx="0.783" fill="#ffc78a"/>
                </g>
                <g id="Grupo_71162" data-name="Grupo 71162" transform="translate(5.164 0.003)">
                  <rect id="Rectángulo_31757" data-name="Rectángulo 31757" width="15.952" height="5.494" fill="#ff7a17"/>
                </g>
                <g id="Grupo_71163" data-name="Grupo 71163" transform="translate(28.617 0.026)">
                  <rect id="Rectángulo_31758" data-name="Rectángulo 31758" width="6.814" height="5.47" fill="#fff"/>
                </g>
              </g>
              <g id="Grupo_71165" data-name="Grupo 71165" transform="translate(0 4.384)">
                <path id="Trazado_141605" data-name="Trazado 141605" d="M338.218,248.626v.32a.821.821,0,0,0,.818.818h36.4a.821.821,0,0,0,.818-.818v-.32Z" transform="translate(-338.218 -248.626)" fill="#ff7a17"/>
              </g>
            </g>
            <g id="Grupo_71172" data-name="Grupo 71172" transform="translate(0 16.429)">
              <g id="Grupo_71170" data-name="Grupo 71170">
                <g id="Grupo_71167" data-name="Grupo 71167" transform="translate(0 0.002)">
                  <rect id="Rectángulo_31759" data-name="Rectángulo 31759" width="38.038" height="5.522" rx="0.783" fill="#ffc78a"/>
                </g>
                <g id="Grupo_71168" data-name="Grupo 71168" transform="translate(5.164)">
                  <rect id="Rectángulo_31760" data-name="Rectángulo 31760" width="15.952" height="5.498" fill="#ff7a17"/>
                </g>
                <g id="Grupo_71169" data-name="Grupo 71169" transform="translate(28.617 0.027)">
                  <rect id="Rectángulo_31761" data-name="Rectángulo 31761" width="6.814" height="5.47" fill="#fff"/>
                </g>
              </g>
              <g id="Grupo_71171" data-name="Grupo 71171" transform="translate(0 4.386)">
                <path id="Trazado_141606" data-name="Trazado 141606" d="M338.218,253.846v.32a.821.821,0,0,0,.818.818h36.4a.821.821,0,0,0,.818-.818v-.32Z" transform="translate(-338.218 -253.846)" fill="#ff7a17"/>
              </g>
            </g>
            <g id="Grupo_71178" data-name="Grupo 71178" transform="translate(0 21.953)">
              <g id="Grupo_71176" data-name="Grupo 71176">
                <g id="Grupo_71173" data-name="Grupo 71173">
                  <rect id="Rectángulo_31762" data-name="Rectángulo 31762" width="38.038" height="5.522" rx="0.783" fill="#ffc78a"/>
                </g>
                <g id="Grupo_71174" data-name="Grupo 71174" transform="translate(5.164 0.002)">
                  <rect id="Rectángulo_31763" data-name="Rectángulo 31763" width="15.952" height="5.494" fill="#ff7a17"/>
                </g>
                <g id="Grupo_71175" data-name="Grupo 71175" transform="translate(28.617 0.025)">
                  <rect id="Rectángulo_31764" data-name="Rectángulo 31764" width="6.814" height="5.47" fill="#fff"/>
                </g>
              </g>
              <g id="Grupo_71177" data-name="Grupo 71177" transform="translate(0 4.384)">
                <path id="Trazado_141607" data-name="Trazado 141607" d="M338.218,259.131v.32a.82.82,0,0,0,.818.818h36.4a.82.82,0,0,0,.818-.818v-.32Z" transform="translate(-338.218 -259.131)" fill="#ff7a17"/>
              </g>
            </g>
            <g id="Grupo_71184" data-name="Grupo 71184" transform="translate(0 27.406)">
              <g id="Grupo_71182" data-name="Grupo 71182">
                <g id="Grupo_71179" data-name="Grupo 71179">
                  <rect id="Rectángulo_31765" data-name="Rectángulo 31765" width="38.038" height="5.522" rx="0.783" fill="#ffc78a"/>
                </g>
                <g id="Grupo_71180" data-name="Grupo 71180" transform="translate(5.164 0.003)">
                  <rect id="Rectángulo_31766" data-name="Rectángulo 31766" width="15.952" height="5.494" fill="#ff7a17"/>
                </g>
                <g id="Grupo_71181" data-name="Grupo 71181" transform="translate(28.617 0.026)">
                  <rect id="Rectángulo_31767" data-name="Rectángulo 31767" width="6.814" height="5.471" fill="#fff"/>
                </g>
              </g>
              <g id="Grupo_71183" data-name="Grupo 71183" transform="translate(0 4.385)">
                <path id="Trazado_141608" data-name="Trazado 141608" d="M338.218,264.351v.319a.821.821,0,0,0,.818.819h36.4a.821.821,0,0,0,.818-.819v-.319Z" transform="translate(-338.218 -264.351)" fill="#ff7a17"/>
              </g>
            </g>
            <g id="Grupo_71190" data-name="Grupo 71190" transform="translate(0 32.824)">
              <g id="Grupo_71188" data-name="Grupo 71188">
                <g id="Grupo_71185" data-name="Grupo 71185" transform="translate(0 0.002)">
                  <rect id="Rectángulo_31768" data-name="Rectángulo 31768" width="38.038" height="5.521" rx="0.783" fill="#ffc78a"/>
                </g>
                <g id="Grupo_71186" data-name="Grupo 71186" transform="translate(5.164)">
                  <rect id="Rectángulo_31769" data-name="Rectángulo 31769" width="15.952" height="5.498" fill="#ff7a17"/>
                </g>
                <g id="Grupo_71187" data-name="Grupo 71187" transform="translate(28.617 0.028)">
                  <rect id="Rectángulo_31770" data-name="Rectángulo 31770" width="6.814" height="5.47" fill="#f8d745"/>
                </g>
              </g>
              <g id="Grupo_71189" data-name="Grupo 71189" transform="translate(0 4.386)">
                <path id="Trazado_141609" data-name="Trazado 141609" d="M338.218,269.538v.32a.82.82,0,0,0,.818.818h36.4a.82.82,0,0,0,.818-.818v-.32Z" transform="translate(-338.218 -269.538)" fill="#ff7a17"/>
              </g>
            </g>
            <g id="Grupo_71196" data-name="Grupo 71196" transform="translate(0 38.348)">
              <g id="Grupo_71194" data-name="Grupo 71194">
                <g id="Grupo_71191" data-name="Grupo 71191">
                  <rect id="Rectángulo_31771" data-name="Rectángulo 31771" width="38.038" height="5.522" rx="0.783" fill="#ffc78a"/>
                </g>
                <g id="Grupo_71192" data-name="Grupo 71192" transform="translate(5.164 0.003)">
                  <rect id="Rectángulo_31772" data-name="Rectángulo 31772" width="15.952" height="5.493" fill="#ff7a17"/>
                </g>
                <g id="Grupo_71193" data-name="Grupo 71193" transform="translate(28.617 0.025)">
                  <rect id="Rectángulo_31773" data-name="Rectángulo 31773" width="6.814" height="5.47" fill="#f8d745"/>
                </g>
              </g>
              <g id="Grupo_71195" data-name="Grupo 71195" transform="translate(0 4.384)">
                <path id="Trazado_141610" data-name="Trazado 141610" d="M338.218,274.823v.32a.821.821,0,0,0,.818.818h36.4a.821.821,0,0,0,.818-.818v-.32Z" transform="translate(-338.218 -274.823)" fill="#ff7a17"/>
              </g>
            </g>
            <g id="Grupo_71202" data-name="Grupo 71202" transform="translate(0 43.801)">
              <g id="Grupo_71200" data-name="Grupo 71200">
                <g id="Grupo_71197" data-name="Grupo 71197">
                  <rect id="Rectángulo_31774" data-name="Rectángulo 31774" width="38.038" height="5.521" rx="0.783" fill="#ffc78a"/>
                </g>
                <g id="Grupo_71198" data-name="Grupo 71198" transform="translate(5.164 0.002)">
                  <rect id="Rectángulo_31775" data-name="Rectángulo 31775" width="15.952" height="5.494" fill="#ff7a17"/>
                </g>
                <g id="Grupo_71199" data-name="Grupo 71199" transform="translate(28.617 0.025)">
                  <rect id="Rectángulo_31776" data-name="Rectángulo 31776" width="6.814" height="5.47" fill="#f8d745"/>
                </g>
              </g>
              <g id="Grupo_71201" data-name="Grupo 71201" transform="translate(0 4.384)">
                <path id="Trazado_141611" data-name="Trazado 141611" d="M338.218,280.043v.32a.82.82,0,0,0,.818.817h36.4a.82.82,0,0,0,.818-.817v-.32Z" transform="translate(-338.218 -280.043)" fill="#ff7a17"/>
              </g>
            </g>
            <g id="Grupo_71208" data-name="Grupo 71208" transform="translate(0 49.253)">
              <g id="Grupo_71206" data-name="Grupo 71206">
                <g id="Grupo_71203" data-name="Grupo 71203" transform="translate(0 0.002)">
                  <rect id="Rectángulo_31777" data-name="Rectángulo 31777" width="38.038" height="5.521" rx="0.783" fill="#ffc78a"/>
                </g>
                <g id="Grupo_71204" data-name="Grupo 71204" transform="translate(5.164)">
                  <rect id="Rectángulo_31778" data-name="Rectángulo 31778" width="15.952" height="5.498" fill="#ff7a17"/>
                </g>
                <g id="Grupo_71205" data-name="Grupo 71205" transform="translate(28.617 0.028)">
                  <rect id="Rectángulo_31779" data-name="Rectángulo 31779" width="6.814" height="5.47" fill="#f8d745"/>
                </g>
              </g>
              <g id="Grupo_71207" data-name="Grupo 71207" transform="translate(0 4.387)">
                <path id="Trazado_141612" data-name="Trazado 141612" d="M338.218,285.263v.32a.82.82,0,0,0,.818.817h36.4a.82.82,0,0,0,.818-.817v-.32Z" transform="translate(-338.218 -285.263)" fill="#ff7a17"/>
              </g>
            </g>
            <g id="Grupo_71214" data-name="Grupo 71214" transform="translate(0 54.777)">
              <g id="Grupo_71212" data-name="Grupo 71212">
                <g id="Grupo_71209" data-name="Grupo 71209">
                  <rect id="Rectángulo_31780" data-name="Rectángulo 31780" width="38.038" height="5.522" rx="0.783" fill="#ffc78a"/>
                </g>
                <g id="Grupo_71210" data-name="Grupo 71210" transform="translate(5.164 0.003)">
                  <rect id="Rectángulo_31781" data-name="Rectángulo 31781" width="15.952" height="5.494" fill="#ff7a17"/>
                </g>
                <g id="Grupo_71211" data-name="Grupo 71211" transform="translate(28.617 0.025)">
                  <rect id="Rectángulo_31782" data-name="Rectángulo 31782" width="6.814" height="5.471" fill="#f8d745"/>
                </g>
              </g>
              <g id="Grupo_71213" data-name="Grupo 71213" transform="translate(0 4.385)">
                <path id="Trazado_141613" data-name="Trazado 141613" d="M338.218,290.548v.32a.821.821,0,0,0,.818.818h36.4a.821.821,0,0,0,.818-.818v-.32Z" transform="translate(-338.218 -290.548)" fill="#ff7a17"/>
              </g>
            </g>
            <g id="Grupo_71220" data-name="Grupo 71220" transform="translate(0 60.23)">
              <g id="Grupo_71218" data-name="Grupo 71218">
                <g id="Grupo_71215" data-name="Grupo 71215">
                  <rect id="Rectángulo_31783" data-name="Rectángulo 31783" width="38.038" height="5.521" rx="0.783" fill="#ffc78a"/>
                </g>
                <g id="Grupo_71216" data-name="Grupo 71216" transform="translate(5.164 0.003)">
                  <rect id="Rectángulo_31784" data-name="Rectángulo 31784" width="15.952" height="5.493" fill="#ff7a17"/>
                </g>
                <g id="Grupo_71217" data-name="Grupo 71217" transform="translate(28.617 0.026)">
                  <rect id="Rectángulo_31785" data-name="Rectángulo 31785" width="6.814" height="5.47" fill="#f8d745"/>
                </g>
              </g>
              <g id="Grupo_71219" data-name="Grupo 71219" transform="translate(0 4.385)">
                <path id="Trazado_141614" data-name="Trazado 141614" d="M338.218,295.768v.32a.82.82,0,0,0,.818.817h36.4a.82.82,0,0,0,.818-.817v-.32Z" transform="translate(-338.218 -295.768)" fill="#ff7a17"/>
              </g>
            </g>
          </g>
          <g id="Grupo_71240" data-name="Grupo 71240">
            <g id="Grupo_71227" data-name="Grupo 71227">
              <g id="Grupo_71225" data-name="Grupo 71225">
                <g id="Grupo_71222" data-name="Grupo 71222" transform="translate(0 0.002)">
                  <rect id="Rectángulo_31786" data-name="Rectángulo 31786" width="38.038" height="5.522" rx="0.783" fill="#ffc78a"/>
                </g>
                <g id="Grupo_71223" data-name="Grupo 71223" transform="translate(5.164)">
                  <rect id="Rectángulo_31787" data-name="Rectángulo 31787" width="15.952" height="5.498" fill="#ff7a17"/>
                </g>
                <g id="Grupo_71224" data-name="Grupo 71224" transform="translate(28.617 0.027)">
                  <rect id="Rectángulo_31788" data-name="Rectángulo 31788" width="6.814" height="5.471" fill="#fff"/>
                </g>
              </g>
              <g id="Grupo_71226" data-name="Grupo 71226" transform="translate(0 4.386)">
                <path id="Trazado_141615" data-name="Trazado 141615" d="M338.218,222.476v.319a.82.82,0,0,0,.818.818h36.4a.82.82,0,0,0,.818-.818v-.319Z" transform="translate(-338.218 -222.476)" fill="#ff7a17"/>
              </g>
            </g>
            <g id="Grupo_71233" data-name="Grupo 71233" transform="translate(0 5.524)">
              <g id="Grupo_71231" data-name="Grupo 71231">
                <g id="Grupo_71228" data-name="Grupo 71228">
                  <rect id="Rectángulo_31789" data-name="Rectángulo 31789" width="38.038" height="5.521" rx="0.783" fill="#ffc78a"/>
                </g>
                <g id="Grupo_71229" data-name="Grupo 71229" transform="translate(5.164 0.003)">
                  <rect id="Rectángulo_31790" data-name="Rectángulo 31790" width="15.952" height="5.493" fill="#ff7a17"/>
                </g>
                <g id="Grupo_71230" data-name="Grupo 71230" transform="translate(28.617 0.025)">
                  <rect id="Rectángulo_31791" data-name="Rectángulo 31791" width="6.814" height="5.471" fill="#fff"/>
                </g>
              </g>
              <g id="Grupo_71232" data-name="Grupo 71232" transform="translate(0 4.384)">
                <path id="Trazado_141616" data-name="Trazado 141616" d="M338.218,227.761v.32a.82.82,0,0,0,.818.817h36.4a.82.82,0,0,0,.818-.817v-.32Z" transform="translate(-338.218 -227.761)" fill="#ff7a17"/>
              </g>
            </g>
            <g id="Grupo_71239" data-name="Grupo 71239" transform="translate(0 10.977)">
              <g id="Grupo_71237" data-name="Grupo 71237">
                <g id="Grupo_71234" data-name="Grupo 71234">
                  <rect id="Rectángulo_31792" data-name="Rectángulo 31792" width="38.038" height="5.521" rx="0.783" fill="#ffc78a"/>
                </g>
                <g id="Grupo_71235" data-name="Grupo 71235" transform="translate(5.164 0.002)">
                  <rect id="Rectángulo_31793" data-name="Rectángulo 31793" width="15.952" height="5.494" fill="#ff7a17"/>
                </g>
                <g id="Grupo_71236" data-name="Grupo 71236" transform="translate(28.617 0.026)">
                  <rect id="Rectángulo_31794" data-name="Rectángulo 31794" width="6.814" height="5.47" fill="#fff"/>
                </g>
              </g>
              <g id="Grupo_71238" data-name="Grupo 71238" transform="translate(0 4.385)">
                <path id="Trazado_141617" data-name="Trazado 141617" d="M338.218,232.981v.319a.82.82,0,0,0,.818.818h36.4a.82.82,0,0,0,.818-.818v-.319Z" transform="translate(-338.218 -232.981)" fill="#ff7a17"/>
              </g>
            </g>
          </g>
        </g>
        <g id="Grupo_71242" data-name="Grupo 71242" transform="translate(42.641 44.38)">
          <path id="Trazado_141618" data-name="Trazado 141618" d="M367.843,260.76c-.07,0-.139-.005-.209-.005a21.875,21.875,0,0,0-15.084,37.726h15.292Z" transform="translate(-345.751 -260.755)" fill="#002b3a"/>
        </g>
        <g id="Grupo_71253" data-name="Grupo 71253" transform="translate(45.396 44.017)">
          <g id="Grupo_71244" data-name="Grupo 71244">
            <g id="Grupo_71243" data-name="Grupo 71243">
              <path id="Trazado_141619" data-name="Trazado 141619" d="M388.946,280.687a20.279,20.279,0,1,1-20.279-20.279A20.278,20.278,0,0,1,388.946,280.687Z" transform="translate(-348.388 -260.408)" fill="#ffc78a"/>
            </g>
          </g>
          <g id="Grupo_71245" data-name="Grupo 71245">
            <path id="Trazado_141620" data-name="Trazado 141620" d="M382.756,266.121a20.259,20.259,0,0,0-29.019,28.255Z" transform="translate(-348.388 -260.408)" fill="#fff"/>
          </g>
          <g id="Grupo_71248" data-name="Grupo 71248" transform="translate(4.067 4.067)">
            <g id="Grupo_71246" data-name="Grupo 71246" transform="translate(0.532 0.532)">
              <path id="Trazado_141621" data-name="Trazado 141621" d="M384.151,280.49a15.681,15.681,0,1,1-15.681-15.68A15.68,15.68,0,0,1,384.151,280.49Z" transform="translate(-352.79 -264.81)" fill="#ffc78a"/>
            </g>
            <g id="Grupo_71247" data-name="Grupo 71247">
              <path id="Trazado_141622" data-name="Trazado 141622" d="M368.494,296.724a16.211,16.211,0,1,1,16.21-16.211A16.23,16.23,0,0,1,368.494,296.724Zm0-31.361a15.15,15.15,0,1,0,15.149,15.15A15.168,15.168,0,0,0,368.494,265.362Z" transform="translate(-352.281 -264.301)" fill="#ff7a17"/>
            </g>
          </g>
          <g id="Grupo_71251" data-name="Grupo 71251" transform="translate(13.017 7.45)">
            <g id="Grupo_71250" data-name="Grupo 71250">
              <g id="Grupo_71249" data-name="Grupo 71249">
                <path id="Trazado_141623" data-name="Trazado 141623" d="M374.115,288.27a7.848,7.848,0,0,1-4.709,1.87v1.938a1.119,1.119,0,0,1-1.12,1.119h0a1.119,1.119,0,0,1-1.119-1.119v-1.911a15.309,15.309,0,0,1-3.821-.737,10.122,10.122,0,0,1-1.764-.763,1.469,1.469,0,0,1-.606-1.882l.029-.066a1.491,1.491,0,0,1,2.072-.686,10.636,10.636,0,0,0,1.088.49,10.88,10.88,0,0,0,3,.695V281.76a20.071,20.071,0,0,1-3.234-1.023,5.594,5.594,0,0,1-2.17-1.638,4.389,4.389,0,0,1-.873-2.852,5.04,5.04,0,0,1,1.61-3.767,7.572,7.572,0,0,1,4.667-1.857v-1.964a1.119,1.119,0,0,1,1.119-1.119h0a1.119,1.119,0,0,1,1.12,1.119v1.91a12.792,12.792,0,0,1,2.988.518,11.377,11.377,0,0,1,1.266.461,1.5,1.5,0,0,1,.776,1.945h0a1.5,1.5,0,0,1-1.956.829,11.313,11.313,0,0,0-3.075-.8v5.514a20.976,20.976,0,0,1,3.262,1.009,5.593,5.593,0,0,1,2.184,1.625,4.343,4.343,0,0,1,.888,2.852A4.983,4.983,0,0,1,374.115,288.27Zm-8.993-10.74a6.117,6.117,0,0,0,2.046.927V273.6a3.782,3.782,0,0,0-2.074.874,2.141,2.141,0,0,0-.682,1.61A1.734,1.734,0,0,0,365.121,277.529Zm6.428,8.789a2,2,0,0,0,.7-1.555,1.778,1.778,0,0,0-.737-1.489,6.338,6.338,0,0,0-2.1-.941v4.831A4.067,4.067,0,0,0,371.549,286.318Z" transform="translate(-360.847 -267.539)" fill="#fff"/>
              </g>
            </g>
          </g>
          <g id="Grupo_71252" data-name="Grupo 71252" transform="translate(6.632 6.367)" opacity="0.2">
            <path id="Trazado_141624" data-name="Trazado 141624" d="M377.963,270.362a13.692,13.692,0,0,0-19.612,19.1Z" transform="translate(-354.736 -266.502)" fill="#ffed91"/>
          </g>
        </g>
      </g>
      <g id="Grupo_71256" data-name="Grupo 71256" transform="translate(316.371 21.527)">
        <g id="Grupo_71255" data-name="Grupo 71255" transform="translate(0)">
          <path id="Trazado_141625" data-name="Trazado 141625" d="M356.647,142.99A20.687,20.687,0,1,1,377.333,122.3,20.71,20.71,0,0,1,356.647,142.99Zm0-32.662A11.975,11.975,0,1,0,368.622,122.3,11.989,11.989,0,0,0,356.647,110.328Z" transform="translate(-335.96 -101.617)" fill="#fff"/>
        </g>
      </g>
      <g id="Grupo_71258" data-name="Grupo 71258" transform="translate(485.558 177.465)">
        <g id="Grupo_71257" data-name="Grupo 71257">
          <path id="Trazado_141626" data-name="Trazado 141626" d="M514.226,283.532a16.33,16.33,0,1,1,16.331-16.33A16.349,16.349,0,0,1,514.226,283.532Zm0-25.784a9.454,9.454,0,1,0,9.453,9.454A9.464,9.464,0,0,0,514.226,257.748Z" transform="translate(-497.895 -250.871)" fill="#fff"/>
        </g>
      </g>
      <g id="Grupo_71259" data-name="Grupo 71259" transform="translate(494.308 99.583)">
        <path id="Trazado_141627" data-name="Trazado 141627" d="M518.731,192.843c-.584,0-1.282-.448-1.423-1.732a10.435,10.435,0,0,1,2.3-6.8,6.9,6.9,0,0,0-.418-.861,4.414,4.414,0,0,0-1.782-1.909,4.548,4.548,0,0,0-3.533.212,11.737,11.737,0,0,0-6.685,7.342.471.471,0,1,1-.9-.271,12.529,12.529,0,0,1,7.233-7.945,5.223,5.223,0,0,1,4.3-.187,5.458,5.458,0,0,1,2.19,2.287q.143.251.27.514a16.092,16.092,0,0,1,3.378-2.894c2.393-1.531,4.641-2.028,6.5-1.438a5.641,5.641,0,0,1,3.293,3.011,58.356,58.356,0,0,1,9.024-5.79.471.471,0,1,1,.434.837,57.32,57.32,0,0,0-9.109,5.878,6,6,0,0,1,.148.654,8,8,0,0,1-1.447,5.78,2.99,2.99,0,0,1-1.6,1.3,1.9,1.9,0,0,1-1.771-.486,2.8,2.8,0,0,1-.885-2.377,5.763,5.763,0,0,1,2.191-3.271q1.1-.987,2.254-1.916a4.72,4.72,0,0,0-2.817-2.717c-2-.634-4.215.376-5.713,1.334a15.1,15.1,0,0,0-3.491,3.083,10.692,10.692,0,0,1,.506,3.256c.032,3.262-1.174,5.04-2.382,5.112Zm1.236-7.423a9.207,9.207,0,0,0-1.72,5.618c.058.518.253.894.5.862.518-.03,1.523-1.32,1.5-4.16A10.377,10.377,0,0,0,519.967,185.42Zm13.025-1.675q-.979.8-1.923,1.647a5,5,0,0,0-1.886,2.7,1.844,1.844,0,0,0,.581,1.543,1,1,0,0,0,.908.273,2.01,2.01,0,0,0,1.058-.919,7.049,7.049,0,0,0,1.291-5.087C533.013,183.85,533,183.8,532.992,183.745Z" transform="translate(-506.27 -176.327)" fill="#fff"/>
      </g>
      <g id="Grupo_71260" data-name="Grupo 71260" transform="translate(206.542 14.225)">
        <path id="Trazado_141628" data-name="Trazado 141628" d="M275.557,111.247a.822.822,0,0,1-1.614-.237,8.51,8.51,0,0,0-12.244-7.84l-.856.418-.288-.91a8.562,8.562,0,0,0-6.274-5.873,6.433,6.433,0,0,0-7.093,3.814l-.738,2.086-.8-2.061a6.876,6.876,0,0,0-13.178,1.3.806.806,0,0,1-.952.668.82.82,0,0,1-.667-.951,8.506,8.506,0,0,1,15.555-3.1,8.325,8.325,0,0,1,8.168-3.374,10,10,0,0,1,7.239,6.142,10.153,10.153,0,0,1,13.773,9.715A.831.831,0,0,1,275.557,111.247Z" transform="translate(-230.839 -94.627)" fill="#dee5da"/>
      </g>
      <g id="Grupo_71261" data-name="Grupo 71261" transform="translate(245.122 106.592)">
        <path id="Trazado_141629" data-name="Trazado 141629" d="M282.678,214.247a1.132,1.132,0,0,1-1.161.27c-6.811-2.318-14.017-8.484-13.745-16.542.153-4.455,3.432-9.173,8.069-9.1a7.3,7.3,0,0,1,.892.069,8.681,8.681,0,0,1,.766-1.485,10.271,10.271,0,0,1,10.643-4.182,11.362,11.362,0,0,1,8.2,7.984,1.129,1.129,0,1,1-2.173.613,9.2,9.2,0,0,0-6.53-6.4,7.953,7.953,0,0,0-8.243,3.209,6.19,6.19,0,0,0-.491.923c2.277,1.084,4.086,3.207,5.659,5.233a4.406,4.406,0,0,1,1.067,2.172,2.892,2.892,0,0,1-.686,2.182,3.6,3.6,0,0,1-2.443,1.258,5.132,5.132,0,0,1-3.857-1.649,9.094,9.094,0,0,1-2.482-7.654c-.117-.01-.234-.016-.352-.019-3.264-.052-5.664,3.606-5.78,6.919-.232,6.908,6.169,12.271,12.216,14.328a1.131,1.131,0,0,1,.435,1.868Zm-4.32-22.367a6.792,6.792,0,0,0,1.861,5.309,2.994,2.994,0,0,0,2.128,1.012,1.287,1.287,0,0,0,.859-.45.668.668,0,0,0,.18-.477,2.733,2.733,0,0,0-.6-1.047A16.728,16.728,0,0,0,278.358,191.88Z" transform="translate(-267.765 -183.036)" fill="#dee5da"/>
      </g>
      <g id="Grupo_71262" data-name="Grupo 71262" transform="translate(66.927 87.223)">
        <path id="Trazado_141630" data-name="Trazado 141630" d="M130.907,185.115a2.358,2.358,0,0,1-.572-.071,2.788,2.788,0,0,1-1.859-3.2,4.6,4.6,0,0,1,2.183-2.923,7.5,7.5,0,0,1,2.45-1.014,11.073,11.073,0,0,0-1.233-4.925,9.159,9.159,0,0,0-8.249-4.259,15.063,15.063,0,0,0-8.016,2.868,13.14,13.14,0,0,1,.935,4.793,3.894,3.894,0,0,1-.992,2.979,2.334,2.334,0,0,1-2.592.329,3.492,3.492,0,0,1-2.119-3c-.027-1.739.995-3.395,3.123-5.064q.23-.18.48-.366a10.4,10.4,0,0,0-4.809-5.015c-3.784-1.8-8.789-.417-10.713,2.964a6.891,6.891,0,0,0-.132,6.1,5.866,5.866,0,0,0,4.01,3.506.471.471,0,1,1-.2.92,6.8,6.8,0,0,1-4.671-4.043,7.842,7.842,0,0,1,.174-6.951c2.193-3.852,7.659-5.386,11.936-3.349a11.309,11.309,0,0,1,5.182,5.315,15.9,15.9,0,0,1,8.381-2.935,10.165,10.165,0,0,1,9.09,4.736,11.854,11.854,0,0,1,1.35,5.243,7.666,7.666,0,0,1,4.16.754,15.1,15.1,0,0,1,2.116,1.376,8.9,8.9,0,0,0,3.022,1.679,4.215,4.215,0,0,0,2.488-8.04.471.471,0,1,1,.331-.882,5.157,5.157,0,0,1-3.043,9.837,9.723,9.723,0,0,1-3.354-1.835,14.522,14.522,0,0,0-1.982-1.294,6.706,6.706,0,0,0-3.7-.654c.009.475.006.95,0,1.421-.03,1.583-.593,3.59-1.783,4.506A2.242,2.242,0,0,1,130.907,185.115Zm2.234-6.249a6.491,6.491,0,0,0-1.97.847,3.792,3.792,0,0,0-1.766,2.3,1.849,1.849,0,0,0,1.154,2.116,1.294,1.294,0,0,0,1.16-.247,5.356,5.356,0,0,0,1.417-3.779C133.144,179.693,133.147,179.28,133.141,178.866Zm-18.315-6.705c-.094.071-.186.142-.276.212-1.882,1.476-2.785,2.886-2.762,4.309a2.567,2.567,0,0,0,1.553,2.146,1.441,1.441,0,0,0,1.584-.162,2.924,2.924,0,0,0,.681-2.277A12.21,12.21,0,0,0,114.826,172.16Z" transform="translate(-97.208 -164.497)" fill="#fff"/>
      </g>
      <g id="Grupo_71269" data-name="Grupo 71269" transform="translate(160.246 274.376)">
        <g id="Grupo_71267" data-name="Grupo 71267" transform="translate(0 0.072)">
          <g id="Grupo_71263" data-name="Grupo 71263" transform="translate(2.338 2.871)">
            <rect id="Rectángulo_31795" data-name="Rectángulo 31795" width="105.874" height="44.857" fill="#3cb5d3"/>
          </g>
          <g id="Grupo_71264" data-name="Grupo 71264" transform="translate(108.223 1.807)">
            <rect id="Rectángulo_31796" data-name="Rectángulo 31796" width="92.906" height="44.858" fill="#dee5da"/>
          </g>
          <g id="Grupo_71266" data-name="Grupo 71266">
            <g id="Grupo_71265" data-name="Grupo 71265">
              <path id="Trazado_141631" data-name="Trazado 141631" d="M388.872,389.4H192.334a2.407,2.407,0,0,1-2.4-2.4V349.5a2.406,2.406,0,0,1,2.4-2.4H388.872v-3.4H192.334a5.814,5.814,0,0,0-5.807,5.807V387a5.815,5.815,0,0,0,5.807,5.808H388.872Z" transform="translate(-186.527 -343.697)" fill="#3cb5d3"/>
            </g>
          </g>
        </g>
        <g id="Grupo_71268" data-name="Grupo 71268" transform="translate(106.209)">
          <path id="Trazado_141632" data-name="Trazado 141632" d="M294.793,392.955h89.668v-3.634H294.793a2.962,2.962,0,0,1-2.977-2.941V350.2a2.963,2.963,0,0,1,2.977-2.942h89.668v-3.633H294.793a6.6,6.6,0,0,0-6.609,6.575v36.178A6.6,6.6,0,0,0,294.793,392.955Z" transform="translate(-288.184 -343.628)" fill="#338cfb"/>
        </g>
      </g>
      <g id="Grupo_71276" data-name="Grupo 71276" transform="translate(170.417 225.331)">
        <g id="Grupo_71274" data-name="Grupo 71274" transform="translate(0.142 0.072)">
          <g id="Grupo_71270" data-name="Grupo 71270" transform="translate(94.134 2.871)">
            <rect id="Rectángulo_31797" data-name="Rectángulo 31797" width="105.874" height="44.857" transform="translate(105.874 44.857) rotate(180)" fill="#024866"/>
          </g>
          <g id="Grupo_71271" data-name="Grupo 71271" transform="translate(1.217 1.807)">
            <rect id="Rectángulo_31798" data-name="Rectángulo 31798" width="92.906" height="44.858" transform="translate(92.906 44.858) rotate(180)" fill="#dee5da"/>
          </g>
          <g id="Grupo_71273" data-name="Grupo 71273">
            <g id="Grupo_71272" data-name="Grupo 71272">
              <path id="Trazado_141633" data-name="Trazado 141633" d="M196.4,342.461H392.936a2.407,2.407,0,0,0,2.405-2.4v-37.5a2.407,2.407,0,0,0-2.405-2.4H196.4v-3.4H392.936a5.815,5.815,0,0,1,5.808,5.807v37.5a5.816,5.816,0,0,1-5.808,5.809H196.4Z" transform="translate(-196.398 -296.754)" fill="#024866"/>
            </g>
          </g>
        </g>
        <g id="Grupo_71275" data-name="Grupo 71275">
          <path id="Trazado_141634" data-name="Trazado 141634" d="M285.93,346.012H196.262V342.38H285.93a2.964,2.964,0,0,0,2.978-2.942V303.26a2.963,2.963,0,0,0-2.978-2.941H196.262v-3.634H285.93a6.6,6.6,0,0,1,6.61,6.575v36.178A6.6,6.6,0,0,1,285.93,346.012Z" transform="translate(-196.262 -296.685)" fill="#002b3a"/>
        </g>
      </g>
      <g id="Grupo_71282" data-name="Grupo 71282" transform="translate(134.974 25.257)">
        <path id="Trazado_141635" data-name="Trazado 141635" d="M301.752,221.583h0a1.2,1.2,0,0,1-1-1.369l13.621-87.586a1.2,1.2,0,0,1,1.369-1h0a1.2,1.2,0,0,1,1,1.37L303.12,220.583A1.2,1.2,0,0,1,301.752,221.583Z" transform="translate(-156.14 -104.003)" fill="#e25f05"/>
        <path id="Trazado_141636" data-name="Trazado 141636" d="M203.617,221.8h0a1.2,1.2,0,0,0,1-1.37L191,132.841a1.2,1.2,0,0,0-1.369-1h0a1.2,1.2,0,0,0-1,1.37l13.621,87.585A1.2,1.2,0,0,0,203.617,221.8Z" transform="translate(-161.161 -103.994)" fill="#e25f05"/>
        <g id="Grupo_71279" data-name="Grupo 71279" transform="translate(18.224 8.258)">
          <g id="Grupo_71277" data-name="Grupo 71277">
            <path id="Trazado_141637" data-name="Trazado 141637" d="M191.408,139.893a10.654,10.654,0,0,1-6.133-1.825c-3.052-2.061-4.892-5.6-5.466-10.508a4.084,4.084,0,0,1,3.582-4.533c1.93-.226,3.746,1.892,4.532,3.583,1.649,3.54-.667,6.4.618,7.79,1.943,2.1,9.513-1.967,10.791-2.664,12.884-7.03,13.268-11.693,20.915-15.586,14.484-7.373,30.664.418,35.5,4.264.994.79,3.585,2.85,3.181,4.823a4.086,4.086,0,0,1-4.823,3.181c-14.307-2.935-27.145-2.242-38.152,2.062-2.946,1.151-5.894,2.6-8.743,4.008C201.618,137.242,196.238,139.893,191.408,139.893Z" transform="translate(-179.781 -113.091)" fill="#ffc78a"/>
          </g>
          <g id="Grupo_71278" data-name="Grupo 71278" transform="translate(72.336)">
            <path id="Trazado_141638" data-name="Trazado 141638" d="M316.579,139.893a10.657,10.657,0,0,0,6.133-1.825c3.052-2.061,4.891-5.6,5.466-10.508a4.086,4.086,0,0,0-3.582-4.533c-1.931-.226-3.747,1.892-4.533,3.583-1.648,3.54.667,6.4-.618,7.79-1.942,2.1-9.513-1.967-10.791-2.664-12.884-7.03-13.267-11.693-20.914-15.586-14.484-7.373-30.664.418-35.5,4.264-.993.79-3.585,2.85-3.18,4.823a4.085,4.085,0,0,0,4.823,3.181c14.307-2.935,27.145-2.242,38.151,2.062,2.946,1.151,5.894,2.6,8.743,4.008C306.368,137.242,311.748,139.893,316.579,139.893Z" transform="translate(-249.016 -113.091)" fill="#ffc78a"/>
          </g>
        </g>
        <g id="Grupo_71280" data-name="Grupo 71280" transform="translate(86.477)">
          <path id="Trazado_141639" data-name="Trazado 141639" d="M252.477,296.628a10.2,10.2,0,0,1-5.338-2.149c-5.325-4.112,1.25-136.141,3.53-179.842-2.973-2.092-3.249-6.061-1.332-8.059a5.1,5.1,0,0,1,7.327.332,5.272,5.272,0,0,1-1.86,7.592c2.521,49.715,8.556,176.754,3.125,180.375A10.13,10.13,0,0,1,252.477,296.628Z" transform="translate(-245.109 -105.187)" fill="#ffc78a"/>
        </g>
        <g id="Grupo_71281" data-name="Grupo 71281" transform="translate(53.926 168.035)">
          <path id="Trazado_141640" data-name="Trazado 141640" d="M254.19,270.395l-.024-.273s-.32.038-.891.124c-.573-.087-.891-.124-.891-.124l-.024.273c0-1.752-.379-2.579-1.191-3.126-3.3-2.232-13.379,5.205-30.17,22.954h64.553c-17.883-17.651-27.123-25.952-29.787-23.9A4.65,4.65,0,0,0,254.19,270.395Z" transform="translate(-213.637 -266.02)" fill="#ffc78a"/>
          <path id="Trazado_141641" data-name="Trazado 141641" d="M293.227,297.3H213.953a8.118,8.118,0,0,1,8.118-8.118h63.038a8.118,8.118,0,0,1,8.118,8.118Z" transform="translate(-213.953 -264.982)" fill="#ffc78a"/>
        </g>
        <rect id="Rectángulo_31799" data-name="Rectángulo 31799" width="14.932" height="3.264" transform="translate(86.478 166.711)" fill="#fc8230"/>
        <path id="Trazado_141642" data-name="Trazado 141642" d="M221,289.33h64.552l-3.43-3.374h-58.31Z" transform="translate(-159.711 -97.091)" fill="#fc8230"/>
        <path id="Trazado_141643" data-name="Trazado 141643" d="M175.906,221.583h0a1.2,1.2,0,0,1-1-1.369l13.621-87.586a1.2,1.2,0,0,1,1.369-1h0a1.2,1.2,0,0,1,1,1.37l-13.621,87.585A1.2,1.2,0,0,1,175.906,221.583Z" transform="translate(-161.776 -104.003)" fill="#fc8230"/>
        <path id="Trazado_141644" data-name="Trazado 141644" d="M162.338,197.856a28.412,28.412,0,0,0,28.293,25.835h0a28.413,28.413,0,0,0,28.293-25.835Z" transform="translate(-162.338 -101.037)" fill="#ffc78a"/>
        <path id="Trazado_141645" data-name="Trazado 141645" d="M329.463,221.583h0a1.2,1.2,0,0,0,1-1.369l-13.621-87.586a1.2,1.2,0,0,0-1.369-1h0a1.2,1.2,0,0,0-1,1.37l13.621,87.585A1.2,1.2,0,0,0,329.463,221.583Z" transform="translate(-155.526 -104.003)" fill="#fc8230"/>
        <path id="Trazado_141646" data-name="Trazado 141646" d="M344.769,197.644a28.412,28.412,0,0,1-28.293,25.835h0a28.413,28.413,0,0,1-28.293-25.835Z" transform="translate(-156.702 -101.046)" fill="#ffc78a"/>
      </g>
      <g id="Grupo_71288" data-name="Grupo 71288" transform="translate(315.138)">
        <g id="Grupo_71287" data-name="Grupo 71287" transform="translate(0)">
          <g id="Grupo_71285" data-name="Grupo 71285">
            <g id="Grupo_71283" data-name="Grupo 71283" transform="translate(0 78.783)">
              <rect id="Rectángulo_31800" data-name="Rectángulo 31800" width="37.518" height="10.378" transform="matrix(0.875, 0.485, -0.485, 0.875, 16.002, 0)" fill="#024866"/>
              <rect id="Rectángulo_31801" data-name="Rectángulo 31801" width="52.615" height="13.355" rx="2.066" transform="translate(6.476 1.612) rotate(29.008)" fill="#d86f56"/>
            </g>
            <g id="Grupo_71284" data-name="Grupo 71284" transform="translate(44.578)">
              <rect id="Rectángulo_31802" data-name="Rectángulo 31802" width="37.518" height="10.378" transform="translate(8.71 11.537) rotate(29.007)" fill="#024866"/>
              <rect id="Rectángulo_31803" data-name="Rectángulo 31803" width="52.615" height="13.355" rx="2.066" transform="translate(6.476 0) rotate(29.008)" fill="#d86f56"/>
            </g>
          </g>
          <g id="Grupo_71286" data-name="Grupo 71286" transform="translate(11.572 17.969)">
            <rect id="Rectángulo_31804" data-name="Rectángulo 31804" width="47.305" height="67.134" rx="1.966" transform="matrix(0.875, 0.485, -0.485, 0.875, 32.555, 0)" fill="#d86f56"/>
            <rect id="Rectángulo_31805" data-name="Rectángulo 31805" width="47.305" height="33.473" transform="translate(24.393 14.719) rotate(29.008)" fill="#024866"/>
          </g>
        </g>
        <path id="Rectángulo_31806" data-name="Rectángulo 31806" d="M0,0H159.042a8.069,8.069,0,0,1,8.069,8.069v6.559a8.069,8.069,0,0,1-8.069,8.069H0a0,0,0,0,1,0,0V0A0,0,0,0,1,0,0Z" transform="translate(74.04 61.571) rotate(29.007)" fill="#d86f56"/>
        <path id="Trazado_141647" data-name="Trazado 141647" d="M515.225,200.442l-11.007,19.851L529,234.034a8.431,8.431,0,0,0,11.461-3.285l2.83-5.1a8.431,8.431,0,0,0-3.285-11.461Z" transform="translate(-327.192 -75.664)" fill="#024866"/>
        <rect id="Rectángulo_31807" data-name="Rectángulo 31807" width="3.228" height="22.698" transform="translate(168.194 113.777) rotate(29.008)" fill="#024866"/>
      </g>
      <g id="Grupo_71316" data-name="Grupo 71316" transform="translate(383.477 79.038)">
        <g id="Grupo_71289" data-name="Grupo 71289" transform="translate(10.679 236.727)">
          <path id="Trazado_141648" data-name="Trazado 141648" d="M434.419,383.439s2.495,6.631.919,7.616-24.555,0-24.555,0-2.035-2.364,3.414-3.283,10.859-2.811,11.109-3.9S434.419,383.439,434.419,383.439Z" transform="translate(-410.411 -383.243)" fill="#0c253a"/>
        </g>
        <g id="Grupo_71290" data-name="Grupo 71290" transform="translate(3.98 134.698)">
          <path id="Trazado_141649" data-name="Trazado 141649" d="M482.415,291s8.82,23.519,9.805,39.778,4.924,27.88,6.893,34.97,6.106,22.848,4.334,35.257l-6.7,2.561a193.524,193.524,0,0,1-17.924-33.878c-8.273-20.09-23.242-51.409-23.242-51.409s-19.2,22.454-20.976,23.34,2.56,1.97-.69,3.742.69,2.856-2.758,5.122c0,0,5.713,33.189,3.546,37.325,0,0-5.843,2.561-9.52.2,0,0-22.323-50.293-21.141-54.757s40.313-47.666,40.313-47.666Z" transform="translate(-404 -285.587)" fill="#e08b65"/>
        </g>
        <g id="Grupo_71291" data-name="Grupo 71291" transform="translate(33.702 63.002)">
          <path id="Trazado_141650" data-name="Trazado 141650" d="M473.555,234.844,500.826,247.1s-1.607,7.136-9.486,19.741l-4.264-2.511s-.266,17.629.653,22.749-3.2,6.3-6.588,7.879-36.613.788-40.552-4.2-1.313-39.355-1.445-45.433l-6.7-6.2,7.387-22.159s15.408,11.03,20.162,13.689S473.555,234.844,473.555,234.844Z" transform="translate(-432.447 -216.965)" fill="#ffc78a"/>
        </g>
        <g id="Grupo_71292" data-name="Grupo 71292" transform="translate(53.999 44.606)">
          <path id="Trazado_141651" data-name="Trazado 141651" d="M454.437,214.4a3.1,3.1,0,0,1-2.263-2.539c-.166-1.99-1-3.262,1.131-6.026s.333-6.69,5.82-6.468,5.653,2.93,9.854,1.327,8.68,3.538,7.077,6.8,6.744,4.81,3.427,9.068-2.322,5.058-4.754,5.348-4.237,3.339-3.916,4.524-4.1.963-4.1.963Z" transform="translate(-451.875 -199.357)" fill="#0c253a"/>
        </g>
        <g id="Grupo_71293" data-name="Grupo 71293" transform="translate(56.511 50.736)">
          <path id="Trazado_141652" data-name="Trazado 141652" d="M457.443,205.876a16.131,16.131,0,0,0-3.151,10.076c.245,5.909,1.409,8.665,5.225,9.91a13.513,13.513,0,0,1-3.3,6.357c-2.543,2.432-2.682,7.132,3.3,8.569s13.116-1.382,13.061-5.418c0,0-5.7-1.547-5.252-5.417a36.053,36.053,0,0,1,1.493-6.911s2.971.705,3.759-3.027-1.2-3.608-1.908-2.985-2.322.829-2.363-1.617,2.322-7.3-1.824-8.791S459.806,204.756,457.443,205.876Z" transform="translate(-454.279 -205.225)" fill="#f8896b"/>
        </g>
        <g id="Grupo_71294" data-name="Grupo 71294">
          <path id="Trazado_141653" data-name="Trazado 141653" d="M440.589,221.635s-.238-.236-.656-.656c-2.96-2.968-14.952-15.131-15.757-18.121-.919-3.414-7.091-28.692-7.813-31.449s-6.565-11.425-8.273-11.227.262,2.889.524,3.677,1.313,1.9-.2,1.838-3.677-2.494-3.677-2.494-2.495-5.581-3.349-6.173-1.641-.656-.919,1.247,1.313,8.536,2.757,9.126,6.763,4.268,7.748,7.419,1.247,31.055,3.085,34.732,21.4,27.707,21.4,27.707Z" transform="translate(-400.19 -156.663)" fill="#f8896b"/>
        </g>
        <g id="Grupo_71295" data-name="Grupo 71295" transform="translate(93.875 71.641)">
          <path id="Trazado_141654" data-name="Trazado 141654" d="M497.132,250.079s7.583,5.318,8.371,4.53,17.727-21.174,18.121-23.439,2.659-4.481,7.879-5.663.493,1.821-.295,2.068-2.856,2.906-.3,3.6,8.469,2.068,9.405-.542,2.708-3.939,2.906-3.2a8.549,8.549,0,0,1-1.281,4.924s1.969-3.152,2.659-3.5-.443,5.023-2.61,6.7-12.9.345-13.837,1.724-15.658,31.909-17.529,33.78-20.583-6.7-20.583-6.7Z" transform="translate(-490.041 -225.233)" fill="#f8896b"/>
        </g>
        <g id="Grupo_71296" data-name="Grupo 71296" transform="translate(59.394 60.276)">
          <path id="Trazado_141655" data-name="Trazado 141655" d="M458.895,218.969a.15.15,0,0,0,0-.3,2.647,2.647,0,0,1-1.508-.395.2.2,0,0,1-.048-.174c.121-.687,1.023-3.518,1.032-3.546a.151.151,0,1,0-.287-.092c-.038.117-.917,2.878-1.042,3.586a.5.5,0,0,0,.111.417c.379.462,1.6.5,1.734.506Z" transform="translate(-457.038 -214.356)" fill="#f3586b"/>
        </g>
        <g id="Grupo_71297" data-name="Grupo 71297" transform="translate(71.501 63.696)">
          <path id="Trazado_141656" data-name="Trazado 141656" d="M468.783,220.709h.016a.15.15,0,0,0,.135-.165c-.134-1.279,1.982-2.621,2-2.635a.151.151,0,0,0-.161-.256c-.093.06-2.3,1.456-2.143,2.922A.15.15,0,0,0,468.783,220.709Z" transform="translate(-468.626 -217.629)" fill="#f3586b"/>
        </g>
        <g id="Grupo_71298" data-name="Grupo 71298" transform="translate(72.288 64.77)">
          <path id="Trazado_141657" data-name="Trazado 141657" d="M469.782,220.663a.152.152,0,0,0,.123-.063,1.372,1.372,0,0,0-.281-1.91.151.151,0,0,0-.189.235,1.091,1.091,0,0,1,.225,1.5.151.151,0,0,0,.036.21A.148.148,0,0,0,469.782,220.663Z" transform="translate(-469.38 -218.657)" fill="#f3586b"/>
        </g>
        <g id="Grupo_71299" data-name="Grupo 71299" transform="translate(61.598 68.79)">
          <path id="Trazado_141658" data-name="Trazado 141658" d="M461.205,225.508a8.015,8.015,0,0,0,5.956-2.75.15.15,0,0,0-.007-.213.151.151,0,0,0-.213.007,7.39,7.39,0,0,1-7.591,2.394.151.151,0,0,0-.1.283A6.317,6.317,0,0,0,461.205,225.508Z" transform="translate(-459.147 -222.504)" fill="#f3586b"/>
        </g>
        <g id="Grupo_71300" data-name="Grupo 71300" transform="translate(60.706 64.512)">
          <path id="Trazado_141659" data-name="Trazado 141659" d="M459.348,220.616a2.863,2.863,0,0,0,2.538-1.907.226.226,0,0,0-.428-.145,2.3,2.3,0,0,1-2.876,1.487.226.226,0,1,0-.121.436A3.3,3.3,0,0,0,459.348,220.616Z" transform="translate(-458.294 -218.41)" fill="#f3586b"/>
        </g>
        <g id="Grupo_71301" data-name="Grupo 71301" transform="translate(62.489 66.339)">
          <path id="Trazado_141660" data-name="Trazado 141660" d="M460.4,221.128a1.366,1.366,0,0,0,1.34-.763.151.151,0,0,0-.281-.111,1.145,1.145,0,0,1-1.288.559.151.151,0,0,0-.032.3A2.3,2.3,0,0,0,460.4,221.128Z" transform="translate(-460 -220.159)" fill="#f3586b"/>
        </g>
        <g id="Grupo_71302" data-name="Grupo 71302" transform="translate(63.656 59.649)">
          <ellipse id="Elipse_4457" data-name="Elipse 4457" cx="0.622" cy="0.905" rx="0.622" ry="0.905" fill="#0c253a"/>
        </g>
        <g id="Grupo_71303" data-name="Grupo 71303" transform="translate(57.864 59.394)">
          <path id="Trazado_141661" data-name="Trazado 141661" d="M455.574,214.291c0,.43.24.779.536.779s.535-.349.535-.779-.239-.78-.535-.78S455.574,213.86,455.574,214.291Z" transform="translate(-455.574 -213.511)" fill="#0c253a"/>
        </g>
        <g id="Grupo_71304" data-name="Grupo 71304" transform="translate(63.506 56.475)">
          <path id="Trazado_141662" data-name="Trazado 141662" d="M460.983,211.653c-.1.368.6.4,1.831.732s2.011.536,2.109.169-.549-1.433-1.78-1.762A1.8,1.8,0,0,0,460.983,211.653Z" transform="translate(-460.974 -210.717)" fill="#0c253a"/>
        </g>
        <g id="Grupo_71305" data-name="Grupo 71305" transform="translate(56.381 56.057)">
          <path id="Trazado_141663" data-name="Trazado 141663" d="M457.383,211.362c.051.341-.511.293-1.522.444s-1.653.249-1.7-.093.545-1.224,1.558-1.377A1.51,1.51,0,0,1,457.383,211.362Z" transform="translate(-454.154 -210.318)" fill="#0c253a"/>
        </g>
        <g id="Grupo_71306" data-name="Grupo 71306" transform="translate(109.284 101.457)">
          <path id="Trazado_141664" data-name="Trazado 141664" d="M504.94,259.194a.153.153,0,0,0,.143-.1c.242-.7.441-.891.563-.926.156-.044.343.117.546.285.375.308.888.731,1.514.107a.938.938,0,0,0,.268-.725c-.051-1.494-2.818-3.923-2.936-4.026a.15.15,0,1,0-.2.227c.027.024,2.785,2.445,2.832,3.809a.642.642,0,0,1-.181.5c-.412.411-.69.219-1.109-.126-.255-.21-.518-.428-.82-.343s-.528.426-.767,1.117a.152.152,0,0,0,.093.192A.167.167,0,0,0,504.94,259.194Z" transform="translate(-504.79 -253.771)" fill="#f3586b"/>
        </g>
        <g id="Grupo_71307" data-name="Grupo 71307" transform="translate(19.568 46.799)">
          <path id="Trazado_141665" data-name="Trazado 141665" d="M419.551,204.319a.152.152,0,0,0,.136-.087.15.15,0,0,0-.072-.2c-.186-.089-.406-.23-.393-.4.047-.6,2.253-1.474,3.632-1.881a.151.151,0,1,0-.086-.289c-.629.185-3.771,1.162-3.847,2.146-.021.274.168.508.565.7A.158.158,0,0,0,419.551,204.319Z" transform="translate(-418.919 -201.456)" fill="#f3586b"/>
        </g>
        <g id="Grupo_71308" data-name="Grupo 71308" transform="translate(82.973 86.529)">
          <path id="Trazado_141666" data-name="Trazado 141666" d="M484.964,263.477a.151.151,0,0,0,.083-.278c-9.244-5.94-3.222-23.339-3.16-23.515a.151.151,0,1,0-.284-.1c-.063.177-6.161,17.8,3.281,23.869A.151.151,0,0,0,484.964,263.477Z" transform="translate(-479.606 -239.483)" fill="#fb8130"/>
        </g>
        <g id="Grupo_71309" data-name="Grupo 71309" transform="translate(84.22 107.783)">
          <path id="Trazado_141667" data-name="Trazado 141667" d="M480.95,292.308a.148.148,0,0,0,.111-.048c2.873-3.095,2.588-4.492,2.072-7.028-.069-.336-.141-.694-.211-1.078-.582-3.2-.48-23.966-.479-24.175a.151.151,0,0,0-.149-.153h0a.151.151,0,0,0-.15.15c-.005.856-.1,21,.483,24.232.07.387.143.746.212,1.084.513,2.518.77,3.782-2,6.763a.15.15,0,0,0,.007.213A.149.149,0,0,0,480.95,292.308Z" transform="translate(-480.8 -259.826)" fill="#fb8130"/>
        </g>
        <g id="Grupo_71310" data-name="Grupo 71310" transform="translate(40.248 74.532)">
          <path id="Trazado_141668" data-name="Trazado 141668" d="M438.863,244.985A.15.15,0,0,0,439,244.9c6.4-13.278,17.394-16.571,17.5-16.6a.151.151,0,1,0-.084-.289c-.112.032-11.238,3.364-17.692,16.762a.152.152,0,0,0,.136.216Z" transform="translate(-438.712 -228)" fill="#fb8130"/>
        </g>
        <g id="Grupo_71311" data-name="Grupo 71311" transform="translate(46.551 155.032)">
          <path id="Trazado_141669" data-name="Trazado 141669" d="M453.759,317.563a.146.146,0,0,0,.066-.016.151.151,0,0,0,.07-.2l-4.681-9.625-4.239-2.649a.15.15,0,1,0-.16.255l4.166,2.6,4.643,9.546A.149.149,0,0,0,453.759,317.563Z" transform="translate(-444.745 -305.05)" fill="#fcc2a2"/>
        </g>
        <g id="Grupo_71312" data-name="Grupo 71312" transform="translate(45.182 160.777)">
          <path id="Trazado_141670" data-name="Trazado 141670" d="M446.846,315.286c.9,0,1.137-.136,1.2-.339.1-.357-.473-.72-1.682-1.44s-2.9-1.726-2.583-2.382a.455.455,0,0,1,.323-.249c1.537-.4,6.43,3.094,6.479,3.129a.151.151,0,0,0,.176-.246c-.206-.147-5.059-3.606-6.729-3.175a.747.747,0,0,0-.519.41c-.435.9,1.231,1.9,2.7,2.772.649.386,1.536.914,1.546,1.1-.008.005-.134.143-1.217.111a.156.156,0,0,0-.155.146.151.151,0,0,0,.146.156C446.641,315.285,446.748,315.286,446.846,315.286Z" transform="translate(-443.436 -310.549)" fill="#fcc2a2"/>
        </g>
        <g id="Grupo_71313" data-name="Grupo 71313" transform="translate(24.907 188.464)">
          <path id="Trazado_141671" data-name="Trazado 141671" d="M428.01,346.66a.151.151,0,0,0,.078-.022c.924-.561.428-1.471.067-2.136-.216-.4-.441-.811-.313-1.019.084-.138.387-.3,1.335-.271.744.017,1.134-.11,1.233-.409.221-.655-1.193-1.729-3.548-3.42-.912-.655-1.774-1.273-2.308-1.753-.216-.194-.221-.272-.221-.273.313-.3,4.042.63,7.462,1.71a.151.151,0,0,0,.091-.287c-2.218-.7-7.42-2.255-7.819-1.558-.141.247.169.527.286.632.546.491,1.415,1.114,2.334,1.774,1.521,1.092,3.6,2.586,3.438,3.078-.018.053-.142.228-.939.2-.917-.024-1.41.1-1.6.415-.218.356.036.825.306,1.322.434.8.672,1.35.041,1.732a.151.151,0,0,0,.078.28Z" transform="translate(-424.029 -337.049)" fill="#fcc2a2"/>
        </g>
        <g id="Grupo_71314" data-name="Grupo 71314" transform="translate(79.838 143.213)">
          <path id="Trazado_141672" data-name="Trazado 141672" d="M498.029,398.629a.15.15,0,0,0,.147-.122c2.1-10.732-2.148-25.328-5.9-38.206-2.657-9.127-5.166-17.748-5.327-24.265-.39-15.8-9.958-41.938-10.054-42.2a.151.151,0,1,0-.283.1c.1.262,9.648,26.356,10.036,42.1.162,6.557,2.677,15.2,5.338,24.341,3.739,12.846,7.977,27.4,5.892,38.065a.151.151,0,0,0,.119.177A.148.148,0,0,0,498.029,398.629Z" transform="translate(-476.606 -293.738)" fill="#fcc2a2"/>
        </g>
        <g id="Grupo_71315" data-name="Grupo 71315" transform="translate(96.731 250.12)">
          <path id="Trazado_141673" data-name="Trazado 141673" d="M499.472,396.062s11.62,9.947,12.7,13.1,1.773,5.515-4.037,4.826-11.621-5.614-15.364-15.364Z" transform="translate(-492.775 -396.062)" fill="#0c253a"/>
        </g>
      </g>
      <path id="Trazado_141674" data-name="Trazado 141674" d="M340.771,148.736a5.084,5.084,0,1,1-5.085-5.084A5.085,5.085,0,0,1,340.771,148.736Z" transform="translate(-19.829 -78.208)" fill="#dee5da"/>
      <circle id="Elipse_4458" data-name="Elipse 4458" cx="4.972" cy="4.972" r="4.972" transform="translate(248.18 87.224)" fill="#dee5da"/>
      <path id="Trazado_141675" data-name="Trazado 141675" d="M509.9,300.559a3.694,3.694,0,1,1-3.694-3.7A3.694,3.694,0,0,1,509.9,300.559Z" transform="translate(-12.13 -71.346)" fill="#fff"/>
      <path id="Trazado_141676" data-name="Trazado 141676" d="M500.682,285.158a5.321,5.321,0,1,1-5.321-5.32A5.32,5.32,0,0,1,500.682,285.158Z" transform="translate(-12.689 -72.109)" fill="#fff"/>
    </g>
  </g>
</svg>
