<svg xmlns="http://www.w3.org/2000/svg" width="60" height="60" viewBox="0 0 60 60">
  <g id="Grupo_73056" data-name="Grupo 73056" transform="translate(-205 -8877.417)">
    <circle id="Elipse_4428" data-name="Elipse 4428" cx="30" cy="30" r="30" transform="translate(205 8877.417)" fill="#d9a171"/>
    <path id="Trazado_144092" data-name="Trazado 144092" d="M12.246,29H7.295V13.238L2.432,14.659v-3.75l9.36-3.237h.454ZM18.97,18.582l1.3-10.91H32.739V11.48H24.287L23.8,15.747a5.822,5.822,0,0,1,1.384-.544,6.316,6.316,0,0,1,1.677-.235,6.257,6.257,0,0,1,4.885,1.882,7.582,7.582,0,0,1,1.707,5.281,7.569,7.569,0,0,1-.916,3.713A6.293,6.293,0,0,1,29.971,28.4a8.116,8.116,0,0,1-3.911.894,8.733,8.733,0,0,1-3.765-.827A6.754,6.754,0,0,1,19.541,26.2a5.513,5.513,0,0,1-.981-3.257h4.951a2.8,2.8,0,0,0,.747,1.856,2.371,2.371,0,0,0,1.772.687q2.49,0,2.49-3.684,0-3.406-3.047-3.406A3.04,3.04,0,0,0,22.9,19.506Z" transform="translate(215.5 8887.417)" fill="#fff"/>
  </g>
</svg>
