<svg xmlns="http://www.w3.org/2000/svg" width="60" height="60" viewBox="0 0 60 60">
  <g id="Grupo_73059" data-name="Grupo 73059" transform="translate(-179.75 -10257.751)">
    <circle id="Elipse_4431" data-name="Elipse 4431" cx="30" cy="30" r="30" transform="translate(179.75 10257.751)" fill="#d9a171"/>
    <path id="Trazado_144095" data-name="Trazado 144095" d="M12.246,29H7.295V13.238L2.432,14.659v-3.75l9.36-3.237h.454ZM33.062,13.37a4.924,4.924,0,0,1-.769,2.739,5.6,5.6,0,0,1-2.117,1.9,6.164,6.164,0,0,1,2.417,2.043,5.273,5.273,0,0,1,.894,3.069,5.582,5.582,0,0,1-1.97,4.512,8.182,8.182,0,0,1-5.427,1.655A8.331,8.331,0,0,1,20.61,27.63a5.542,5.542,0,0,1-2.007-4.5,5.339,5.339,0,0,1,.879-3.032,5.977,5.977,0,0,1,2.49-2.08,5.633,5.633,0,0,1-2.139-1.9,4.889,4.889,0,0,1-.776-2.739,5.473,5.473,0,0,1,1.89-4.395,7.6,7.6,0,0,1,5.1-1.611,7.643,7.643,0,0,1,5.127,1.611A5.473,5.473,0,0,1,33.062,13.37Zm-4.526,9.36a2.816,2.816,0,0,0-.681-2.029,2.372,2.372,0,0,0-1.794-.71,2.4,2.4,0,0,0-1.8.71,2.8,2.8,0,0,0-.688,2.029,2.821,2.821,0,0,0,.7,2.014,2.388,2.388,0,0,0,1.824.74,2.3,2.3,0,0,0,1.772-.732A2.872,2.872,0,0,0,28.535,22.73Zm-2.49-11.558a1.824,1.824,0,0,0-1.516.652,2.829,2.829,0,0,0-.52,1.809,3,3,0,0,0,.527,1.846,1.819,1.819,0,0,0,1.553.7,1.745,1.745,0,0,0,1.516-.7,3.093,3.093,0,0,0,.505-1.846,2.835,2.835,0,0,0-.52-1.8A1.849,1.849,0,0,0,26.045,11.173Z" transform="translate(190.25 10267.751)" fill="#fff"/>
  </g>
</svg>
