<svg xmlns="http://www.w3.org/2000/svg" xmlns:xlink="http://www.w3.org/1999/xlink" width="187.368" height="163.479" viewBox="0 0 187.368 163.479">
  <defs>
    <clipPath id="clip-path">
      <rect id="Rectángulo_32247" data-name="Rectángulo 32247" width="187.368" height="163.479" transform="translate(180 7144)" fill="#ffd947"/>
    </clipPath>
  </defs>
  <g id="Enmascarar_grupo_6" data-name="Enmascarar grupo 6" transform="translate(-180 -7144)" clip-path="url(#clip-path)">
    <g id="Grupo_71148" data-name="Grupo 71148" transform="translate(188.085 7158.528)">
      <g id="Grupo_71132" data-name="Grupo 71132" transform="translate(16.152 86.637)">
        <path id="Trazado_143360" data-name="Trazado 143360" d="M2650.116,1776.613v40.966a3.607,3.607,0,0,1-1.652,3.035,3.589,3.589,0,0,1-1.96.578h-59.431a3.605,3.605,0,0,1-1.2-.2,3.565,3.565,0,0,1-.766-.375,3.612,3.612,0,0,1-1.651-3.035v-40.966a3.612,3.612,0,0,1,3.612-3.612H2646.5A3.612,3.612,0,0,1,2650.116,1776.613Z" transform="translate(-2574.954 -1773)" fill="#344154"/>
        <path id="Trazado_143361" data-name="Trazado 143361" d="M5.116-.059H49.785a12,12,0,0,1,12,12V34.422a12,12,0,0,1-12,12H4.632c-6.63,0-4.815.7-4.815-5.929V5.442C-.183-1.188-1.514-.059,5.116-.059Z" transform="translate(11.031 2.4)" fill="#fff"/>
        <path id="Trazado_143362" data-name="Trazado 143362" d="M2690.083,1884.64c-.614,0-1.114-.352-1.114-.785v-20.941c0-.433.5-.785,1.114-.785h52.069c.614,0,1.113.352,1.113.785v20.941c0,.433-.5.785-1.113.785Z" transform="translate(-2674.284 -1856.91)" fill="#edf4f9"/>
        <path id="Trazado_143363" data-name="Trazado 143363" d="M2650.116,2514.305v1.74a3.607,3.607,0,0,1-1.652,3.034h-63.352a3.609,3.609,0,0,1-1.651-3.034v-1.74Z" transform="translate(-2574.954 -2470.888)" opacity="0.2" style="mix-blend-mode: multiply;isolation: isolate"/>
        <rect id="Rectángulo_32205" data-name="Rectángulo 32205" width="12.994" height="1.985" transform="translate(35.337 45.085)" fill="#172735"/>
        <path id="Trazado_143364" data-name="Trazado 143364" d="M2521.895,2543.563v.987a3.275,3.275,0,0,1-3.275,3.275H2441.5a3.276,3.276,0,0,1-3.275-3.275v-.987a.8.8,0,0,1,.795-.795h35.115l.669,1.159a1.438,1.438,0,0,0,1.245.719h8.021a1.437,1.437,0,0,0,1.245-.719l.669-1.159H2521.1A.8.8,0,0,1,2521.895,2543.563Z" transform="translate(-2438.227 -2497.684)" fill="#344154"/>
        <g id="Grupo_71131" data-name="Grupo 71131" transform="translate(14.686 30.756)">
          <rect id="Rectángulo_32206" data-name="Rectángulo 32206" width="7.584" height="7.584" rx="2" fill="#edf4f9"/>
          <rect id="Rectángulo_32207" data-name="Rectángulo 32207" width="14.202" height="0.628" transform="translate(9.327 0.244)" fill="#edf4f9"/>
          <rect id="Rectángulo_32208" data-name="Rectángulo 32208" width="14.202" height="0.628" transform="translate(9.327 1.639)" fill="#edf4f9"/>
          <rect id="Rectángulo_32209" data-name="Rectángulo 32209" width="6.503" height="0.628" transform="translate(9.327 3.033)" fill="#edf4f9"/>
          <rect id="Rectángulo_32210" data-name="Rectángulo 32210" width="12.761" height="0.628" transform="translate(9.327 5.056)" fill="#edf4f9"/>
        </g>
        <rect id="Rectángulo_32211" data-name="Rectángulo 32211" width="7.584" height="7.584" rx="2" transform="translate(43.673 30.756)" fill="#edf4f9"/>
        <rect id="Rectángulo_32212" data-name="Rectángulo 32212" width="14.202" height="0.628" transform="translate(53 30.962)" fill="#edf4f9"/>
        <rect id="Rectángulo_32213" data-name="Rectángulo 32213" width="14.202" height="0.628" transform="translate(53 32.356)" fill="#edf4f9"/>
        <rect id="Rectángulo_32214" data-name="Rectángulo 32214" width="6.503" height="0.628" transform="translate(53 33.751)" fill="#edf4f9"/>
        <rect id="Rectángulo_32215" data-name="Rectángulo 32215" width="12.761" height="0.628" transform="translate(53 35.773)" fill="#edf4f9"/>
      </g>
      <path id="Trazado_143365" data-name="Trazado 143365" d="M3332.615,1818.88v.988a3.275,3.275,0,0,1-3.275,3.275h-28.262a9.181,9.181,0,0,1-.779-1.315q-.151-.311-.279-.636a9.137,9.137,0,0,1-.632-3.106c0-.084,0-.168,0-.253V1773H3320.5a3.613,3.613,0,0,1,3.613,3.612v41.472h7.711A.8.8,0,0,1,3332.615,1818.88Z" transform="translate(-3232.795 -1686.364)" opacity="0.05" style="mix-blend-mode: multiply;isolation: isolate"/>
      <g id="Grupo_71135" data-name="Grupo 71135" transform="translate(70.476 11.463)">
        <g id="Grupo_71133" data-name="Grupo 71133">
          <path id="Trazado_143366" data-name="Trazado 143366" d="M3812.127,925.364q-.131-.337-.25-.678a20.625,20.625,0,0,1,.331-14.452,7.725,7.725,0,0,0,.714-2.158,7.871,7.871,0,0,0,.115-1.336,7.777,7.777,0,1,0-14.723,3.494,20.616,20.616,0,0,1,.33,14.452q-.118.34-.25.678-.2.521-.434,1.033l-.473,1.046h15.55l-.475-1.046Q3812.33,925.885,3812.127,925.364Zm-6.867-21.97a3.458,3.458,0,1,1-3.458,3.459A3.459,3.459,0,0,1,3805.26,903.395Z" transform="translate(-3766.214 -898.965)" fill="#344154"/>
          <path id="Trazado_143367" data-name="Trazado 143367" d="M3813.033,1175.479h-15.55l.474-1.047a20.584,20.584,0,0,0,1.828-8.064h10.945a20.579,20.579,0,0,0,1.828,8.064Z" transform="translate(-3766.212 -1147)" fill="#1a1a1a" opacity="0.2" style="mix-blend-mode: multiply;isolation: isolate"/>
          <path id="Trazado_143368" data-name="Trazado 143368" d="M3443.825,1221.474v89.3a6.574,6.574,0,0,1-6.567,6.568H3372.3a6.575,6.575,0,0,1-6.567-6.568v-89.3a6.575,6.575,0,0,1,6.567-6.567h64.959A6.574,6.574,0,0,1,3443.825,1221.474Z" transform="translate(-3365.732 -1192.023)" fill="#344154"/>
          <rect id="Rectángulo_32216" data-name="Rectángulo 32216" width="71.062" height="95.4" rx="2" transform="translate(3.516 26.4)" fill="#fff"/>
          <path id="Trazado_143369" data-name="Trazado 143369" d="M3686.32,1259.2l-2.435-4.086a2.082,2.082,0,0,0-.266-.355,2.115,2.115,0,0,0-1.552-.678H3654.21a2.113,2.113,0,0,0-1.552.678,2.044,2.044,0,0,0-.266.355l-2.435,4.086a2.116,2.116,0,0,0,1.817,3.2H3684.5A2.116,2.116,0,0,0,3686.32,1259.2Zm-9.151.577h-18.059a.769.769,0,0,1,0-1.537h18.059a.769.769,0,1,1,0,1.537Z" transform="translate(-3629.092 -1228.36)" fill="#344154"/>
        </g>
        <g id="Grupo_71134" data-name="Grupo 71134" transform="translate(10.41 40.958)">
          <rect id="Rectángulo_32217" data-name="Rectángulo 32217" width="12.691" height="12.691" rx="2" fill="#dee7f3"/>
          <rect id="Rectángulo_32218" data-name="Rectángulo 32218" width="12.691" height="12.691" rx="2" transform="translate(0 25.148)" fill="#dee7f3"/>
          <rect id="Rectángulo_32219" data-name="Rectángulo 32219" width="12.691" height="12.691" rx="2" transform="translate(0 50.296)" fill="#dee7f3"/>
        </g>
        <rect id="Rectángulo_32220" data-name="Rectángulo 32220" width="39.536" height="1.028" transform="translate(27.579 43.185)" fill="#edf4f9"/>
        <rect id="Rectángulo_32221" data-name="Rectángulo 32221" width="39.536" height="1.028" transform="translate(27.579 46.789)" fill="#edf4f9"/>
        <rect id="Rectángulo_32222" data-name="Rectángulo 32222" width="39.536" height="1.028" transform="translate(27.579 50.394)" fill="#edf4f9"/>
        <rect id="Rectángulo_32223" data-name="Rectángulo 32223" width="39.536" height="1.028" transform="translate(27.579 68.333)" fill="#edf4f9"/>
        <rect id="Rectángulo_32224" data-name="Rectángulo 32224" width="39.536" height="1.028" transform="translate(27.579 71.938)" fill="#edf4f9"/>
        <rect id="Rectángulo_32225" data-name="Rectángulo 32225" width="39.536" height="1.028" transform="translate(27.579 75.542)" fill="#edf4f9"/>
        <rect id="Rectángulo_32226" data-name="Rectángulo 32226" width="39.536" height="1.028" transform="translate(27.579 93.481)" fill="#edf4f9"/>
        <rect id="Rectángulo_32227" data-name="Rectángulo 32227" width="39.536" height="1.028" transform="translate(27.579 97.086)" fill="#edf4f9"/>
        <rect id="Rectángulo_32228" data-name="Rectángulo 32228" width="39.536" height="1.028" transform="translate(27.579 100.691)" fill="#edf4f9"/>
      </g>
      <g id="Grupo_71136" data-name="Grupo 71136" transform="matrix(0.921, 0.391, -0.391, 0.921, 127.434, 21.526)">
        <path id="Trazado_143370" data-name="Trazado 143370" d="M8.654,0l17.9,17.9c2.036,2.036,1.749,5.624-.64,8.013h0c-2.39,2.39-5.977,2.676-8.013.64L0,8.654Z" transform="translate(46.625 46.968)" fill="#344154"/>
        <rect id="Rectángulo_32229" data-name="Rectángulo 32229" width="8.729" height="9.51" transform="translate(39.597 46.113) rotate(-45)" fill="#344154"/>
        <path id="Trazado_143371" data-name="Trazado 143371" d="M6.172,0l3.1,3.1A28.754,28.754,0,0,1,6.571,6.227a28.8,28.8,0,0,1-3.52,3L0,6.173Z" transform="translate(39.597 39.941)" fill="#1a1a1a" opacity="0.2" style="mix-blend-mode: multiply;isolation: isolate"/>
        <circle id="Elipse_4824" data-name="Elipse 4824" cx="25.946" cy="25.946" r="25.946" fill="#344154"/>
        <circle id="Elipse_4825" data-name="Elipse 4825" cx="21.438" cy="21.438" r="21.438" transform="translate(4.508 4.508)" fill="#fff" style="mix-blend-mode: screen;isolation: isolate"/>
        <path id="Trazado_143372" data-name="Trazado 143372" d="M40.933,19.495A21.442,21.442,0,0,1,0,28.426,21.448,21.448,0,0,0,30.37,8.932,21.351,21.351,0,0,0,28.426,0,21.441,21.441,0,0,1,40.933,19.495Z" transform="translate(6.451 6.451)" fill="#1a1a1a" opacity="0.2" style="mix-blend-mode: multiply;isolation: isolate"/>
        <rect id="Rectángulo_32230" data-name="Rectángulo 32230" width="12.238" height="3.243" transform="translate(46.625 55.622) rotate(-45)" fill="#1a1a1a" opacity="0.2" style="mix-blend-mode: multiply;isolation: isolate"/>
        <path id="Trazado_143373" data-name="Trazado 143373" d="M12.781,3.516,3.515,12.781a1.026,1.026,0,0,1-1.451,0L.3,11.017a1.027,1.027,0,0,1,0-1.451L9.565.3a1.026,1.026,0,0,1,1.451,0l1.764,1.764A1.026,1.026,0,0,1,12.781,3.516Z" transform="translate(43.49 43.833)" fill="#d8e5ed"/>
      </g>
      <g id="Grupo_71142" data-name="Grupo 71142" transform="translate(0 46.602)">
        <rect id="Rectángulo_32231" data-name="Rectángulo 32231" width="2.541" height="28.394" transform="translate(1.201)" fill="#d9a171"/>
        <rect id="Rectángulo_32232" data-name="Rectángulo 32232" width="2.541" height="18.749" transform="translate(6.113 9.645)" fill="#d9a171"/>
        <rect id="Rectángulo_32233" data-name="Rectángulo 32233" width="2.541" height="25.007" transform="translate(11.02 3.529)" fill="#d9a171"/>
        <rect id="Rectángulo_32234" data-name="Rectángulo 32234" width="2.541" height="27.294" transform="translate(15.928 1.096)" fill="#d9a171"/>
        <rect id="Rectángulo_32235" data-name="Rectángulo 32235" width="2.541" height="18.173" transform="translate(20.836 10.221)" fill="#d9a171"/>
        <rect id="Rectángulo_32236" data-name="Rectángulo 32236" width="2.541" height="14.608" transform="translate(25.744 13.785)" fill="#d9a171"/>
        <rect id="Rectángulo_32237" data-name="Rectángulo 32237" width="2.541" height="25.477" transform="translate(30.652 2.913)" fill="#d9a171"/>
        <rect id="Rectángulo_32238" data-name="Rectángulo 32238" width="2.541" height="20.886" transform="translate(35.56 7.508)" fill="#d9a171"/>
        <rect id="Rectángulo_32239" data-name="Rectángulo 32239" width="2.541" height="24.556" transform="translate(40.468 3.838)" fill="#d9a171"/>
        <rect id="Rectángulo_32240" data-name="Rectángulo 32240" width="2.541" height="16.728" transform="translate(45.376 11.662)" fill="#d9a171"/>
        <rect id="Rectángulo_32241" data-name="Rectángulo 32241" width="2.541" height="19.911" transform="translate(50.283 8.479)" fill="#d9a171"/>
        <path id="Trazado_143374" data-name="Trazado 143374" d="M290.955,275.792c0,.059-12.061.105-26.932.105s-26.932-.046-26.932-.105,12.057-.1,26.932-.1S290.955,275.736,290.955,275.792Z" transform="translate(-237.09 -245.423)" fill="#344154"/>
        <path id="Trazado_143375" data-name="Trazado 143375" d="M244.072,282.582a16.942,16.942,0,0,1-3.772,0,8.568,8.568,0,0,1,1.886-.1A8.82,8.82,0,0,1,244.072,282.582Z" transform="translate(-239.243 -249.978)" fill="#344154"/>
        <path id="Trazado_143376" data-name="Trazado 143376" d="M261.58,282.925a24.183,24.183,0,0,1-4.51,0,12.4,12.4,0,0,1,2.255-.105A13.566,13.566,0,0,1,261.58,282.925Z" transform="translate(-250.493 -250.206)" fill="#344154"/>
        <path id="Trazado_143377" data-name="Trazado 143377" d="M277.81,282.925a24.183,24.183,0,0,1-4.51,0,12.4,12.4,0,0,1,2.255-.105A13.566,13.566,0,0,1,277.81,282.925Z" transform="translate(-261.381 -250.206)" fill="#344154"/>
        <path id="Trazado_143378" data-name="Trazado 143378" d="M294.02,282.925a24.183,24.183,0,0,1-4.51,0,12.371,12.371,0,0,1,2.255-.105A13.531,13.531,0,0,1,294.02,282.925Z" transform="translate(-272.255 -250.206)" fill="#344154"/>
        <path id="Trazado_143379" data-name="Trazado 143379" d="M310.23,282.925a24.183,24.183,0,0,1-4.51,0,12.4,12.4,0,0,1,2.255-.105A13.566,13.566,0,0,1,310.23,282.925Z" transform="translate(-283.129 -250.206)" fill="#344154"/>
        <path id="Trazado_143380" data-name="Trazado 143380" d="M326.45,282.925a24.183,24.183,0,0,1-4.51,0,12.4,12.4,0,0,1,2.255-.105A13.565,13.565,0,0,1,326.45,282.925Z" transform="translate(-294.01 -250.206)" fill="#344154"/>
        <path id="Trazado_143381" data-name="Trazado 143381" d="M342.67,282.925a24.183,24.183,0,0,1-4.51,0,12.371,12.371,0,0,1,2.255-.105A13.531,13.531,0,0,1,342.67,282.925Z" transform="translate(-304.891 -250.206)" fill="#344154"/>
        <path id="Trazado_143382" data-name="Trazado 143382" d="M358.88,282.925a24.183,24.183,0,0,1-4.51,0,12.4,12.4,0,0,1,2.255-.105A13.566,13.566,0,0,1,358.88,282.925Z" transform="translate(-315.765 -250.206)" fill="#344154"/>
        <path id="Trazado_143383" data-name="Trazado 143383" d="M375.1,282.925a24.183,24.183,0,0,1-4.51,0,12.37,12.37,0,0,1,2.255-.105A13.531,13.531,0,0,1,375.1,282.925Z" transform="translate(-326.646 -250.206)" fill="#344154"/>
        <path id="Trazado_143384" data-name="Trazado 143384" d="M391.31,282.925a24.183,24.183,0,0,1-4.51,0,12.4,12.4,0,0,1,2.255-.105A13.566,13.566,0,0,1,391.31,282.925Z" transform="translate(-337.521 -250.206)" fill="#344154"/>
        <g id="Grupo_71137" data-name="Grupo 71137" transform="translate(6.113 9.645)" opacity="0.3">
          <rect id="Rectángulo_32242" data-name="Rectángulo 32242" width="2.541" height="18.749" fill="#fff"/>
        </g>
        <g id="Grupo_71138" data-name="Grupo 71138" transform="translate(15.928 1.096)" opacity="0.3">
          <rect id="Rectángulo_32243" data-name="Rectángulo 32243" width="2.541" height="27.294" fill="#fff"/>
        </g>
        <g id="Grupo_71139" data-name="Grupo 71139" transform="translate(25.744 13.785)" opacity="0.3">
          <rect id="Rectángulo_32244" data-name="Rectángulo 32244" width="2.541" height="14.608" fill="#fff"/>
        </g>
        <g id="Grupo_71140" data-name="Grupo 71140" transform="translate(35.56 7.508)" opacity="0.3">
          <rect id="Rectángulo_32245" data-name="Rectángulo 32245" width="2.541" height="20.886" fill="#fff"/>
        </g>
        <g id="Grupo_71141" data-name="Grupo 71141" transform="translate(45.376 11.662)" opacity="0.3">
          <rect id="Rectángulo_32246" data-name="Rectángulo 32246" width="2.541" height="16.728" fill="#fff"/>
        </g>
      </g>
      <g id="Grupo_71147" data-name="Grupo 71147" transform="translate(30.684 0)">
        <g id="Grupo_71146" data-name="Grupo 71146">
          <g id="Grupo_71145" data-name="Grupo 71145">
            <path id="Trazado_143385" data-name="Trazado 143385" d="M245.767,83.878,245.7,73.47a13.3,13.3,0,0,0-8.585,3.348A12.312,12.312,0,0,0,232.975,87.6a14.255,14.255,0,0,0,.243,1.51v.039h0l12.54-2.823Z" transform="translate(-232.884 -73.47)" fill="#6595bf"/>
            <g id="Grupo_71143" data-name="Grupo 71143" opacity="0.3">
              <path id="Trazado_143386" data-name="Trazado 143386" d="M245.767,83.878,245.7,73.47a13.3,13.3,0,0,0-8.585,3.348A12.312,12.312,0,0,0,232.975,87.6a14.255,14.255,0,0,0,.243,1.51v.039h0l12.54-2.823Z" transform="translate(-232.884 -73.47)" fill="#6595bf"/>
            </g>
            <path id="Trazado_143387" data-name="Trazado 143387" d="M281.292,80.775a12.359,12.359,0,0,0-10.119-7.087c-.131,0-.263-.027-.386-.035h-.255c-.247,0-.5,0-.753-.023h-.07l.07,10.428V86.5l12.548,2.719h0a12.609,12.609,0,0,0,.278-2.7,13.518,13.518,0,0,0-1.313-5.743Z" transform="translate(-255.488 -73.568)" fill="#6595bf"/>
            <g id="Grupo_71144" data-name="Grupo 71144" transform="translate(14.222 0.062)" opacity="0.3">
              <path id="Trazado_143388" data-name="Trazado 143388" d="M281.292,80.775a12.359,12.359,0,0,0-10.119-7.087c-.131,0-.263-.027-.386-.035h-.255c-.247,0-.5,0-.753-.023h-.07l.07,10.428V86.5l12.548,2.719h0a12.609,12.609,0,0,0,.278-2.7,13.518,13.518,0,0,0-1.313-5.743Z" transform="translate(-269.71 -73.63)" fill="#6595bf"/>
            </g>
          </g>
          <path id="Trazado_143389" data-name="Trazado 143389" d="M248.07,110.12l-12.54,2.819a12.853,12.853,0,0,0,25.1-.085L248.07,110.12" transform="translate(-234.508 -95.965)" fill="#6595bf"/>
        </g>
        <path id="Trazado_143390" data-name="Trazado 143390" d="M348.338,105c0,.093-6.481.166-14.479.166s-14.479-.073-14.479-.166,6.481-.17,14.479-.17S348.338,104.9,348.338,105Z" transform="translate(-285.974 -92.718)" fill="#6595bf"/>
        <path id="Trazado_143391" data-name="Trazado 143391" d="M348.338,96.45c0,.093-6.481.17-14.479.17s-14.479-.077-14.479-.17,6.481-.17,14.479-.17S348.338,96.357,348.338,96.45Z" transform="translate(-285.974 -87.471)" fill="#6595bf"/>
        <path id="Trazado_143392" data-name="Trazado 143392" d="M348.338,87.9c0,.093-6.481.17-14.479.17s-14.479-.077-14.479-.17,6.481-.17,14.479-.17S348.338,87.807,348.338,87.9Z" transform="translate(-285.974 -82.223)" fill="#6595bf"/>
        <path id="Trazado_143393" data-name="Trazado 143393" d="M348.338,112.95c0,.093-6.481.17-14.479.17s-14.479-.077-14.479-.17,6.481-.17,14.479-.17S348.338,112.865,348.338,112.95Z" transform="translate(-285.974 -97.598)" fill="#6595bf"/>
        <path id="Trazado_143394" data-name="Trazado 143394" d="M339.54,121.6c0,.093-4.453.17-9.945.17s-9.945-.077-9.945-.17,4.449-.17,9.945-.17S339.54,121.507,339.54,121.6Z" transform="translate(-286.14 -102.907)" fill="#6595bf"/>
      </g>
    </g>
  </g>
</svg>
