<svg xmlns="http://www.w3.org/2000/svg" width="374" height="93" viewBox="0 0 374 93">
  <g id="Grupo_73060" data-name="Grupo 73060" transform="translate(-875 -9764.875)">
    <g id="Rectángulo_31423" data-name="Rectángulo 31423" transform="translate(875 9764.875)" fill="#f2e9e4" stroke="#a56d5a" stroke-width="3">
      <rect width="374" height="93" stroke="none"/>
      <rect x="1.5" y="1.5" width="371" height="90" fill="none"/>
    </g>
    <path id="Trazado_144096" data-name="Trazado 144096" d="M7.567,13.6a1.268,1.268,0,0,0-.479-1.055,5.954,5.954,0,0,0-1.683-.782,16.147,16.147,0,0,1-1.969-.782Q.949,9.758.949,7.622a3.011,3.011,0,0,1,.62-1.876A4.008,4.008,0,0,1,3.322,4.48a6.823,6.823,0,0,1,2.549-.453,5.969,5.969,0,0,1,2.474.492,3.917,3.917,0,0,1,1.7,1.4A3.661,3.661,0,0,1,10.652,8H7.576A1.547,1.547,0,0,0,7.1,6.787a1.867,1.867,0,0,0-1.3-.431A2.106,2.106,0,0,0,4.5,6.721a1.074,1.074,0,0,0,.048,1.819A6.65,6.65,0,0,0,6.4,9.367a11.36,11.36,0,0,1,2.18.918,3.663,3.663,0,0,1,2.074,3.3,3.125,3.125,0,0,1-1.266,2.637,5.629,5.629,0,0,1-3.472.958A6.888,6.888,0,0,1,3.1,16.618a4.247,4.247,0,0,1-1.9-1.529,3.985,3.985,0,0,1-.637-2.237H3.656a1.963,1.963,0,0,0,.532,1.516,2.513,2.513,0,0,0,1.727.488,1.985,1.985,0,0,0,1.208-.33A1.088,1.088,0,0,0,7.567,13.6Zm12.867-3.489,1.38-2.619h3.076l-2.5,4.632L25.014,17H21.92l-1.494-2.812L18.958,17H15.847l2.637-4.878-2.5-4.632H19.1ZM38.4,11.568H33.548v3.059h5.73V17H30.463V4.2H39.3V6.585H33.548v2.7H38.4Zm14.915-.914H45.176V8.369h8.139Zm0,3.858H45.176V12.228h8.139Zm12.437-.905a1.609,1.609,0,0,0-.343-1.09,3.2,3.2,0,0,0-1.2-.747q-.861-.352-1.591-.712a5.518,5.518,0,0,1-1.257-.835,3.28,3.28,0,0,1-.809-1.1,3.665,3.665,0,0,1-.281-1.512,3.248,3.248,0,0,1,1-2.448A4.312,4.312,0,0,1,63.94,4.045V2.19h1.4V4.08A3.925,3.925,0,0,1,67.865,5.4a4.118,4.118,0,0,1,.918,2.755H65.813a2.4,2.4,0,0,0-.352-1.406,1.158,1.158,0,0,0-1-.492,1.136,1.136,0,0,0-.9.365,1.472,1.472,0,0,0-.321,1.006,1.424,1.424,0,0,0,.369,1.033,3.636,3.636,0,0,0,1.187.729q.817.347,1.542.721a5.9,5.9,0,0,1,1.252.848,3.471,3.471,0,0,1,.826,1.107,3.536,3.536,0,0,1,.3,1.521,3.31,3.31,0,0,1-.954,2.452,4.105,4.105,0,0,1-2.6,1.107v1.767h-1.4V17.141a4.471,4.471,0,0,1-2.94-1.314A4.156,4.156,0,0,1,59.8,12.9h2.962a2.3,2.3,0,0,0,.444,1.525,1.563,1.563,0,0,0,1.261.523,1.244,1.244,0,0,0,.94-.356A1.354,1.354,0,0,0,65.751,13.607ZM76.843,17H73.872V7.543L70.954,8.4V6.146L76.57,4.2h.272Zm5.739-2.874a1.686,1.686,0,0,1,1.169.417,1.457,1.457,0,0,1,0,2.136,1.844,1.844,0,0,1-2.342,0,1.456,1.456,0,0,1,0-2.127A1.672,1.672,0,0,1,82.582,14.126Zm12.445-2.355a6.11,6.11,0,0,1-1.165,4,4.551,4.551,0,0,1-6.587-.009,6.1,6.1,0,0,1-1.169-3.99V9.433a6.11,6.11,0,0,1,1.165-4,4.551,4.551,0,0,1,6.587.009,6.116,6.116,0,0,1,1.169,4ZM92.065,9.055a4.564,4.564,0,0,0-.36-2.061,1.2,1.2,0,0,0-1.143-.681,1.176,1.176,0,0,0-1.112.633,4.3,4.3,0,0,0-.374,1.916v3.27a4.6,4.6,0,0,0,.36,2.1,1.209,1.209,0,0,0,1.143.664,1.193,1.193,0,0,0,1.116-.646,4.39,4.39,0,0,0,.369-2.026Zm13.386,2.716a6.11,6.11,0,0,1-1.165,4,4.551,4.551,0,0,1-6.587-.009,6.1,6.1,0,0,1-1.169-3.99V9.433a6.11,6.11,0,0,1,1.165-4,4.551,4.551,0,0,1,6.587.009,6.116,6.116,0,0,1,1.169,4Zm-2.962-2.716a4.564,4.564,0,0,0-.36-2.061,1.2,1.2,0,0,0-1.143-.681,1.176,1.176,0,0,0-1.112.633A4.3,4.3,0,0,0,99.5,8.861v3.27a4.6,4.6,0,0,0,.36,2.1,1.209,1.209,0,0,0,1.143.664,1.193,1.193,0,0,0,1.116-.646,4.39,4.39,0,0,0,.369-2.026Zm13.386,2.716a6.11,6.11,0,0,1-1.165,4,4.551,4.551,0,0,1-6.587-.009,6.1,6.1,0,0,1-1.169-3.99V9.433a6.11,6.11,0,0,1,1.165-4,4.551,4.551,0,0,1,6.587.009,6.116,6.116,0,0,1,1.169,4Zm-2.962-2.716a4.564,4.564,0,0,0-.36-2.061,1.2,1.2,0,0,0-1.143-.681,1.176,1.176,0,0,0-1.112.633,4.3,4.3,0,0,0-.374,1.916v3.27a4.6,4.6,0,0,0,.36,2.1,1.209,1.209,0,0,0,1.143.664,1.193,1.193,0,0,0,1.116-.646,4.39,4.39,0,0,0,.369-2.026Zm6.381,5.071a1.686,1.686,0,0,1,1.169.417,1.457,1.457,0,0,1,0,2.136,1.844,1.844,0,0,1-2.342,0,1.456,1.456,0,0,1,0-2.127A1.672,1.672,0,0,1,119.294,14.126Zm12.445-2.355a6.11,6.11,0,0,1-1.165,4,4.551,4.551,0,0,1-6.587-.009,6.1,6.1,0,0,1-1.169-3.99V9.433a6.11,6.11,0,0,1,1.165-4,4.551,4.551,0,0,1,6.587.009,6.116,6.116,0,0,1,1.169,4Zm-2.962-2.716a4.564,4.564,0,0,0-.36-2.061,1.2,1.2,0,0,0-1.143-.681,1.176,1.176,0,0,0-1.112.633,4.3,4.3,0,0,0-.374,1.916v3.27a4.6,4.6,0,0,0,.36,2.1,1.209,1.209,0,0,0,1.143.664,1.193,1.193,0,0,0,1.116-.646,4.39,4.39,0,0,0,.369-2.026Zm13.386,2.716a6.11,6.11,0,0,1-1.165,4,4.551,4.551,0,0,1-6.587-.009,6.1,6.1,0,0,1-1.169-3.99V9.433a6.11,6.11,0,0,1,1.165-4,4.551,4.551,0,0,1,6.587.009,6.116,6.116,0,0,1,1.169,4ZM139.2,9.055a4.564,4.564,0,0,0-.36-2.061,1.2,1.2,0,0,0-1.143-.681,1.176,1.176,0,0,0-1.112.633,4.3,4.3,0,0,0-.374,1.916v3.27a4.6,4.6,0,0,0,.36,2.1,1.209,1.209,0,0,0,1.143.664,1.193,1.193,0,0,0,1.116-.646,4.39,4.39,0,0,0,.369-2.026Zm13.386,2.716a6.11,6.11,0,0,1-1.165,4,4.551,4.551,0,0,1-6.587-.009,6.1,6.1,0,0,1-1.169-3.99V9.433a6.11,6.11,0,0,1,1.165-4,4.551,4.551,0,0,1,6.587.009,6.116,6.116,0,0,1,1.169,4Zm-2.962-2.716a4.564,4.564,0,0,0-.36-2.061,1.2,1.2,0,0,0-1.143-.681,1.176,1.176,0,0,0-1.112.633,4.3,4.3,0,0,0-.374,1.916v3.27a4.6,4.6,0,0,0,.36,2.1,1.209,1.209,0,0,0,1.143.664,1.193,1.193,0,0,0,1.116-.646,4.39,4.39,0,0,0,.369-2.026Zm12.885,1.055,1.38-2.619h3.076l-2.5,4.632L167.089,17H164L162.5,14.188,161.033,17h-3.111l2.637-4.878-2.5-4.632h3.111Zm10.02.64.782-6.546h7.479V6.488H175.72l-.29,2.56a3.493,3.493,0,0,1,.831-.327,4.179,4.179,0,0,1,3.938.988,4.549,4.549,0,0,1,1.024,3.168,4.541,4.541,0,0,1-.549,2.228,3.776,3.776,0,0,1-1.542,1.534,4.87,4.87,0,0,1-2.347.536,5.24,5.24,0,0,1-2.259-.5,4.052,4.052,0,0,1-1.652-1.361,3.308,3.308,0,0,1-.589-1.954h2.971a1.68,1.68,0,0,0,.448,1.114,1.423,1.423,0,0,0,1.063.412q1.494,0,1.494-2.21,0-2.044-1.828-2.044a1.824,1.824,0,0,0-1.547.667Zm10.257-4.085a2.512,2.512,0,0,1,.773-1.916,3.334,3.334,0,0,1,4.157,0,2.578,2.578,0,0,1,.765,1.964v.633a2.5,2.5,0,0,1-.765,1.907,2.889,2.889,0,0,1-2.065.721,2.968,2.968,0,0,1-2.079-.716,2.524,2.524,0,0,1-.787-1.964Zm1.907.675a1.062,1.062,0,0,0,.255.738.9.9,0,0,0,.7.284q.923,0,.923-1.17V6.666a1.12,1.12,0,0,0-.246-.747.857.857,0,0,0-.694-.293.876.876,0,0,0-.686.284,1.114,1.114,0,0,0-.255.773Zm4.175,6.524a2.487,2.487,0,0,1,.778-1.916,2.924,2.924,0,0,1,2.07-.721,2.956,2.956,0,0,1,2.083.712,2.565,2.565,0,0,1,.773,1.986v.615a2.509,2.509,0,0,1-.765,1.916,2.9,2.9,0,0,1-2.074.721,2.968,2.968,0,0,1-2.079-.716,2.524,2.524,0,0,1-.787-1.964Zm1.9.675a1.039,1.039,0,0,0,.281.72.891.891,0,0,0,.686.31.808.808,0,0,0,.923-.8l.009-.9a1.075,1.075,0,0,0-.255-.747.992.992,0,0,0-1.371-.017,1.061,1.061,0,0,0-.272.72Zm-4.553,1.505-1.38-.694,6.249-10,1.38.694Zm18.308-5.933L205.9,7.49h3.076l-2.5,4.632L209.1,17h-3.094l-1.494-2.812L203.045,17h-3.111l2.637-4.878-2.5-4.632h3.111ZM223.295,17h-8.93V15.066l4.113-4.324A4.909,4.909,0,0,0,220,7.991a1.913,1.913,0,0,0-.36-1.257,1.287,1.287,0,0,0-1.046-.431,1.3,1.3,0,0,0-1.1.576,2.366,2.366,0,0,0-.422,1.437H214.1a4.2,4.2,0,0,1,.589-2.175,4.129,4.129,0,0,1,1.635-1.56,4.856,4.856,0,0,1,2.338-.562,4.777,4.777,0,0,1,3.195.958,3.42,3.42,0,0,1,1.121,2.751A4,4,0,0,1,222.7,9.2a6.456,6.456,0,0,1-.875,1.5,22.029,22.029,0,0,1-1.912,2.1l-1.652,1.907h5.036Zm14.458-6.346h-8.139V8.369h8.139Zm0,3.858h-8.139V12.228h8.139Zm12.437-.905a1.609,1.609,0,0,0-.343-1.09,3.2,3.2,0,0,0-1.2-.747q-.861-.352-1.591-.712a5.518,5.518,0,0,1-1.257-.835,3.28,3.28,0,0,1-.809-1.1,3.665,3.665,0,0,1-.281-1.512,3.248,3.248,0,0,1,1-2.448,4.312,4.312,0,0,1,2.672-1.121V2.19h1.4V4.08A3.925,3.925,0,0,1,252.3,5.4a4.118,4.118,0,0,1,.918,2.755h-2.971a2.4,2.4,0,0,0-.352-1.406,1.158,1.158,0,0,0-1-.492,1.136,1.136,0,0,0-.9.365,1.472,1.472,0,0,0-.321,1.006,1.424,1.424,0,0,0,.369,1.033,3.636,3.636,0,0,0,1.187.729q.817.347,1.542.721a5.9,5.9,0,0,1,1.252.848,3.471,3.471,0,0,1,.826,1.107,3.536,3.536,0,0,1,.3,1.521,3.31,3.31,0,0,1-.954,2.452,4.105,4.105,0,0,1-2.6,1.107v1.767h-1.4V17.141a4.471,4.471,0,0,1-2.94-1.314,4.156,4.156,0,0,1-1.024-2.931H247.2a2.3,2.3,0,0,0,.444,1.525,1.563,1.563,0,0,0,1.261.523,1.244,1.244,0,0,0,.94-.356A1.354,1.354,0,0,0,250.189,13.607ZM261.281,17h-2.971V7.543l-2.918.853V6.146L261.009,4.2h.272Zm12.744-5.229a6.11,6.11,0,0,1-1.165,4,4.551,4.551,0,0,1-6.587-.009,6.1,6.1,0,0,1-1.169-3.99V9.433a6.11,6.11,0,0,1,1.165-4,4.551,4.551,0,0,1,6.587.009,6.116,6.116,0,0,1,1.169,4Zm-2.962-2.716a4.564,4.564,0,0,0-.36-2.061,1.2,1.2,0,0,0-1.143-.681,1.176,1.176,0,0,0-1.112.633,4.3,4.3,0,0,0-.374,1.916v3.27a4.6,4.6,0,0,0,.36,2.1,1.209,1.209,0,0,0,1.143.664,1.193,1.193,0,0,0,1.116-.646,4.39,4.39,0,0,0,.369-2.026Zm13.386,2.716a6.11,6.11,0,0,1-1.165,4,4.551,4.551,0,0,1-6.587-.009,6.1,6.1,0,0,1-1.169-3.99V9.433a6.11,6.11,0,0,1,1.165-4,4.551,4.551,0,0,1,6.587.009,6.116,6.116,0,0,1,1.169,4Zm-2.962-2.716a4.564,4.564,0,0,0-.36-2.061,1.2,1.2,0,0,0-1.143-.681,1.176,1.176,0,0,0-1.112.633,4.3,4.3,0,0,0-.374,1.916v3.27a4.6,4.6,0,0,0,.36,2.1,1.209,1.209,0,0,0,1.143.664,1.193,1.193,0,0,0,1.116-.646,4.39,4.39,0,0,0,.369-2.026Zm6.381,5.071a1.686,1.686,0,0,1,1.169.417,1.457,1.457,0,0,1,0,2.136,1.844,1.844,0,0,1-2.342,0,1.456,1.456,0,0,1,0-2.127A1.672,1.672,0,0,1,287.868,14.126Zm12.445-2.355a6.11,6.11,0,0,1-1.165,4,4.551,4.551,0,0,1-6.587-.009,6.1,6.1,0,0,1-1.169-3.99V9.433a6.11,6.11,0,0,1,1.165-4,4.551,4.551,0,0,1,6.587.009,6.116,6.116,0,0,1,1.169,4Zm-2.962-2.716a4.564,4.564,0,0,0-.36-2.061,1.2,1.2,0,0,0-1.143-.681,1.176,1.176,0,0,0-1.112.633,4.3,4.3,0,0,0-.374,1.916v3.27a4.6,4.6,0,0,0,.36,2.1,1.209,1.209,0,0,0,1.143.664,1.193,1.193,0,0,0,1.116-.646,4.39,4.39,0,0,0,.369-2.026Zm13.386,2.716a6.11,6.11,0,0,1-1.165,4,4.551,4.551,0,0,1-6.587-.009,6.1,6.1,0,0,1-1.169-3.99V9.433a6.11,6.11,0,0,1,1.165-4,4.551,4.551,0,0,1,6.587.009,6.116,6.116,0,0,1,1.169,4Zm-2.962-2.716a4.564,4.564,0,0,0-.36-2.061,1.2,1.2,0,0,0-1.143-.681,1.176,1.176,0,0,0-1.112.633,4.3,4.3,0,0,0-.374,1.916v3.27a4.6,4.6,0,0,0,.36,2.1,1.209,1.209,0,0,0,1.143.664,1.193,1.193,0,0,0,1.116-.646,4.39,4.39,0,0,0,.369-2.026Zm13.386,2.716a6.11,6.11,0,0,1-1.165,4,4.551,4.551,0,0,1-6.587-.009,6.1,6.1,0,0,1-1.169-3.99V9.433a6.11,6.11,0,0,1,1.165-4,4.551,4.551,0,0,1,6.587.009,6.116,6.116,0,0,1,1.169,4ZM318.2,9.055a4.564,4.564,0,0,0-.36-2.061,1.2,1.2,0,0,0-1.143-.681,1.176,1.176,0,0,0-1.112.633,4.3,4.3,0,0,0-.374,1.916v3.27a4.6,4.6,0,0,0,.36,2.1,1.209,1.209,0,0,0,1.143.664,1.193,1.193,0,0,0,1.116-.646,4.39,4.39,0,0,0,.369-2.026Z" transform="translate(895 9794.875)" fill="#12263f"/>
  </g>
</svg>
