<svg xmlns="http://www.w3.org/2000/svg" width="114" height="114" viewBox="0 0 114 114">
  <g id="Grupo_73062" data-name="Grupo 73062" transform="translate(-705 -4456)">
    <circle id="Elipse_4433" data-name="Elipse 4433" cx="57" cy="57" r="57" transform="translate(705 4456)" fill="#629fae"/>
    <g id="Grupo_71377" data-name="Grupo 71377" transform="translate(-24.934 4007.104)">
      <path id="Trazado_143395" data-name="Trazado 143395" d="M813.01,538.576a1.31,1.31,0,0,1-.276-.029l-52.4-11.129a1.328,1.328,0,0,1-.763-2.124c.234-.3,5.766-7.688-.194-22.563-2.37-5.918-.174-20.7-.08-21.329a1.327,1.327,0,0,1,.876-1.055l41.274-14.376a1.327,1.327,0,0,1,1.681,1.712c-.062.171-6.2,17.193-.088,28.109l1.292,2.293c6.442,11.395,14.457,25.576,9.942,39.573A1.326,1.326,0,0,1,813.01,538.576ZM762.7,525.207,812.085,535.7c3.365-12.547-4.063-25.686-10.065-36.306l-1.3-2.3c-5.273-9.415-2.487-22.285-.914-27.736l-38,13.235c-.633,4.607-1.609,15.054.033,19.157C766.788,514.1,764.332,521.939,762.7,525.207Z" transform="translate(0 0)" fill="#fff"/>
      <g id="Grupo_71376" data-name="Grupo 71376" transform="translate(769.325 480.364)">
        <path id="Trazado_143396" data-name="Trazado 143396" d="M768.147,488.326l-.255-1.178.866-1.207c1.469-2.023,2.151-3.15,1.965-4.13a1.212,1.212,0,0,0-1.635-.921,3.093,3.093,0,0,0-1.633,1.079l-.852-1.279a4.712,4.712,0,0,1,2.544-1.45c1.885-.407,3.162.471,3.49,1.984.3,1.4-.47,2.733-1.442,4.069l-.63.808.005.027,3.142-.679.346,1.6Z" transform="translate(-766.604 -476.036)" fill="#fff"/>
        <path id="Trazado_143397" data-name="Trazado 143397" d="M774.442,480.049l-.025.005-1.428,1.1-.635-1.392,1.984-1.5,1.615-.35,1.8,8.334-1.885.409Z" transform="translate(-764.725 -476.438)" fill="#fff"/>
        <path id="Trazado_143398" data-name="Trazado 143398" d="M784.03,480.478c.557,2.578-.1,4.572-2.225,5.031-2.155.467-3.524-1.264-4.046-3.621-.523-2.411.09-4.543,2.245-5.009C782.236,476.4,783.536,478.2,784.03,480.478Zm-4.31.986c.4,1.913,1.059,2.724,1.815,2.561s.962-1.2.552-3.1c-.4-1.846-1.007-2.735-1.789-2.565C779.58,478.514,779.289,479.53,779.72,481.464Z" transform="translate(-763.016 -476.801)" fill="#fff"/>
      </g>
      <path id="Trazado_143399" data-name="Trazado 143399" d="M768.825,493.66a1.327,1.327,0,0,1-.314-2.615l20.868-5.1a1.326,1.326,0,1,1,.63,2.577l-20.868,5.1A1.368,1.368,0,0,1,768.825,493.66Z" transform="translate(3.013 6.54)" fill="#fff"/>
      <path id="Trazado_143400" data-name="Trazado 143400" d="M768.825,498.9a1.326,1.326,0,0,1-.232-2.632l22.21-3.963a1.327,1.327,0,1,1,.467,2.613l-22.211,3.962A1.275,1.275,0,0,1,768.825,498.9Z" transform="translate(3.014 8.624)" fill="#fff"/>
      <path id="Trazado_143401" data-name="Trazado 143401" d="M769.425,503.935a1.327,1.327,0,0,1-.11-2.65l23.7-1.99a1.327,1.327,0,1,1,.222,2.644l-23.7,1.992C769.5,503.934,769.461,503.935,769.425,503.935Z" transform="translate(3.21 10.914)" fill="#fff"/>
      <path id="Trazado_143402" data-name="Trazado 143402" d="M796.127,510.056h-.057l-25.7-1.091a1.327,1.327,0,1,1,.113-2.651l25.7,1.091a1.327,1.327,0,0,1-.056,2.652Z" transform="translate(3.537 13.209)" fill="#fff"/>
    </g>
  </g>
</svg>
