<svg xmlns="http://www.w3.org/2000/svg" width="114" height="114" viewBox="0 0 114 114">
  <g id="Grupo_73063" data-name="Grupo 73063" transform="translate(-712 -4616.576)">
    <circle id="Elipse_4434" data-name="Elipse 4434" cx="57" cy="57" r="57" transform="translate(712 4616.576)" fill="#629fae"/>
    <g id="Grupo_71379" data-name="Grupo 71379" transform="translate(-30.464 4105.666)">
      <path id="Trazado_143403" data-name="Trazado 143403" d="M830.375,581.717h-61.82a4.618,4.618,0,0,1-4.613-4.613V539.193a4.618,4.618,0,0,1,4.613-4.612h61.82a4.617,4.617,0,0,1,4.612,4.612V577.1A4.618,4.618,0,0,1,830.375,581.717Zm-61.82-46.136a3.616,3.616,0,0,0-3.613,3.612V577.1a3.617,3.617,0,0,0,3.613,3.613h61.82a3.616,3.616,0,0,0,3.612-3.613V539.193a3.616,3.616,0,0,0-3.612-3.612Z" fill="#fff"/>
      <path id="Trazado_143404" data-name="Trazado 143404" d="M833.95,600.59H764.806V585.609H833.95Zm-68.144-1H832.95V586.609H765.806Z" fill="#fff"/>
      <rect id="Rectángulo_32248" data-name="Rectángulo 32248" width="7.778" height="5.126" transform="translate(768.099 587.974)" fill="#fff"/>
      <rect id="Rectángulo_32249" data-name="Rectángulo 32249" width="7.778" height="5.126" transform="translate(768.099 593.792)" fill="#fff"/>
      <rect id="Rectángulo_32250" data-name="Rectángulo 32250" width="7.778" height="5.126" transform="translate(777.186 587.974)" fill="#fff"/>
      <rect id="Rectángulo_32251" data-name="Rectángulo 32251" width="7.778" height="5.126" transform="translate(777.186 593.792)" fill="#fff"/>
      <rect id="Rectángulo_32252" data-name="Rectángulo 32252" width="7.778" height="5.126" transform="translate(786.273 587.974)" fill="#fff"/>
      <rect id="Rectángulo_32253" data-name="Rectángulo 32253" width="7.778" height="5.126" transform="translate(786.273 593.792)" fill="#fff"/>
      <rect id="Rectángulo_32254" data-name="Rectángulo 32254" width="7.778" height="5.126" transform="translate(795.361 587.974)" fill="#fff"/>
      <rect id="Rectángulo_32255" data-name="Rectángulo 32255" width="7.778" height="5.126" transform="translate(795.361 593.792)" fill="#fff"/>
      <rect id="Rectángulo_32256" data-name="Rectángulo 32256" width="7.778" height="5.126" transform="translate(804.448 587.974)" fill="#fff"/>
      <rect id="Rectángulo_32257" data-name="Rectángulo 32257" width="7.778" height="5.126" transform="translate(804.448 593.792)" fill="#fff"/>
      <rect id="Rectángulo_32258" data-name="Rectángulo 32258" width="7.778" height="5.126" transform="translate(813.535 587.974)" fill="#fff"/>
      <rect id="Rectángulo_32259" data-name="Rectángulo 32259" width="7.778" height="5.126" transform="translate(813.535 593.792)" fill="#fff"/>
      <rect id="Rectángulo_32260" data-name="Rectángulo 32260" width="7.778" height="5.126" transform="translate(822.623 587.974)" fill="#fff"/>
      <rect id="Rectángulo_32261" data-name="Rectángulo 32261" width="7.778" height="5.126" transform="translate(822.623 593.792)" fill="#fff"/>
      <path id="Trazado_143405" data-name="Trazado 143405" d="M819.924,590.537a.921.921,0,0,1-.2-.021l-37.08-7.875a.94.94,0,0,1-.54-1.5c.166-.213,4.081-5.44-.136-15.965-1.677-4.187-.124-14.648-.057-15.092a.939.939,0,0,1,.619-.746l29.2-10.172a.939.939,0,0,1,1.19,1.211c-.044.121-4.387,12.165-.062,19.889l.915,1.622c4.558,8.063,10.229,18.1,7.035,28A.938.938,0,0,1,819.924,590.537Zm-35.6-9.46,34.945,7.422c2.381-8.878-2.875-18.176-7.122-25.689l-.918-1.629c-3.731-6.662-1.759-15.769-.647-19.626l-26.89,9.365c-.447,3.26-1.139,10.652.023,13.555C787.219,573.219,785.48,578.765,784.324,581.077Z" fill="#fff"/>
      <path id="Trazado_143406" data-name="Trazado 143406" d="M784.324,581.077l34.945,7.422c2.381-8.878-2.875-18.176-7.122-25.689l-.918-1.629c-3.731-6.662-1.759-15.769-.647-19.626l-26.89,9.365c-.447,3.26-1.139,10.652.023,13.555C787.219,573.219,785.48,578.765,784.324,581.077Z" fill="#629fae"/>
      <g id="Grupo_71378" data-name="Grupo 71378">
        <path id="Trazado_143407" data-name="Trazado 143407" d="M791.127,554.857c.322,1.831-.2,3.218-1.707,3.484-1.529.269-2.445-.987-2.749-2.661-.3-1.712.189-3.2,1.718-3.467C789.974,551.934,790.842,553.237,791.127,554.857Zm-3.063.578c.23,1.358.671,1.947,1.209,1.852s.71-.819.473-2.168c-.231-1.31-.635-1.953-1.19-1.855C788.045,553.354,787.813,554.061,788.064,555.435Z" fill="#fff"/>
        <path id="Trazado_143408" data-name="Trazado 143408" d="M796.177,553.97c.323,1.83-.194,3.217-1.706,3.482-1.53.27-2.445-.987-2.75-2.661-.3-1.712.189-3.2,1.719-3.467C795.025,551.046,795.892,552.349,796.177,553.97Zm-3.062.576c.229,1.358.671,1.947,1.208,1.852s.711-.819.473-2.168c-.23-1.31-.634-1.953-1.19-1.855C793.1,552.465,792.864,553.172,793.115,554.546Z" fill="#fff"/>
        <path id="Trazado_143409" data-name="Trazado 143409" d="M801.228,553.081c.322,1.83-.194,3.217-1.706,3.482-1.53.27-2.445-.987-2.75-2.661-.3-1.712.188-3.2,1.719-3.466C800.076,550.157,800.943,551.46,801.228,553.081Zm-3.062.576c.23,1.359.67,1.947,1.209,1.853s.709-.819.472-2.167c-.23-1.311-.635-1.954-1.19-1.857C798.147,551.576,797.915,552.283,798.166,553.657Z" fill="#fff"/>
        <path id="Trazado_143410" data-name="Trazado 143410" d="M803.375,550.948l-.019,0-1.035.736-.409-1,1.437-1,1.148-.2,1.042,5.92-1.339.236Z" fill="#fff"/>
      </g>
      <path id="Trazado_143411" data-name="Trazado 143411" d="M790.254,563.833a1,1,0,0,1-.236-1.972l15.728-3.844a1,1,0,1,1,.474,1.942L790.492,563.8A1.02,1.02,0,0,1,790.254,563.833Z" fill="#fff"/>
      <path id="Trazado_143412" data-name="Trazado 143412" d="M790.254,569.353a1,1,0,0,1-.175-1.984l16.74-2.987a1,1,0,0,1,.352,1.969l-16.74,2.987A1.075,1.075,0,0,1,790.254,569.353Z" fill="#fff"/>
      <path id="Trazado_143413" data-name="Trazado 143413" d="M790.854,574.873a1,1,0,0,1-.082-2l17.86-1.5a1,1,0,0,1,.167,1.993l-17.86,1.5Z" fill="#fff"/>
      <path id="Trazado_143414" data-name="Trazado 143414" d="M811.227,581.216h-.044l-19.368-.822a1,1,0,0,1-.956-1.042,1.01,1.01,0,0,1,1.041-.956l19.368.822a1,1,0,0,1-.041,2Z" fill="#fff"/>
    </g>
  </g>
</svg>
