<svg xmlns="http://www.w3.org/2000/svg" width="420.41" height="312.517" viewBox="0 0 420.41 312.517">
  <g id="Grupo_72888" data-name="Grupo 72888" transform="translate(938.773 -142.524)">
    <path id="Trazado_143872" data-name="Trazado 143872" d="M-505.592,344.21c-6.605-18.415-17.007-24.019-26.9-35.831-12.082-14.427-20.233-24.913-17.1-43.469,5.127-30.321,7.321-105.942-72.95-96.056-28.771,3.543-51.507,25.591-68.048,47.6-14.074,18.727-39.391,20.379-59.768,24.745-25.038,5.364-50.543,13.468-73.707,25.341-47.708,24.452-61.958,59.6-60.012,104.58.588,13.589,2.511,34.992,25.465,60.037,30.981,33.8,76,38.331,130.186,22.806,12.4-3.553,24.127-9.127,36.328-13.323a171.452,171.452,0,0,1,39.206-8.513c31.121-3.009,63.381,2.433,93.235-6.858a98.372,98.372,0,0,0,41.7-25.862C-503.692,384.471-498.621,363.648-505.592,344.21Z" transform="translate(-15.871 -7.462)" fill="#f2e9e4"/>
    <g id="Grupo_72628" data-name="Grupo 72628" transform="translate(-911.925 418.542)" opacity="0.35">
      <path id="Trazado_143873" data-name="Trazado 143873" d="M-900.955,542.947c0,5.448,69.14,9.869,154.436,9.869s154.425-4.421,154.425-9.869-69.14-9.871-154.425-9.871S-900.955,537.5-900.955,542.947Z" transform="translate(900.955 -533.076)" fill="#fff"/>
    </g>
    <path id="Trazado_143874" data-name="Trazado 143874" d="M-800.15,561.72c0,3.411-17.552,6.175-39.2,6.175s-39.2-2.765-39.2-6.175,17.553-6.175,39.2-6.175S-800.15,558.31-800.15,561.72Z" transform="translate(-17.539 -121.123)" fill="#fff" opacity="0.35"/>
    <g id="Grupo_72854" data-name="Grupo 72854" transform="translate(-822.411 235.308)">
      <rect id="Rectángulo_32354" data-name="Rectángulo 32354" width="68.443" height="18.412" transform="translate(84.05 164.686)" fill="#ccc"/>
      <rect id="Rectángulo_32355" data-name="Rectángulo 32355" width="237.265" height="170.697" rx="9.387" transform="translate(0 0)" fill="#b3b3b3"/>
      <rect id="Rectángulo_32356" data-name="Rectángulo 32356" width="223.289" height="148.095" rx="5.768" transform="translate(6.627 6.224)" fill="#fff"/>
      <path id="Rectángulo_32357" data-name="Rectángulo 32357" d="M7.322,0H119.958a7.322,7.322,0,0,1,7.322,7.322v4.285a0,0,0,0,1,0,0H0a0,0,0,0,1,0,0V7.322A7.322,7.322,0,0,1,7.322,0Z" transform="translate(54.632 181.497)" fill="#b3b3b3"/>
      <g id="Grupo_72631" data-name="Grupo 72631" transform="translate(59.951 16.453)" opacity="0.35">
        <g id="Grupo_72630" data-name="Grupo 72630">
          <g id="Grupo_72629" data-name="Grupo 72629">
            <rect id="Rectángulo_32358" data-name="Rectángulo 32358" width="156.237" height="105.018" rx="9.686" fill="#fff"/>
          </g>
        </g>
      </g>
      <g id="Grupo_72739" data-name="Grupo 72739" transform="translate(59.951 16.452)" opacity="0.25" style="mix-blend-mode: multiply;isolation: isolate">
        <g id="Grupo_72738" data-name="Grupo 72738" transform="translate(10.354 15.881)">
          <g id="Grupo_72634" data-name="Grupo 72634" transform="translate(4.495 60.834)">
            <g id="Grupo_72633" data-name="Grupo 72633">
              <g id="Grupo_72632" data-name="Grupo 72632">
                <rect id="Rectángulo_32359" data-name="Rectángulo 32359" width="6.805" height="17.086" fill="#fca70c"/>
              </g>
            </g>
          </g>
          <g id="Grupo_72637" data-name="Grupo 72637" transform="translate(19.83 45.835)">
            <g id="Grupo_72636" data-name="Grupo 72636">
              <g id="Grupo_72635" data-name="Grupo 72635">
                <rect id="Rectángulo_32360" data-name="Rectángulo 32360" width="6.806" height="32.084" fill="#b1affd"/>
              </g>
            </g>
          </g>
          <g id="Grupo_72640" data-name="Grupo 72640" transform="translate(35.166 49.153)">
            <g id="Grupo_72639" data-name="Grupo 72639">
              <g id="Grupo_72638" data-name="Grupo 72638">
                <rect id="Rectángulo_32361" data-name="Rectángulo 32361" width="6.805" height="28.767" fill="#fca70c"/>
              </g>
            </g>
          </g>
          <g id="Grupo_72643" data-name="Grupo 72643" transform="translate(50.502 32.911)">
            <g id="Grupo_72642" data-name="Grupo 72642">
              <g id="Grupo_72641" data-name="Grupo 72641">
                <rect id="Rectángulo_32362" data-name="Rectángulo 32362" width="6.806" height="45.009" fill="#b1affd"/>
              </g>
            </g>
          </g>
          <g id="Grupo_72646" data-name="Grupo 72646" transform="translate(19.83 45.835)" opacity="0.15" style="mix-blend-mode: multiply;isolation: isolate">
            <g id="Grupo_72645" data-name="Grupo 72645">
              <g id="Grupo_72644" data-name="Grupo 72644">
                <rect id="Rectángulo_32363" data-name="Rectángulo 32363" width="3.124" height="32.084" opacity="0.26"/>
              </g>
            </g>
          </g>
          <g id="Grupo_72649" data-name="Grupo 72649" transform="translate(4.495 60.834)" opacity="0.15" style="mix-blend-mode: multiply;isolation: isolate">
            <g id="Grupo_72648" data-name="Grupo 72648">
              <g id="Grupo_72647" data-name="Grupo 72647">
                <rect id="Rectángulo_32364" data-name="Rectángulo 32364" width="3.123" height="17.086" opacity="0.26"/>
              </g>
            </g>
          </g>
          <g id="Grupo_72652" data-name="Grupo 72652" transform="translate(50.502 32.911)" opacity="0.62" style="mix-blend-mode: multiply;isolation: isolate">
            <g id="Grupo_72651" data-name="Grupo 72651">
              <g id="Grupo_72650" data-name="Grupo 72650">
                <rect id="Rectángulo_32365" data-name="Rectángulo 32365" width="3.124" height="45.009" opacity="0.26"/>
              </g>
            </g>
          </g>
          <g id="Grupo_72655" data-name="Grupo 72655" transform="translate(35.166 49.153)" opacity="0.15" style="mix-blend-mode: multiply;isolation: isolate">
            <g id="Grupo_72654" data-name="Grupo 72654">
              <g id="Grupo_72653" data-name="Grupo 72653">
                <rect id="Rectángulo_32366" data-name="Rectángulo 32366" width="3.124" height="28.767" opacity="0.26"/>
              </g>
            </g>
          </g>
          <g id="Grupo_72658" data-name="Grupo 72658" transform="translate(0 17.766)">
            <g id="Grupo_72657" data-name="Grupo 72657">
              <g id="Grupo_72656" data-name="Grupo 72656">
                <path id="Trazado_143875" data-name="Trazado 143875" d="M-613.91,409.554h-60.909V344.7h.929v63.927h59.979Z" transform="translate(674.818 -344.697)" fill="#d5dbda"/>
              </g>
            </g>
          </g>
          <g id="Grupo_72661" data-name="Grupo 72661" transform="translate(5.636 23.25)">
            <g id="Grupo_72660" data-name="Grupo 72660">
              <g id="Grupo_72659" data-name="Grupo 72659">
                <path id="Trazado_143876" data-name="Trazado 143876" d="M-666.224,382.039l-.621-.691,15.933-14.307,14.758,3.206,15.981-17.791.691.621-16.342,18.192-14.821-3.22Z" transform="translate(666.844 -352.456)" fill="#d5dbda"/>
              </g>
            </g>
          </g>
          <g id="Grupo_72664" data-name="Grupo 72664" transform="translate(49.745 20.621)">
            <g id="Grupo_72663" data-name="Grupo 72663">
              <g id="Grupo_72662" data-name="Grupo 72662">
                <path id="Trazado_143877" data-name="Trazado 143877" d="M-599.926,354.615l-4.506-4.321,5.817-1.557Z" transform="translate(604.432 -348.737)" fill="#d5dbda"/>
              </g>
            </g>
          </g>
          <g id="Grupo_72677" data-name="Grupo 72677" transform="translate(66.676 59.623)">
            <g id="Grupo_72667" data-name="Grupo 72667">
              <g id="Grupo_72666" data-name="Grupo 72666">
                <g id="Grupo_72665" data-name="Grupo 72665">
                  <rect id="Rectángulo_32367" data-name="Rectángulo 32367" width="4.674" height="4.674" fill="#b1affd"/>
                </g>
              </g>
            </g>
            <g id="Grupo_72670" data-name="Grupo 72670" transform="translate(0 8.189)">
              <g id="Grupo_72669" data-name="Grupo 72669">
                <g id="Grupo_72668" data-name="Grupo 72668">
                  <rect id="Rectángulo_32368" data-name="Rectángulo 32368" width="4.674" height="4.674" fill="#fca70c"/>
                </g>
              </g>
            </g>
            <g id="Grupo_72673" data-name="Grupo 72673" transform="translate(5.961 10.207)">
              <g id="Grupo_72672" data-name="Grupo 72672">
                <g id="Grupo_72671" data-name="Grupo 72671">
                  <rect id="Rectángulo_32369" data-name="Rectángulo 32369" width="14.815" height="2.656" fill="#efefef"/>
                </g>
              </g>
            </g>
            <g id="Grupo_72676" data-name="Grupo 72676" transform="translate(5.961 2.018)">
              <g id="Grupo_72675" data-name="Grupo 72675">
                <g id="Grupo_72674" data-name="Grupo 72674">
                  <rect id="Rectángulo_32370" data-name="Rectángulo 32370" width="14.815" height="2.656" fill="#efefef"/>
                </g>
              </g>
            </g>
          </g>
          <g id="Grupo_72690" data-name="Grupo 72690" transform="translate(94.162 59.623)">
            <g id="Grupo_72680" data-name="Grupo 72680">
              <g id="Grupo_72679" data-name="Grupo 72679">
                <g id="Grupo_72678" data-name="Grupo 72678">
                  <rect id="Rectángulo_32371" data-name="Rectángulo 32371" width="4.674" height="4.674" fill="#b1affd"/>
                </g>
              </g>
            </g>
            <g id="Grupo_72683" data-name="Grupo 72683" transform="translate(0 8.189)">
              <g id="Grupo_72682" data-name="Grupo 72682">
                <g id="Grupo_72681" data-name="Grupo 72681">
                  <rect id="Rectángulo_32372" data-name="Rectángulo 32372" width="4.674" height="4.674" fill="#fca70c"/>
                </g>
              </g>
            </g>
            <g id="Grupo_72686" data-name="Grupo 72686" transform="translate(5.961 10.207)">
              <g id="Grupo_72685" data-name="Grupo 72685">
                <g id="Grupo_72684" data-name="Grupo 72684">
                  <rect id="Rectángulo_32373" data-name="Rectángulo 32373" width="14.815" height="2.656" fill="#efefef"/>
                </g>
              </g>
            </g>
            <g id="Grupo_72689" data-name="Grupo 72689" transform="translate(5.961 2.018)">
              <g id="Grupo_72688" data-name="Grupo 72688">
                <g id="Grupo_72687" data-name="Grupo 72687">
                  <rect id="Rectángulo_32374" data-name="Rectángulo 32374" width="14.815" height="2.656" fill="#efefef"/>
                </g>
              </g>
            </g>
          </g>
          <g id="Grupo_72703" data-name="Grupo 72703" transform="translate(118.913 59.623)">
            <g id="Grupo_72693" data-name="Grupo 72693">
              <g id="Grupo_72692" data-name="Grupo 72692">
                <g id="Grupo_72691" data-name="Grupo 72691">
                  <rect id="Rectángulo_32375" data-name="Rectángulo 32375" width="4.674" height="4.674" fill="#b1affd"/>
                </g>
              </g>
            </g>
            <g id="Grupo_72696" data-name="Grupo 72696" transform="translate(0 8.189)">
              <g id="Grupo_72695" data-name="Grupo 72695">
                <g id="Grupo_72694" data-name="Grupo 72694">
                  <rect id="Rectángulo_32376" data-name="Rectángulo 32376" width="4.674" height="4.674" fill="#fca70c"/>
                </g>
              </g>
            </g>
            <g id="Grupo_72699" data-name="Grupo 72699" transform="translate(5.961 10.207)">
              <g id="Grupo_72698" data-name="Grupo 72698">
                <g id="Grupo_72697" data-name="Grupo 72697">
                  <rect id="Rectángulo_32377" data-name="Rectángulo 32377" width="9.749" height="2.656" fill="#efefef"/>
                </g>
              </g>
            </g>
            <g id="Grupo_72702" data-name="Grupo 72702" transform="translate(5.961 2.018)">
              <g id="Grupo_72701" data-name="Grupo 72701">
                <g id="Grupo_72700" data-name="Grupo 72700">
                  <rect id="Rectángulo_32378" data-name="Rectángulo 32378" width="9.749" height="2.656" fill="#efefef"/>
                </g>
              </g>
            </g>
          </g>
          <g id="Grupo_72737" data-name="Grupo 72737">
            <g id="Grupo_72706" data-name="Grupo 72706" transform="translate(67.551 14.967)">
              <g id="Grupo_72705" data-name="Grupo 72705">
                <g id="Grupo_72704" data-name="Grupo 72704">
                  <rect id="Rectángulo_32379" data-name="Rectángulo 32379" width="67.073" height="1.22" fill="#efefef"/>
                </g>
              </g>
            </g>
            <g id="Grupo_72709" data-name="Grupo 72709">
              <g id="Grupo_72708" data-name="Grupo 72708">
                <g id="Grupo_72707" data-name="Grupo 72707">
                  <rect id="Rectángulo_32380" data-name="Rectángulo 32380" width="134.624" height="2.791" fill="#efefef"/>
                </g>
              </g>
            </g>
            <g id="Grupo_72712" data-name="Grupo 72712" transform="translate(67.35 18.759)">
              <g id="Grupo_72711" data-name="Grupo 72711">
                <g id="Grupo_72710" data-name="Grupo 72710">
                  <rect id="Rectángulo_32381" data-name="Rectángulo 32381" width="67.274" height="1.219" fill="#efefef"/>
                </g>
              </g>
            </g>
            <g id="Grupo_72715" data-name="Grupo 72715" transform="translate(67.35 11.175)">
              <g id="Grupo_72714" data-name="Grupo 72714">
                <g id="Grupo_72713" data-name="Grupo 72713">
                  <rect id="Rectángulo_32382" data-name="Rectángulo 32382" width="67.274" height="1.219" fill="#efefef"/>
                </g>
              </g>
            </g>
            <g id="Grupo_72718" data-name="Grupo 72718" transform="translate(67.35 22.552)">
              <g id="Grupo_72717" data-name="Grupo 72717">
                <g id="Grupo_72716" data-name="Grupo 72716">
                  <rect id="Rectángulo_32383" data-name="Rectángulo 32383" width="67.274" height="1.219" fill="#efefef"/>
                </g>
              </g>
            </g>
            <g id="Grupo_72721" data-name="Grupo 72721" transform="translate(67.35 26.344)">
              <g id="Grupo_72720" data-name="Grupo 72720">
                <g id="Grupo_72719" data-name="Grupo 72719">
                  <rect id="Rectángulo_32384" data-name="Rectángulo 32384" width="67.274" height="1.219" fill="#efefef"/>
                </g>
              </g>
            </g>
            <g id="Grupo_72724" data-name="Grupo 72724" transform="translate(67.35 30.136)">
              <g id="Grupo_72723" data-name="Grupo 72723">
                <g id="Grupo_72722" data-name="Grupo 72722">
                  <rect id="Rectángulo_32385" data-name="Rectángulo 32385" width="67.274" height="1.22" fill="#efefef"/>
                </g>
              </g>
            </g>
            <g id="Grupo_72727" data-name="Grupo 72727" transform="translate(67.35 33.929)">
              <g id="Grupo_72726" data-name="Grupo 72726">
                <g id="Grupo_72725" data-name="Grupo 72725">
                  <rect id="Rectángulo_32386" data-name="Rectángulo 32386" width="67.274" height="1.219" fill="#efefef"/>
                </g>
              </g>
            </g>
            <g id="Grupo_72730" data-name="Grupo 72730" transform="translate(67.35 37.721)">
              <g id="Grupo_72729" data-name="Grupo 72729">
                <g id="Grupo_72728" data-name="Grupo 72728">
                  <rect id="Rectángulo_32387" data-name="Rectángulo 32387" width="67.274" height="1.219" fill="#efefef"/>
                </g>
              </g>
            </g>
            <g id="Grupo_72733" data-name="Grupo 72733" transform="translate(67.35 41.513)">
              <g id="Grupo_72732" data-name="Grupo 72732">
                <g id="Grupo_72731" data-name="Grupo 72731">
                  <rect id="Rectángulo_32388" data-name="Rectángulo 32388" width="67.274" height="1.219" fill="#efefef"/>
                </g>
              </g>
            </g>
            <g id="Grupo_72736" data-name="Grupo 72736" transform="translate(75.586 45.305)">
              <g id="Grupo_72735" data-name="Grupo 72735">
                <g id="Grupo_72734" data-name="Grupo 72734">
                  <rect id="Rectángulo_32389" data-name="Rectángulo 32389" width="59.037" height="1.219" fill="#efefef"/>
                </g>
              </g>
            </g>
          </g>
        </g>
        <path id="Trazado_143878" data-name="Trazado 143878" d="M-540.078,297.088H-682.623a6.846,6.846,0,0,0-6.845,6.846v5.992h156.237v-5.992A6.846,6.846,0,0,0-540.078,297.088Z" transform="translate(689.468 -297.088)" fill="#d2e1f1"/>
        <path id="Trazado_143879" data-name="Trazado 143879" d="M-498.473,305.684a1.973,1.973,0,0,1-1.973,1.974,1.974,1.974,0,0,1-1.974-1.974,1.974,1.974,0,0,1,1.974-1.974A1.974,1.974,0,0,1-498.473,305.684Z" transform="translate(634.614 -299.03)" fill="#cfcfff"/>
        <circle id="Elipse_4849" data-name="Elipse 4849" cx="1.974" cy="1.974" r="1.974" transform="translate(140.239 4.68)" fill="#cfcfff"/>
        <circle id="Elipse_4850" data-name="Elipse 4850" cx="1.974" cy="1.974" r="1.974" transform="translate(148.284 4.68)" fill="#cfcfff"/>
      </g>
      <g id="Grupo_72853" data-name="Grupo 72853" transform="translate(18.449 35.593)">
        <g id="Grupo_72742" data-name="Grupo 72742" transform="translate(0 4.09)">
          <g id="Grupo_72741" data-name="Grupo 72741">
            <g id="Grupo_72740" data-name="Grupo 72740">
              <rect id="Rectángulo_32390" data-name="Rectángulo 32390" width="156.237" height="105.018" rx="9.686" fill="#d2e1f1" opacity="0.55" style="mix-blend-mode: multiply;isolation: isolate"/>
            </g>
          </g>
        </g>
        <g id="Grupo_72745" data-name="Grupo 72745" transform="translate(3.17)">
          <g id="Grupo_72744" data-name="Grupo 72744">
            <g id="Grupo_72743" data-name="Grupo 72743">
              <rect id="Rectángulo_32391" data-name="Rectángulo 32391" width="156.237" height="105.018" rx="9.686" fill="#fff"/>
            </g>
          </g>
        </g>
        <g id="Grupo_72852" data-name="Grupo 72852" transform="translate(13.523 15.881)">
          <g id="Grupo_72748" data-name="Grupo 72748" transform="translate(4.495 60.834)">
            <g id="Grupo_72747" data-name="Grupo 72747">
              <g id="Grupo_72746" data-name="Grupo 72746">
                <rect id="Rectángulo_32392" data-name="Rectángulo 32392" width="6.805" height="17.086" fill="#d9a171"/>
              </g>
            </g>
          </g>
          <g id="Grupo_72751" data-name="Grupo 72751" transform="translate(19.83 45.835)">
            <g id="Grupo_72750" data-name="Grupo 72750">
              <g id="Grupo_72749" data-name="Grupo 72749">
                <rect id="Rectángulo_32393" data-name="Rectángulo 32393" width="6.806" height="32.084" fill="#aed3f2"/>
              </g>
            </g>
          </g>
          <g id="Grupo_72754" data-name="Grupo 72754" transform="translate(35.166 49.153)">
            <g id="Grupo_72753" data-name="Grupo 72753">
              <g id="Grupo_72752" data-name="Grupo 72752">
                <rect id="Rectángulo_32394" data-name="Rectángulo 32394" width="6.805" height="28.767" fill="#d9a171"/>
              </g>
            </g>
          </g>
          <g id="Grupo_72757" data-name="Grupo 72757" transform="translate(50.502 32.911)">
            <g id="Grupo_72756" data-name="Grupo 72756">
              <g id="Grupo_72755" data-name="Grupo 72755">
                <rect id="Rectángulo_32395" data-name="Rectángulo 32395" width="6.806" height="45.009" fill="#aed3f2"/>
              </g>
            </g>
          </g>
          <g id="Grupo_72760" data-name="Grupo 72760" transform="translate(19.83 45.835)" opacity="0.15" style="mix-blend-mode: multiply;isolation: isolate">
            <g id="Grupo_72759" data-name="Grupo 72759">
              <g id="Grupo_72758" data-name="Grupo 72758">
                <rect id="Rectángulo_32396" data-name="Rectángulo 32396" width="3.124" height="32.084" opacity="0.26"/>
              </g>
            </g>
          </g>
          <g id="Grupo_72763" data-name="Grupo 72763" transform="translate(4.495 60.834)" opacity="0.15" style="mix-blend-mode: multiply;isolation: isolate">
            <g id="Grupo_72762" data-name="Grupo 72762">
              <g id="Grupo_72761" data-name="Grupo 72761">
                <rect id="Rectángulo_32397" data-name="Rectángulo 32397" width="3.124" height="17.086" opacity="0.26"/>
              </g>
            </g>
          </g>
          <g id="Grupo_72766" data-name="Grupo 72766" transform="translate(50.502 32.911)" opacity="0.62" style="mix-blend-mode: multiply;isolation: isolate">
            <g id="Grupo_72765" data-name="Grupo 72765">
              <g id="Grupo_72764" data-name="Grupo 72764">
                <rect id="Rectángulo_32398" data-name="Rectángulo 32398" width="3.123" height="45.009" opacity="0.26"/>
              </g>
            </g>
          </g>
          <g id="Grupo_72769" data-name="Grupo 72769" transform="translate(35.166 49.153)" opacity="0.15" style="mix-blend-mode: multiply;isolation: isolate">
            <g id="Grupo_72768" data-name="Grupo 72768">
              <g id="Grupo_72767" data-name="Grupo 72767">
                <rect id="Rectángulo_32399" data-name="Rectángulo 32399" width="3.124" height="28.767" opacity="0.26"/>
              </g>
            </g>
          </g>
          <g id="Grupo_72772" data-name="Grupo 72772" transform="translate(0 23.56)">
            <g id="Grupo_72771" data-name="Grupo 72771">
              <g id="Grupo_72770" data-name="Grupo 72770">
                <path id="Trazado_143880" data-name="Trazado 143880" d="M-668.149,439.04h-60.909V379.978h.929v58.134h59.979Z" transform="translate(729.057 -379.978)" fill="#d5dbda"/>
              </g>
            </g>
          </g>
          <g id="Grupo_72775" data-name="Grupo 72775" transform="translate(5.636 23.25)">
            <g id="Grupo_72774" data-name="Grupo 72774">
              <g id="Grupo_72773" data-name="Grupo 72773">
                <path id="Trazado_143881" data-name="Trazado 143881" d="M-720.463,409.121l-.621-.691,15.933-14.307,14.758,3.206,15.981-17.791.692.621-16.342,18.192-14.821-3.22Z" transform="translate(721.083 -379.538)" fill="#d5dbda"/>
              </g>
            </g>
          </g>
          <g id="Grupo_72778" data-name="Grupo 72778" transform="translate(49.745 20.621)">
            <g id="Grupo_72777" data-name="Grupo 72777">
              <g id="Grupo_72776" data-name="Grupo 72776">
                <path id="Trazado_143882" data-name="Trazado 143882" d="M-654.165,381.7l-4.506-4.321,5.817-1.557Z" transform="translate(658.671 -375.819)" fill="#d5dbda"/>
              </g>
            </g>
          </g>
          <g id="Grupo_72791" data-name="Grupo 72791" transform="translate(66.676 59.623)">
            <g id="Grupo_72781" data-name="Grupo 72781">
              <g id="Grupo_72780" data-name="Grupo 72780">
                <g id="Grupo_72779" data-name="Grupo 72779">
                  <rect id="Rectángulo_32400" data-name="Rectángulo 32400" width="4.674" height="4.674" fill="#b1affd"/>
                </g>
              </g>
            </g>
            <g id="Grupo_72784" data-name="Grupo 72784" transform="translate(0 8.189)">
              <g id="Grupo_72783" data-name="Grupo 72783">
                <g id="Grupo_72782" data-name="Grupo 72782">
                  <rect id="Rectángulo_32401" data-name="Rectángulo 32401" width="4.674" height="4.674" fill="#fca70c"/>
                </g>
              </g>
            </g>
            <g id="Grupo_72787" data-name="Grupo 72787" transform="translate(5.961 10.207)">
              <g id="Grupo_72786" data-name="Grupo 72786">
                <g id="Grupo_72785" data-name="Grupo 72785">
                  <rect id="Rectángulo_32402" data-name="Rectángulo 32402" width="14.815" height="2.656" fill="#efefef"/>
                </g>
              </g>
            </g>
            <g id="Grupo_72790" data-name="Grupo 72790" transform="translate(5.961 2.018)">
              <g id="Grupo_72789" data-name="Grupo 72789">
                <g id="Grupo_72788" data-name="Grupo 72788">
                  <rect id="Rectángulo_32403" data-name="Rectángulo 32403" width="14.815" height="2.656" fill="#efefef"/>
                </g>
              </g>
            </g>
          </g>
          <g id="Grupo_72804" data-name="Grupo 72804" transform="translate(94.162 59.623)">
            <g id="Grupo_72794" data-name="Grupo 72794">
              <g id="Grupo_72793" data-name="Grupo 72793">
                <g id="Grupo_72792" data-name="Grupo 72792">
                  <rect id="Rectángulo_32404" data-name="Rectángulo 32404" width="4.674" height="4.674" fill="#b1affd"/>
                </g>
              </g>
            </g>
            <g id="Grupo_72797" data-name="Grupo 72797" transform="translate(0 8.189)">
              <g id="Grupo_72796" data-name="Grupo 72796">
                <g id="Grupo_72795" data-name="Grupo 72795">
                  <rect id="Rectángulo_32405" data-name="Rectángulo 32405" width="4.674" height="4.674" fill="#fca70c"/>
                </g>
              </g>
            </g>
            <g id="Grupo_72800" data-name="Grupo 72800" transform="translate(5.961 10.207)">
              <g id="Grupo_72799" data-name="Grupo 72799">
                <g id="Grupo_72798" data-name="Grupo 72798">
                  <rect id="Rectángulo_32406" data-name="Rectángulo 32406" width="14.815" height="2.656" fill="#efefef"/>
                </g>
              </g>
            </g>
            <g id="Grupo_72803" data-name="Grupo 72803" transform="translate(5.961 2.018)">
              <g id="Grupo_72802" data-name="Grupo 72802">
                <g id="Grupo_72801" data-name="Grupo 72801">
                  <rect id="Rectángulo_32407" data-name="Rectángulo 32407" width="14.815" height="2.656" fill="#efefef"/>
                </g>
              </g>
            </g>
          </g>
          <g id="Grupo_72817" data-name="Grupo 72817" transform="translate(118.913 59.623)">
            <g id="Grupo_72807" data-name="Grupo 72807">
              <g id="Grupo_72806" data-name="Grupo 72806">
                <g id="Grupo_72805" data-name="Grupo 72805">
                  <rect id="Rectángulo_32408" data-name="Rectángulo 32408" width="4.674" height="4.674" fill="#b1affd"/>
                </g>
              </g>
            </g>
            <g id="Grupo_72810" data-name="Grupo 72810" transform="translate(0 8.189)">
              <g id="Grupo_72809" data-name="Grupo 72809">
                <g id="Grupo_72808" data-name="Grupo 72808">
                  <rect id="Rectángulo_32409" data-name="Rectángulo 32409" width="4.674" height="4.674" fill="#fca70c"/>
                </g>
              </g>
            </g>
            <g id="Grupo_72813" data-name="Grupo 72813" transform="translate(5.961 10.207)">
              <g id="Grupo_72812" data-name="Grupo 72812">
                <g id="Grupo_72811" data-name="Grupo 72811">
                  <rect id="Rectángulo_32410" data-name="Rectángulo 32410" width="9.749" height="2.656" fill="#efefef"/>
                </g>
              </g>
            </g>
            <g id="Grupo_72816" data-name="Grupo 72816" transform="translate(5.961 2.018)">
              <g id="Grupo_72815" data-name="Grupo 72815">
                <g id="Grupo_72814" data-name="Grupo 72814">
                  <rect id="Rectángulo_32411" data-name="Rectángulo 32411" width="9.749" height="2.656" fill="#efefef"/>
                </g>
              </g>
            </g>
          </g>
          <g id="Grupo_72851" data-name="Grupo 72851">
            <g id="Grupo_72820" data-name="Grupo 72820" transform="translate(67.551 14.967)">
              <g id="Grupo_72819" data-name="Grupo 72819">
                <g id="Grupo_72818" data-name="Grupo 72818">
                  <rect id="Rectángulo_32412" data-name="Rectángulo 32412" width="67.072" height="1.22" fill="#efefef"/>
                </g>
              </g>
            </g>
            <g id="Grupo_72823" data-name="Grupo 72823">
              <g id="Grupo_72822" data-name="Grupo 72822">
                <g id="Grupo_72821" data-name="Grupo 72821">
                  <rect id="Rectángulo_32413" data-name="Rectángulo 32413" width="134.624" height="2.791" fill="#efefef"/>
                </g>
              </g>
            </g>
            <g id="Grupo_72826" data-name="Grupo 72826" transform="translate(67.35 18.759)">
              <g id="Grupo_72825" data-name="Grupo 72825">
                <g id="Grupo_72824" data-name="Grupo 72824">
                  <rect id="Rectángulo_32414" data-name="Rectángulo 32414" width="67.274" height="1.219" fill="#efefef"/>
                </g>
              </g>
            </g>
            <g id="Grupo_72829" data-name="Grupo 72829" transform="translate(67.35 11.175)">
              <g id="Grupo_72828" data-name="Grupo 72828">
                <g id="Grupo_72827" data-name="Grupo 72827">
                  <rect id="Rectángulo_32415" data-name="Rectángulo 32415" width="67.274" height="1.219" fill="#efefef"/>
                </g>
              </g>
            </g>
            <g id="Grupo_72832" data-name="Grupo 72832" transform="translate(67.35 22.552)">
              <g id="Grupo_72831" data-name="Grupo 72831">
                <g id="Grupo_72830" data-name="Grupo 72830">
                  <rect id="Rectángulo_32416" data-name="Rectángulo 32416" width="67.274" height="1.219" fill="#efefef"/>
                </g>
              </g>
            </g>
            <g id="Grupo_72835" data-name="Grupo 72835" transform="translate(67.35 26.344)">
              <g id="Grupo_72834" data-name="Grupo 72834">
                <g id="Grupo_72833" data-name="Grupo 72833">
                  <rect id="Rectángulo_32417" data-name="Rectángulo 32417" width="67.274" height="1.219" fill="#efefef"/>
                </g>
              </g>
            </g>
            <g id="Grupo_72838" data-name="Grupo 72838" transform="translate(67.35 30.136)">
              <g id="Grupo_72837" data-name="Grupo 72837">
                <g id="Grupo_72836" data-name="Grupo 72836">
                  <rect id="Rectángulo_32418" data-name="Rectángulo 32418" width="67.274" height="1.22" fill="#efefef"/>
                </g>
              </g>
            </g>
            <g id="Grupo_72841" data-name="Grupo 72841" transform="translate(67.35 33.929)">
              <g id="Grupo_72840" data-name="Grupo 72840">
                <g id="Grupo_72839" data-name="Grupo 72839">
                  <rect id="Rectángulo_32419" data-name="Rectángulo 32419" width="67.274" height="1.219" fill="#efefef"/>
                </g>
              </g>
            </g>
            <g id="Grupo_72844" data-name="Grupo 72844" transform="translate(67.35 37.721)">
              <g id="Grupo_72843" data-name="Grupo 72843">
                <g id="Grupo_72842" data-name="Grupo 72842">
                  <rect id="Rectángulo_32420" data-name="Rectángulo 32420" width="67.274" height="1.219" fill="#efefef"/>
                </g>
              </g>
            </g>
            <g id="Grupo_72847" data-name="Grupo 72847" transform="translate(67.35 41.513)">
              <g id="Grupo_72846" data-name="Grupo 72846">
                <g id="Grupo_72845" data-name="Grupo 72845">
                  <rect id="Rectángulo_32421" data-name="Rectángulo 32421" width="67.274" height="1.219" fill="#efefef"/>
                </g>
              </g>
            </g>
            <g id="Grupo_72850" data-name="Grupo 72850" transform="translate(75.586 45.305)">
              <g id="Grupo_72849" data-name="Grupo 72849">
                <g id="Grupo_72848" data-name="Grupo 72848">
                  <rect id="Rectángulo_32422" data-name="Rectángulo 32422" width="59.037" height="1.219" fill="#efefef"/>
                </g>
              </g>
            </g>
          </g>
        </g>
        <path id="Trazado_143883" data-name="Trazado 143883" d="M-594.317,324.171H-736.862a6.845,6.845,0,0,0-6.846,6.845v5.992H-587.47v-5.992A6.845,6.845,0,0,0-594.317,324.171Z" transform="translate(746.877 -324.171)" fill="#d9a171"/>
        <path id="Trazado_143884" data-name="Trazado 143884" d="M-552.711,332.766a1.974,1.974,0,0,1-1.974,1.974,1.974,1.974,0,0,1-1.974-1.974,1.974,1.974,0,0,1,1.974-1.974A1.974,1.974,0,0,1-552.711,332.766Z" transform="translate(692.023 -326.112)" fill="#cfcfff"/>
        <path id="Trazado_143885" data-name="Trazado 143885" d="M-541.328,332.766a1.974,1.974,0,0,1-1.974,1.974,1.974,1.974,0,0,1-1.974-1.974,1.974,1.974,0,0,1,1.974-1.974A1.974,1.974,0,0,1-541.328,332.766Z" transform="translate(688.685 -326.112)" fill="#cfcfff"/>
        <path id="Trazado_143886" data-name="Trazado 143886" d="M-529.944,332.766a1.974,1.974,0,0,1-1.974,1.974,1.974,1.974,0,0,1-1.974-1.974,1.974,1.974,0,0,1,1.974-1.974A1.974,1.974,0,0,1-529.944,332.766Z" transform="translate(685.346 -326.112)" fill="#cfcfff"/>
      </g>
      <path id="Trazado_143887" data-name="Trazado 143887" d="M-476.242,273.978h-36.586q.375,17.8.6,35.594a14.132,14.132,0,0,1-.661,5.363l-.057,0c-.485-.027-.27.126-.437.994,0,.012-.009.027-.011.04-1.479,2.416-4.367,3.737-7.178,4.358a.714.714,0,0,0,.044.393.9.9,0,0,0-.282,1.1c.17.4,2.273.934,5.13.625a13.62,13.62,0,0,0,3.169-.878,4.927,4.927,0,0,0,1.167-.8,4.078,4.078,0,0,0,1.07-.258l.116.11,3.274-1.426s-.358-2.065-.641-3.141a1.857,1.857,0,0,0-.216-.5,150.2,150.2,0,0,0,6.424-22.832c-.6,9.637-4.059,29.214-4.315,29.887a5.026,5.026,0,0,1-4.161,2.922c-.775.064-4.586-.155-4.175,1.6.1.419,2.076,1.313,4.944,1.505a13.582,13.582,0,0,0,3.273-.316,6.059,6.059,0,0,0,2.04-1.112l.442.59,3.471-.837s-.005-.9-.027-1.991a4.426,4.426,0,0,0-.744-2.117l.048-1.975,1.924-.227s3.865-12.5,5.7-16.75a37.541,37.541,0,0,0,2.076-5.326,38.392,38.392,0,0,0,.8-6.662,58.946,58.946,0,0,1,2.235-12.03,1.78,1.78,0,0,1,.327-.7,1.859,1.859,0,0,1,1.264-.441c4.919-.451,7.173.386,10.25-.569,4.057-1.258,4.488-3.1,4.686-3.187A12.763,12.763,0,0,0-476.242,273.978Z" transform="translate(699.982 -273.858)" fill="#aed3f2" opacity="0.35" style="mix-blend-mode: multiply;isolation: isolate"/>
      <path id="Trazado_143888" data-name="Trazado 143888" d="M-759.384,366.063a29.79,29.79,0,0,0-3.527,5.921,5.894,5.894,0,0,1-3.291,2.961c-2.609,1.194-5.406,2.336-8.094,3.393v6.929c5.465-3.286,10.411-6.353,10.5-6.385,4.177,1.6,7.671-1.876,8.792-4.381.5-1.124-.252-1.583-.286-2.117-.018-.279.341-1.905.286-2.115-.327-1.463-4.255-.184-3.929-.881a4.99,4.99,0,0,1,1.635-2.45c1.923-1.312,3.4-2.77,3.4-3.321C-753.905,362.665-758.929,365.562-759.384,366.063Z" transform="translate(774.296 -300.09)" fill="#5851bc" opacity="0.35" style="mix-blend-mode: multiply;isolation: isolate"/>
    </g>
    <g id="Grupo_72862" data-name="Grupo 72862" transform="translate(-938.363 260.233)">
      <path id="Trazado_143889" data-name="Trazado 143889" d="M-816.035,325.847c1.833,3.165.25,7.49,2.1,10.646.74,1.263,1.994,2.254,2.349,3.675a3.28,3.28,0,0,1-1.133,3.3,3.281,3.281,0,0,1-3.476.309,3.972,3.972,0,0,0-.712-.353c-.915-.268-1.741.544-2.528,1.082a3.859,3.859,0,0,1-3.328.589,4.937,4.937,0,0,1-2.771-3.327c-1.323-3.972-.384-8.32.839-12.323.611-2,1.512-4.22,3.474-4.946" transform="translate(905.463 -313.599)" fill="#12263f"/>
      <path id="Trazado_143890" data-name="Trazado 143890" d="M-770.566,368.487c.03.44.7.818.255,1.745-1,2.066-4.1,4.93-7.8,3.613-.161.057-20.486,11.806-22.052,11.806s-12.232-10.094-15.721-22.583c-.833-2.98-.509-6.486,2.283-7.993a6.6,6.6,0,0,1,3.838,3.416c2.311,4.361,9.23,18.8,10.764,19.35,1.911-1.274,11.219-4.04,18.756-7.242a5.1,5.1,0,0,0,2.921-2.441,24.309,24.309,0,0,1,3.131-4.881c.4-.413,4.863-2.8,4.864-2.018,0,.454-1.309,1.656-3.016,2.738a4.086,4.086,0,0,0-1.451,2.021c-.291.574,3.2-.48,3.487.727C-770.263,366.915-770.582,368.257-770.566,368.487Z" transform="translate(902.564 -322.565)" fill="#ffb9b0"/>
      <path id="Trazado_143891" data-name="Trazado 143891" d="M-814.7,354.553a9.156,9.156,0,0,1,6.07,4.707,19.02,19.02,0,0,1,.827,1.9c1.082,2.754,2.572,5.247,3.654,8a16.214,16.214,0,0,1-4.78,2.3,10.192,10.192,0,0,1-4.45.6,2.27,2.27,0,0,1-.749-.165,2.476,2.476,0,0,1-.779-.669q-.7-.8-1.353-1.626a4.486,4.486,0,0,1-.908-1.556,4.722,4.722,0,0,1,.213-2.423" transform="translate(902.848 -322.412)" fill="#ffd947"/>
      <path id="Trazado_143892" data-name="Trazado 143892" d="M-810.391,365.061a.929.929,0,0,0-.348-.3.631.631,0,0,0-.731.324,1.673,1.673,0,0,0-.152.849,11.547,11.547,0,0,0,.519,3.3l-.346,5.809.008.012a10.182,10.182,0,0,0,4.161-.607c.628-.234,1.306-.475,1.989-.751C-805.987,370.423-808.219,367.65-810.391,365.061Z" transform="translate(901.195 -325.398)" fill="#7762ef" opacity="0.35" style="mix-blend-mode: multiply;isolation: isolate"/>
      <path id="Trazado_143893" data-name="Trazado 143893" d="M-828.463,345.952s-.078,3.637.481,3.875a14.258,14.258,0,0,0,2.351.727l.037,7.527-10.034-1.513-6.9-3.843s7.174-2.379,7.238-3.094-.394-4.741-.394-4.741" transform="translate(910.26 -319.579)" fill="#ffb9b0"/>
      <g id="Grupo_72855" data-name="Grupo 72855" transform="translate(64.325 80.247)">
        <path id="Trazado_143894" data-name="Trazado 143894" d="M-845.292,494.565l-.006.028c-2.745,13.017-1.437,30.9-2.049,40.7.143.04,3.73.489,3.73.489s8.49-41.3,10.031-49.214a11.112,11.112,0,0,0,.2-1.531c.37-5.952-4.995-6.255-8.018-1.335a20.884,20.884,0,0,0-1.382,2.656c-.171.389-.329.782-.494,1.2l0,.013a38.54,38.54,0,0,0-1.331,4.156l-.032.151c-.126.416-.228.839-.329,1.262l-.021.1C-845.1,493.671-845.2,494.111-845.292,494.565Z" transform="translate(847.347 -439.526)" fill="#ffb9b0"/>
        <path id="Trazado_143895" data-name="Trazado 143895" d="M-828.278,430.939c-.1,1.077-.675,6.2-1.364,12.248-.589,5.083-1.235,10.812-1.737,15.35-.373,3.4-.646,6.117-.761,7.395a16.425,16.425,0,0,1-.3,2.2v.029c-1.292,5.944-5.4,6.289-7.9,4.91a4.973,4.973,0,0,1-.948-.646,3.18,3.18,0,0,1-1.063-1.752v-.014c-.158-1.221-.316-2.886-.459-4.868v-.028c-.014-.015-.014-.015-.014-.029l-.014-.043c-.3-3.862-.56-8.831-.79-13.67-.273-5.945-.445-11.674-.488-14.905-.014-.187-.014-.359-.028-.531-.043-9.907,9.06-16.254,14.718-13.181a1.337,1.337,0,0,1,.2.1,1.9,1.9,0,0,0,.215.129c.647.431.862,1.91.876,3.6C-828.105,428.469-828.192,429.819-828.278,430.939Z" transform="translate(846.408 -422.621)" fill="#ffb9b0"/>
        <path id="Trazado_143896" data-name="Trazado 143896" d="M-842.22,486.211l-.693-2.594c0,.013,0,.013.006.03a41.425,41.425,0,0,1-.86,9.061l-.032.151c-.1.409-.2.846-.329,1.262l-.02.1a6.9,6.9,0,0,0-.293,1.33l-.006.028c-.008,1.177,2.5-4.048,3.072-5.27.071-.155.115-.244.115-.244l-.678-2.722Z" transform="translate(846.497 -440.509)" fill="#ffb9b0"/>
      </g>
      <g id="Grupo_72856" data-name="Grupo 72856" transform="translate(80.72 79.815)">
        <path id="Trazado_143897" data-name="Trazado 143897" d="M-813.549,497.169v.029c-.26,13.63,3.949,29.655,5.062,39.555.136,0,3.438-.44,3.438-.44s.628-41.756.673-50.006a12.779,12.779,0,0,0-.083-1.572c-.678-6.012-5.554-4.982-7.438.663a24.422,24.422,0,0,0-.793,2.985c-.088.43-.163.859-.24,1.317v.014c-.23,1.4-.4,2.9-.493,4.464l0,.158c-.042.445-.062.891-.082,1.337v.1C-813.531,496.234-813.541,496.694-813.549,497.169Z" transform="translate(821.044 -439.213)" fill="#ffb9b0"/>
        <path id="Trazado_143898" data-name="Trazado 143898" d="M-813.822,474.408a3.6,3.6,0,0,1-.958-.418,2.733,2.733,0,0,1-1.254-1.476V472.5c-.357-1.174-.784-2.814-1.257-4.749-.011-.016-.011-.016-.009-.031l-.02-.049c-.921-3.76-2.011-8.638-3.03-13.385-1.25-5.843-2.384-11.5-2.968-14.716-.045-.173-.549-2.512-.583-2.684-1.746-9.957,6.019-16.444,11.663-14.545.082.025.151.05.221.075,1.134.457,1.45,4.447,1.7,7.144s2.173,30.655,2.652,35.709a20.306,20.306,0,0,1,.1,2.265C-807.694,473.784-811.336,475.153-813.822,474.408Z" transform="translate(824.149 -422.01)" fill="#ffb9b0"/>
        <path id="Trazado_143899" data-name="Trazado 143899" d="M-813.4,489.1l-1.064-2.409c0,.014,0,.014.011.029a46.34,46.34,0,0,1,.763,9.226l0,.158c-.02.432-.04.892-.082,1.337v.1a8.012,8.012,0,0,0-.038,1.4v.029c.192,1.172,1.56-4.647,1.869-6.005.037-.172.062-.271.062-.271l-1.072-2.539Z" transform="translate(821.309 -440.977)" fill="#ffb9b0"/>
      </g>
      <path id="Trazado_143900" data-name="Trazado 143900" d="M-840.182,406.857s-7.309,9.284-6.559,18.612c.312,3.883.794,7.3,1.236,11.21.064.563.94,8.766.693,8.775,0,0,15.058,4.652,29.606-1.444,0-.994,1.163-20.086-6.7-38.29A126.674,126.674,0,0,1-840.182,406.857Z" transform="translate(911.51 -337.418)" fill="#a66d58"/>
      <path id="Trazado_143901" data-name="Trazado 143901" d="M-816.874,369.834c-.058,2.659-1.473,4.279-3.5,6.52-.256.4-.888,6.327-1.1,10.269-.112,2.051.765,3.339,0,3.508-2.921,2.548-13.448,4.612-18.278,1.134.507-4.287-1.413-13.73-2.71-18.532-.2-.739-.38-1.363-.541-1.845-1.206-3.647-3.384-15.342-1.772-15.852.321-.1.821-.233,1.4-.407,2.524-.762,6.253-2.069,6.253-2.069s2.188,6.471,7.875,7.253c3.1-1.279,2.831-5.205,2.794-7.01,1.015.281,1.462.56,4.609,1.492.882,1.271.121,3.926,1.546,7.882C-819.949,363.161-816.8,366.6-816.874,369.834Z" transform="translate(911.086 -321.828)" fill="#ffd947"/>
      <path id="Trazado_143902" data-name="Trazado 143902" d="M-819.847,324.819s.575,7.031-.625,10.716c-.888,2.729-4.536,5.277-7.585,5.243-8.4,0-9.9-11.4-9.858-11.955s12.382-5.339,12.382-5.339Z" transform="translate(908.906 -313.301)" fill="#ffb9b0"/>
      <path id="Trazado_143903" data-name="Trazado 143903" d="M-811.1,423.5" transform="translate(901.043 -342.632)" fill="#f2f2f2"/>
      <g id="Grupo_72857" data-name="Grupo 72857" transform="translate(91.965 176.404)">
        <path id="Trazado_143904" data-name="Trazado 143904" d="M-795.158,563.575c-2.988.538-6.182-.3-7.491-.076-1.082.184-3.861.89-4.9-.045s-.872-4.235.324-4.674a4.367,4.367,0,0,0,.776.187,8.187,8.187,0,0,0,3.537-.289c2.274.935,2.358,1.344,4.943,1.865a16.808,16.808,0,0,1,3.293,1C-793.563,562.053-793.474,563.274-795.158,563.575Z" transform="translate(808.238 -558.678)" fill="#5045af"/>
      </g>
      <g id="Grupo_72858" data-name="Grupo 72858" transform="translate(62.466 174.1)">
        <path id="Trazado_143905" data-name="Trazado 143905" d="M-839.656,563.933c-2.994-.5-4.889-2.159-6.2-2.388-1.08-.192-3.8-.722-4.089-1.838-.212-.83.61-4.28,1.884-4.289a4.351,4.351,0,0,0,.667.438,8.187,8.187,0,0,0,3.427.922c1.824,1.649,1.765,2.062,4.021,3.426a16.841,16.841,0,0,1,2.762,2.053C-836.306,563.115-837.969,564.22-839.656,563.933Z" transform="translate(849.977 -555.418)" fill="#5045af"/>
      </g>
      <g id="Grupo_72859" data-name="Grupo 72859" transform="translate(29.154 32.248)">
        <path id="Trazado_143906" data-name="Trazado 143906" d="M-897.112,365.694l2.749-3.271,16.775,15s8.19-10.9,10.443-14.307c2.476-3.742,4.71-6.943,8.333-7.569.834.515-.282,13.958-.717,14.284-5.061,3.785-14.909,16-18.042,16.635C-881.188,387.2-897.112,365.694-897.112,365.694Z" transform="translate(897.112 -354.952)" fill="#ffb9b0"/>
        <path id="Trazado_143907" data-name="Trazado 143907" d="M-846.734,354.705s-3.427.043-4.9,1.257-8.513,12.373-8.513,12.373a4.957,4.957,0,0,0,1.851,3.876,10.268,10.268,0,0,0,5.071,2.2s3.534-3.517,5.527-5.117c1.241-1,1.363,1.471,1.363,1.471l6.231-6.084Z" transform="translate(886.273 -354.705)" fill="#ffd947"/>
      </g>
      <path id="Trazado_143908" data-name="Trazado 143908" d="M-845.488,342.35c-.187-.1-.37-.206-.548-.313a4.619,4.619,0,0,1-2.25-2.271c-.584-1.575-.864-3.992-.047-5.52a21.991,21.991,0,0,1,2.3-2.643,8.155,8.155,0,0,0,1.358-4.59,30.3,30.3,0,0,1,.327-4.843c.582-2.709,1.353-5.289,3.441-7.034,3.344-2.8,10.047-4.452,13.692-1.334.663.567.793,1.022,1.688,1.109a6.593,6.593,0,0,1,3.059.893c1.2.691,2.646,1.666,2.479,3.236a5.621,5.621,0,0,1-2.28,3.319,2.768,2.768,0,0,1-1.289.289c-1.421.028-2.6-.9-3.994-.748a2.659,2.659,0,0,0-1.75.971c-.5.62-.435,1.485-1.021,2.065-.941.93-2.4.852-3.515,1.457a1.163,1.163,0,0,0-.48.4,1.259,1.259,0,0,0-.122.6l-.064,1.762c-.553-.244-.611-1.031-1.067-1.428a1.267,1.267,0,0,0-1.6.1,2.676,2.676,0,0,0-.771,1.532,4.411,4.411,0,0,0,.311,2.1c.365,1.2,1.391,2.274,2.219,1.483.6.884-.056,2.36-.078,3.359-.017.793,0,2.364.739,2.885.681.478,1.761.115,1.8,1.349a2.373,2.373,0,0,1-2.214,2.15,8.3,8.3,0,0,1-3.313-.578,5.192,5.192,0,0,0-3.322-.163,10.1,10.1,0,0,1-1.865.839A2.914,2.914,0,0,1-845.488,342.35Z" transform="translate(912.11 -309.967)" fill="#12263f"/>
      <path id="Trazado_143909" data-name="Trazado 143909" d="M-892.517,366.526s-3.943-3.161-4.212-4.026-.327-1.791-.652-2.638a4.938,4.938,0,0,0-2.736-2.722c-.988-.406-.5-.741-1.563-.537-1.6.309-2.356,1.875-2.994,3.1-2.723,5.218,4.734,6.207,5,6.217.544.022,3.318,3.168,3.318,3.168" transform="translate(928.659 -322.996)" fill="#ffb9b0"/>
      <g id="Grupo_72861" data-name="Grupo 72861" transform="translate(9.564 7.449)">
        <path id="Trazado_143910" data-name="Trazado 143910" d="M-904.983,362.808l2.7,1.8a.744.744,0,0,0,1.052-.237l5.932-9.94-3.517-1.981-6.367,9.318A.743.743,0,0,0-904.983,362.808Z" transform="translate(919.108 -329.245)" fill="#a5ace4"/>
        <g id="Grupo_72860" data-name="Grupo 72860">
          <path id="Trazado_143911" data-name="Trazado 143911" d="M-918.979,334.8l.93.634,3.758-5.477-.929-.633a3.142,3.142,0,0,0-4.273,1.106h0A3.118,3.118,0,0,0-918.979,334.8Z" transform="translate(923.457 -322.33)" fill="#dfe4f0"/>
          <path id="Trazado_143912" data-name="Trazado 143912" d="M-923.358,339.139l17.286,2.624,3.948-5.754-8.723-15.1Z" transform="translate(924.399 -319.994)" fill="#dfe4f0"/>
          <path id="Trazado_143913" data-name="Trazado 143913" d="M-921.795,344.543l16.181,2.385,1.574-2.293-13.618-6.119Z" transform="translate(923.941 -325.158)" fill="#c8d9f1"/>
          <path id="Trazado_143914" data-name="Trazado 143914" d="M-889.179,354.194h0a2.2,2.2,0,0,0,2.988-.774l.7-1.023a2.182,2.182,0,0,0-.36-3.056h0a2.2,2.2,0,0,0-2.988.774l-.7,1.023A2.181,2.181,0,0,0-889.179,354.194Z" transform="translate(914.615 -328.241)" fill="#dfe4f0"/>
          <path id="Trazado_143915" data-name="Trazado 143915" d="M-888.836,350.477l-.7,1.021a2.18,2.18,0,0,0,.36,3.056,2.2,2.2,0,0,0,2.988-.774l.7-1.021a2.257,2.257,0,0,0,.143-.24,2.15,2.15,0,0,1-2.813.551,2.134,2.134,0,0,1-.506-2.813A2.3,2.3,0,0,0-888.836,350.477Z" transform="translate(914.614 -328.601)" fill="#c8d9f1"/>
          <path id="Trazado_143916" data-name="Trazado 143916" d="M-924.353,339.328h0a1.292,1.292,0,0,0,1.755-.454l11.857-17.279a1.282,1.282,0,0,0-.211-1.8h0a1.291,1.291,0,0,0-1.755.455l-11.858,17.278A1.281,1.281,0,0,0-924.353,339.328Z" transform="translate(924.831 -319.615)" fill="#9da0de"/>
          <path id="Trazado_143917" data-name="Trazado 143917" d="M-910.649,320.342l-9.875,14.391a1.291,1.291,0,0,1-1.755.454,1.052,1.052,0,0,1-.3-.329l-1.982,2.888a1.281,1.281,0,0,0,.212,1.8,1.292,1.292,0,0,0,1.755-.454l11.857-17.279A1.362,1.362,0,0,0-910.649,320.342Z" transform="translate(924.831 -319.828)" fill="#a5ace4"/>
          <path id="Trazado_143918" data-name="Trazado 143918" d="M-897.342,350.956l1.119.763a3.924,3.924,0,0,0,5.335-1.381l1.112-1.62a3.894,3.894,0,0,0-.643-5.456l-1.119-.763a3.924,3.924,0,0,0-5.335,1.382l-1.112,1.62A3.894,3.894,0,0,0-897.342,350.956Z" transform="translate(917.196 -326.161)" fill="#9da0de"/>
          <path id="Trazado_143919" data-name="Trazado 143919" d="M-898.359,346.853l-1.664,2.426a1.233,1.233,0,0,0,.2,1.727l5.2,3.547a1.244,1.244,0,0,0,1.689-.437l1.664-2.426a1.244,1.244,0,0,1-1.689.437l-5.2-3.547A1.233,1.233,0,0,1-898.359,346.853Z" transform="translate(917.631 -327.603)" fill="#a5ace4"/>
        </g>
      </g>
      <path id="Trazado_143920" data-name="Trazado 143920" d="M-904.054,361.285a5.442,5.442,0,0,1,.95-4.063,8.883,8.883,0,0,1,.968-1.044,1.359,1.359,0,0,1,.585-.386,1.844,1.844,0,0,1,1.263.286,2.31,2.31,0,0,1,1.037,1.03,1.372,1.372,0,0,1-.76,1.65.293.293,0,0,0-.139.138c-.032.1.035.215.1.322a2.341,2.341,0,0,1,.4,1.348.79.79,0,0,1-.927.695c-.2-.033-.476-.112-.544.043a.355.355,0,0,0,0,.177,1.447,1.447,0,0,1-.314,1.139.406.406,0,0,1-.251.158.677.677,0,0,1-.262-.036,3.615,3.615,0,0,1-.923-.41" transform="translate(928.32 -322.767)" fill="#ffb9b0"/>
      <path id="Trazado_143921" data-name="Trazado 143921" d="M-894.584,362.7a21.05,21.05,0,0,1-.322-2.12,4.824,4.824,0,0,0-2.281-3.966.57.57,0,0,0-.37-.106.41.41,0,0,0-.3.355,1.1,1.1,0,0,0,.073.488c.161.5.871,1.444.652,1.96a5.867,5.867,0,0,0-.563,2.458c.025.749.375,1.968,1.264,2.091" transform="translate(926.487 -322.986)" fill="#ffb9b0"/>
      <line id="Línea_450" data-name="Línea 450" x2="3.478" y2="8.2" transform="translate(11.859 0)" fill="none" stroke="#c4c4f7" stroke-linecap="round" stroke-linejoin="round" stroke-width="0.75"/>
      <line id="Línea_451" data-name="Línea 451" x2="7.127" y2="5.342" transform="translate(4.597 7.292)" fill="none" stroke="#c4c4f7" stroke-linecap="round" stroke-linejoin="round" stroke-width="0.75"/>
      <line id="Línea_452" data-name="Línea 452" x2="8.864" y2="0.871" transform="translate(0 17.225)" fill="none" stroke="#c4c4f7" stroke-linecap="round" stroke-linejoin="round" stroke-width="0.75"/>
    </g>
    <g id="Grupo_72871" data-name="Grupo 72871" transform="translate(-670.803 157.513)">
      <g id="Grupo_72870" data-name="Grupo 72870" transform="translate(0 3.708)">
        <path id="Trazado_143922" data-name="Trazado 143922" d="M-543.356,206.832s-3.184-2.246-3.3-3.19a21.856,21.856,0,0,0-3.043-5.527c-.71-.761-4.442-2.054-5.238-2.168s-5.365.274-4.8.9,3.525.4,4.094.737l.568.341s-.568.771-.341,1.238-.976,1.185-.521,1.981-.184.741.223,1.572c.672,1.371,2.392,2.135,2.847,1.76.341.812,1.647,2.468,2.87,2.354s4.2,2.672,4.2,2.672" transform="translate(559.779 -176.882)" fill="#ffb9b0"/>
        <path id="Trazado_143923" data-name="Trazado 143923" d="M-472.8,188.742c.109,2.139-.043,5.862.569,6.414s2.587.466,2.587.466-7.065,8.933-7.7,8.442-8.987-7.3-7.109-7.651,3.715-.276,3.662-1.249-.107-1.944-.16-2.915" transform="translate(537.768 -174.775)" fill="#ffb9b0"/>
        <path id="Trazado_143924" data-name="Trazado 143924" d="M-466.9,239.2s-13.784,1.565-16.957,1.631-3.016-1.592-3.016-1.592c-.16-3.493-.753-11.724-1.409-14.513-.613-2.6-.885-3.566-1.418-6.04-1.186-5.5-1.133-6.551-2.389-13.34l8.233-6.618a4.342,4.342,0,0,0,4.3,2.577c4.612.059,6.048-3.173,6.048-3.173l11.229,7.455,1.054,18.136-1.344,14.935" transform="translate(539.93 -177.529)" fill="#fca70c"/>
        <path id="Trazado_143925" data-name="Trazado 143925" d="M-473.587,181.009a23.741,23.741,0,0,1-.971,3.169,3.591,3.591,0,0,1-3.8,2.618l-4.221.1a4.829,4.829,0,0,1-3.3-.7c-.864-.752-.883-2.017-1.074-3.057q-.368-2-.6-4.017a59.357,59.357,0,0,1-.372-7.94,5.757,5.757,0,0,1,.095-1.087.779.779,0,0,1,.181-.4.885.885,0,0,1,.507-.2,43.317,43.317,0,0,1,7.978-.511,9.074,9.074,0,0,1,5.373,1.426c1.5,1.16,2.214,3.046,2.855,4.832.1.287.18.669-.07.845" transform="translate(538.71 -168.979)" fill="#ffb9b0"/>
        <g id="Grupo_72866" data-name="Grupo 72866" transform="translate(21.065 60.432)">
          <g id="Grupo_72863" data-name="Grupo 72863" transform="translate(6.122 48.489)">
            <path id="Trazado_143926" data-name="Trazado 143926" d="M-511.376,325.015a30.151,30.151,0,0,0,.821,3.679c.365.937,3.44.073,3.643-.533s-.968-5.064-.968-5.064" transform="translate(518.397 -323.097)" fill="#ed9c80"/>
            <path id="Trazado_143927" data-name="Trazado 143927" d="M-508.754,330.9c.266,1.011.6,2.951.6,2.951l-3.073,1.339-.5-.474a5.7,5.7,0,0,1-1.705,1.36,12.749,12.749,0,0,1-2.975.825c-2.683.289-4.658-.216-4.817-.587-.666-1.554,2.894-1.971,3.6-2.157a4.719,4.719,0,0,0,3.373-3.379c.157-.815-.045-.958.411-.933a1.082,1.082,0,0,1,.769.36,1.939,1.939,0,0,0,2.183.507,2.318,2.318,0,0,0,1.09-.907A1.34,1.34,0,0,1-508.754,330.9Z" transform="translate(521.311 -325.065)" fill="#38287c"/>
          </g>
          <g id="Grupo_72864" data-name="Grupo 72864">
            <path id="Trazado_143928" data-name="Trazado 143928" d="M-503.245,269.151a52.088,52.088,0,0,1-15.693.372c.679,1.946,2.344,4.44,2.978,7.181,2.093,9.051,2.821,21.209,3.352,28.731,0,0-1.006,1.93-4.227.461-4.813-11.887-13.216-35.979-13.138-41.205.1-6.654,16.707-8.26,28.877-9.9" transform="translate(529.974 -254.576)" fill="#727997"/>
            <path id="Trazado_143929" data-name="Trazado 143929" d="M-481.274,255.74c3.827,2.794-21.214,13.321-21.214,13.321a41.657,41.657,0,0,1-8.207.783,5.981,5.981,0,0,1-.611-1.553c-.147-.727-.069-1.483-.2-2.214a5.146,5.146,0,0,0-2.5-3.372,11.279,11.279,0,0,0-4.092-1.326,54.953,54.953,0,0,0-9.3-.163c7.525-5.548,22.925-6.274,30.1-6.73C-495.922,256.75-481.823,255.339-481.274,255.74Z" transform="translate(529.217 -254.487)" fill="#12263f" opacity="0.188"/>
          </g>
          <g id="Grupo_72865" data-name="Grupo 72865" transform="translate(12.6 55.451)">
            <path id="Trazado_143930" data-name="Trazado 143930" d="M-500.145,334.231a30.05,30.05,0,0,0,.171,3.765c.2.987,3.376.669,3.681.107s-.075-5.155-.075-5.155" transform="translate(508.626 -332.948)" fill="#ed9c80"/>
            <path id="Trazado_143931" data-name="Trazado 143931" d="M-498.892,340.775c.087,1.042.081,3.009.081,3.009l-3.259.786-.415-.554a5.692,5.692,0,0,1-1.915,1.044,12.76,12.76,0,0,1-3.074.3c-2.692-.18-4.549-1.02-4.642-1.413-.386-1.646,3.192-1.44,3.92-1.5a4.721,4.721,0,0,0,3.908-2.744c.3-.775.121-.951.566-.847a1.081,1.081,0,0,1,.694.488,1.94,1.94,0,0,0,2.063.878,2.326,2.326,0,0,0,1.23-.7A1.34,1.34,0,0,1-498.892,340.775Z" transform="translate(512.145 -334.671)" fill="#38287c"/>
          </g>
          <path id="Trazado_143932" data-name="Trazado 143932" d="M-466.056,255.476a155.238,155.238,0,0,1-16.965.541c-2.167,0-18.554,3.076-20.121,5.853-2.578,4.567,1.682,31.263,1.287,50.376,0,0,1.965,1.64,5.44.1.864-9.39,6.411-31.538,2.585-41.878,9.034,1.2,16.323,2.391,24.535-.331a6.555,6.555,0,0,0,4.225-4.481C-464.2,263.16-464.656,257.706-466.056,255.476Z" transform="translate(522.35 -254.777)" fill="#727997"/>
        </g>
        <g id="Grupo_72867" data-name="Grupo 72867" transform="translate(10.54 21.2)">
          <path id="Trazado_143933" data-name="Trazado 143933" d="M-499.337,198.976s-1.969.109-2.353.139a18.1,18.1,0,0,0-4.867.922c-2.233.826-3.809,2.9-5.626,4.527-1.751,1.565-10.821,10.207-12.513,10.526s-16.543-9.86-16.543-9.86l-3.626,3.626s16.117,14.891,20.921,14.916c2.332.012,15.2-6.759,19.314-9.392Z" transform="translate(544.866 -198.976)" fill="#fca70c"/>
          <path id="Trazado_143934" data-name="Trazado 143934" d="M-523.907,224.722c-3.312.187-18.495-11.407-20.255-12.761l-.7.7s16.117,14.891,20.921,14.916c1.945.01,11.2-4.69,16.61-7.781l1.4-.813-.84-5.007S-520.39,224.523-523.907,224.722Z" transform="translate(544.866 -202.784)" fill="#ce4a30" opacity="0.25" style="mix-blend-mode: multiply;isolation: isolate"/>
        </g>
        <g id="Grupo_72868" data-name="Grupo 72868" transform="translate(8.435 40.543)">
          <path id="Trazado_143935" data-name="Trazado 143935" d="M-539.821,249.913h36.888l-6.614-21.563a2.835,2.835,0,0,0-2.711-2h-32.305a1.839,1.839,0,0,0-1.758,2.378Z" transform="translate(547.422 -226.346)" fill="#e8e8e8"/>
          <path id="Trazado_143936" data-name="Trazado 143936" d="M-540.707,249.913h36.333l-6.614-21.563a2.835,2.835,0,0,0-2.71-2H-546a1.839,1.839,0,0,0-1.758,2.378l6.337,20.658A.751.751,0,0,0-540.707,249.913Z" transform="translate(547.844 -226.346)" fill="#afafaf"/>
        </g>
        <path id="Trazado_143937" data-name="Trazado 143937" d="M-467.267,209.123c-1.835,8.3-2.16,14.8-2.679,20.733-6.446,2.5-9.07,6.226-15.377,9.034,0,0-4.981-.828-5.5,1.052-.3,1.083,5.831,1.946,5.831,1.946,5.846.027,21.262-4.245,22.305-4.532s4.081-19.883,4.2-30.518c.018-1.51-.035-3.149-.98-4.328a5.665,5.665,0,0,0-1.9-1.406,26.516,26.516,0,0,0-11.77-2.97" transform="translate(539.561 -177.529)" fill="#ce4a30" opacity="0.25" style="mix-blend-mode: multiply;isolation: isolate"/>
        <path id="Trazado_143938" data-name="Trazado 143938" d="M-486.091,257.216a3.688,3.688,0,0,0-3.069-.972,22.472,22.472,0,0,0-2.464.2c-.372.05-.8.138-.84.541s1.806,0,2.775.279a48.772,48.772,0,0,1-5.7.155,1.628,1.628,0,0,0-.657.067.545.545,0,0,0-.37.5.679.679,0,0,0,.261.434,3.862,3.862,0,0,0,1.962.791,15.112,15.112,0,0,0,8.67-.766" transform="translate(541.199 -194.57)" fill="#ffb9b0"/>
        <path id="Trazado_143939" data-name="Trazado 143939" d="M-465.379,208.967c-.151,8.874-.782,12.935-.608,21.808-4.455.952-10.622,6-16.929,8.8a3.332,3.332,0,0,0,.208,2.309c.481.176,21.276-4.887,22.93-6.411,1.488-1.371,3.456-18,3.578-28.639.018-1.51-.035-3.149-.98-4.328a5.665,5.665,0,0,0-1.9-1.406,26.516,26.516,0,0,0-11.77-2.97" transform="translate(537.273 -177.529)" fill="#fca70c"/>
        <g id="Grupo_72869" data-name="Grupo 72869" transform="translate(23.857 49.274)">
          <path id="Trazado_143940" data-name="Trazado 143940" d="M-515.556,242.123c.132,1.891-2.1,3.424-4.991,3.424s-5.338-1.533-5.47-3.424,2.1-3.424,4.991-3.424S-515.688,240.232-515.556,242.123Z" transform="translate(526.023 -238.699)" fill="#e8e8e8" stroke="#a4a4f7" stroke-miterlimit="10" stroke-width="1" opacity="0.45"/>
          <ellipse id="Elipse_4851" data-name="Elipse 4851" cx="1.903" cy="3.326" rx="1.903" ry="3.326" transform="matrix(0.039, -0.999, 0.999, 0.039, 1.838, 5.196)" fill="#e8e8e8"/>
        </g>
      </g>
      <path id="Trazado_143941" data-name="Trazado 143941" d="M-480.867,177.831c-.069-.332-.806-.4-1.546-.3a11.8,11.8,0,0,0-3.118.657c-.406.316-.381.544-.6.567s-.228-.2-.7-.4a6.256,6.256,0,0,0-2.35.031c-.739.093-1.443.257-1.428.6a1.9,1.9,0,0,0,.3,1.022c.151.095.151.078.733,1.416a1.413,1.413,0,0,0,1.782.968c1.217-.265,1.295-1.652,1.389-2.231s.181-.665.366-.69.312.037.547.575.4,1.779,1.652,1.849c1.633.092,2.341-.468,2.567-1.515.307-1.42.237-1.424.36-1.553a7.825,7.825,0,0,1,1.221.1l-.027-.424A9.208,9.208,0,0,1-480.867,177.831Zm-5.931,2.857a1.419,1.419,0,0,1-1.2,1.489c-.749.094-1.093-.3-1.5-1.262a2.476,2.476,0,0,1-.242-1.729c.127-.23.531-.223,1.461-.281s1.24-.078,1.392.331A5.067,5.067,0,0,1-486.8,180.688Zm5.324-.783c-.155,1.03-.531,1.524-1.558,1.647-1.454.174-1.734-.4-1.949-1.093a5.091,5.091,0,0,1-.271-1.43c.045-.433.351-.491,1.266-.665s2.139-.385,2.319-.194A2.472,2.472,0,0,1-481.474,179.9Z" transform="translate(539.493 -167.767)" fill="#483a99"/>
      <path id="Trazado_143942" data-name="Trazado 143942" d="M-471.427,171.53a16,16,0,0,0-.406-2.187,6.977,6.977,0,0,0-3.409-4.467,10.9,10.9,0,0,0-7.712-.768c-1.411.4-1.934,1.139-2.661,1.117a8,8,0,0,1-1.975-.65c-5.517-1.982-4.591,3.418-4,4.9.26.656,1.511,1.134,1.678,1.406a16.6,16.6,0,0,1,.254,2.2,1.166,1.166,0,0,0,.686.813s.031-1.739.059-1.975a2.185,2.185,0,0,1,.815-1.628,5.066,5.066,0,0,1,1.984-.557,15.073,15.073,0,0,1,4.061.671c1.03.884,1.3,2.9,1.584,4.087.135.553.275.926.5.917.171-1.633.737-1.674,1.715-1.116a2.841,2.841,0,0,1,.83,2.207,2.33,2.33,0,0,1-1.645,2.411c-.39.083.785,2.31,1.329,2.867a2.937,2.937,0,0,0,.575.505,2.634,2.634,0,0,0,.664.247l.788.213a2.051,2.051,0,0,0,1.083.093c.582-.165.889-.782,1.151-1.326.432-.895.927-1.761,1.28-2.69A15.988,15.988,0,0,0-471.427,171.53Z" transform="translate(539.915 -163.733)" fill="#12263f"/>
    </g>
    <g id="Grupo_72874" data-name="Grupo 72874" transform="translate(-609.931 264.054)">
      <path id="Trazado_143943" data-name="Trazado 143943" d="M-403.825,355.431h-69.823l8.361-6.186v-30.2a4.562,4.562,0,0,1,4.563-4.563h56.9a4.563,4.563,0,0,1,4.563,4.563v31.823A4.563,4.563,0,0,1-403.825,355.431Z" transform="translate(473.648 -314.483)" fill="#aed3f2"/>
      <g id="Grupo_72873" data-name="Grupo 72873" transform="translate(13.858 5.89)">
        <rect id="Rectángulo_32423" data-name="Rectángulo 32423" width="31.91" height="3.053" transform="translate(22.551)" fill="#fff" opacity="0.45"/>
        <rect id="Rectángulo_32424" data-name="Rectángulo 32424" width="31.91" height="3.053" transform="translate(22.551 4.561)" fill="#fff" opacity="0.45"/>
        <rect id="Rectángulo_32425" data-name="Rectángulo 32425" width="31.91" height="3.053" transform="translate(22.551 9.123)" fill="#fff" opacity="0.45"/>
        <rect id="Rectángulo_32426" data-name="Rectángulo 32426" width="31.91" height="3.053" transform="translate(22.551 13.567)" fill="#fff" opacity="0.45"/>
        <rect id="Rectángulo_32427" data-name="Rectángulo 32427" width="22.253" height="3.053" transform="translate(22.551 18.884)" fill="#fff" opacity="0.45"/>
        <g id="Grupo_72872" data-name="Grupo 72872">
          <rect id="Rectángulo_32428" data-name="Rectángulo 32428" width="20.044" height="23.437" rx="3.385" fill="#6595bf"/>
          <rect id="Rectángulo_32429" data-name="Rectángulo 32429" width="20.044" height="2.516" transform="translate(0 26.356)" fill="#6595bf" opacity="0.45"/>
        </g>
      </g>
    </g>
    <g id="Grupo_72878" data-name="Grupo 72878" transform="translate(-768.115 142.524)">
      <path id="Trazado_143944" data-name="Trazado 143944" d="M-691.657,204.889h88.96l-10.653-7.881V148.337a5.813,5.813,0,0,0-5.812-5.813h-72.494a5.813,5.813,0,0,0-5.813,5.813v50.74A5.813,5.813,0,0,0-691.657,204.889Z" transform="translate(697.47 -142.524)" fill="#aed3f2"/>
      <g id="Grupo_72877" data-name="Grupo 72877" transform="translate(7.729 9.025)">
        <g id="Grupo_72875" data-name="Grupo 72875" transform="translate(0 0)" opacity="0.45">
          <rect id="Rectángulo_32430" data-name="Rectángulo 32430" width="40.655" height="3.89" transform="translate(40.655 3.89) rotate(180)" fill="#fff"/>
          <rect id="Rectángulo_32431" data-name="Rectángulo 32431" width="40.655" height="3.89" transform="translate(40.655 9.702) rotate(180)" fill="#fff"/>
          <rect id="Rectángulo_32432" data-name="Rectángulo 32432" width="40.655" height="3.89" transform="translate(40.655 15.513) rotate(180)" fill="#fff"/>
          <rect id="Rectángulo_32433" data-name="Rectángulo 32433" width="40.655" height="3.89" transform="translate(40.655 21.175) rotate(180)" fill="#fff"/>
          <rect id="Rectángulo_32434" data-name="Rectángulo 32434" width="40.655" height="3.89" transform="translate(40.655 26.838) rotate(180)" fill="#fff"/>
          <rect id="Rectángulo_32435" data-name="Rectángulo 32435" width="40.655" height="3.89" transform="translate(40.655 37.127) rotate(180)" fill="#fff"/>
          <rect id="Rectángulo_32436" data-name="Rectángulo 32436" width="69.387" height="3.89" transform="translate(69.387 43.255) rotate(180)" fill="#fff"/>
        </g>
        <g id="Grupo_72876" data-name="Grupo 72876" transform="translate(43.849 0)">
          <rect id="Rectángulo_32437" data-name="Rectángulo 32437" width="25.538" height="29.861" rx="4.313" transform="translate(25.538 29.861) rotate(180)" fill="#6595bf"/>
          <rect id="Rectángulo_32438" data-name="Rectángulo 32438" width="25.538" height="3.206" transform="translate(25.538 36.785) rotate(180)" fill="#6595bf" opacity="0.45"/>
        </g>
      </g>
    </g>
    <g id="Grupo_72881" data-name="Grupo 72881" transform="translate(-867.004 211.265)" opacity="0.3">
      <g id="Grupo_72880" data-name="Grupo 72880">
        <g id="Grupo_72879" data-name="Grupo 72879" transform="translate(14.844 13.586)">
          <path id="Trazado_143945" data-name="Trazado 143945" d="M-816.389,262.474l4.784,2.408-2.392-5.87" transform="translate(816.389 -259.012)" fill="#aed3f2"/>
        </g>
        <path id="Trazado_143946" data-name="Trazado 143946" d="M-837.393,249.332c0,5.27,4.527,9.542,10.111,9.542s10.112-4.272,10.112-9.542-4.527-9.543-10.112-9.543S-837.393,244.061-837.393,249.332Z" transform="translate(837.393 -239.789)" fill="#aed3f2"/>
      </g>
      <path id="Trazado_143947" data-name="Trazado 143947" d="M-826.588,248.559v6.822a.714.714,0,0,0,1.072.618l5.908-3.411a.715.715,0,0,0,0-1.238l-5.908-3.411A.715.715,0,0,0-826.588,248.559Z" transform="translate(834.224 -242.151)" fill="#fefefe"/>
    </g>
    <g id="Grupo_72886" data-name="Grupo 72886" transform="translate(-687.178 212.013)" opacity="0.3">
      <g id="Grupo_72883" data-name="Grupo 72883">
        <g id="Grupo_72882" data-name="Grupo 72882" transform="translate(11.638 2.273)">
          <path id="Trazado_143948" data-name="Trazado 143948" d="M-565.189,247.835l3.49-3.771-4.783.937" transform="translate(566.482 -244.064)" fill="#d9a171"/>
        </g>
        <path id="Trazado_143949" data-name="Trazado 143949" d="M-582.949,247.767a7.135,7.135,0,0,0,7.332,6.92,7.135,7.135,0,0,0,7.333-6.92,7.135,7.135,0,0,0-7.333-6.92A7.135,7.135,0,0,0-582.949,247.767Z" transform="translate(582.949 -240.847)" fill="#d9a171"/>
      </g>
      <g id="Grupo_72885" data-name="Grupo 72885" transform="translate(3.222 2.273)">
        <g id="Grupo_72884" data-name="Grupo 72884" transform="translate(2.652)">
          <path id="Trazado_143950" data-name="Trazado 143950" d="M-574.584,252.025c1.443.025,2.905.046,4.233-.05.421-.03.784-.728.274-.948a.96.96,0,0,0,.526-.478.477.477,0,0,0-.255-.623c.5.129.7-.7.307-.969a1.228,1.228,0,0,0,.422-.707.722.722,0,0,0-.3-.732,1.057,1.057,0,0,0-.52-.093l-1.8-.014a4.518,4.518,0,0,0-.266-2.913c-.143-.26-.53-.571-.837-.371-.288.187-.208.653-.194.946a3.347,3.347,0,0,1-1.638,3.024S-574.57,250.7-574.584,252.025Z" transform="translate(574.638 -244.064)" fill="#fefefe"/>
        </g>
        <rect id="Rectángulo_32439" data-name="Rectángulo 32439" width="2.182" height="3.924" transform="translate(0 4.034)" fill="#fefefe"/>
      </g>
    </g>
    <g id="Grupo_72887" data-name="Grupo 72887" transform="translate(-659.38 149.912)" opacity="0.3">
      <path id="Trazado_143951" data-name="Trazado 143951" d="M-524.342,170.54a10.77,10.77,0,0,0,2.366-6.743,10.821,10.821,0,0,0-10.82-10.82,10.821,10.821,0,0,0-10.82,10.82,10.821,10.821,0,0,0,10.82,10.82A10.765,10.765,0,0,0-526.8,172.8l4.189,2.234Z" transform="translate(543.616 -152.977)" fill="#d9a171"/>
      <path id="Trazado_143952" data-name="Trazado 143952" d="M-535.091,163.793a2.64,2.64,0,0,1,3.736.039l.673.688.693-.682a2.641,2.641,0,0,1,3.737.028,2.642,2.642,0,0,1-.029,3.736l-2.57,2.532c-.005,0-.009.011-.014.017a2.623,2.623,0,0,1-1.445.723,2.637,2.637,0,0,1-2.291-.763l-2.528-2.582A2.641,2.641,0,0,1-535.091,163.793Z" transform="translate(541.349 -155.927)" fill="#fff"/>
    </g>
  </g>
</svg>
