<svg xmlns="http://www.w3.org/2000/svg" width="156.513" height="147.685" viewBox="0 0 156.513 147.685">
  <g id="Grupo_73039" data-name="Grupo 73039" transform="translate(1587.388 -32.824)">
    <g id="Grupo_72892" data-name="Grupo 72892" transform="translate(-1524.948 64.289)">
      <path id="Trazado_144046" data-name="Trazado 144046" d="M-1410.579,108.231a15.493,15.493,0,0,0-.207-8.2,4.853,4.853,0,0,0-4.359-3.129H-1461.2v11.331Z" transform="translate(1461.688 -96.411)" fill="#ffd11d"/>
      <path id="Trazado_144047" data-name="Trazado 144047" d="M-1410.673,108.229h-51.506V95.92h46.543c.046,0,3.688.107,4.822,3.461a15.818,15.818,0,0,1,.222,8.459Zm-50.529-.977h49.732a14.6,14.6,0,0,0-.27-7.557,4.325,4.325,0,0,0-3.907-2.8H-1461.2Z" transform="translate(1462.179 -95.92)" fill="#fff"/>
    </g>
    <g id="Grupo_72893" data-name="Grupo 72893" transform="translate(-1534.267 64.289)">
      <path id="Trazado_144048" data-name="Trazado 144048" d="M-1424.27,96.9h-49.779c-4.414,0-5.84,2.512-5.84,6.666V167.4h.87v6.687h46.054a4.853,4.853,0,0,0,4.36-3.13,12.707,12.707,0,0,0,.634-3.557h.021v-.483c0-.034,0-.069,0-.1V104.241S-1428.416,97.607-1424.27,96.9Z" transform="translate(1480.376 -96.411)" fill="#fff"/>
      <path id="Trazado_144049" data-name="Trazado 144049" d="M-1433.45,174.086H-1480V167.4h-.87V103.075c0-4.882,2.011-7.155,6.328-7.155h49.779l.082.97c-3.668.625-3.279,6.764-3.275,6.825l0,63.684H-1428a12.811,12.811,0,0,1-.633,3.225,5.391,5.391,0,0,1-4.813,3.461Zm-45.57-.977h45.559a4.319,4.319,0,0,0,3.9-2.8,12.144,12.144,0,0,0,.609-3.422l.02-.529V103.75c-.016-.207-.3-4.756,2.044-6.852h-47.654c-3.751,0-5.351,1.848-5.351,6.178v63.347h.87Z" transform="translate(1480.867 -95.92)" fill="#fff"/>
    </g>
    <g id="Grupo_72916" data-name="Grupo 72916" transform="translate(-1528.574 78.13)">
      <g id="Grupo_72904" data-name="Grupo 72904">
        <g id="Grupo_72898" data-name="Grupo 72898">
          <g id="Grupo_72895" data-name="Grupo 72895">
            <g id="Grupo_72894" data-name="Grupo 72894">
              <rect id="Rectángulo_32440" data-name="Rectángulo 32440" width="18.526" height="1.403" transform="translate(0.733 0.733)" fill="#bcbec0"/>
              <rect id="Rectángulo_32441" data-name="Rectángulo 32441" width="19.992" height="2.869" fill="#bcbec0"/>
            </g>
          </g>
          <g id="Grupo_72897" data-name="Grupo 72897" transform="translate(22.964)">
            <g id="Grupo_72896" data-name="Grupo 72896">
              <rect id="Rectángulo_32442" data-name="Rectángulo 32442" width="18.527" height="1.403" transform="translate(0.733 0.733)" fill="#bcbec0"/>
              <rect id="Rectángulo_32443" data-name="Rectángulo 32443" width="19.993" height="2.869" fill="#bcbec0"/>
            </g>
          </g>
        </g>
        <g id="Grupo_72903" data-name="Grupo 72903" transform="translate(0 5.212)">
          <g id="Grupo_72900" data-name="Grupo 72900">
            <g id="Grupo_72899" data-name="Grupo 72899">
              <rect id="Rectángulo_32444" data-name="Rectángulo 32444" width="18.526" height="1.402" transform="translate(0.733 0.733)" fill="#bcbec0"/>
              <rect id="Rectángulo_32445" data-name="Rectángulo 32445" width="19.992" height="2.868" fill="#bcbec0"/>
            </g>
          </g>
          <g id="Grupo_72902" data-name="Grupo 72902" transform="translate(22.964)">
            <g id="Grupo_72901" data-name="Grupo 72901">
              <rect id="Rectángulo_32446" data-name="Rectángulo 32446" width="18.527" height="1.402" transform="translate(0.733 0.733)" fill="#bcbec0"/>
              <rect id="Rectángulo_32447" data-name="Rectángulo 32447" width="19.993" height="2.868" fill="#bcbec0"/>
            </g>
          </g>
        </g>
      </g>
      <g id="Grupo_72915" data-name="Grupo 72915" transform="translate(0 12.056)">
        <g id="Grupo_72909" data-name="Grupo 72909">
          <g id="Grupo_72906" data-name="Grupo 72906">
            <g id="Grupo_72905" data-name="Grupo 72905">
              <rect id="Rectángulo_32448" data-name="Rectángulo 32448" width="18.526" height="1.402" transform="translate(0.733 0.733)" fill="#bcbec0"/>
              <rect id="Rectángulo_32449" data-name="Rectángulo 32449" width="19.992" height="2.868" fill="#bcbec0"/>
            </g>
          </g>
          <g id="Grupo_72908" data-name="Grupo 72908" transform="translate(22.964)">
            <g id="Grupo_72907" data-name="Grupo 72907">
              <rect id="Rectángulo_32450" data-name="Rectángulo 32450" width="18.527" height="1.402" transform="translate(0.733 0.733)" fill="#bcbec0"/>
              <rect id="Rectángulo_32451" data-name="Rectángulo 32451" width="19.993" height="2.868" fill="#bcbec0"/>
            </g>
          </g>
        </g>
        <g id="Grupo_72914" data-name="Grupo 72914" transform="translate(0 5.212)">
          <g id="Grupo_72911" data-name="Grupo 72911">
            <g id="Grupo_72910" data-name="Grupo 72910">
              <rect id="Rectángulo_32452" data-name="Rectángulo 32452" width="18.526" height="1.403" transform="translate(0.733 0.733)" fill="#bcbec0"/>
              <rect id="Rectángulo_32453" data-name="Rectángulo 32453" width="19.992" height="2.869" fill="#bcbec0"/>
            </g>
          </g>
          <g id="Grupo_72913" data-name="Grupo 72913" transform="translate(22.964)">
            <g id="Grupo_72912" data-name="Grupo 72912">
              <rect id="Rectángulo_32454" data-name="Rectángulo 32454" width="18.527" height="1.403" transform="translate(0.733 0.733)" fill="#bcbec0"/>
              <rect id="Rectángulo_32455" data-name="Rectángulo 32455" width="19.993" height="2.869" fill="#bcbec0"/>
            </g>
          </g>
        </g>
      </g>
    </g>
    <g id="Grupo_72939" data-name="Grupo 72939" transform="translate(-1528.574 103.869)">
      <g id="Grupo_72927" data-name="Grupo 72927" transform="translate(0 0)">
        <g id="Grupo_72921" data-name="Grupo 72921">
          <g id="Grupo_72918" data-name="Grupo 72918">
            <g id="Grupo_72917" data-name="Grupo 72917">
              <rect id="Rectángulo_32456" data-name="Rectángulo 32456" width="18.526" height="1.403" transform="translate(0.733 0.733)" fill="#bcbec0"/>
              <rect id="Rectángulo_32457" data-name="Rectángulo 32457" width="19.992" height="2.869" fill="#bcbec0"/>
            </g>
          </g>
          <g id="Grupo_72920" data-name="Grupo 72920" transform="translate(22.964)">
            <g id="Grupo_72919" data-name="Grupo 72919">
              <rect id="Rectángulo_32458" data-name="Rectángulo 32458" width="18.527" height="1.403" transform="translate(0.733 0.733)" fill="#bcbec0"/>
              <rect id="Rectángulo_32459" data-name="Rectángulo 32459" width="19.993" height="2.869" fill="#bcbec0"/>
            </g>
          </g>
        </g>
        <g id="Grupo_72926" data-name="Grupo 72926" transform="translate(0 5.212)">
          <g id="Grupo_72923" data-name="Grupo 72923">
            <g id="Grupo_72922" data-name="Grupo 72922">
              <rect id="Rectángulo_32460" data-name="Rectángulo 32460" width="18.526" height="1.402" transform="translate(0.733 0.733)" fill="#bcbec0"/>
              <rect id="Rectángulo_32461" data-name="Rectángulo 32461" width="19.992" height="2.867" fill="#bcbec0"/>
            </g>
          </g>
          <g id="Grupo_72925" data-name="Grupo 72925" transform="translate(22.964)">
            <g id="Grupo_72924" data-name="Grupo 72924">
              <rect id="Rectángulo_32462" data-name="Rectángulo 32462" width="18.527" height="1.402" transform="translate(0.733 0.733)" fill="#bcbec0"/>
              <rect id="Rectángulo_32463" data-name="Rectángulo 32463" width="19.993" height="2.867" fill="#bcbec0"/>
            </g>
          </g>
        </g>
      </g>
      <g id="Grupo_72938" data-name="Grupo 72938" transform="translate(0 12.056)">
        <g id="Grupo_72932" data-name="Grupo 72932">
          <g id="Grupo_72929" data-name="Grupo 72929">
            <g id="Grupo_72928" data-name="Grupo 72928">
              <rect id="Rectángulo_32464" data-name="Rectángulo 32464" width="18.526" height="1.403" transform="translate(0.733 0.733)" fill="#bcbec0"/>
              <rect id="Rectángulo_32465" data-name="Rectángulo 32465" width="19.992" height="2.869" fill="#bcbec0"/>
            </g>
          </g>
          <g id="Grupo_72931" data-name="Grupo 72931" transform="translate(22.964)">
            <g id="Grupo_72930" data-name="Grupo 72930">
              <rect id="Rectángulo_32466" data-name="Rectángulo 32466" width="18.527" height="1.403" transform="translate(0.733 0.733)" fill="#bcbec0"/>
              <rect id="Rectángulo_32467" data-name="Rectángulo 32467" width="19.993" height="2.869" fill="#bcbec0"/>
            </g>
          </g>
        </g>
        <g id="Grupo_72937" data-name="Grupo 72937" transform="translate(0 5.212)">
          <g id="Grupo_72934" data-name="Grupo 72934">
            <g id="Grupo_72933" data-name="Grupo 72933">
              <rect id="Rectángulo_32468" data-name="Rectángulo 32468" width="18.526" height="1.403" transform="translate(0.733 0.733)" fill="#bcbec0"/>
              <rect id="Rectángulo_32469" data-name="Rectángulo 32469" width="19.992" height="2.869" fill="#bcbec0"/>
            </g>
          </g>
          <g id="Grupo_72936" data-name="Grupo 72936" transform="translate(22.964)">
            <g id="Grupo_72935" data-name="Grupo 72935">
              <rect id="Rectángulo_32470" data-name="Rectángulo 32470" width="18.527" height="1.403" transform="translate(0.733 0.733)" fill="#bcbec0"/>
              <rect id="Rectángulo_32471" data-name="Rectángulo 32471" width="19.993" height="2.869" fill="#bcbec0"/>
            </g>
          </g>
        </g>
      </g>
    </g>
    <g id="Grupo_72940" data-name="Grupo 72940" transform="translate(-1542.716 32.824)">
      <path id="Trazado_144050" data-name="Trazado 144050" d="M-1444.892,135.116V41.372h-.005a13.152,13.152,0,0,0-.647-4.439,4.853,4.853,0,0,0-4.36-3.129h-46.054v7.569h-.873v94.419c0,4.155,1.426,6.667,5.84,6.667h49.779C-1445.358,141.751-1444.892,135.116-1444.892,135.116Z" transform="translate(1497.319 -33.315)" fill="#ffd11d"/>
      <path id="Trazado_144051" data-name="Trazado 144051" d="M-1441.7,142.455h-49.779c-4.317,0-6.328-2.273-6.328-7.155V40.392h.872V32.824h46.543c.046,0,3.688.106,4.823,3.461a13.336,13.336,0,0,1,.675,4.264l0,.332v93.745c-.006.1-.387,6.235,3.273,6.86Zm-55.13-101.086V135.3c0,4.331,1.6,6.178,5.351,6.178h47.655c-2.345-2.1-2.06-6.651-2.043-6.886V41.369h-.007l0-.5a12.575,12.575,0,0,0-.622-4.275,4.325,4.325,0,0,0-3.907-2.8h-45.555v7.568Z" transform="translate(1497.81 -32.824)" fill="#fff"/>
    </g>
    <g id="Grupo_72941" data-name="Grupo 72941" transform="translate(-1551.164 32.824)">
      <path id="Trazado_144052" data-name="Trazado 144052" d="M-1461.831,104.305V41.145s-.467-6.635,3.68-7.342h-49.779c-4.413,0-5.84,2.512-5.84,6.667v63.835Z" transform="translate(1514.258 -33.315)" fill="#fff"/>
      <path id="Trazado_144053" data-name="Trazado 144053" d="M-1461.833,104.3h-52.916V39.979c0-4.882,2.011-7.155,6.328-7.155h49.779l.082.97c-3.667.625-3.278,6.763-3.274,6.825Zm-51.939-.977h50.962V40.654c-.016-.207-.3-4.756,2.044-6.853h-47.654c-3.751,0-5.351,1.848-5.351,6.178Z" transform="translate(1514.749 -32.824)" fill="#fff"/>
    </g>
    <g id="Grupo_72942" data-name="Grupo 72942" transform="translate(-1550.29 98.78)">
      <path id="Trazado_144054" data-name="Trazado 144054" d="M-1461.4,166.062a15.489,15.489,0,0,1-.207,8.2,4.853,4.853,0,0,1-4.359,3.129h-46.054V166.062Z" transform="translate(1512.506 -165.573)" fill="#fff"/>
      <path id="Trazado_144055" data-name="Trazado 144055" d="M-1466.45,177.391H-1513V165.082h51.505l.082.388a15.818,15.818,0,0,1-.222,8.46c-1.134,3.354-4.777,3.46-4.813,3.461Zm-45.57-.977h45.559a4.323,4.323,0,0,0,3.9-2.8,14.6,14.6,0,0,0,.27-7.558h-49.732Z" transform="translate(1512.997 -165.082)" fill="#fff"/>
    </g>
    <g id="Grupo_72965" data-name="Grupo 72965" transform="translate(-1546.195 51.48)">
      <g id="Grupo_72953" data-name="Grupo 72953">
        <g id="Grupo_72947" data-name="Grupo 72947">
          <g id="Grupo_72944" data-name="Grupo 72944">
            <g id="Grupo_72943" data-name="Grupo 72943">
              <rect id="Rectángulo_32472" data-name="Rectángulo 32472" width="18.526" height="1.403" transform="translate(0.733 0.733)" fill="#bcbec0"/>
              <rect id="Rectángulo_32473" data-name="Rectángulo 32473" width="19.992" height="2.869" fill="#bcbec0"/>
            </g>
          </g>
          <g id="Grupo_72946" data-name="Grupo 72946" transform="translate(22.964)">
            <g id="Grupo_72945" data-name="Grupo 72945">
              <rect id="Rectángulo_32474" data-name="Rectángulo 32474" width="18.527" height="1.403" transform="translate(0.733 0.733)" fill="#bcbec0"/>
              <rect id="Rectángulo_32475" data-name="Rectángulo 32475" width="19.993" height="2.869" fill="#bcbec0"/>
            </g>
          </g>
        </g>
        <g id="Grupo_72952" data-name="Grupo 72952" transform="translate(0 5.212)">
          <g id="Grupo_72949" data-name="Grupo 72949">
            <g id="Grupo_72948" data-name="Grupo 72948">
              <rect id="Rectángulo_32476" data-name="Rectángulo 32476" width="18.526" height="1.402" transform="translate(0.733 0.733)" fill="#bcbec0"/>
              <rect id="Rectángulo_32477" data-name="Rectángulo 32477" width="19.992" height="2.868" fill="#bcbec0"/>
            </g>
          </g>
          <g id="Grupo_72951" data-name="Grupo 72951" transform="translate(22.964)">
            <g id="Grupo_72950" data-name="Grupo 72950">
              <rect id="Rectángulo_32478" data-name="Rectángulo 32478" width="18.527" height="1.402" transform="translate(0.733 0.733)" fill="#bcbec0"/>
              <rect id="Rectángulo_32479" data-name="Rectángulo 32479" width="19.993" height="2.868" fill="#bcbec0"/>
            </g>
          </g>
        </g>
      </g>
      <g id="Grupo_72964" data-name="Grupo 72964" transform="translate(0 12.056)">
        <g id="Grupo_72958" data-name="Grupo 72958">
          <g id="Grupo_72955" data-name="Grupo 72955">
            <g id="Grupo_72954" data-name="Grupo 72954">
              <rect id="Rectángulo_32480" data-name="Rectángulo 32480" width="18.526" height="1.402" transform="translate(0.733 0.733)" fill="#bcbec0"/>
              <rect id="Rectángulo_32481" data-name="Rectángulo 32481" width="19.992" height="2.868" fill="#bcbec0"/>
            </g>
          </g>
          <g id="Grupo_72957" data-name="Grupo 72957" transform="translate(22.964)">
            <g id="Grupo_72956" data-name="Grupo 72956">
              <rect id="Rectángulo_32482" data-name="Rectángulo 32482" width="18.527" height="1.402" transform="translate(0.733 0.733)" fill="#bcbec0"/>
              <rect id="Rectángulo_32483" data-name="Rectángulo 32483" width="19.993" height="2.868" fill="#bcbec0"/>
            </g>
          </g>
        </g>
        <g id="Grupo_72963" data-name="Grupo 72963" transform="translate(0 5.212)">
          <g id="Grupo_72960" data-name="Grupo 72960">
            <g id="Grupo_72959" data-name="Grupo 72959">
              <rect id="Rectángulo_32484" data-name="Rectángulo 32484" width="18.526" height="1.403" transform="translate(0.733 0.733)" fill="#bcbec0"/>
              <rect id="Rectángulo_32485" data-name="Rectángulo 32485" width="19.992" height="2.869" fill="#bcbec0"/>
            </g>
          </g>
          <g id="Grupo_72962" data-name="Grupo 72962" transform="translate(22.964)">
            <g id="Grupo_72961" data-name="Grupo 72961">
              <rect id="Rectángulo_32486" data-name="Rectángulo 32486" width="18.527" height="1.403" transform="translate(0.733 0.733)" fill="#bcbec0"/>
              <rect id="Rectángulo_32487" data-name="Rectángulo 32487" width="19.993" height="2.869" fill="#bcbec0"/>
            </g>
          </g>
        </g>
      </g>
    </g>
    <g id="Grupo_72988" data-name="Grupo 72988" transform="translate(-1546.195 77.219)">
      <g id="Grupo_72976" data-name="Grupo 72976">
        <g id="Grupo_72970" data-name="Grupo 72970">
          <g id="Grupo_72967" data-name="Grupo 72967">
            <g id="Grupo_72966" data-name="Grupo 72966">
              <rect id="Rectángulo_32488" data-name="Rectángulo 32488" width="18.526" height="1.403" transform="translate(0.733 0.733)" fill="#bcbec0"/>
              <rect id="Rectángulo_32489" data-name="Rectángulo 32489" width="19.992" height="2.869" fill="#bcbec0"/>
            </g>
          </g>
          <g id="Grupo_72969" data-name="Grupo 72969" transform="translate(22.964)">
            <g id="Grupo_72968" data-name="Grupo 72968">
              <rect id="Rectángulo_32490" data-name="Rectángulo 32490" width="18.527" height="1.403" transform="translate(0.733 0.733)" fill="#bcbec0"/>
              <rect id="Rectángulo_32491" data-name="Rectángulo 32491" width="19.993" height="2.869" fill="#bcbec0"/>
            </g>
          </g>
        </g>
        <g id="Grupo_72975" data-name="Grupo 72975" transform="translate(0 5.212)">
          <g id="Grupo_72972" data-name="Grupo 72972">
            <g id="Grupo_72971" data-name="Grupo 72971">
              <rect id="Rectángulo_32492" data-name="Rectángulo 32492" width="18.526" height="1.402" transform="translate(0.733 0.733)" fill="#bcbec0"/>
              <rect id="Rectángulo_32493" data-name="Rectángulo 32493" width="19.992" height="2.868" fill="#bcbec0"/>
            </g>
          </g>
          <g id="Grupo_72974" data-name="Grupo 72974" transform="translate(22.964)">
            <g id="Grupo_72973" data-name="Grupo 72973">
              <rect id="Rectángulo_32494" data-name="Rectángulo 32494" width="18.527" height="1.402" transform="translate(0.733 0.733)" fill="#bcbec0"/>
              <rect id="Rectángulo_32495" data-name="Rectángulo 32495" width="19.993" height="2.868" fill="#bcbec0"/>
            </g>
          </g>
        </g>
      </g>
      <g id="Grupo_72987" data-name="Grupo 72987" transform="translate(0 12.056)">
        <g id="Grupo_72981" data-name="Grupo 72981">
          <g id="Grupo_72978" data-name="Grupo 72978">
            <g id="Grupo_72977" data-name="Grupo 72977">
              <rect id="Rectángulo_32496" data-name="Rectángulo 32496" width="18.526" height="1.402" transform="translate(0.733 0.733)" fill="#bcbec0"/>
              <rect id="Rectángulo_32497" data-name="Rectángulo 32497" width="19.992" height="2.868" fill="#bcbec0"/>
            </g>
          </g>
          <g id="Grupo_72980" data-name="Grupo 72980" transform="translate(22.964)">
            <g id="Grupo_72979" data-name="Grupo 72979">
              <rect id="Rectángulo_32498" data-name="Rectángulo 32498" width="18.527" height="1.402" transform="translate(0.733 0.733)" fill="#bcbec0"/>
              <rect id="Rectángulo_32499" data-name="Rectángulo 32499" width="19.993" height="2.868" fill="#bcbec0"/>
            </g>
          </g>
        </g>
        <g id="Grupo_72986" data-name="Grupo 72986" transform="translate(0 5.212)">
          <g id="Grupo_72983" data-name="Grupo 72983">
            <g id="Grupo_72982" data-name="Grupo 72982">
              <rect id="Rectángulo_32500" data-name="Rectángulo 32500" width="18.526" height="1.403" transform="translate(0.733 0.733)" fill="#bcbec0"/>
              <rect id="Rectángulo_32501" data-name="Rectángulo 32501" width="19.992" height="2.869" fill="#bcbec0"/>
            </g>
          </g>
          <g id="Grupo_72985" data-name="Grupo 72985" transform="translate(22.964)">
            <g id="Grupo_72984" data-name="Grupo 72984">
              <rect id="Rectángulo_32502" data-name="Rectángulo 32502" width="18.527" height="1.403" transform="translate(0.733 0.733)" fill="#bcbec0"/>
              <rect id="Rectángulo_32503" data-name="Rectángulo 32503" width="19.993" height="2.869" fill="#bcbec0"/>
            </g>
          </g>
        </g>
      </g>
    </g>
    <g id="Grupo_72989" data-name="Grupo 72989" transform="translate(-1559.61 70.155)">
      <path id="Trazado_144056" data-name="Trazado 144056" d="M-1478.767,141.277V116.286c0-.219.005-.438,0-.656v-.122h-.005a12.776,12.776,0,0,0-.641-3.716,4.852,4.852,0,0,0-4.36-3.129h-46.054v6.845h-.879v26.444c0,4.155,1.426,6.666,5.84,6.666h49.779C-1479.234,147.911-1478.767,141.277-1478.767,141.277Z" transform="translate(1531.195 -108.174)" fill="#ffd11d"/>
      <path id="Trazado_144057" data-name="Trazado 144057" d="M-1475.578,148.616h-49.779c-4.317,0-6.328-2.274-6.328-7.155V114.528h.879v-6.845h46.543c.046,0,3.688.106,4.822,3.461a12.9,12.9,0,0,1,.645,3.384h.022l.005.611c.005.213,0,.439,0,.665v24.982c-.005.1-.387,6.235,3.273,6.859Zm-55.13-33.11v25.955c0,4.33,1.6,6.178,5.351,6.178h47.655c-2.344-2.1-2.06-6.652-2.043-6.887V115.8c0-.219.005-.429,0-.64l-.005-.123a12.184,12.184,0,0,0-.615-3.575,4.324,4.324,0,0,0-3.907-2.8h-45.555v6.845Z" transform="translate(1531.686 -107.683)" fill="#fff"/>
    </g>
    <g id="Grupo_72990" data-name="Grupo 72990" transform="translate(-1568.05 70.155)">
      <path id="Trazado_144058" data-name="Trazado 144058" d="M-1495.693,198.2V116s-.467-6.634,3.68-7.341h-49.779c-4.414,0-5.84,2.511-5.84,6.666V198.2Z" transform="translate(1548.12 -108.174)" fill="#fff"/>
      <path id="Trazado_144059" data-name="Trazado 144059" d="M-1495.7,198.2h-52.916V114.838c0-4.882,2.01-7.155,6.328-7.155h49.779l.082.97c-3.667.625-3.279,6.763-3.275,6.825Zm-51.938-.977h50.961V115.513c-.015-.207-.3-4.756,2.044-6.852h-47.654c-3.751,0-5.351,1.848-5.351,6.178Z" transform="translate(1548.611 -107.683)" fill="#fff"/>
    </g>
    <g id="Grupo_73013" data-name="Grupo 73013" transform="translate(-1563.005 80.922)">
      <g id="Grupo_73001" data-name="Grupo 73001">
        <g id="Grupo_72995" data-name="Grupo 72995">
          <g id="Grupo_72992" data-name="Grupo 72992">
            <g id="Grupo_72991" data-name="Grupo 72991">
              <rect id="Rectángulo_32504" data-name="Rectángulo 32504" width="18.526" height="1.403" transform="translate(0.733 0.733)" fill="#bcbec0"/>
              <rect id="Rectángulo_32505" data-name="Rectángulo 32505" width="19.992" height="2.869" fill="#bcbec0"/>
            </g>
          </g>
          <g id="Grupo_72994" data-name="Grupo 72994" transform="translate(22.965)">
            <g id="Grupo_72993" data-name="Grupo 72993">
              <rect id="Rectángulo_32506" data-name="Rectángulo 32506" width="18.527" height="1.403" transform="translate(0.733 0.733)" fill="#bcbec0"/>
              <rect id="Rectángulo_32507" data-name="Rectángulo 32507" width="19.993" height="2.869" fill="#bcbec0"/>
            </g>
          </g>
        </g>
        <g id="Grupo_73000" data-name="Grupo 73000" transform="translate(0 5.212)">
          <g id="Grupo_72997" data-name="Grupo 72997">
            <g id="Grupo_72996" data-name="Grupo 72996">
              <rect id="Rectángulo_32508" data-name="Rectángulo 32508" width="18.526" height="1.402" transform="translate(0.733 0.733)" fill="#bcbec0"/>
              <rect id="Rectángulo_32509" data-name="Rectángulo 32509" width="19.992" height="2.867" fill="#bcbec0"/>
            </g>
          </g>
          <g id="Grupo_72999" data-name="Grupo 72999" transform="translate(22.965)">
            <g id="Grupo_72998" data-name="Grupo 72998">
              <rect id="Rectángulo_32510" data-name="Rectángulo 32510" width="18.527" height="1.402" transform="translate(0.733 0.733)" fill="#bcbec0"/>
              <rect id="Rectángulo_32511" data-name="Rectángulo 32511" width="19.993" height="2.867" fill="#bcbec0"/>
            </g>
          </g>
        </g>
      </g>
      <g id="Grupo_73012" data-name="Grupo 73012" transform="translate(0 12.057)">
        <g id="Grupo_73006" data-name="Grupo 73006">
          <g id="Grupo_73003" data-name="Grupo 73003">
            <g id="Grupo_73002" data-name="Grupo 73002">
              <rect id="Rectángulo_32512" data-name="Rectángulo 32512" width="18.526" height="1.402" transform="translate(0.733 0.733)" fill="#bcbec0"/>
              <rect id="Rectángulo_32513" data-name="Rectángulo 32513" width="19.992" height="2.868" fill="#bcbec0"/>
            </g>
          </g>
          <g id="Grupo_73005" data-name="Grupo 73005" transform="translate(22.965)">
            <g id="Grupo_73004" data-name="Grupo 73004">
              <rect id="Rectángulo_32514" data-name="Rectángulo 32514" width="18.527" height="1.402" transform="translate(0.733 0.733)" fill="#bcbec0"/>
              <rect id="Rectángulo_32515" data-name="Rectángulo 32515" width="19.993" height="2.868" fill="#bcbec0"/>
            </g>
          </g>
        </g>
        <g id="Grupo_73011" data-name="Grupo 73011" transform="translate(0 5.212)">
          <g id="Grupo_73008" data-name="Grupo 73008">
            <g id="Grupo_73007" data-name="Grupo 73007">
              <rect id="Rectángulo_32516" data-name="Rectángulo 32516" width="18.526" height="1.403" transform="translate(0.733 0.733)" fill="#bcbec0"/>
              <rect id="Rectángulo_32517" data-name="Rectángulo 32517" width="19.992" height="2.869" fill="#bcbec0"/>
            </g>
          </g>
          <g id="Grupo_73010" data-name="Grupo 73010" transform="translate(22.965)">
            <g id="Grupo_73009" data-name="Grupo 73009">
              <rect id="Rectángulo_32518" data-name="Rectángulo 32518" width="18.527" height="1.403" transform="translate(0.733 0.733)" fill="#bcbec0"/>
              <rect id="Rectángulo_32519" data-name="Rectángulo 32519" width="19.993" height="2.869" fill="#bcbec0"/>
            </g>
          </g>
        </g>
      </g>
    </g>
    <g id="Grupo_73019" data-name="Grupo 73019" transform="translate(-1477.427 97.243)">
      <g id="Grupo_73017" data-name="Grupo 73017" transform="translate(0)">
        <g id="Grupo_73016" data-name="Grupo 73016">
          <g id="Grupo_73015" data-name="Grupo 73015">
            <g id="Grupo_73014" data-name="Grupo 73014">
              <path id="Trazado_144060" data-name="Trazado 144060" d="M-1364.86,174.883A10.869,10.869,0,0,0-1354,185.741a10.87,10.87,0,0,0,10.858-10.858A10.87,10.87,0,0,0-1354,164.025,10.87,10.87,0,0,0-1364.86,174.883Z" transform="translate(1365.871 -163.015)" fill="#fff"/>
              <path id="Trazado_144061" data-name="Trazado 144061" d="M-1355.021,185.736a11.88,11.88,0,0,1-11.866-11.867A11.88,11.88,0,0,1-1355.021,162a11.881,11.881,0,0,1,11.869,11.868A11.881,11.881,0,0,1-1355.021,185.736Z" transform="translate(1366.887 -162)" fill="#ffe760"/>
            </g>
            <path id="Trazado_144062" data-name="Trazado 144062" d="M-1342.987,177.724a7.843,7.843,0,0,1-7.844,7.842,7.843,7.843,0,0,1-7.841-7.842,7.843,7.843,0,0,1,7.841-7.843A7.844,7.844,0,0,1-1342.987,177.724Z" transform="translate(1362.769 -165.951)" fill="#ffcc27"/>
          </g>
        </g>
      </g>
      <g id="Grupo_73018" data-name="Grupo 73018" transform="translate(8.102 7.741)">
        <rect id="Rectángulo_32520" data-name="Rectángulo 32520" width="3.607" height="0.917" transform="translate(0 3.073)" fill="#fff"/>
        <rect id="Rectángulo_32521" data-name="Rectángulo 32521" width="3.607" height="0.917" transform="translate(0 4.478)" fill="#fff"/>
        <path id="Trazado_144063" data-name="Trazado 144063" d="M-1342.352,179.2v-.317a1.433,1.433,0,0,0-.328-.952,1.011,1.011,0,0,0-.815-.408h-4.49a1.01,1.01,0,0,0-.815.407,1.433,1.433,0,0,0-.329.953v1.693h0V184.1h0v.315a1.808,1.808,0,0,0,.021.27,1.39,1.39,0,0,0,.309.685,1.012,1.012,0,0,0,.787.4c.009,0,.018,0,.028,0h4.49a1.015,1.015,0,0,0,.815-.408,1.437,1.437,0,0,0,.328-.954v-.29h-.8v.29c0,.255-.148.445-.345.445h-4.489a.319.319,0,0,1-.271-.164c-.006-.009-.012-.018-.018-.028s-.006-.015-.01-.023-.015-.034-.021-.053-.006-.026-.009-.04-.008-.029-.01-.044a.547.547,0,0,1-.007-.092v-4.3h0v-1.237c0-.252.15-.443.346-.443h4.49c.2,0,.345.191.345.443v.317Z" transform="translate(1349.882 -177.523)" fill="#fff"/>
      </g>
    </g>
    <g id="Grupo_73025" data-name="Grupo 73025" transform="translate(-1510.301 144.646)">
      <g id="Grupo_73024" data-name="Grupo 73024">
        <rect id="Rectángulo_32522" data-name="Rectángulo 32522" width="49.581" height="33.002" fill="#6595bf"/>
        <g id="Grupo_73020" data-name="Grupo 73020" transform="translate(0 1.631)">
          <rect id="Rectángulo_32523" data-name="Rectángulo 32523" width="47.781" height="29.738" fill="#fff"/>
        </g>
        <g id="Grupo_73021" data-name="Grupo 73021" transform="translate(0 2.918)">
          <path id="Trazado_144064" data-name="Trazado 144064" d="M-1394.47,262.957c0-.017,0-.033,0-.048h-38.342V263c0,.031,0,.061,0,.095s0,.055,0,.084v26.845c0,.016,0,.032,0,.049h38.484a8.04,8.04,0,0,1,7.753-7.8V270.922A8.042,8.042,0,0,1-1394.47,262.957Z" transform="translate(1432.809 -262.909)" fill="#6595bf"/>
        </g>
        <g id="Grupo_73023" data-name="Grupo 73023" transform="translate(9.406 6.806)">
          <g id="Grupo_73022" data-name="Grupo 73022">
            <path id="Trazado_144065" data-name="Trazado 144065" d="M-1394.559,280.4a9.7,9.7,0,0,0-9.693-9.694,9.707,9.707,0,0,0-9.7,9.694,9.709,9.709,0,0,0,9.7,9.7A9.706,9.706,0,0,0-1394.559,280.4Z" transform="translate(1413.948 -270.705)" fill="#fff"/>
            <path id="Trazado_144066" data-name="Trazado 144066" d="M-1412.211,281.488a8.769,8.769,0,0,1,8.769-8.767,8.769,8.769,0,0,1,8.768,8.767,8.771,8.771,0,0,1-8.768,8.771A8.771,8.771,0,0,1-1412.211,281.488Z" transform="translate(1413.077 -271.716)" fill="#fff"/>
          </g>
        </g>
      </g>
      <rect id="Rectángulo_32524" data-name="Rectángulo 32524" width="4.446" height="1.245" transform="translate(31.505 15.877)" fill="#fff"/>
      <rect id="Rectángulo_32525" data-name="Rectángulo 32525" width="4.444" height="1.245" transform="translate(37.554 15.877)" fill="#fff"/>
      <rect id="Rectángulo_32526" data-name="Rectángulo 32526" width="4.447" height="1.245" transform="translate(2.866 15.877)" fill="#fff"/>
    </g>
    <g id="Grupo_73030" data-name="Grupo 73030" transform="translate(-1453.949 136.63)">
      <g id="Grupo_73029" data-name="Grupo 73029">
        <g id="Grupo_73028" data-name="Grupo 73028">
          <g id="Grupo_73027" data-name="Grupo 73027">
            <g id="Grupo_73026" data-name="Grupo 73026">
              <path id="Trazado_144067" data-name="Trazado 144067" d="M-1308.272,240.981a11.55,11.55,0,0,0-11.536,11.538,11.55,11.55,0,0,0,11.536,11.537,11.551,11.551,0,0,0,11.538-11.537A11.551,11.551,0,0,0-1308.272,240.981Z" transform="translate(1319.808 -240.981)" fill="#ffe760"/>
            </g>
            <path id="Trazado_144068" data-name="Trazado 144068" d="M-1296.562,255.3a8.565,8.565,0,0,1-8.565,8.564,8.565,8.565,0,0,1-8.563-8.564,8.565,8.565,0,0,1,8.563-8.563A8.565,8.565,0,0,1-1296.562,255.3Z" transform="translate(1316.741 -243.867)" fill="#ffcc27"/>
          </g>
        </g>
      </g>
      <path id="Trazado_144069" data-name="Trazado 144069" d="M-1296.693,255.505v-.346a1.561,1.561,0,0,0-.359-1.04,1.1,1.1,0,0,0-.889-.446h-2.016v-1.4h-.872v1.4h-2.015a1.106,1.106,0,0,0-.891.445,1.571,1.571,0,0,0-.359,1.041v2.027a1.568,1.568,0,0,0,.359,1.041,1.106,1.106,0,0,0,.891.446h4.9c.214,0,.377.209.377.486v2.04c0,.277-.162.485-.377.485h-4.9c-.215,0-.379-.208-.379-.485v-.345h-.871v.345a1.575,1.575,0,0,0,.359,1.042,1.108,1.108,0,0,0,.891.445h2.015v1.4h.872v-1.4h2.016a1.108,1.108,0,0,0,.889-.445,1.569,1.569,0,0,0,.359-1.042v-2.04a1.569,1.569,0,0,0-.359-1.042,1.1,1.1,0,0,0-.889-.445h-4.9c-.215,0-.379-.208-.379-.486v-2.027c0-.276.164-.485.379-.485h4.9c.214,0,.377.209.377.485v.346Z" transform="translate(1311.93 -246.642)" fill="#fff"/>
    </g>
    <g id="Grupo_73037" data-name="Grupo 73037" transform="translate(-1573.965 86.974)">
      <rect id="Rectángulo_32527" data-name="Rectángulo 32527" width="64.41" height="93.534" transform="translate(0 0)" fill="#1b384c"/>
      <g id="Grupo_73036" data-name="Grupo 73036" transform="translate(4.603 5.26)">
        <g id="Grupo_73035" data-name="Grupo 73035" transform="translate(0.838 20.87)">
          <g id="Grupo_73031" data-name="Grupo 73031" transform="translate(0 5.87)">
            <rect id="Rectángulo_32528" data-name="Rectángulo 32528" width="8.706" height="8.708" fill="#bcbec0"/>
            <rect id="Rectángulo_32529" data-name="Rectángulo 32529" width="8.706" height="8.711" transform="translate(0 15.545)" fill="#fff"/>
            <rect id="Rectángulo_32530" data-name="Rectángulo 32530" width="8.706" height="8.711" transform="translate(0 31.091)" fill="#fff"/>
            <rect id="Rectángulo_32531" data-name="Rectángulo 32531" width="8.706" height="8.711" transform="translate(0 46.637)" fill="#fff"/>
          </g>
          <g id="Grupo_73032" data-name="Grupo 73032" transform="translate(14.941 5.87)">
            <rect id="Rectángulo_32532" data-name="Rectángulo 32532" width="8.707" height="8.708" fill="#bcbec0"/>
            <rect id="Rectángulo_32533" data-name="Rectángulo 32533" width="8.707" height="8.711" transform="translate(0 15.545)" fill="#fff"/>
            <rect id="Rectángulo_32534" data-name="Rectángulo 32534" width="8.707" height="8.711" transform="translate(0 31.091)" fill="#fff"/>
            <rect id="Rectángulo_32535" data-name="Rectángulo 32535" width="8.707" height="8.711" transform="translate(0 46.637)" fill="#fff"/>
          </g>
          <g id="Grupo_73033" data-name="Grupo 73033">
            <rect id="Rectángulo_32536" data-name="Rectángulo 32536" width="8.71" height="8.708" transform="translate(29.881 5.87)" fill="#bcbec0"/>
            <rect id="Rectángulo_32537" data-name="Rectángulo 32537" width="8.706" height="1.192" fill="#fff"/>
            <rect id="Rectángulo_32538" data-name="Rectángulo 32538" width="8.707" height="1.192" transform="translate(14.941)" fill="#fff"/>
            <rect id="Rectángulo_32539" data-name="Rectángulo 32539" width="8.71" height="1.192" transform="translate(29.881)" fill="#fff"/>
            <rect id="Rectángulo_32540" data-name="Rectángulo 32540" width="8.71" height="8.711" transform="translate(29.881 21.415)" fill="#fff"/>
            <rect id="Rectángulo_32541" data-name="Rectángulo 32541" width="8.71" height="8.711" transform="translate(29.881 36.961)" fill="#fff"/>
            <rect id="Rectángulo_32542" data-name="Rectángulo 32542" width="8.71" height="8.711" transform="translate(29.881 52.507)" fill="#fff"/>
          </g>
          <g id="Grupo_73034" data-name="Grupo 73034" transform="translate(44.823 5.87)">
            <rect id="Rectángulo_32543" data-name="Rectángulo 32543" width="8.71" height="8.708" fill="#bcbec0"/>
            <rect id="Rectángulo_32544" data-name="Rectángulo 32544" width="8.71" height="8.711" transform="translate(0 15.545)" fill="#bcbec0"/>
            <rect id="Rectángulo_32545" data-name="Rectángulo 32545" width="8.71" height="24.257" transform="translate(0 31.091)" fill="#bcbec0"/>
          </g>
        </g>
        <rect id="Rectángulo_32546" data-name="Rectángulo 32546" width="55.203" height="16.2" fill="#fff"/>
      </g>
      <path id="Trazado_144070" data-name="Trazado 144070" d="M-1451.273,193.519a1.476,1.476,0,0,1-1.476,1.477,1.477,1.477,0,0,1-1.479-1.477,1.477,1.477,0,0,1,1.479-1.474A1.476,1.476,0,0,1-1451.273,193.519Z" transform="translate(1507.211 -166.794)" fill="#fff"/>
    </g>
    <g id="Grupo_73038" data-name="Grupo 73038" transform="translate(-1587.388 98.514)">
      <path id="Trazado_144071" data-name="Trazado 144071" d="M-1580.385,315.5a.23.23,0,0,1,.236.219v3.42a.228.228,0,0,1-.236.218h-6.725a.228.228,0,0,1-.235-.218v-3.42a.23.23,0,0,1,.235-.219Z" transform="translate(1587.366 -240.221)" fill="#bcbec0"/>
      <path id="Trazado_144072" data-name="Trazado 144072" d="M-1587.345,313.234v1.235h7.2v-1.235a.228.228,0,0,0-.236-.218h-6.725A.228.228,0,0,0-1587.345,313.234Z" transform="translate(1587.366 -238.977)" fill="#fff"/>
      <path id="Trazado_144073" data-name="Trazado 144073" d="M-1587.347,193.261v53.876h7.2V181.383h-7.2Z" transform="translate(1587.367 -172.988)" fill="#ffd11d"/>
      <path id="Trazado_144074" data-name="Trazado 144074" d="M-1582.068,193.261v53.876h1.931V181.383h-1.931Z" transform="translate(1584.721 -172.988)" fill="#1b384c"/>
      <path id="Trazado_144075" data-name="Trazado 144075" d="M-1580.152,172.975l-3.616,1.843-3.62-1.842,3.62-8.427Z" transform="translate(1587.388 -164.549)" fill="#fff"/>
      <path id="Trazado_144076" data-name="Trazado 144076" d="M-1583.159,168.064h3.019l-1.507-3.515Z" transform="translate(1585.268 -164.549)" fill="#1b384c"/>
    </g>
  </g>
</svg>
