<svg xmlns="http://www.w3.org/2000/svg" width="651.363" height="672" viewBox="0 0 651.363 672">
  <g id="Grupo_72623" data-name="Grupo 72623" transform="translate(0)">
    <g id="Grupo_70229" data-name="Grupo 70229" transform="translate(0 0)">
      <rect id="Rectángulo_31121" data-name="Rectángulo 31121" width="651.363" height="672" fill="none"/>
    </g>
    <g id="freepik--background-complete--inject-46" transform="translate(188.145 88.511)">
      <path id="Trazado_117267" data-name="Trazado 117267" d="M13612.612,6295c2.1-1.805,6.787-7.516,3.173-14.153-1.328-2.443-4.143-3.652-6.64-4.714a27.28,27.28,0,0,1-7.343-3.812c-3.982-3.371-5.072-9-7.713-13.516-3.029-5.178-8.684-9.055-14.605-8.79-6.839.319-12.549,5.909-15.138,12.283s-2.655,13.45-2.735,20.327c0,3.812.146,8.1,2.935,10.623,2.577,2.376,6.454,2.4,9.945,2.3l37.4-1.156" transform="translate(-13455.402 -5725.12)" fill="#a66d58"/>
      <path id="Trazado_117268" data-name="Trazado 117268" d="M13544.819,6206.43h98.363l-17.727,105.65a11.775,11.775,0,0,1-8.39,9.4l-.348.092c-.292.08-.57.172-.875.226a12.607,12.607,0,0,1-1.994.24l0,.092-.479-.079h-43.815a12.107,12.107,0,0,1-2.4-.24,11.818,11.818,0,0,1-9.946-10.315l-8.551-72.789-.384-2.9h0l-3.387-28.84Zm18.59,67.4h10.09l-1.02-30.672h-11.7Zm-3.6-30.672h-9.666l3.572,30.738h8.683Zm28.827,64.65.623-26.636h-14.606l.891,26.636Zm15.719-26.636h-14.126l-.609,26.636h12.665Zm-1.087,26.636h11.79c1.115-7.184,2.657-16.532,4.17-26.636h-13.941Zm1.633-33.912,2.378-30.672h-16.2l-.7,30.672Zm-15.507,0,.715-30.672h-16.675l1.009,30.672Zm.875-38.014.664-28.4h-18.722l.942,28.4Zm.982,0h16.6l2.218-28.4H13591.9Zm17.581,0h17.567c.624-3.983,1.222-7.635,1.753-10.98,1.832-11.473,2.523-15.8,2.894-17.421h-20.009Zm-.571,7.342-2.376,30.672h14.484c.49-3.12.982-6.268,1.474-9.414,1.144-7.237,2.285-14.473,3.361-21.245Zm13.078,30.672h9.494l5.14-30.672h-9.8c-1.556,9.429-3.149,19.957-4.875,30.673Zm-1.155,7.342c-1.445,9.214-2.867,18.31-4.169,26.636h9.175l4.463-26.636Zm-45.635,26.636-.89-26.636h-9.706l2.271,26.636Zm-2.391-71.993-.942-28.4h-13.57l2.431,28.4Zm59.751-28.4c-.386,2.058-2.179,13.278-4.582,28.4h9.946l4.766-28.4Zm-74.277,100.394h7.674l-2.282-26.635h-8.444Zm-8.445-71.993h9.893l-2.418-28.4h-10.806Z" transform="translate(-13459.179 -5739.4)" fill="#aed3f2"/>
      <rect id="Rectángulo_10379" data-name="Rectángulo 10379" width="51.252" height="98.176" transform="translate(0 180.932)" fill="#aed3f2"/>
      <rect id="Rectángulo_10381" data-name="Rectángulo 10381" width="51.252" height="88.47" transform="translate(0 280.861)" fill="#aed3f2"/>
      <path id="Trazado_117271" data-name="Trazado 117271" d="M13428.6,6043.6a5.231,5.231,0,0,0,6.387-3.624l11.724-43.817a4.315,4.315,0,0,0-3.214-5.178l-4.115-1.1a4.487,4.487,0,0,1-3.279-3.386l-.4-2.031a4.483,4.483,0,0,0-3.276-3.385l-19.534-5.219a4.514,4.514,0,0,0-4.236,1l-1.327,1.262a4.551,4.551,0,0,1-4.234.982l-24.884-6.638a4.3,4.3,0,0,0-5.31,2.881l-11.951,44.72a5.2,5.2,0,0,0,3.676,6.374Z" transform="translate(-13018.451 -5816.147)" fill="#aed3f2"/>
      <path id="Trazado_117272" data-name="Trazado 117272" d="M13404.327,5979.756l15.84,4.223,2.151-2.27a5.615,5.615,0,0,1,5.563-1.475l15.47,4.157a4.993,4.993,0,0,1,3.73,6l-.479,1.805-12.745,47.481a5.7,5.7,0,0,1-7.091,3.784h0l-62.87-16.89a5.681,5.681,0,0,1-4.248-6.812h0l12.055-44.825a3.748,3.748,0,0,1,4.58-2.656h0Z" transform="translate(-13017.146 -5816.192)" fill="#d9a171"/>
      <path id="Trazado_117273" data-name="Trazado 117273" d="M13629.575,5990.579a6.323,6.323,0,0,0,4.648-7.608l-12.854-53.2a5.217,5.217,0,0,0-6.413-3.64l-5,1.209a5.426,5.426,0,0,1-5.444-1.713l-1.606-1.911a5.387,5.387,0,0,0-5.432-1.7l-23.752,5.735a5.445,5.445,0,0,0-3.983,3.492l-.718,2.138a5.519,5.519,0,0,1-3.983,3.492l-30.271,7.316a5.215,5.215,0,0,0-3.983,6.161l13.145,54.439a6.293,6.293,0,0,0,7.581,4.647h0Z" transform="translate(-13431.603 -5832.685)" fill="#aed3f2"/>
      <path id="Trazado_117274" data-name="Trazado 117274" d="M13568.3,5937.06l19.252-4.7.944-3.639a6.819,6.819,0,0,1,5.07-4.819l18.829-4.608a6.042,6.042,0,0,1,7.435,4.222l.532,2.191,13.954,57.785a6.882,6.882,0,0,1-5.312,8.127l-76.479,18.469a6.88,6.88,0,0,1-8.446-4.793l-13.183-54.585a4.527,4.527,0,0,1,3.332-5.47h0Z" transform="translate(-13431.808 -5833.591)" fill="#d9a171"/>
      <path id="Trazado_117275" data-name="Trazado 117275" d="M13507.746,5942.389a7.092,7.092,0,0,0,7.807-6.254l6.639-61.078a5.858,5.858,0,0,0-5.39-6.294h0l-5.736-.637a6.053,6.053,0,0,1-5.1-3.865l-.957-2.654a6.084,6.084,0,0,0-5.1-3.866l-27.272-3a6.079,6.079,0,0,0-5.472,2.191l-1.58,1.978a6.165,6.165,0,0,1-5.472,2.2l-34.759-3.823a5.857,5.857,0,0,0-6.642,4.952h0l-6.864,62.406a7.039,7.039,0,0,0,6.229,7.794h0Z" transform="translate(-13161.592 -5854.694)" fill="#aed3f2"/>
      <path id="Trazado_117276" data-name="Trazado 117276" d="M13462.655,5860.889l22.056,2.377,2.376-3.466a7.648,7.648,0,0,1,7.2-3.174l21.671,2.377a6.8,6.8,0,0,1,6.255,7.291l-.279,2.522-7.291,66.39a7.713,7.713,0,0,1-8.684,6.479l-87.793-9.652a7.718,7.718,0,0,1-7.105-8.286h0l6.892-62.658a5.073,5.073,0,0,1,5.6-4.5h0Z" transform="translate(-13160.583 -5854.084)" fill="#f2e9e4"/>
      <path id="Trazado_117277" data-name="Trazado 117277" d="M13460.049,5893.474a8.593,8.593,0,0,1-4.21-8.444,8.06,8.06,0,0,1,16.119-.08,8.846,8.846,0,0,1-.186,1.765,8.578,8.578,0,0,1-5.961,7.4c12.082,3.2,10.064,16.5,10.064,16.5l-29.093-3.053S13447.567,5893.978,13460.049,5893.474Z" transform="translate(-13161.829 -5847.405)" fill="#aed3f2"/>
      <path id="Trazado_117278" data-name="Trazado 117278" d="M13394.733,5914.834a14.88,14.88,0,0,0-3.82-1.155l-1.171-3.519-6.105.611-.453,3.677a14.144,14.144,0,0,0-3.517,1.9l-3.323-1.66-3.876,4.74,2.273,2.922a14.6,14.6,0,0,0-1.159,3.824l-3.5,1.181.61,6.095,3.676.465a14.994,14.994,0,0,0,1.886,3.519l-1.659,3.373,4.74,3.89,2.922-2.283a16.026,16.026,0,0,0,3.837,1.154l1.169,3.52,6.146-.677.465-3.678a16.228,16.228,0,0,0,3.519-1.924l3.32,1.646,3.877-4.74-2.285-2.921a14.84,14.84,0,0,0,1.156-3.824l3.519-1.182-.61-6.095-3.677-.452a14.532,14.532,0,0,0-1.886-3.533l1.648-3.306-4.742-3.891Zm-2.281,8.484a6.639,6.639,0,1,1-9.295.984h0a6.638,6.638,0,0,1,9.321-.984Z" transform="translate(-12990.955 -5836.513)" fill="#6595bf"/>
      <path id="Trazado_117279" data-name="Trazado 117279" d="M13377.74,6110.837a4.969,4.969,0,0,1-1.593-.266,3.182,3.182,0,0,1-1.953-2.337c-.077-.438-.118-.929-.184-1.434-.518-4.116-1.25-10-2.165-17.261l-.729-5.71c-.119-1-.252-2-.386-3.04l-.2-1.553a7.48,7.48,0,0,1-.118-1.527,3.011,3.011,0,0,1,1.618-2.376,3.821,3.821,0,0,1,1.526-.387l1.7-.225,7.023-.9,31.3-4.076a2.969,2.969,0,0,1,3.053,1.673,3.846,3.846,0,0,1,.265.889l.134,1.021c.094.677.172,1.329.266,2.032.346,2.655.7,5.312,1.05,7.966.7,5.232,1.326,10.278,2,15.1.16,1.195.32,2.377.465,3.545a3,3,0,0,1-1.328,2.656,3.074,3.074,0,0,1-1.474.519l-1.659.225-3.267.438-11.95,1.607-17.261,2.377-4.673.676-1.21.2a1.13,1.13,0,0,0-.412.093h.412l1.223-.119,4.7-.558,17.262-2.15,11.949-1.527,3.268-.425,1.659-.212a3.638,3.638,0,0,0,3.307-3.891c-.146-1.182-.292-2.376-.451-3.585-.624-4.807-1.328-9.852-1.966-15.083q-.516-3.984-1.048-7.967c-.08-.678-.174-1.329-.266-2.032l-.134-1.022a3.737,3.737,0,0,0-.318-1.088,3.661,3.661,0,0,0-3.784-2.058l-31.281,4.129-7.024.943-1.7.226a4.483,4.483,0,0,0-1.713.452,3.6,3.6,0,0,0-1.928,2.841,7.014,7.014,0,0,0,.132,1.66,10.3,10.3,0,0,0,.213,1.566c.135,1.036.268,2.045.412,3.04.267,1.979.519,3.878.771,5.7l2.376,17.261c.078.5.118.969.212,1.434a3.391,3.391,0,0,0,2.139,2.43,2.883,2.883,0,0,0,1.22.187,2.292,2.292,0,0,0,.518-.067Z" transform="translate(-13004.898 -5784.447)" fill="#aed3f2"/>
      <path id="Trazado_117280" data-name="Trazado 117280" d="M13372.093,6101.577a4.714,4.714,0,0,0,.4-.5l1.021-1.527c.918-1.434,2.151-3.346,3.651-5.656l2.5-3.983.677-1.062a.972.972,0,0,1,.875-.425c.36,0,.6.24.973.558l1.062.916,2.191,1.872a4.823,4.823,0,0,0,.653.492,1.67,1.67,0,0,0,.914.172,1.479,1.479,0,0,0,.863-.371,2.673,2.673,0,0,0,.32-.345l.212-.32,3.479-5.311,1.767-2.656.862-1.328a.943.943,0,0,1,.983-.451.789.789,0,0,1,.49.251l.533.531,1.063,1.05,2.056,2.031,7.118,7.01,4.859,4.728,1.328,1.247a.318.318,0,0,0,.494.393.319.319,0,0,0-.389-.5l-1.326-1.328-4.688-4.833c-2.017-2.045-4.4-4.449-7.011-7.117l-2.043-2.045-1.05-1.061-.546-.531a1.459,1.459,0,0,0-.833-.438,1.6,1.6,0,0,0-1.673.745l-.866,1.327-1.766,2.655-3.479,5.311a1.091,1.091,0,0,1-1.33.7,1.109,1.109,0,0,1-.6-.464l-2.2-1.859-1.075-.889a3.622,3.622,0,0,0-.558-.452,1.419,1.419,0,0,0-.782-.252,1.542,1.542,0,0,0-1.328.7c-.237.372-.463.729-.677,1.088l-2.43,3.983-3.467,5.776-.916,1.594C13372.225,6101.365,13372.093,6101.565,13372.093,6101.577Z" transform="translate(-13000.181 -5780.512)" fill="#aed3f2"/>
      <path id="Trazado_117281" data-name="Trazado 117281" d="M13390.281,6081.18a4.516,4.516,0,0,1,.131-.956,3.855,3.855,0,0,1,1.18-2.179,3.691,3.691,0,0,1,3.375-.9,3.624,3.624,0,0,1,2.721,4.34,3.667,3.667,0,0,1-1.832,2.388,3.713,3.713,0,0,1-3.506,0,3.968,3.968,0,0,1-1.7-1.792c-.254-.558-.307-.9-.373-.889a1.769,1.769,0,0,0,.133.983,3.87,3.87,0,0,0,1.7,2.124,4.23,4.23,0,1,0,2.934-7.806,4.122,4.122,0,0,0-3.85,1.183,3.835,3.835,0,0,0-1.047,2.535,1.745,1.745,0,0,0,.133.97Z" transform="translate(-13009.071 -5782.021)" fill="#aed3f2"/>
    </g>
    <g id="freepik--filing-cabinet--inject-46" transform="translate(286.921 200.053)">
      <rect id="Rectángulo_10387" data-name="Rectángulo 10387" width="201.797" height="471.589" transform="translate(75.19)" fill="#5e6178"/>
      <g id="Grupo_59925" data-name="Grupo 59925" transform="translate(221.817)" opacity="0.3">
        <rect id="Rectángulo_10388" data-name="Rectángulo 10388" width="55.169" height="471.589" fill="#344154"/>
      </g>
      <path id="Trazado_117302" data-name="Trazado 117302" d="M13448.135,6056.418v-25.547c0-16.278.093-39.621.146-68l-.278.278,131.636.066h0l-.344-.345v93.556l.306-.319-94.9.159-27.06.081h-.132l26.98.093,95.109.159h.318V5962.53h-132.272v.279c.065,28.441.12,51.783.146,68.181,0,8.113,0,14.46.08,18.8v4.913a3.96,3.96,0,0,0,.259,1.713Z" transform="translate(-13365.671 -5930.889)" fill="#344154"/>
      <g id="Grupo_59926" data-name="Grupo 59926" transform="translate(120.229 89.519)" opacity="0.3">
        <rect id="Rectángulo_10389" data-name="Rectángulo 10389" width="53.589" height="9.069" fill="#344154"/>
      </g>
      <g id="Grupo_59927" data-name="Grupo 59927" transform="translate(100.883 132.606)" opacity="0.4">
        <rect id="Rectángulo_10390" data-name="Rectángulo 10390" width="114.76" height="89.161" fill="#344154"/>
      </g>
      <path id="Trazado_117303" data-name="Trazado 117303" d="M13457.75,6042.254h21.869l1.327-2.19a4.765,4.765,0,0,1,4.13-2.364h16.053a4.793,4.793,0,0,1,4.794,4.555h5.722a4.489,4.489,0,0,1,4.488,4.488h0v11.126h-62.8v-11.126a4.473,4.473,0,0,1,4.422-4.488Z" transform="translate(-13309.425 -5906.249)" fill="#aed3f2"/>
      <path id="Trazado_117304" data-name="Trazado 117304" d="M13466.476,6042.254h21.8l1.327-2.19a4.734,4.734,0,0,1,4.131-2.365h16.052a4.769,4.769,0,0,1,4.78,4.555h5.736a4.476,4.476,0,0,1,4.476,4.488v11.126h-62.79v-11.126a4.488,4.488,0,0,1,4.488-4.488Z" transform="translate(-13329.57 -5906.249)" fill="#aed3f2"/>
      <path id="Trazado_117305" data-name="Trazado 117305" d="M13477.756,6042.254h21.816l1.326-2.19a4.793,4.793,0,0,1,4.141-2.364h16.043a4.768,4.768,0,0,1,4.781,4.555h5.721a4.487,4.487,0,0,1,4.488,4.488h0v11.126h-62.791v-11.126a4.475,4.475,0,0,1,4.477-4.489Z" transform="translate(-13355.854 -5906.249)" fill="#aed3f2"/>
      <path id="Trazado_117306" data-name="Trazado 117306" d="M13562.205,6100.861v-53.47a4.619,4.619,0,0,0-4.817-4.407h-4.608a4.863,4.863,0,0,1-4.367-2.576l-1-1.964a4.85,4.85,0,0,0-4.37-2.563h-21.868a4.872,4.872,0,0,0-4.156,2.178l-1.074,1.659a4.968,4.968,0,0,1-4.143,2.178h-27.884a4.609,4.609,0,0,0-4.819,4.408v54.558Z" transform="translate(-13389.714 -5906.845)" fill="#d9a171"/>
      <g id="Grupo_59928" data-name="Grupo 59928" transform="translate(89.387 129.034)" opacity="0.3">
        <path id="Trazado_117307" data-name="Trazado 117307" d="M13562.205,6100.861v-53.47a4.619,4.619,0,0,0-4.817-4.407h-4.608a4.863,4.863,0,0,1-4.367-2.576l-1-1.964a4.85,4.85,0,0,0-4.37-2.563h-21.868a4.872,4.872,0,0,0-4.156,2.178l-1.074,1.659a4.968,4.968,0,0,1-4.143,2.178h-27.884a4.609,4.609,0,0,0-4.819,4.408v54.558Z" transform="translate(-13479.101 -6035.878)" fill="#344154"/>
      </g>
      <path id="Trazado_117308" data-name="Trazado 117308" d="M13572.065,6063.974v-42.2a6.292,6.292,0,0,0-6.281-6.308h-67.278a6.293,6.293,0,0,0-6.307,6.307h0v41.028Z" transform="translate(-13416.97 -5913.536)" fill="#ffbf9d"/>
      <path id="Trazado_117309" data-name="Trazado 117309" d="M13577.293,6077.355v-53.51a4.63,4.63,0,0,0-4.818-4.421h-4.582a4.871,4.871,0,0,1-4.383-2.563l-.983-1.964a4.849,4.849,0,0,0-4.378-2.576h-21.872a4.9,4.9,0,0,0-4.143,2.178l-1.074,1.659a4.925,4.925,0,0,1-4.156,2.177h-27.882a4.606,4.606,0,0,0-4.819,4.409l0,54.558Z" transform="translate(-13424.852 -5914.568)" fill="#d9a171"/>
      <path id="Trazado_117310" data-name="Trazado 117310" d="M13577.727,6077.411h-6.148l-17.088-.08-59.869-.16.318.319v-53.271a15.219,15.219,0,0,1,0-1.911,3.973,3.973,0,0,1,2.086-2.855,4.521,4.521,0,0,1,1.607-.545,13.493,13.493,0,0,1,1.777,0h26.756a5.548,5.548,0,0,0,1.807-.278,5.106,5.106,0,0,0,2.814-2.2l.916-1.434a4.19,4.19,0,0,1,1.063-1.156,4.675,4.675,0,0,1,2.936-.943h22.426a4.551,4.551,0,0,1,2.563,1.168c1.406,1.208,1.553,3.652,3.385,4.86a5.4,5.4,0,0,0,2.867,1h2.881a23.972,23.972,0,0,1,2.766,0,4.46,4.46,0,0,1,2.348,1.049,3.971,3.971,0,0,1,1.326,2.111,14.007,14.007,0,0,1,.121,2.59v10.064c0,12.839.092,23.236.131,30.458v.16c0-7.236.08-17.66.133-30.539V6025.68a13.206,13.206,0,0,0-.119-2.735,4.583,4.583,0,0,0-1.236-2.443,5.3,5.3,0,0,0-2.654-1.182,25.441,25.441,0,0,0-2.855-.081h-2.854a4.762,4.762,0,0,1-2.551-.888c-1.619-1.023-1.684-3.293-3.318-4.834a5.314,5.314,0,0,0-2.895-1.328c-1.09-.093-2.07,0-3.119,0h-19.387a5.2,5.2,0,0,0-3.332,1.062,4.627,4.627,0,0,0-1.221,1.328l-.93,1.434a4.484,4.484,0,0,1-2.453,1.925,4.663,4.663,0,0,1-1.6.241h-26.74a10.009,10.009,0,0,0-1.885.066,5.3,5.3,0,0,0-1.846.625,4.731,4.731,0,0,0-2.418,3.346,14.5,14.5,0,0,0,0,2.019v53.5h.32l60.07-.16,17.021-.08h5.643Z" transform="translate(-13425.285 -5914.625)" fill="#344154"/>
      <path id="Trazado_117311" data-name="Trazado 117311" d="M13509.5,6016.085a113.2,113.2,0,0,0,17.661,0A113.075,113.075,0,0,0,13509.5,6016.085Z" transform="translate(-13395.032 -5913.447)" fill="#ffbf9d"/>
      <path id="Trazado_117312" data-name="Trazado 117312" d="M13607.573,6094.263v-53.43c0-2.431-2.441-4.409-5.456-4.409h-5.206a5.665,5.665,0,0,1-4.938-2.562l-1.127-1.939a5.639,5.639,0,0,0-4.939-2.562h-24.71a5.718,5.718,0,0,0-4.7,2.177l-1.21,1.66a5.86,5.86,0,0,1-4.688,2.178h-31.455c-3.014,0-5.442,1.979-5.442,4.408v54.545Z" transform="translate(-13481.025 -5908.984)" fill="#d9a171"/>
      <path id="Trazado_117313" data-name="Trazado 117313" d="M13608.224,6094.363h-6.981l-19.387-.093-67.543-.146.318.319v-55.037a3.978,3.978,0,0,1,1.978-2.841,6.112,6.112,0,0,1,3.6-.849h30.54a7.028,7.028,0,0,0,3.7-.836,5.533,5.533,0,0,0,1.5-1.223c.412-.517.733-.982,1.1-1.485a4.946,4.946,0,0,1,2.656-2.1,8.713,8.713,0,0,1,3.412-.372h23.808a5.717,5.717,0,0,1,2.879.915,4.515,4.515,0,0,1,1.117,1.01,12.158,12.158,0,0,1,.8,1.326c.266.465.5.9.8,1.329a5.071,5.071,0,0,0,1.13,1.195,6.386,6.386,0,0,0,2.944,1.193c2.111.134,3.984,0,6.029,0a5.439,5.439,0,0,1,4.765,2.258,3.964,3.964,0,0,1,.572,2.536v8.046c0,13.8.105,24.949.133,32.7v.146c0-7.768.079-18.96.132-32.782V6041.5a4.683,4.683,0,0,0-.636-2.827,6.055,6.055,0,0,0-5.221-2.523c-1.938,0-3.982,0-5.949-.08a5.654,5.654,0,0,1-2.654-1.088,6.621,6.621,0,0,1-1.768-2.4,15.06,15.06,0,0,0-.848-1.329,4.643,4.643,0,0,0-1.252-1.129,6.339,6.339,0,0,0-3.17-1.036h-23.9a9.074,9.074,0,0,0-3.639.412,5.622,5.622,0,0,0-2.921,2.323c-.357.478-.716,1-1.062,1.447a5.147,5.147,0,0,1-1.328,1.062,6.4,6.4,0,0,1-3.385.743h-30.54a6.838,6.838,0,0,0-3.98.943,4.583,4.583,0,0,0-2.285,3.373v55.315h.318l67.718-.159,19.465-.186h7.038Z" transform="translate(-13481.677 -5909.083)" fill="#344154"/>
      <path id="Trazado_117314" data-name="Trazado 117314" d="M13530.239,6033.545a197.358,197.358,0,0,0,23.315,0A196.732,196.732,0,0,0,13530.239,6033.545Z" transform="translate(-13448.967 -5907.724)" fill="#ffbf9d"/>
      <rect id="Rectángulo_10391" data-name="Rectángulo 10391" width="83.518" height="71.992" transform="translate(132.126 150.425)" fill="#5e6178"/>
      <g id="Grupo_59929" data-name="Grupo 59929" transform="translate(132.126 150.425)" opacity="0.3">
        <rect id="Rectángulo_10392" data-name="Rectángulo 10392" width="83.518" height="71.992" fill="#344154"/>
      </g>
      <rect id="Rectángulo_10393" data-name="Rectángulo 10393" width="131.65" height="93.556" transform="translate(0.476 131.438)" fill="#5e6178"/>
      <path id="Trazado_117315" data-name="Trazado 117315" d="M13509.8,6131.353v-25.506c0-16.278.093-39.635.146-68l-.278.279,131.635.066h0l-.344-.345v93.542l.318-.306-94.9.146-27.061.092h-.132l26.981.08,95.109.159h.384v-94.207h-132.272v.292c0,28.441.119,51.784.146,68.168,0,8.113,0,14.46.08,18.8v4.914A12.63,12.63,0,0,0,13509.8,6131.353Z" transform="translate(-13509.389 -5906.36)" fill="#344154"/>
      <g id="Grupo_59930" data-name="Grupo 59930" transform="translate(28.691 193.06)" opacity="0.3">
        <rect id="Rectángulo_10394" data-name="Rectángulo 10394" width="61.078" height="9.069" fill="#344154"/>
      </g>
      <path id="Trazado_117316" data-name="Trazado 117316" d="M13448.135,6209.846v-25.559c0-16.278.093-39.635.146-68l-.278.278,131.636.066h0l-.344-.344v93.555l.306-.318-94.9.159-27.06.079h-.132l26.98.08,95.109.159h.318V6115.8h-.357l-131.637.066h-.278v.279c.065,28.441.12,51.785.146,68.168,0,8.127,0,14.473.08,18.815v4.912A5.44,5.44,0,0,0,13448.135,6209.846Z" transform="translate(-13365.671 -5880.649)" fill="#344154"/>
      <g id="Grupo_59931" data-name="Grupo 59931" transform="translate(118.131 293.135)" opacity="0.3">
        <rect id="Rectángulo_10395" data-name="Rectángulo 10395" width="55.687" height="9.069" fill="#344154"/>
      </g>
      <path id="Trazado_117317" data-name="Trazado 117317" d="M13448.067,6286.559V6261c0-16.278.094-39.621.146-68l-.278.279h131.635l-.343-.345v93.556l.307-.319-94.9.16-27.061.079h-.093l26.98.08,95.107.159h.32V6192.38h-132.274v.278c.065,28.441.118,51.784.146,68.182,0,8.112,0,14.459.079,18.8v4.913a7.486,7.486,0,0,0,.227,2Z" transform="translate(-13365.603 -5855.547)" fill="#344154"/>
      <g id="Grupo_59932" data-name="Grupo 59932" transform="translate(118.131 394.95)" opacity="0.3">
        <rect id="Rectángulo_10396" data-name="Rectángulo 10396" width="55.687" height="9.069" fill="#344154"/>
      </g>
    </g>
    <g id="freepik--speech-bubble--inject-46" transform="translate(101.307 117.833)">
      <path id="Trazado_117334" data-name="Trazado 117334" d="M13685.857,5928.448a4.409,4.409,0,1,0,4.408-4.408A4.408,4.408,0,0,0,13685.857,5928.448Z" transform="translate(-13611.104 -5861.285)" fill="#ffbf9d"/>
      <path id="Trazado_117335" data-name="Trazado 117335" d="M13685.689,5928.506a10.221,10.221,0,0,1,.264-1.036,4.413,4.413,0,0,1,1.622-2.268,4.174,4.174,0,0,1,3.986-.534,4.105,4.105,0,0,1,0,7.689,4.17,4.17,0,0,1-3.983-.531,4.51,4.51,0,0,1-1.62-2.271c-.2-.65-.212-1.048-.266-1.048a1.987,1.987,0,0,0,0,1.115,4.369,4.369,0,0,0,1.594,2.656,4.617,4.617,0,0,0,4.422.742,4.713,4.713,0,0,0,0-8.882,4.538,4.538,0,0,0-4.421.744,4.336,4.336,0,0,0-1.594,2.655,1.6,1.6,0,0,0,0,.967Z" transform="translate(-13610.934 -5861.343)" fill="#344154"/>
      <circle id="Elipse_4276" data-name="Elipse 4276" cx="36.474" cy="36.474" r="36.474" transform="translate(0.041 0.27)" fill="#ffbf9d"/>
      <path id="Trazado_117336" data-name="Trazado 117336" d="M13693.544,5913.534a2.88,2.88,0,0,0,.066-.585l.131-1.738q.007-.667.08-1.328a11.813,11.813,0,0,1,.225-1.515,27.479,27.479,0,0,1,.771-3.756,34.844,34.844,0,0,1,3.981-9.655,36.226,36.226,0,0,1,43.486-15.442,39.439,39.439,0,0,1,4.714,2.072c.757.425,1.488.9,2.243,1.329a17.3,17.3,0,0,1,2.193,1.5,35.625,35.625,0,0,1,7.7,7.78,35,35,0,0,1,5.167,9.959,35.862,35.862,0,0,1,0,22.812,35.049,35.049,0,0,1-5.166,9.958,41.26,41.26,0,0,1-3.547,4.182,42.829,42.829,0,0,1-4.088,3.492,20.667,20.667,0,0,1-2.19,1.5c-.757.451-1.486.942-2.244,1.328a41.236,41.236,0,0,1-4.712,2.07,36.145,36.145,0,0,1-43.436-15.427,35.178,35.178,0,0,1-3.98-9.667,28.472,28.472,0,0,1-.771-3.758c-.08-.543-.186-1.048-.228-1.513s-.066-.89-.078-1.328l-.132-1.726a2.794,2.794,0,0,0-.065-.6v3.665a12.732,12.732,0,0,0,.2,1.54,26.4,26.4,0,0,0,.72,3.785,34.167,34.167,0,0,0,3.983,9.785,36.606,36.606,0,0,0,44.029,15.841,39.712,39.712,0,0,0,4.806-2.1c.782-.424,1.527-.917,2.3-1.328a20.986,20.986,0,0,0,2.217-1.526,33.629,33.629,0,0,0,7.795-7.807,35.644,35.644,0,0,0,5.311-10.145,36.614,36.614,0,0,0,0-23.236,35.657,35.657,0,0,0-5.313-10.145,44.366,44.366,0,0,0-3.608-4.262,40.554,40.554,0,0,0-4.211-3.519,17.57,17.57,0,0,0-2.216-1.527c-.771-.451-1.528-.942-2.3-1.327a37.763,37.763,0,0,0-4.808-2.1,36.263,36.263,0,0,0-44.028,15.708,33.882,33.882,0,0,0-3.984,9.786,25.836,25.836,0,0,0-.72,3.8c-.063.545-.156,1.062-.2,1.526s0,.9,0,1.328v1.7a1.267,1.267,0,0,1-.1.61Z" transform="translate(-13693.542 -5876.776)" fill="#344154"/>
      <path id="Trazado_117337" data-name="Trazado 117337" d="M13722.526,5915.6a11.047,11.047,0,1,0-11.047-11.047,11.048,11.048,0,0,0,11.047,11.047Zm0-20.753a9.719,9.719,0,1,1-9.719,9.719h0a9.706,9.706,0,0,1,9.721-9.719Z" transform="translate(-13684.02 -5871.292)" fill="#6595bf"/>
      <rect id="Rectángulo_10401" data-name="Rectángulo 10401" width="1.328" height="10.768" transform="matrix(-0.809, -0.588, 0.588, -0.809, 27.033, 51.096)" fill="#6595bf"/>
      <path id="Trazado_117338" data-name="Trazado 117338" d="M13716.786,5898.76a6.361,6.361,0,0,1-1.089,8.922,6.56,6.56,0,0,1-.812.545" transform="translate(-13673.102 -5869.571)" fill="#ffbf9d"/>
      <path id="Trazado_117339" data-name="Trazado 117339" d="M13714.6,5908.237a3.52,3.52,0,0,0,1.448-.784,6.162,6.162,0,0,0,1.526-7.4,3.035,3.035,0,0,0-1.036-1.327s.266.583.584,1.487a6.847,6.847,0,0,1,.28,3.625,7.055,7.055,0,0,1-1.686,3.227C13715,5907.8,13714.472,5908.131,13714.6,5908.237Z" transform="translate(-13672.779 -5869.581)" fill="#344154"/>
    </g>
    <g id="freepik--Character--inject-46" transform="translate(135.898 148.442)">
      <path id="Trazado_117340" data-name="Trazado 117340" d="M13623.752,6026.2c1.979-35.559,17.871-52.089,22.572-79.88,2.336-13.955,1.738-28.243,11.631-38.347,3.559-3.638,10.2-7.382,15.257-7.966,2.762-.346,7.063-.24,9.573.943,4.687-.69,6.784-.917,10.089,0,3.892,1.1,9.3,4.1,11.951,7.236,7.052,8.6,8.5,20.436,8.619,31.563a185.5,185.5,0,0,1-7.423,53.19,7.547,7.547,0,0,1-2.481,4.37,7.306,7.306,0,0,1-5.314.545,106.726,106.726,0,0,1-20.074-5.232,7.018,7.018,0,0,1-2.551-1.328c-1.791-1.832-1.036-4.859-.213-7.29l-18.017-15.416c1.2,10.729,4.646,21.072,6.174,31.748a89.963,89.963,0,0,1-2.923,38.186,57.732,57.732,0,0,0-21.242-.478c-1.687.267-4.435,13.637-5.936,12.8C13630.657,6049.312,13623.486,6029.17,13623.752,6026.2Z" transform="translate(-13619.399 -5899.83)" fill="#344154"/>
      <path id="Trazado_117341" data-name="Trazado 117341" d="M13658.189,5906.491l-5.111-.571-19.518,7.86a5.458,5.458,0,0,0-5.152,5.312l.172,63.615a17.828,17.828,0,0,0,3.44,11.485l2.746,3.624c6.255,8.246,19.108,7.569,24.063-1.526a7.512,7.512,0,0,0,.688-1.646,10.858,10.858,0,0,0,.293-1.421,45.287,45.287,0,0,0,.609-9.545c.344-5.632.464-7.968.464-7.875s11.95-1.327,15.19-16.729c1.607-7.636,1.859-20.276,1.726-30.62C13677.708,5919.118,13669.741,5906.479,13658.189,5906.491Z" transform="translate(-13589.97 -5897.833)" fill="#ffbe9d"/>
      <path id="Trazado_117342" data-name="Trazado 117342" d="M13635.168,5932.456a2.017,2.017,0,0,1-2.019,1.912,1.9,1.9,0,0,1-1.951-1.846h0a1.983,1.983,0,0,1,2-1.912,1.9,1.9,0,0,1,1.967,1.859Z" transform="translate(-13551.017 -5889.741)" fill="#344154"/>
      <path id="Trazado_117343" data-name="Trazado 117343" d="M13650.169,5931.456a1.993,1.993,0,0,1-2.02,1.912,1.9,1.9,0,0,1-1.948-1.846h0a1.978,1.978,0,0,1,2-1.912,1.9,1.9,0,0,1,1.965,1.832Z" transform="translate(-13585.933 -5890.069)" fill="#344154"/>
      <path id="Trazado_117344" data-name="Trazado 117344" d="M13638.55,5928.246c-.253.252-1.7-.942-3.837-1.035s-3.759.876-3.983.611.16-.584.862-1.036a5.44,5.44,0,0,1,3.2-.824,5.309,5.309,0,0,1,3.04,1.156C13638.55,5927.662,13638.684,5928.139,13638.55,5928.246Z" transform="translate(-13553.735 -5891.267)" fill="#344154"/>
      <path id="Trazado_117345" data-name="Trazado 117345" d="M13653.728,5927.445c-.267.24-1.674-.982-3.812-1.155s-3.771.784-3.984.5.172-.571.9-1.009a5.407,5.407,0,0,1,6.23.519C13653.593,5926.862,13653.859,5927.339,13653.728,5927.445Z" transform="translate(-13589.094 -5891.569)" fill="#344154"/>
      <path id="Trazado_117346" data-name="Trazado 117346" d="M13637.345,5943.792a14.23,14.23,0,0,1,3.507-.451c.545,0,1.061-.106,1.166-.478a2.661,2.661,0,0,0-.276-1.633c-.451-1.328-.917-2.748-1.409-4.235-1.937-6.015-3.316-10.955-3.064-11.035s2,4.74,3.982,10.769l1.328,4.25a3.128,3.128,0,0,1,.186,2.164,1.334,1.334,0,0,1-.941.743,3.7,3.7,0,0,1-.93.08,13.267,13.267,0,0,1-3.547-.173Z" transform="translate(-13566.737 -5891.266)" fill="#344154"/>
      <path id="Trazado_117347" data-name="Trazado 117347" d="M13661.646,5960.1a39.688,39.688,0,0,1-20.447-6.559s4.672,10.967,20.234,10.289Z" transform="translate(-13590.771 -5882.225)" fill="#eb996e"/>
      <path id="Trazado_117348" data-name="Trazado 117348" d="M13648.523,5943.639a3.819,3.819,0,0,0-3.385-1.605,3.433,3.433,0,0,0-2.484,1.18,2.189,2.189,0,0,0-.3,2.538,2.655,2.655,0,0,0,2.76.85,8.281,8.281,0,0,0,2.816-1.5,2.294,2.294,0,0,0,.637-.6.716.716,0,0,0,0-.8" transform="translate(-13578.978 -5886)" fill="#eb996e"/>
      <path id="Trazado_117349" data-name="Trazado 117349" d="M13641.688,5940.24c.344,0,.238,2.311,2.137,4.063s4.383,1.607,4.383,1.939-.571.423-1.619.4a5.851,5.851,0,0,1-3.665-1.487,5,5,0,0,1-1.633-3.4C13641.29,5940.825,13641.556,5940.24,13641.688,5940.24Z" transform="translate(-13577.452 -5886.584)" fill="#344154"/>
      <path id="Trazado_117350" data-name="Trazado 117350" d="M13654.519,5921.653c-.32.519-2.1-.2-4.33-.438s-4.155,0-4.315-.584c0-.265.358-.729,1.208-1.1a6.525,6.525,0,0,1,3.414-.464,6.452,6.452,0,0,1,3.172,1.235C13654.385,5920.882,13654.65,5921.427,13654.519,5921.653Z" transform="translate(-13589.883 -5893.544)" fill="#344154"/>
      <path id="Trazado_117351" data-name="Trazado 117351" d="M13637.52,5922.173c-.4.479-1.845-.106-3.611-.212s-3.279.159-3.611-.372c-.132-.252.133-.717.811-1.156a4.868,4.868,0,0,1,2.977-.637,4.968,4.968,0,0,1,2.837,1.116C13637.52,5921.4,13637.651,5921.948,13637.52,5922.173Z" transform="translate(-13552.171 -5893.295)" fill="#344154"/>
      <path id="Trazado_117352" data-name="Trazado 117352" d="M13674.541,5936.551c0-1.142-1.144-3.983-2.269-4.17-3.016-.624-8.514-.65-8.949,7.064-.6,10.542,10.115,8.962,10.155,8.67S13674.275,5940.534,13674.541,5936.551Z" transform="translate(-13633.01 -5889.243)" fill="#ffbe9d"/>
      <path id="Trazado_117353" data-name="Trazado 117353" d="M13670.836,5943.092a2.8,2.8,0,0,1-.5.239,1.765,1.765,0,0,1-1.327,0c-1.09-.478-1.926-2.3-1.873-4.209a5.942,5.942,0,0,1,.665-2.654,2.1,2.1,0,0,1,1.458-1.33.945.945,0,0,1,1.063.572c.12.306,0,.5.094.531s.239-.172.186-.61a1.217,1.217,0,0,0-.385-.679,1.335,1.335,0,0,0-1-.332,2.661,2.661,0,0,0-2.019,1.528,6.232,6.232,0,0,0-.8,2.907c0,2.125.918,4.183,2.418,4.7a1.966,1.966,0,0,0,1.7-.186A.569.569,0,0,0,13670.836,5943.092Z" transform="translate(-13633.423 -5888.428)" fill="#eb996e"/>
      <path id="Trazado_117354" data-name="Trazado 117354" d="M13626.349,5930.307c-.743-4.208.837-10.1,1.926-14.208a15.308,15.308,0,0,1,6.317-8.3,25.654,25.654,0,0,1,15.936-4.806l2.11.691c3.12-.252,6.453.412,8.167,2.934h0v-2.828c5.684.7,10.622,4.461,13.93,9.135s5.125,10.2,6.639,15.721c-6.972-6.241-14.526-13.132-20.343-20.488-6.094,7.968-15.123,13.092-23.355,19.054a30.519,30.519,0,0,0-1.821,12.11c0,10.356-2.189,19.718-3,30.061-.464,5.962-.426,11.061-6.52,10.542C13625.551,5960.833,13629.668,5949.068,13626.349,5930.307Z" transform="translate(-13590.526 -5898.8)" fill="#344154"/>
      <path id="Trazado_117355" data-name="Trazado 117355" d="M13658,5923.762a10.034,10.034,0,0,0,2.935.53,29.484,29.484,0,0,0,7.169-.277,34.442,34.442,0,0,0,6.894-1.992,11.087,11.087,0,0,0,2.656-1.329c-.094-.226-4.224,1.7-9.668,2.656S13658,5923.456,13658,5923.762Z" transform="translate(-13629.082 -5892.997)" fill="#5e6178"/>
      <path id="Trazado_117356" data-name="Trazado 117356" d="M13641.991,5922.617a10.4,10.4,0,0,0,1.685-.106c1.09-.106,2.657-.332,4.555-.691a78.059,78.059,0,0,0,28-11.354c1.606-1.074,2.894-2,3.745-2.654a8.02,8.02,0,0,0,1.325-1.1,8.115,8.115,0,0,0-1.432.889c-.9.61-2.217,1.461-3.851,2.482a89.064,89.064,0,0,1-27.885,11.287c-1.884.412-3.425.717-4.5.9A6.631,6.631,0,0,0,13641.991,5922.617Z" transform="translate(-13611.48 -5897.575)" fill="#5e6178"/>
      <path id="Trazado_117357" data-name="Trazado 117357" d="M13624.37,5919.61a10.338,10.338,0,0,0,2.431,2.829,10.881,10.881,0,0,0,2.91,2.349c.131-.145-.958-1.407-2.432-2.841a10.06,10.06,0,0,0-2.907-2.337Z" transform="translate(-13536.501 -5893.347)" fill="#5e6178"/>
      <path id="Trazado_117358" data-name="Trazado 117358" d="M13558.224,5974.937c-1.182-2.058-.292-10.477-.292-10.477l2.734,4.926c5.776,2.244,13.717,5.444,15.933,7.011,3.334,2.336,7.849,12.189,7.849,12.189l27.883,35.293,52.115-9.135,4.9,26.17-17.605,3.651-30.965,3.983c-8.7,1.872-17.153,2.563-23.9-3.147l-.464-.9c2.456,35.187-.93,73.985-2.085,109.224a19.2,19.2,0,0,1-1.475,8.074c-1.779,3.478-8.366,5.311-12.229,4.792s-2.655-2.987-3.466-6.8c-.451-2.084,1.5-4.979,1.754-7.09q5.7-45.943,11.378-91.869c.12-1.886.254-3.639.386-5.192,1.329-16.186,1.527-20.554.811-27.963C13590.356,6016.243,13566.19,5988.838,13558.224,5974.937Z" transform="translate(-13487.48 -5878.645)" fill="#d9a171"/>
      <path id="Trazado_117359" data-name="Trazado 117359" d="M13611.265,5989.57a7.561,7.561,0,0,0,.794,1.593c.56.984,1.329,2.443,2.193,4.276a72.121,72.121,0,0,1,7.181,30.658c0,2.031,0,3.679-.063,4.807a7.913,7.913,0,0,0,0,1.779,11.534,11.534,0,0,0,.271-1.752c.172-1.607.276-3.227.29-4.834a65.267,65.267,0,0,0-7.239-30.923,45.145,45.145,0,0,0-2.4-4.209,7.818,7.818,0,0,0-1.02-1.4Z" transform="translate(-13511.311 -5870.416)" fill="#344154"/>
      <g id="Grupo_59938" data-name="Grupo 59938" transform="translate(103.539 125.25)" opacity="0.3">
        <path id="Trazado_117360" data-name="Trazado 117360" d="M13608.585,5994.16c4.063,5.882,7.818,12.2,9.614,19.16s.663,10.9.822,18.2l-4.182.943C13615.754,6019.374,13615.356,6010.73,13608.585,5994.16Z" transform="translate(-13608.585 -5994.16)" fill="#344154"/>
      </g>
      <path id="Trazado_117361" data-name="Trazado 117361" d="M13647.426,6021.836a3.143,3.143,0,0,0,0-.691c-.078-.438-.119-1.116-.318-1.952a54.136,54.136,0,0,0-2.139-6.944,206.053,206.053,0,0,0-9.905-21.775c-1.223-2.364-2.431-4.647-3.625-6.826l-.093-.173h-.2l-4.394-.08.291.452a4.255,4.255,0,0,1,1.714-1.925l.3-.2-.238-.265a100.462,100.462,0,0,0-9.424-9.907c-1.224-1.113-2.22-1.964-2.911-2.536a6.619,6.619,0,0,0-1.1-.835,7.386,7.386,0,0,0,.972.982l2.786,2.656a119.611,119.611,0,0,1,9.2,10.011l.079-.451a4.839,4.839,0,0,0-1.967,2.19l-.211.439h.491l4.395.119-.279-.172c1.169,2.164,2.379,4.448,3.6,6.812,4.263,8.3,7.862,15.933,10.066,21.629a64.6,64.6,0,0,1,2.323,6.837A23,23,0,0,0,13647.426,6021.836Z" transform="translate(-13542.295 -5877.426)" fill="#344154"/>
      <path id="Trazado_117362" data-name="Trazado 117362" d="M13705.425,6250.535l-17.113,27.552s22.254,26.662,19.584,32.053l-54.622-31.269,24.974-44.029Z" transform="translate(-13653.273 -5790.02)" fill="#d9a171"/>
      <path id="Trazado_117363" data-name="Trazado 117363" d="M13681.52,6258.367a2.551,2.551,0,0,0-3,1.659,2.469,2.469,0,0,0,1.621,2.988,2.656,2.656,0,0,0,3.159-1.779,2.551,2.551,0,0,0-2.033-2.922" transform="translate(-13661.895 -5782.33)" fill="#aed3f2"/>
      <g id="Grupo_59939" data-name="Grupo 59939" transform="translate(0.104 484.508)" opacity="0.6">
        <path id="Trazado_117364" data-name="Trazado 117364" d="M13653.026,6269.072l2.655-4.342,51.4,31.614s1.833,2.443.571,3.984Z" transform="translate(-13653.026 -6264.729)" fill="#ffbf9d"/>
      </g>
      <path id="Trazado_117365" data-name="Trazado 117365" d="M13674.087,6267.912c-.161.266-1.567-.372-3.359-.265s-3.148.823-3.332.571,1.088-1.554,3.277-1.647S13674.353,6267.7,13674.087,6267.912Z" transform="translate(-13638 -5779.621)" fill="#344154"/>
      <path id="Trazado_117366" data-name="Trazado 117366" d="M13669.961,6271.99c-.092.292-1.5.08-3.053.691s-2.5,1.659-2.764,1.487.439-1.767,2.377-2.483S13670.094,6271.725,13669.961,6271.99Z" transform="translate(-13629.492 -5778.041)" fill="#344154"/>
      <path id="Trazado_117367" data-name="Trazado 117367" d="M13661.122,6279.274c-.278-.093.12-1.633,1.635-2.656s3.107-.942,3.093-.65-1.234.624-2.469,1.513S13661.388,6279.393,13661.122,6279.274Z" transform="translate(-13621.317 -5776.602)" fill="#344154"/>
      <path id="Trazado_117368" data-name="Trazado 117368" d="M13670.816,6263.345c-.252.172-1.327-.891-2.826-1.647s-3.014-.969-3.027-1.328,1.659-.61,3.49.305S13671.083,6263.213,13670.816,6263.345Z" transform="translate(-13631.545 -5781.758)" fill="#344154"/>
      <path id="Trazado_117369" data-name="Trazado 117369" d="M13666.1,6255.367l-1.847,32.4s32.306,12.748,32.546,18.762l-62.924-1.328.8-50.589Z" transform="translate(-13616.209 -5783.539)" fill="#d9a171"/>
      <path id="Trazado_117370" data-name="Trazado 117370" d="M13672.623,6277.249a2.653,2.653,0,0,0-1.845,2.908,2.5,2.5,0,0,0,2.855,1.846,2.746,2.746,0,0,0,1.938-3.08,2.573,2.573,0,0,0-3.187-1.594" transform="translate(-13643.974 -5776.13)" fill="#aed3f2"/>
      <g id="Grupo_59940" data-name="Grupo 59940" transform="translate(17.633 516.575)" opacity="0.6">
        <path id="Trazado_117371" data-name="Trazado 117371" d="M13633.906,6293.979l.277-5.1,60.2,3.133s2.774,1.328,2.415,3.24Z" transform="translate(-13633.906 -6288.881)" fill="#ffbf9d"/>
      </g>
      <path id="Trazado_117372" data-name="Trazado 117372" d="M13663.509,6279.43c0,.3-1.554.412-3.082,1.327s-2.362,2.231-2.655,2.11.214-1.9,2.085-3.025S13663.641,6279.151,13663.509,6279.43Z" transform="translate(-13614.541 -5775.509)" fill="#344154"/>
      <path id="Trazado_117373" data-name="Trazado 117373" d="M13656.988,6281.54c0,.3-1.327.8-2.351,2.071s-1.328,2.656-1.7,2.656-.465-1.766.889-3.321S13656.988,6281.248,13656.988,6281.54Z" transform="translate(-13601.383 -5774.752)" fill="#344154"/>
      <path id="Trazado_117374" data-name="Trazado 117374" d="M13648.417,6288.815c-.279,0-.677-1.488.146-3.147s2.284-2.31,2.4-2.045-.784,1.129-1.436,2.51S13648.683,6288.789,13648.417,6288.815Z" transform="translate(-13589.228 -5774.047)" fill="#344154"/>
      <path id="Trazado_117375" data-name="Trazado 117375" d="M13664.521,6274.049c-.131.279-1.528-.186-3.264-.093s-3.109.6-3.269.332,1.169-1.328,3.227-1.408S13664.788,6273.812,13664.521,6274.049Z" transform="translate(-13615.956 -5777.551)" fill="#344154"/>
      <path id="Trazado_117376" data-name="Trazado 117376" d="M13708.389,6073s2.895,137.837.291,147.384-55.873,107.1-55.873,107.1l-32.145-15.788,42.619-103.009-9.4-132.446Z" transform="translate(-13611.623 -5843.068)" fill="#344154"/>
      <path id="Trazado_117377" data-name="Trazado 117377" d="M13637.512,6067.149s-18.482,30.18-15.217,48.279c1.329,7.422,11.459,23.9,11.459,23.9v88.284l-7.808,117.96h37.458l16.106-104.018s5.643-9.547,7.806-17.779,9.216-105.638,9.216-105.638l11.208-39.608Z" transform="translate(-13611.252 -5844.985)" fill="#344154"/>
      <path id="Trazado_117378" data-name="Trazado 117378" d="M13684.879,6230a15.959,15.959,0,0,1,0,2.482c0,1.594-.161,3.9-.319,6.758-.318,5.7-.89,13.557-1.554,22.24s-1.221,16.544-1.594,22.241c-.173,2.748-.331,5.018-.438,6.745a17.024,17.024,0,0,1-.252,2.469,12.788,12.788,0,0,1,0-2.483c0-1.593.078-3.9.2-6.758.226-5.71.7-13.583,1.328-22.267s1.328-16.411,1.765-22.228c.24-2.748.426-5.018.586-6.745a15.033,15.033,0,0,1,.275-2.456Z" transform="translate(-13666.45 -5791.606)" fill="#5e6178"/>
      <path id="Trazado_117379" data-name="Trazado 117379" d="M13645.461,6078.77a5.183,5.183,0,0,0,1.011,1.141,21.811,21.811,0,0,0,3.21,2.657,25.649,25.649,0,0,0,26.118,1.54,23.936,23.936,0,0,0,3.5-2.217,6.26,6.26,0,0,0,1.13-1.009,53.09,53.09,0,0,1-4.847,2.775,26.453,26.453,0,0,1-25.639-1.606,52.056,52.056,0,0,1-4.485-3.28Z" transform="translate(-13615.217 -5841.177)" fill="#5e6178"/>
      <path id="Trazado_117380" data-name="Trazado 117380" d="M13656.66,6099.661a1.561,1.561,0,0,0,0,.491,7.057,7.057,0,0,1-.121,1.42c-.094,1.329-.239,3.147-.411,5.511-.32,4.819-.8,11.725-1.327,20.236-1.2,17.075-2.658,40.7-4.979,66.708-.321,3.544-.678,7.051-1.076,10.463-.225,1.712-.41,3.426-.784,5.032a40.02,40.02,0,0,1-1.563,4.753c-2.313,6.228-4.78,12.109-7.145,17.606v.08c-2.5,16.013-4.607,29.569-6.106,39.156l-1.806,11.114c-.228,1.262-.4,2.23-.532,2.934s-.228,1-.215,1.009a6.556,6.556,0,0,0,.321-.983c.146-.664.372-1.633.624-2.921.5-2.563,1.167-6.32,1.989-11.087,1.636-9.534,3.826-23.077,6.35-39.13v.08c2.387-5.5,4.872-11.379,7.207-17.62a40.1,40.1,0,0,0,1.582-4.807c.4-1.713.585-3.412.811-5.125.41-3.438.771-6.943,1.074-10.489,2.285-26.038,3.705-49.659,4.78-66.748l1.008-20.275c.119-2.363.212-4.209.268-5.51v-1.447A3.866,3.866,0,0,0,13656.66,6099.661Z" transform="translate(-13571.712 -5834.33)" fill="#5e6178"/>
      <path id="Trazado_117381" data-name="Trazado 117381" d="M13638.534,5970.7s.4,6.041-4.514,6.041c-6.907,0-21.378-13.278-21.378-13.278l27.882,66.549v80.543l23.65,2.416s2.773-.4,3.331-4.381c1.1-7.793.942-22,1.847-27.883,2.815-18.191,8.338-28.1,7.555-42.489-1.155-21.417-31.3-58.422-31.3-58.422Z" transform="translate(-13568.19 -5878.973)" fill="#ffbf9d"/>
      <path id="Trazado_117382" data-name="Trazado 117382" d="M13661.018,5957.15a182.3,182.3,0,0,0,11.658,18.868c6.029,8.378,44.215,66.88,44.215,66.88l-15.256,118.678-1.7,10.051a5.018,5.018,0,0,1-5.777,4.128h-.227l-67.447-11.857a6.121,6.121,0,0,1-4.969-7.09,4.484,4.484,0,0,1,.176-.729l30.111-84.581-19.451-75.111s.717-10.942,12.561-22.042c2.256-2.111,11.563-9.826,13.1-11.95Z" transform="translate(-13619.753 -5881.042)" fill="#d9a171"/>
      <g id="Grupo_59941" data-name="Grupo 59941" transform="translate(23.115 190.377)" opacity="0.3">
        <path id="Trazado_117383" data-name="Trazado 117383" d="M13693.414,6051.987s-31.055,24.629-46.165,24.856-22.971-12.575-22.971-12.575l30.393.837,39.835-21.9Z" transform="translate(-13624.278 -6043.21)" fill="#344154"/>
      </g>
      <path id="Trazado_117384" data-name="Trazado 117384" d="M13711.185,6051.439s-28.017,18.509-33.2,22.028-29.62,17.7-32.808,18.722-22.957,1.155-26.557-5.562-6.08-21.059-6.08-21.059l-4.767-67.12a26.989,26.989,0,0,1,4.832-17.554c2.895-4.089,6.718-7.78,10.862-7.156,8.83,1.328,27.882,22.665,26.9,33.632s-.944,41.506-.944,41.506l50.02-16.557Z" transform="translate(-13595.83 -5875.627)" fill="#d9a171"/>
      <path id="Trazado_117385" data-name="Trazado 117385" d="M13612.412,5979.109a12.894,12.894,0,0,0-.918,1.328,23.523,23.523,0,0,0-2.122,4.077,26.151,26.151,0,0,0-1.835,7.168,55,55,0,0,0,.227,10c1.037,14.95,2.524,36.235,4.29,61.7h0q.756,4.3,1.832,8.7a76.107,76.107,0,0,0,2.655,8.831,18.214,18.214,0,0,0,2.126,4.3,10.547,10.547,0,0,0,3.822,3.042,30.176,30.176,0,0,0,9.465,2.814,41.051,41.051,0,0,0,10.134.265,13.811,13.811,0,0,0,5.028-1.326c1.557-.771,3.07-1.621,4.583-2.458q9.125-5.1,18.4-10.622c7.424-4.3,14.313-9.162,21.166-13.637l19.917-13.277.267-.173-.173-.266-11.777-19.438-.134-.212-.237.079-49.953,16.917.294.2c-1.022-12.468-1.834-22.4-2.392-29.212-.29-3.384-.515-6-.676-7.793-.079-.864-.134-1.542-.186-2l-.079-.691v.691c0,.45.079,1.141.131,2.018.134,1.793.32,4.422.559,7.807.5,6.838,1.249,16.756,2.193,29.211v.292l.276-.093,50.045-16.8-.372-.133,11.765,19.452.094-.437-19.917,13.277c-6.877,4.488-13.729,9.294-21.125,13.61q-9.3,5.537-18.39,10.622c-1.515.837-3.028,1.673-4.555,2.443a13.429,13.429,0,0,1-4.808,1.329,40.959,40.959,0,0,1-9.957-.253,29.854,29.854,0,0,1-9.293-2.721,10.222,10.222,0,0,1-3.612-2.855,17.44,17.44,0,0,1-2.042-4.144,75.218,75.218,0,0,1-2.657-8.763c-.73-2.907-1.328-5.8-1.847-8.63h0c-1.873-25.454-3.425-46.739-4.528-61.689a55.583,55.583,0,0,1-.3-9.946,26.66,26.66,0,0,1,3.755-11.219c.267-.452.491-.771.624-1Z" transform="translate(-13595.712 -5873.843)" fill="#344154"/>
      <path id="Trazado_117386" data-name="Trazado 117386" d="M13679.774,6028.466a5.193,5.193,0,0,0-.61-.7c-.451-.505-1.062-1.156-1.806-1.966l-6.639-7.211-9.972-10.622c-3.812-3.983-7.889-8.417-12.708-12.64v.5l.4-.451,3.373-3.731.559-.624h-.837l-6.241.319.306.171-12.561-21.868-3.717-6.346-1.021-1.687a2.465,2.465,0,0,0-.4-.572,4.182,4.182,0,0,0,.293.625c.237.451.544,1.036.929,1.74l3.545,6.452,12.36,21.988.107.173h.213l6.24-.319-.278-.571-3.36,3.731-.412.451-.226.252.266.239c4.742,4.156,8.856,8.618,12.7,12.548l10.064,10.542c2.867,3,5.2,5.418,6.837,7.064.811.823,1.448,1.461,1.9,1.872A3.963,3.963,0,0,0,13679.774,6028.466Z" transform="translate(-13591.241 -5879.767)" fill="#344154"/>
      <g id="Grupo_59942" data-name="Grupo 59942" transform="translate(52.021 108.161)" opacity="0.3">
        <path id="Trazado_117387" data-name="Trazado 117387" d="M14035.971,6238.192,13998,6202.381l3.186-3.545H13998l-.8-4.886,2.125,3.771,6.24-.319-3.719,3.373,31.6,33.368Z" transform="translate(-13997.201 -6193.95)" fill="#344154"/>
      </g>
      <path id="Trazado_117388" data-name="Trazado 117388" d="M13687.293,6086.706l-.641-.159-1.937-.413-7.33-1.54-25.6-5.2h-.227l-.12.2-7.05,11.485-.266.425.493.093.837.159,37.338,7.01h.184v-.186l3.188-8.776c.331-.957.61-1.713.811-2.3a.611.611,0,1,0-.12,0c-.225.584-.543,1.327-.929,2.323l-3.373,8.538.253-.146-37.285-7.237-.835-.159.227.518,7.036-11.5-.345.16,25.413,4.833,7.448,1.328,2.02.346a6.575,6.575,0,0,0,.807.2Z" transform="translate(-13620.531 -5840.974)" fill="#344154"/>
      <g id="Grupo_59943" data-name="Grupo 59943" transform="translate(25.067 246.848)" opacity="0.3">
        <path id="Trazado_117389" data-name="Trazado 117389" d="M14056.895,6298.4l-2.655,13.93-38.64-6.972,1.063-3.227,36.25,6.918Z" transform="translate(-14015.6 -6298.399)" fill="#344154"/>
      </g>
      <path id="Trazado_117390" data-name="Trazado 117390" d="M13653.766,6042.074c.2.093,1.806-3.094,4.687-6.346s5.829-5.312,5.71-5.457A23.276,23.276,0,0,0,13653.766,6042.074Z" transform="translate(-13609.977 -5857.074)" fill="#344154"/>
      <path id="Trazado_117391" data-name="Trazado 117391" d="M13535.909,6009.08s9.691-5.8,13.57-9.521c0,0,5.642-1.779,8.23,1.78,0,0,5.975,1.647,6.771,2.761s5.815,8.856,5.815,8.856-2.656,9.229-2.908,9.693c-.479,1.008-1.565,2.071-2.483.956a1.924,1.924,0,0,1-.426-1.328v-.61l-1.447-1.022s-.65,3.585-2.655,3.027a33.983,33.983,0,0,1-6.3-3.784s-6.132,3.492-9.292,3.85a99.569,99.569,0,0,0-10.623,2.377l-3.266-17.541Z" transform="translate(-13352.968 -5867.286)" fill="#ffbe9d"/>
      <path id="Trazado_117392" data-name="Trazado 117392" d="M13533.277,6021.006a.8.8,0,0,0,.757.147,2.005,2.005,0,0,0,1.33-1.593,28.87,28.87,0,0,0,0-6.747,62.972,62.972,0,0,0-1.063-6.638,11.519,11.519,0,0,0-.718-2.656c-.238,0,.517,4.209,1.089,9.294a39.587,39.587,0,0,1,.241,6.64,1.717,1.717,0,0,1-.984,1.421C13533.543,6021.06,13533.277,6020.954,13533.277,6021.006Z" transform="translate(-13321.391 -5865.842)" fill="#eb996e"/>
      <path id="Trazado_117393" data-name="Trazado 117393" d="M13539.1,6005.291a7.826,7.826,0,0,0,4.583,2.125l-.279-.252.079.344a21.807,21.807,0,0,0,1.594,5.125,21.142,21.142,0,0,0-.918-5.311l-.092-.332v-.226h-.227a36.281,36.281,0,0,1-4.74-1.474Z" transform="translate(-13338.637 -5865.263)" fill="#eb996e"/>
      <path id="Trazado_117394" data-name="Trazado 117394" d="M13537.247,6006.6a4.749,4.749,0,0,1,5.31-1.087l1.01,1.327,7.648,6.374a11.843,11.843,0,0,1,3.427,3.864,3.989,3.989,0,0,1-.8,4.754c-1.567,1.194-3.89.518-5.418-.718s-2.655-2.96-4.221-4.116c-2.471-1.818-6.056-2.31-7.568-4.965A4.765,4.765,0,0,1,13537.247,6006.6Z" transform="translate(-13344.614 -5865.313)" fill="#ffbe9d"/>
      <path id="Trazado_117395" data-name="Trazado 117395" d="M13536.1,6004.391a4.225,4.225,0,0,0,.681,2.774,10.186,10.186,0,0,0,1.923,2.483,26.873,26.873,0,0,0,2.988,2.323,18.6,18.6,0,0,1,5.057,4.342,17.031,17.031,0,0,1,1.328,2.444,4.469,4.469,0,0,0-.889-2.723,11.671,11.671,0,0,0-2.046-2.361,30.749,30.749,0,0,0-3.028-2.271,26.634,26.634,0,0,1-2.946-2.23,11.093,11.093,0,0,1-1.936-2.245A14.058,14.058,0,0,1,13536.1,6004.391Z" transform="translate(-13337.628 -5865.558)" fill="#eb996e"/>
      <path id="Trazado_117396" data-name="Trazado 117396" d="M13628.517,6032.121s-.278-9.506-2.654-12.335-16.492-6.426-16.492-6.426l-35.371,8.206,8.221,13.278,2.481-2.336s11.128,3.346,16.623,2.138a65.2,65.2,0,0,0,9.587-2.855l5.764.4s4.155,4.3,5.5,4.3,2.813-1.208,2.149-2.549l1.2-2.018S13627.853,6033.329,13628.517,6032.121Z" transform="translate(-13468.414 -5862.617)" fill="#ffbe9d"/>
      <path id="Trazado_117397" data-name="Trazado 117397" d="M13577.107,6022.5a6.015,6.015,0,0,0,2.524.864,42.627,42.627,0,0,1,6.174,1.208,8.612,8.612,0,0,1,4.433,4.063,14.68,14.68,0,0,0,1.331,2.271,7.214,7.214,0,0,0-.9-2.5,10.54,10.54,0,0,0-1.607-2.456,7.275,7.275,0,0,0-3.015-2.033,29.38,29.38,0,0,0-6.332-1.049C13578.037,6022.7,13577.107,6022.411,13577.107,6022.5Z" transform="translate(-13435.595 -5859.625)" fill="#eb996e"/>
      <path id="Trazado_117398" data-name="Trazado 117398" d="M13576.021,6017.247c0,.094,1.128.279,2.882.9a27.588,27.588,0,0,1,3,1.207,14.47,14.47,0,0,1,3.342,1.994,7.559,7.559,0,0,1,1.145,1.6c.331.572.638,1.129.9,1.672a17.524,17.524,0,0,1,1.154,3c.464,1.779.386,2.935.5,2.948a6.216,6.216,0,0,0,0-3.054,13.882,13.882,0,0,0-1.048-3.173c-.266-.57-.57-1.156-.9-1.739a7.608,7.608,0,0,0-1.326-1.78,13.811,13.811,0,0,0-3.588-2.125,24.316,24.316,0,0,0-3.133-1.1,7.218,7.218,0,0,0-2.936-.358Z" transform="translate(-13431.719 -5861.352)" fill="#eb996e"/>
    </g>
  </g>
</svg>
