<svg xmlns="http://www.w3.org/2000/svg" width="213.946" height="180.785" viewBox="0 0 213.946 180.785">
  <g id="Grupo_71389" data-name="Grupo 71389" transform="translate(-180.5 -2295)">
    <g id="Grupo_70180" data-name="Grupo 70180" transform="translate(180.5 2295)">
      <rect id="Rectángulo_31121" data-name="Rectángulo 31121" width="213.946" height="180.785" transform="translate(0 0)" fill="none"/>
    </g>
    <g id="Grupo_70295" data-name="Grupo 70295" transform="matrix(0.974, 0.225, -0.225, 0.974, 299.169, 2372.303)">
      <g id="Grupo_67664" data-name="Grupo 67664" transform="translate(0.105 0.105)">
        <rect id="Rectángulo_31688" data-name="Rectángulo 31688" width="90.19" height="60.144" fill="#fafafa"/>
      </g>
      <g id="Grupo_67665" data-name="Grupo 67665" transform="translate(16.843 21.624)">
        <rect id="Rectángulo_31689" data-name="Rectángulo 31689" width="14.838" height="5.952" transform="translate(0 0)" fill="#d9a171"/>
      </g>
      <g id="Grupo_67666" data-name="Grupo 67666" transform="translate(61.357 21.624)">
        <rect id="Rectángulo_31690" data-name="Rectángulo 31690" width="14.838" height="5.952" transform="translate(0 0)" fill="#d9a171"/>
      </g>
      <g id="Grupo_67667" data-name="Grupo 67667" transform="translate(61.357 33.446)">
        <rect id="Rectángulo_31691" data-name="Rectángulo 31691" width="14.838" height="5.952" transform="translate(0 0)" fill="#d9a171"/>
      </g>
      <g id="Grupo_67668" data-name="Grupo 67668" transform="translate(61.357 39.357)">
        <rect id="Rectángulo_31692" data-name="Rectángulo 31692" width="14.838" height="5.952" fill="#d9a171"/>
      </g>
      <g id="Grupo_67669" data-name="Grupo 67669" transform="translate(31.681 33.553)">
        <rect id="Rectángulo_31693" data-name="Rectángulo 31693" width="14.838" height="5.952" transform="translate(0 0)" fill="#455a64"/>
      </g>
      <g id="Grupo_67670" data-name="Grupo 67670" transform="translate(46.495 39.578)">
        <rect id="Rectángulo_31694" data-name="Rectángulo 31694" width="14.838" height="5.952" transform="translate(0 0)" fill="#455a64"/>
      </g>
      <g id="Grupo_67671" data-name="Grupo 67671" transform="translate(31.681 51.385)">
        <rect id="Rectángulo_31695" data-name="Rectángulo 31695" width="14.838" height="6.193" transform="translate(0 0)" fill="#ebebeb"/>
      </g>
      <g id="Grupo_67672" data-name="Grupo 67672" transform="translate(61.357 51.468)">
        <rect id="Rectángulo_31696" data-name="Rectángulo 31696" width="14.838" height="5.952" fill="#d9a171"/>
      </g>
      <g id="Grupo_67673" data-name="Grupo 67673" transform="translate(7.441 15.807)">
        <rect id="Rectángulo_31697" data-name="Rectángulo 31697" width="80.115" height="5.817" transform="translate(0 0)" fill="#e0e0e0"/>
      </g>
      <g id="Grupo_67674" data-name="Grupo 67674" transform="translate(2.595 15.605)">
        <path id="Trazado_133953" data-name="Trazado 133953" d="M14.45,42.3H0V0H14.45ZM.4,41.9H14.046V.4H.4Z" fill="#e0e0e0"/>
        <rect id="Rectángulo_31698" data-name="Rectángulo 31698" width="14.046" height="41.896" transform="translate(0.202 0.202)" fill="#e0e0e0"/>
      </g>
      <g id="Grupo_67675" data-name="Grupo 67675" transform="translate(0.105 0.105)">
        <rect id="Rectángulo_31699" data-name="Rectángulo 31699" width="90.19" height="6.823" fill="#d9a171"/>
      </g>
      <g id="Grupo_67676" data-name="Grupo 67676" transform="translate(2.957 9.415)">
        <rect id="Rectángulo_31700" data-name="Rectángulo 31700" width="13.886" height="3.905" fill="#ebebeb"/>
      </g>
      <g id="Grupo_67677" data-name="Grupo 67677" transform="translate(18.469 9.415)">
        <rect id="Rectángulo_31701" data-name="Rectángulo 31701" width="13.391" height="3.905" fill="#ebebeb"/>
      </g>
      <g id="Grupo_67678" data-name="Grupo 67678" transform="translate(33.156 9.415)">
        <rect id="Rectángulo_31702" data-name="Rectángulo 31702" width="13.391" height="3.905" transform="translate(0 0)" fill="#ebebeb"/>
      </g>
      <g id="Grupo_67679" data-name="Grupo 67679" transform="translate(47.843 9.415)">
        <rect id="Rectángulo_31703" data-name="Rectángulo 31703" width="13.391" height="3.905" fill="#ebebeb"/>
      </g>
      <g id="Grupo_67680" data-name="Grupo 67680" transform="translate(62.53 9.415)">
        <rect id="Rectángulo_31704" data-name="Rectángulo 31704" width="13.391" height="3.905" fill="#ebebeb"/>
      </g>
      <g id="Grupo_67681" data-name="Grupo 67681" transform="translate(77.217 9.415)">
        <rect id="Rectángulo_31705" data-name="Rectángulo 31705" width="11.008" height="3.905" fill="#ebebeb"/>
      </g>
      <g id="Grupo_67683" data-name="Grupo 67683" transform="translate(2.719 15.702)">
        <g id="Grupo_67682" data-name="Grupo 67682" transform="translate(0 0)">
          <path id="Trazado_133954" data-name="Trazado 133954" d="M.078,41.877s.142,0,.415-.006L1.7,41.864l4.685-.012,17.556-.028,60.892-.048-.1.1c0-12.919,0-27.049-.006-41.765V.105l.105.106L.078.183.156.105C.138,12.98.124,23.413.114,30.632.106,34.244.1,37.051.1,38.959c0,.952-.007,1.679-.009,2.172s-.008.746-.008.746-.005-.245-.008-.73,0-1.212-.008-2.158c0-1.9-.011-4.7-.019-8.31C.032,23.449.018,13,0,.105V.028H.078L84.837,0h.105V.111c0,14.716,0,28.847-.006,41.765v.1h-.1l-60.959-.048L6.345,41.9,1.68,41.889l-1.2-.006C.212,41.881.078,41.877.078,41.877Z" fill="#263238"/>
        </g>
      </g>
      <g id="Grupo_67685" data-name="Grupo 67685" transform="translate(2.957 21.519)">
        <g id="Grupo_67684" data-name="Grupo 67684">
          <path id="Trazado_133955" data-name="Trazado 133955" d="M84.758.106c0,.058-18.975.105-42.377.105S0,.164,0,.106,18.971,0,42.381,0,84.758.047,84.758.106Z" fill="#263238"/>
        </g>
      </g>
      <g id="Grupo_67687" data-name="Grupo 67687" transform="translate(2.957 27.471)">
        <g id="Grupo_67686" data-name="Grupo 67686" transform="translate(0 0)">
          <path id="Trazado_133956" data-name="Trazado 133956" d="M84.758.106c0,.058-18.975.105-42.377.105S0,.164,0,.106,18.971,0,42.381,0,84.758.047,84.758.106Z" fill="#263238"/>
        </g>
      </g>
      <g id="Grupo_67689" data-name="Grupo 67689" transform="translate(2.957 33.423)">
        <g id="Grupo_67688" data-name="Grupo 67688" transform="translate(0 0)">
          <path id="Trazado_133957" data-name="Trazado 133957" d="M84.758.106c0,.058-18.975.105-42.377.105S0,.163,0,.106,18.971,0,42.381,0,84.758.047,84.758.106Z" fill="#263238"/>
        </g>
      </g>
      <g id="Grupo_67691" data-name="Grupo 67691" transform="translate(2.957 39.375)">
        <g id="Grupo_67690" data-name="Grupo 67690" transform="translate(0 0)">
          <path id="Trazado_133958" data-name="Trazado 133958" d="M84.758.105c0,.058-18.975.106-42.377.106S0,.163,0,.105,18.971,0,42.381,0,84.758.047,84.758.105Z" fill="#263238"/>
        </g>
      </g>
      <g id="Grupo_67693" data-name="Grupo 67693" transform="translate(2.957 45.328)">
        <g id="Grupo_67692" data-name="Grupo 67692" transform="translate(0 0)">
          <path id="Trazado_133959" data-name="Trazado 133959" d="M84.758.105c0,.058-18.975.106-42.377.106S0,.163,0,.105,18.971,0,42.381,0,84.758.047,84.758.105Z" fill="#263238"/>
        </g>
      </g>
      <g id="Grupo_67695" data-name="Grupo 67695" transform="translate(2.957 51.28)">
        <g id="Grupo_67694" data-name="Grupo 67694">
          <path id="Trazado_133960" data-name="Trazado 133960" d="M84.758.105c0,.058-18.975.106-42.377.106S0,.163,0,.105,18.971,0,42.381,0,84.758.047,84.758.105Z" fill="#263238"/>
        </g>
      </g>
      <g id="Grupo_67697" data-name="Grupo 67697" transform="translate(15.087 15.946)">
        <g id="Grupo_67696" data-name="Grupo 67696">
          <path id="Trazado_133961" data-name="Trazado 133961" d="M0,0" fill="none" stroke="#fff" stroke-miterlimit="10" stroke-width="1"/>
        </g>
      </g>
      <g id="Grupo_67699" data-name="Grupo 67699" transform="translate(16.738 16.041)">
        <g id="Grupo_67698" data-name="Grupo 67698" transform="translate(0 0)">
          <path id="Trazado_133962" data-name="Trazado 133962" d="M.105,41.662C.047,41.662,0,32.335,0,20.832S.047,0,.105,0,.211,9.325.211,20.832.163,41.662.105,41.662Z" fill="#263238"/>
        </g>
      </g>
      <g id="Grupo_67701" data-name="Grupo 67701" transform="translate(31.576 16.041)">
        <g id="Grupo_67700" data-name="Grupo 67700" transform="translate(0 0)">
          <path id="Trazado_133963" data-name="Trazado 133963" d="M.105,41.537C.047,41.537,0,32.238,0,20.77S.047,0,.105,0,.21,9.3.21,20.77.163,41.537.105,41.537Z" fill="#263238"/>
        </g>
      </g>
      <g id="Grupo_67703" data-name="Grupo 67703" transform="translate(46.414 16.041)">
        <g id="Grupo_67702" data-name="Grupo 67702">
          <path id="Trazado_133964" data-name="Trazado 133964" d="M.106,41.662C.047,41.662,0,32.335,0,20.832S.047,0,.106,0,.211,9.325.211,20.832.163,41.662.106,41.662Z" fill="#263238"/>
        </g>
      </g>
      <g id="Grupo_67705" data-name="Grupo 67705" transform="translate(61.252 16.041)">
        <g id="Grupo_67704" data-name="Grupo 67704">
          <path id="Trazado_133965" data-name="Trazado 133965" d="M.105,41.662C.047,41.662,0,32.335,0,20.832S.047,0,.105,0,.211,9.325.211,20.832.163,41.662.105,41.662Z" fill="#263238"/>
        </g>
      </g>
      <g id="Grupo_67707" data-name="Grupo 67707" transform="translate(76.09 16.041)">
        <g id="Grupo_67706" data-name="Grupo 67706">
          <path id="Trazado_133966" data-name="Trazado 133966" d="M.106,41.662C.047,41.662,0,32.335,0,20.832S.047,0,.106,0,.211,9.325.211,20.832.164,41.662.106,41.662Z" fill="#263238"/>
        </g>
      </g>
      <g id="Grupo_67708" data-name="Grupo 67708" transform="translate(3.657 2.632)">
        <path id="Trazado_133967" data-name="Trazado 133967" d="M1.721.885a.873.873,0,0,1-.86.886A.873.873,0,0,1,0,.885.873.873,0,0,1,.86,0,.873.873,0,0,1,1.721.885Z" fill="#fff"/>
      </g>
      <g id="Grupo_67709" data-name="Grupo 67709" transform="translate(6.58 2.632)">
        <path id="Trazado_133968" data-name="Trazado 133968" d="M1.721.885a.873.873,0,0,1-.86.886A.873.873,0,0,1,0,.885.873.873,0,0,1,.86,0,.873.873,0,0,1,1.721.885Z" fill="#fff"/>
      </g>
      <g id="Grupo_67710" data-name="Grupo 67710" transform="translate(9.504 2.632)">
        <path id="Trazado_133969" data-name="Trazado 133969" d="M1.721.885a.874.874,0,0,1-.86.886A.873.873,0,0,1,0,.885.873.873,0,0,1,.86,0,.873.873,0,0,1,1.721.885Z" fill="#fff"/>
      </g>
      <g id="Grupo_67712" data-name="Grupo 67712" transform="translate(0)">
        <g id="Grupo_67711" data-name="Grupo 67711">
          <path id="Trazado_133970" data-name="Trazado 133970" d="M90.3,60.249c0-.687-.033-23.5-.084-60.144L90.3.189.112.211H.106L.211.106C.207,21.525.2,41.9.2,60.249l-.1-.1,64.988.048,18.561.026,4.934.012,1.272.006c.286,0,.435.006.435.006s-.141,0-.423.006l-1.261.006-4.915.012L65.157,60.3.106,60.346h-.1v-.1C.006,41.9,0,21.525,0,.106V0H.112L90.3.021h.085V.106C90.328,36.746,90.3,59.563,90.3,60.249Z" fill="#263238"/>
        </g>
      </g>
    </g>
    <g id="Grupo_70296" data-name="Grupo 70296" transform="translate(336.413 2314.791)">
      <g id="Grupo_62584" data-name="Grupo 62584">
        <g id="Grupo_62578" data-name="Grupo 62578">
          <g id="Grupo_62577" data-name="Grupo 62577">
            <path id="Trazado_132423" data-name="Trazado 132423" d="M438.962,316.756a22.236,22.236,0,1,1-13.324-28.444A22.212,22.212,0,0,1,438.962,316.756Z" transform="translate(-395.827 -286.967)" fill="#f5f5f5"/>
          </g>
        </g>
        <g id="Grupo_62580" data-name="Grupo 62580" transform="translate(5.291 5.281)">
          <g id="Grupo_62579" data-name="Grupo 62579">
            <path id="Trazado_132424" data-name="Trazado 132424" d="M437.432,318.386a16.945,16.945,0,1,1-10.153-21.676A16.926,16.926,0,0,1,437.432,318.386Z" transform="translate(-404.561 -295.684)" fill="#ebebeb"/>
          </g>
        </g>
        <g id="Grupo_62583" data-name="Grupo 62583" transform="translate(6.121 4.652)">
          <g id="Grupo_62582" data-name="Grupo 62582">
            <g id="Grupo_62581" data-name="Grupo 62581">
              <path id="Trazado_132425" data-name="Trazado 132425" d="M438.149,317.476a10.062,10.062,0,0,1,.275-2.069,17.991,17.991,0,0,0-.064-5.549,17.351,17.351,0,0,0-1.057-3.66,16.951,16.951,0,0,0-2.179-3.768,16.628,16.628,0,0,0-3.431-3.348,16.442,16.442,0,0,0-2.163-1.329,18.007,18.007,0,0,0-2.413-1.01,18.267,18.267,0,0,0-2.541-.617,16.539,16.539,0,0,0-2.53-.211,16.627,16.627,0,0,0-4.748.663,16.961,16.961,0,0,0-3.987,1.745,17.367,17.367,0,0,0-3.021,2.322,17.987,17.987,0,0,0-3.337,4.432,9.957,9.957,0,0,1-1,1.828,4.966,4.966,0,0,1,.546-2.043,15.66,15.66,0,0,1,3.14-4.861,16.979,16.979,0,0,1,7.314-4.566,16.341,16.341,0,0,1,2.462-.578,16.57,16.57,0,0,1,2.634-.213,17.245,17.245,0,0,1,2.733.208,17.359,17.359,0,0,1,5.344,1.754,17.275,17.275,0,0,1,2.324,1.453,17.244,17.244,0,0,1,3.637,3.656,16.974,16.974,0,0,1,3.187,8.012,15.7,15.7,0,0,1-.35,5.777A4.972,4.972,0,0,1,438.149,317.476Z" transform="translate(-405.93 -294.646)" fill="#e0e0e0"/>
            </g>
          </g>
        </g>
      </g>
      <g id="Grupo_62588" data-name="Grupo 62588" transform="translate(12.563 10.872)">
        <g id="Grupo_62587" data-name="Grupo 62587">
          <g id="Grupo_62586" data-name="Grupo 62586">
            <g id="Grupo_62585" data-name="Grupo 62585">
              <path id="Trazado_132426" data-name="Trazado 132426" d="M424.588,326.391l-.967,2.789-2.489-.864.941-2.713a12.489,12.489,0,0,1-5.507-4.143l2.423-2.563a10.657,10.657,0,0,0,4.217,3.444l1.443-4.158c-2.53-1.63-5.3-3.623-4.062-7.184.916-2.64,3.619-4.239,7.708-3.322l.959-2.764,2.49.864-.942,2.715a11.914,11.914,0,0,1,4.527,3.272l-2.308,2.631a10.8,10.8,0,0,0-3.36-2.618l-1.468,4.233c2.538,1.605,5.256,3.582,4.038,7.092C431.331,325.691,428.661,327.274,424.588,326.391Zm1.33-11.869,1.226-3.535c-1.422-.159-2.2.382-2.481,1.2C424.361,313.061,424.943,313.794,425.918,314.522Zm2.2,7.487c.3-.872-.256-1.6-1.2-2.341l-1.192,3.436C427.069,323.263,427.841,322.806,428.118,322.009Z" transform="translate(-416.565 -304.912)" fill="#e0e0e0"/>
            </g>
          </g>
        </g>
      </g>
    </g>
    <g id="Grupo_70298" data-name="Grupo 70298" transform="translate(346.32 2350.864) rotate(2)">
      <g id="Grupo_62584-2" data-name="Grupo 62584">
        <g id="Grupo_62578-2" data-name="Grupo 62578">
          <g id="Grupo_62577-2" data-name="Grupo 62577">
            <path id="Trazado_132423-2" data-name="Trazado 132423" d="M31.711,21.9A16.347,16.347,0,1,1,21.916.989,16.329,16.329,0,0,1,31.711,21.9Z" fill="#f5f5f5"/>
          </g>
        </g>
        <g id="Grupo_62580-2" data-name="Grupo 62580" transform="translate(3.89 3.883)">
          <g id="Grupo_62579-2" data-name="Grupo 62579">
            <path id="Trazado_132424-2" data-name="Trazado 132424" d="M24.165,16.689A12.457,12.457,0,1,1,16.7.754,12.443,12.443,0,0,1,24.165,16.689Z" fill="#ebebeb"/>
          </g>
        </g>
        <g id="Grupo_62583-2" data-name="Grupo 62583" transform="translate(4.5 3.42)">
          <g id="Grupo_62582-2" data-name="Grupo 62582">
            <g id="Grupo_62581-2" data-name="Grupo 62581">
              <path id="Trazado_132425-2" data-name="Trazado 132425" d="M23.686,16.784a7.4,7.4,0,0,1,.2-1.521,13.226,13.226,0,0,0-.047-4.079,12.758,12.758,0,0,0-.777-2.691,12.463,12.463,0,0,0-1.6-2.77A12.226,12.226,0,0,0,18.94,3.262a12.091,12.091,0,0,0-1.59-.977,13.241,13.241,0,0,0-1.774-.742,13.428,13.428,0,0,0-1.868-.454,12.159,12.159,0,0,0-1.86-.155,12.224,12.224,0,0,0-3.491.488A12.47,12.47,0,0,0,5.426,2.7,12.768,12.768,0,0,0,3.205,4.411,13.223,13.223,0,0,0,.752,7.67,7.318,7.318,0,0,1,.015,9.014a3.65,3.65,0,0,1,.4-1.5A11.512,11.512,0,0,1,2.724,3.938,12.482,12.482,0,0,1,8.1.581,12.013,12.013,0,0,1,9.911.156,12.18,12.18,0,0,1,11.847,0a12.675,12.675,0,0,1,2.009.153,13.769,13.769,0,0,1,2.017.485,13.758,13.758,0,0,1,1.912.8A12.7,12.7,0,0,1,19.493,2.51,12.678,12.678,0,0,1,22.167,5.2a12.478,12.478,0,0,1,2.343,5.89,11.541,11.541,0,0,1-.257,4.247A3.655,3.655,0,0,1,23.686,16.784Z" fill="#e0e0e0"/>
            </g>
          </g>
        </g>
      </g>
      <g id="Grupo_62588-2" data-name="Grupo 62588" transform="translate(9.236 7.992)">
        <g id="Grupo_62587-2" data-name="Grupo 62587">
          <g id="Grupo_62586-2" data-name="Grupo 62586">
            <g id="Grupo_62585-2" data-name="Grupo 62585">
              <path id="Trazado_132426-2" data-name="Trazado 132426" d="M5.9,15.79l-.711,2.05L3.357,17.2l.692-1.995A9.182,9.182,0,0,1,0,12.164L1.781,10.28a7.834,7.834,0,0,0,3.1,2.532L5.942,9.755c-1.86-1.2-3.895-2.664-2.986-5.281.673-1.94,2.661-3.117,5.667-2.442L9.328,0l1.83.635-.693,2a8.758,8.758,0,0,1,3.328,2.405L12.1,6.97a7.939,7.939,0,0,0-2.47-1.924L8.547,8.158c1.866,1.18,3.864,2.633,2.968,5.213C10.855,15.275,8.892,16.44,5.9,15.79Zm.978-8.725.9-2.6c-1.046-.117-1.614.281-1.824.884C5.731,5.99,6.159,6.53,6.876,7.065Zm1.617,5.5c.222-.641-.188-1.173-.88-1.721l-.876,2.526C7.722,13.49,8.289,13.155,8.493,12.569Z" fill="#e0e0e0"/>
            </g>
          </g>
        </g>
      </g>
    </g>
    <g id="Background_Complete" data-name="Background Complete" transform="translate(193.765 2301.539)">
      <g id="Grupo_66533" data-name="Grupo 66533" transform="translate(0)">
        <g id="Grupo_66531" data-name="Grupo 66531">
          <g id="Grupo_66418" data-name="Grupo 66418" transform="translate(3.936 21.084)">
            <path id="Trazado_133617" data-name="Trazado 133617" d="M661.289,526.7l.086,15.173,24.017,135.96,122.4-21.621-1.527-8.644Z" transform="translate(-661.289 -526.701)" fill="#5e6178"/>
          </g>
          <g id="Grupo_66419" data-name="Grupo 66419" transform="translate(3.701)">
            <path id="Rectángulo_31654" data-name="Rectángulo 31654" d="M661.29,535.753,759.4,518.423a24.952,24.952,0,0,1,28.913,20.232h0l16.717,94.625A24.956,24.956,0,0,1,784.8,662.195l-98.111,17.331h0l-25.4-143.772Z" transform="translate(-661.053 -514.669)" fill="#6595bf"/>
            <path id="Trazado_133618" data-name="Trazado 133618" d="M804.625,660.632,686.641,681.474,661.174,537.309l117.985-20.842a5.181,5.181,0,0,1,5.986,4.2l23.666,133.973A5.18,5.18,0,0,1,804.625,660.632ZM686.973,681l117.583-20.772a4.771,4.771,0,0,0,3.865-5.523L784.755,520.733a4.771,4.771,0,0,0-5.523-3.863L661.648,537.64Z" transform="translate(-661.174 -516.39)" fill="#6595bf"/>
          </g>
          <g id="Grupo_66420" data-name="Grupo 66420" transform="translate(31.869 5.864)">
            <path id="Trazado_133619" data-name="Trazado 133619" d="M757.175,519.258l8.8,10.133,21.913,124.055L681.808,671.1l-6.859-4.971Z" transform="translate(-674.949 -519.258)" fill="#e0e0e0"/>
          </g>
          <g id="Grupo_66424" data-name="Grupo 66424" transform="translate(8.978 5.21)">
            <g id="Grupo_66421" data-name="Grupo 66421" transform="translate(0.124 0.109)">
              <rect id="Rectángulo_31655" data-name="Rectángulo 31655" width="106.522" height="130.877" transform="translate(0 18.53) rotate(-10.018)" fill="#fff"/>
            </g>
            <g id="Grupo_66423" data-name="Grupo 66423">
              <g id="Grupo_66422" data-name="Grupo 66422">
                <path id="Trazado_133620" data-name="Trazado 133620" d="M791.544,647.927c-.143-.806-9.266-52.221-22.86-128.865l.11.08L663.906,537.672l-.01,0,.08-.115,22.766,128.883-.1-.072,104.914-18.443L686.66,666.546l-.086.017-.014-.088c-6.519-36.862-14.364-81.2-22.787-128.879l-.018-.1.115-.021,104.89-18.517.094-.016.016.092C782.356,595.692,791.4,647.116,791.544,647.927Z" transform="translate(-663.755 -518.938)" fill="#263238"/>
              </g>
            </g>
          </g>
          <g id="Grupo_66425" data-name="Grupo 66425" transform="translate(24.822 62.753)">
            <path id="Trazado_133621" data-name="Trazado 133621" d="M676.323,549.3a2.427,2.427,0,1,1-2.84-2.2A2.546,2.546,0,0,1,676.323,549.3Z" transform="translate(-671.503 -547.077)" fill="#263238"/>
          </g>
          <g id="Grupo_66426" data-name="Grupo 66426" transform="translate(14.811 81.847)" opacity="0.3">
            <path id="Trazado_133622" data-name="Trazado 133622" d="M667.3,561.122l4.534-.8-.7-3.906-4.526.8Z" transform="translate(-666.607 -556.415)"/>
          </g>
          <g id="Grupo_66430" data-name="Grupo 66430" transform="translate(0 54.425)">
            <g id="Grupo_66427" data-name="Grupo 66427" transform="translate(0.086 0.001)">
              <path id="Trazado_133623" data-name="Trazado 133623" d="M671.432,543.26a14.148,14.148,0,1,0,5.006,27.837l2.278-.4-.615-3.3-2.231.489a10.9,10.9,0,1,1,9.423-12.715,1.487,1.487,0,1,0,2.965-.229,1.369,1.369,0,0,0-.049-.286A14.356,14.356,0,0,0,671.432,543.26Z" transform="translate(-659.406 -543.005)" fill="#e0e0e0"/>
            </g>
            <g id="Grupo_66429" data-name="Grupo 66429">
              <g id="Grupo_66428" data-name="Grupo 66428">
                <path id="Trazado_133624" data-name="Trazado 133624" d="M671.482,543.261l.333-.059,1.014-.133c.442-.039.994-.047,1.65-.063a16.038,16.038,0,0,1,2.233.229,14.906,14.906,0,0,1,5.666,2.3l.734.55c.123.094.253.184.374.284l.354.323c.235.219.491.425.718.667l.675.748a14.477,14.477,0,0,1,2.253,3.671,14.285,14.285,0,0,1,.691,2.219,3.391,3.391,0,0,1,.163,1.2,1.666,1.666,0,0,1-.595,1.1,1.447,1.447,0,0,1-1.245.282,1.631,1.631,0,0,1-1.031-.8,2,2,0,0,1-.227-.63l-.147-.63a9.441,9.441,0,0,0-.388-1.245,10.607,10.607,0,0,0-3.19-4.343,11.457,11.457,0,0,0-2.423-1.487,12.692,12.692,0,0,0-1.352-.519c-.233-.074-.472-.125-.709-.188a5.45,5.45,0,0,0-.722-.155l-.734-.115c-.25-.029-.5-.035-.749-.053a13.291,13.291,0,0,0-1.507.006,12.8,12.8,0,0,0-4.448,1.2c-.235.112-.458.251-.689.374l-.346.192-.325.221a11.284,11.284,0,0,0-2.389,2.108,10.746,10.746,0,0,0-1.732,2.722,9.97,9.97,0,0,0-.834,3.178,9.271,9.271,0,0,0,.229,3.327,9.566,9.566,0,0,0,1.317,3.108,11.264,11.264,0,0,0,6.378,4.65,11.562,11.562,0,0,0,3.871.438,6.873,6.873,0,0,0,.959-.088,7.088,7.088,0,0,0,.945-.151l1.863-.407.106-.018.019.106q.313,1.675.615,3.294l.016.1-.11.02c-.847.149-1.683.307-2.517.432l-1.258.159-1.256.033a15.336,15.336,0,0,1-4.8-.847c-.37-.141-.753-.264-1.115-.425l-1.059-.515-.981-.618a4.03,4.03,0,0,1-.474-.331l-.458-.335a14.23,14.23,0,0,1-3.057-3.2c-.225-.288-.382-.613-.573-.912l-.272-.458-.223-.477c-.141-.319-.3-.626-.425-.949l-.333-.967a13.753,13.753,0,0,1-.6-3.865,13,13,0,0,1,.09-1.849,7.67,7.67,0,0,1,.143-.887c.062-.29.1-.587.18-.863a13.932,13.932,0,0,1,.528-1.617l.311-.761c.11-.247.247-.479.364-.716a14.472,14.472,0,0,1,3.533-4.368c.166-.139.309-.272.466-.4l.481-.338a9.52,9.52,0,0,1,.922-.6l.879-.493c.286-.141.577-.258.83-.374a10.784,10.784,0,0,1,1.427-.532c.211-.065.391-.137.581-.182l.489-.106.665-.147.225-.039a1.678,1.678,0,0,0-.221.059l-.66.16-.487.116c-.18.045-.368.121-.577.188a11.274,11.274,0,0,0-1.415.544c-.26.121-.538.243-.818.378l-.875.5a8.868,8.868,0,0,0-.912.609l-.474.337c-.157.121-.3.26-.462.391a14.364,14.364,0,0,0-3.486,4.354c-.117.229-.25.46-.358.71l-.3.756a13.694,13.694,0,0,0-.515,1.605c-.084.276-.108.564-.174.861a7.476,7.476,0,0,0-.139.877,13.094,13.094,0,0,0-.092,1.832,13.58,13.58,0,0,0,.612,3.806l.331.955c.117.319.282.622.423.937l.227.468.264.45c.188.294.344.617.562.9a14.04,14.04,0,0,0,3.028,3.155l.454.335a4.027,4.027,0,0,0,.47.319l.984.593,1.047.505c.352.17.73.288,1.1.432a15.133,15.133,0,0,0,4.738.824l1.241-.035,1.241-.158c.83-.123,1.667-.294,2.515-.433l-.084.119q-.3-1.62-.618-3.294l.123.082-1.867.409a8.037,8.037,0,0,1-.959.157,7.1,7.1,0,0,1-.975.088,11.7,11.7,0,0,1-3.939-.444,11.464,11.464,0,0,1-6.5-4.736,9.818,9.818,0,0,1-1.345-3.174,9.4,9.4,0,0,1-.229-3.395,10.043,10.043,0,0,1,.853-3.243,10.875,10.875,0,0,1,1.761-2.789,11.41,11.41,0,0,1,2.431-2.143l.333-.227.35-.192c.235-.127.464-.266.7-.38a12.958,12.958,0,0,1,4.523-1.215,12.788,12.788,0,0,1,1.536,0c.252.018.507.027.757.055l.747.119a5.666,5.666,0,0,1,.734.159c.239.066.485.123.722.192a12.435,12.435,0,0,1,1.376.54,11.679,11.679,0,0,1,2.462,1.515,10.78,10.78,0,0,1,3.235,4.423,9.185,9.185,0,0,1,.393,1.27c.051.213.1.425.149.638a1.759,1.759,0,0,0,.2.587,1.479,1.479,0,0,0,.922.718,1.286,1.286,0,0,0,1.1-.247,1.52,1.52,0,0,0,.54-.994,3.281,3.281,0,0,0-.16-1.151,14.242,14.242,0,0,0-.677-2.2,14.392,14.392,0,0,0-2.215-3.642l-.668-.744c-.225-.237-.474-.446-.708-.665l-.36-.321c-.119-.1-.241-.192-.37-.284l-.72-.55a14.893,14.893,0,0,0-5.622-2.309,16.519,16.519,0,0,0-2.221-.249c-.646.008-1.2.006-1.63.039l-1.018.118C671.6,543.255,671.482,543.261,671.482,543.261Z" transform="translate(-659.365 -543.005)" fill="#263238"/>
              </g>
            </g>
          </g>
          <g id="Grupo_66431" data-name="Grupo 66431" transform="translate(31.511 100.62)">
            <path id="Trazado_133625" data-name="Trazado 133625" d="M679.6,567.813a2.428,2.428,0,1,1-2.843-2.2A2.549,2.549,0,0,1,679.6,567.813Z" transform="translate(-674.774 -565.595)" fill="#263238"/>
          </g>
          <g id="Grupo_66432" data-name="Grupo 66432" transform="translate(31.309 39.174)">
            <rect id="Rectángulo_31656" data-name="Rectángulo 31656" width="82.056" height="3.434" transform="translate(0 14.274) rotate(-10.018)" fill="#6595bf"/>
          </g>
          <g id="Grupo_66433" data-name="Grupo 66433" transform="translate(30.577 40.983)">
            <rect id="Rectángulo_31657" data-name="Rectángulo 31657" width="47.826" height="3.434" transform="translate(0 8.32) rotate(-10.018)" fill="#6595bf"/>
          </g>
          <g id="Grupo_66434" data-name="Grupo 66434" transform="translate(44.155 117.847)">
            <rect id="Rectángulo_31658" data-name="Rectángulo 31658" width="47.826" height="3.434" transform="translate(0 8.32) rotate(-10.018)" fill="#6595bf"/>
          </g>
          <g id="Grupo_66518" data-name="Grupo 66518" transform="translate(29.639 27.668)">
            <g id="Grupo_66517" data-name="Grupo 66517" transform="translate(0 0)">
              <g id="Grupo_66516" data-name="Grupo 66516">
                <g id="Grupo_66436" data-name="Grupo 66436" transform="translate(0)">
                  <g id="Grupo_66435" data-name="Grupo 66435" transform="translate(0)">
                    <rect id="Rectángulo_31659" data-name="Rectángulo 31659" width="82.159" height="5.009" transform="translate(0 14.292) rotate(-10.018)" fill="#e0e0e0"/>
                  </g>
                </g>
                <g id="Grupo_66438" data-name="Grupo 66438" transform="translate(7.118 45.373)">
                  <g id="Grupo_66437" data-name="Grupo 66437" transform="translate(0 0)">
                    <rect id="Rectángulo_31660" data-name="Rectángulo 31660" width="82.159" height="5.009" transform="translate(0 14.292) rotate(-10.018)" fill="#e0e0e0"/>
                  </g>
                </g>
                <g id="Grupo_66440" data-name="Grupo 66440" transform="translate(3.696 29.514)">
                  <g id="Grupo_66439" data-name="Grupo 66439" transform="translate(0 0)">
                    <rect id="Rectángulo_31661" data-name="Rectángulo 31661" width="32.768" height="5.009" transform="translate(0 5.7) rotate(-10.018)" fill="#e0e0e0"/>
                  </g>
                </g>
                <g id="Grupo_66442" data-name="Grupo 66442" transform="translate(43.39 21.076)">
                  <g id="Grupo_66441" data-name="Grupo 66441" transform="translate(0 0)">
                    <rect id="Rectángulo_31662" data-name="Rectángulo 31662" width="40.966" height="5.009" transform="translate(0 7.126) rotate(-10.018)" fill="#e0e0e0"/>
                  </g>
                </g>
                <g id="Grupo_66445" data-name="Grupo 66445" transform="translate(2.011 15.327)">
                  <g id="Grupo_66444" data-name="Grupo 66444">
                    <g id="Grupo_66443" data-name="Grupo 66443">
                      <path id="Trazado_133626" data-name="Trazado 133626" d="M721.221,537.417c.01.055-10.366,1.93-23.171,4.192s-23.2,4.057-23.208,4,10.364-1.939,23.173-4.2S721.211,537.358,721.221,537.417Z" transform="translate(-674.842 -537.415)" fill="#263238"/>
                    </g>
                  </g>
                </g>
                <g id="Grupo_66448" data-name="Grupo 66448" transform="translate(2.611 13.256)">
                  <g id="Grupo_66447" data-name="Grupo 66447">
                    <g id="Grupo_66446" data-name="Grupo 66446">
                      <path id="Trazado_133627" data-name="Trazado 133627" d="M755.3,536.4c.01.055-17.926,3.266-40.066,7.176s-40.09,7.041-40.1,6.985,17.928-3.276,40.066-7.186S755.292,536.344,755.3,536.4Z" transform="translate(-675.135 -536.403)" fill="#263238"/>
                    </g>
                  </g>
                </g>
                <g id="Grupo_66451" data-name="Grupo 66451" transform="translate(3.261 16.93)">
                  <g id="Grupo_66450" data-name="Grupo 66450">
                    <g id="Grupo_66449" data-name="Grupo 66449">
                      <path id="Trazado_133628" data-name="Trazado 133628" d="M755.62,538.2c.01.059-17.926,3.266-40.066,7.178s-40.091,7.043-40.1,6.983,17.926-3.274,40.064-7.184S755.61,538.143,755.62,538.2Z" transform="translate(-675.453 -538.2)" fill="#263238"/>
                    </g>
                  </g>
                </g>
                <g id="Grupo_66454" data-name="Grupo 66454" transform="translate(4.846 37.503)">
                  <g id="Grupo_66453" data-name="Grupo 66453" transform="translate(0)">
                    <g id="Grupo_66452" data-name="Grupo 66452">
                      <path id="Trazado_133629" data-name="Trazado 133629" d="M708.47,548.262c.01.059-7.2,1.38-16.1,2.951s-16.137,2.8-16.147,2.745,7.2-1.378,16.1-2.951S708.458,548.2,708.47,548.262Z" transform="translate(-676.228 -548.26)" fill="#263238"/>
                    </g>
                  </g>
                </g>
                <g id="Grupo_66457" data-name="Grupo 66457" transform="translate(6.05 41.294)">
                  <g id="Grupo_66456" data-name="Grupo 66456">
                    <g id="Grupo_66455" data-name="Grupo 66455">
                      <path id="Trazado_133630" data-name="Trazado 133630" d="M708.524,550.116c.01.059-7.08,1.358-15.834,2.906s-15.862,2.752-15.872,2.7,7.077-1.358,15.836-2.906S708.513,550.057,708.524,550.116Z" transform="translate(-676.817 -550.114)" fill="#263238"/>
                    </g>
                  </g>
                </g>
                <g id="Grupo_66460" data-name="Grupo 66460" transform="translate(6.326 45.169)">
                  <g id="Grupo_66459" data-name="Grupo 66459">
                    <g id="Grupo_66458" data-name="Grupo 66458">
                      <path id="Trazado_133631" data-name="Trazado 133631" d="M708.93,552.011c.01.055-7.143,1.36-15.973,2.92s-16,2.785-16.005,2.728,7.137-1.368,15.971-2.928S708.92,551.952,708.93,552.011Z" transform="translate(-676.952 -552.009)" fill="#263238"/>
                    </g>
                  </g>
                </g>
                <g id="Grupo_66463" data-name="Grupo 66463" transform="translate(6.987 48.907)">
                  <g id="Grupo_66462" data-name="Grupo 66462">
                    <g id="Grupo_66461" data-name="Grupo 66461">
                      <path id="Trazado_133632" data-name="Trazado 133632" d="M709.253,553.839c.008.055-7.143,1.362-15.973,2.92s-16,2.785-16.005,2.728,7.137-1.368,15.971-2.928S709.243,553.78,709.253,553.839Z" transform="translate(-677.275 -553.837)" fill="#263238"/>
                    </g>
                  </g>
                </g>
                <g id="Grupo_66470" data-name="Grupo 66470" transform="translate(46.116 30.017)">
                  <g id="Grupo_66466" data-name="Grupo 66466" transform="translate(5.162)">
                    <g id="Grupo_66465" data-name="Grupo 66465">
                      <g id="Grupo_66464" data-name="Grupo 66464">
                        <path id="Trazado_133633" data-name="Trazado 133633" d="M732.327,544.6c.01.055-7.46,1.417-16.678,3.045s-16.7,2.91-16.715,2.853,7.456-1.425,16.68-3.053S732.317,544.542,732.327,544.6Z" transform="translate(-698.934 -544.599)" fill="#263238"/>
                      </g>
                    </g>
                  </g>
                  <g id="Grupo_66469" data-name="Grupo 66469" transform="translate(0 5.039)">
                    <g id="Grupo_66468" data-name="Grupo 66468" transform="translate(0)">
                      <g id="Grupo_66467" data-name="Grupo 66467">
                        <path id="Trazado_133634" data-name="Trazado 133634" d="M699.216,549.584a6.531,6.531,0,0,1-.159-.685c-.09-.417-.217-1.018-.35-1.715l.1.08-2.3.407.084-.112h0l.057.327.057.323.11.624.2,1.141-.116-.072c.671-.119,1.239-.19,1.648-.243a5.57,5.57,0,0,1,.667-.072,3.481,3.481,0,0,1-.6.151c-.4.088-.982.211-1.687.35l-.086.014-.016-.1-.2-1.141-.11-.624-.115-.646h0l.066-.127,2.3-.389.086-.016.017.092c.131.744.212,1.366.27,1.787A3.985,3.985,0,0,1,699.216,549.584Z" transform="translate(-696.41 -547.063)" fill="#263238"/>
                      </g>
                    </g>
                  </g>
                </g>
                <g id="Grupo_66477" data-name="Grupo 66477" transform="translate(46.936 34.657)">
                  <g id="Grupo_66473" data-name="Grupo 66473" transform="translate(5.162)">
                    <g id="Grupo_66472" data-name="Grupo 66472">
                      <g id="Grupo_66471" data-name="Grupo 66471">
                        <path id="Trazado_133635" data-name="Trazado 133635" d="M732.728,546.87c.01.057-7.46,1.417-16.678,3.047s-16.7,2.908-16.715,2.853,7.456-1.425,16.678-3.055S732.718,546.811,732.728,546.87Z" transform="translate(-699.335 -546.868)" fill="#263238"/>
                      </g>
                    </g>
                  </g>
                  <g id="Grupo_66476" data-name="Grupo 66476" transform="translate(0 5.041)">
                    <g id="Grupo_66475" data-name="Grupo 66475" transform="translate(0)">
                      <g id="Grupo_66474" data-name="Grupo 66474">
                        <path id="Trazado_133636" data-name="Trazado 133636" d="M699.617,551.854a6.7,6.7,0,0,1-.16-.687c-.09-.415-.219-1.016-.35-1.714l.1.08-2.3.4.084-.113h0l.057.329.057.321.111.626.2,1.139-.118-.072c.671-.119,1.241-.188,1.648-.243a5.241,5.241,0,0,1,.669-.074,3.5,3.5,0,0,1-.6.151c-.4.088-.979.213-1.685.352l-.086.016-.016-.1-.2-1.139-.11-.626-.113-.646h0l.064-.125,2.3-.391.086-.014.016.09c.131.746.213,1.364.27,1.789A3.955,3.955,0,0,1,699.617,551.854Z" transform="translate(-696.811 -549.333)" fill="#263238"/>
                      </g>
                    </g>
                  </g>
                </g>
                <g id="Grupo_66484" data-name="Grupo 66484" transform="translate(47.756 39.297)">
                  <g id="Grupo_66480" data-name="Grupo 66480" transform="translate(5.162)">
                    <g id="Grupo_66479" data-name="Grupo 66479">
                      <g id="Grupo_66478" data-name="Grupo 66478">
                        <path id="Trazado_133637" data-name="Trazado 133637" d="M733.129,549.139c.01.059-7.46,1.419-16.678,3.047s-16.7,2.912-16.715,2.853,7.456-1.425,16.678-3.055S733.119,549.082,733.129,549.139Z" transform="translate(-699.736 -549.137)" fill="#263238"/>
                      </g>
                    </g>
                  </g>
                  <g id="Grupo_66483" data-name="Grupo 66483" transform="translate(0 5.041)">
                    <g id="Grupo_66482" data-name="Grupo 66482" transform="translate(0)">
                      <g id="Grupo_66481" data-name="Grupo 66481">
                        <path id="Trazado_133638" data-name="Trazado 133638" d="M700.018,554.123a6.012,6.012,0,0,1-.16-.687c-.092-.415-.219-1.016-.35-1.714l.1.08-2.3.407.084-.112h0l.057.327.057.323.11.624.2,1.141-.115-.072c.671-.118,1.239-.19,1.646-.243a5.233,5.233,0,0,1,.669-.072,3.539,3.539,0,0,1-.6.151c-.4.088-.982.211-1.687.35l-.086.014-.016-.1-.2-1.141-.11-.624-.113-.646h0l.063-.127,2.3-.389.086-.016.016.092c.131.744.211,1.364.27,1.787A4.008,4.008,0,0,1,700.018,554.123Z" transform="translate(-697.212 -551.602)" fill="#263238"/>
                      </g>
                    </g>
                  </g>
                </g>
                <g id="Grupo_66506" data-name="Grupo 66506" transform="translate(9.271 54.746)">
                  <g id="Grupo_66487" data-name="Grupo 66487">
                    <g id="Grupo_66486" data-name="Grupo 66486">
                      <g id="Grupo_66485" data-name="Grupo 66485">
                        <path id="Trazado_133639" data-name="Trazado 133639" d="M762.211,579.626l-.069-.4-.2-1.155c-.18-1.019-.446-2.521-.808-4.474-.689-3.906-1.716-9.609-3.006-16.819l.072.053-79.664,14.108h0l.08-.113,4.039,22.854-.117-.086,56.908-10.006,16.723-2.924,4.495-.779,1.168-.206.4-.072-.387.067-1.155.2-4.47.8-16.687,2.977-56.953,10.108-.117.02-.014-.069-4.037-22.858-.018-.1.1-.018L758.162,556.7l.061-.01.01.065c1.264,7.233,2.262,12.952,2.945,16.868.346,1.947.6,3.448.775,4.464l.2,1.143C762.189,579.5,762.211,579.626,762.211,579.626Z" transform="translate(-678.392 -556.692)" fill="#263238"/>
                      </g>
                    </g>
                  </g>
                  <g id="Grupo_66490" data-name="Grupo 66490" transform="translate(1.356 5.827)">
                    <g id="Grupo_66489" data-name="Grupo 66489">
                      <g id="Grupo_66488" data-name="Grupo 66488">
                        <path id="Trazado_133640" data-name="Trazado 133640" d="M758.5,559.542c.01.057-17.768,3.245-39.7,7.12s-39.735,6.969-39.745,6.914,17.764-3.247,39.706-7.123S758.49,559.483,758.5,559.542Z" transform="translate(-679.055 -559.542)" fill="#263238"/>
                      </g>
                    </g>
                  </g>
                  <g id="Grupo_66493" data-name="Grupo 66493" transform="translate(2.36 11.502)">
                    <g id="Grupo_66492" data-name="Grupo 66492">
                      <g id="Grupo_66491" data-name="Grupo 66491">
                        <path id="Trazado_133641" data-name="Trazado 133641" d="M758.989,562.317c.01.057-17.768,3.245-39.7,7.12s-39.735,6.969-39.743,6.912,17.762-3.245,39.7-7.12S758.979,562.258,758.989,562.317Z" transform="translate(-679.546 -562.317)" fill="#263238"/>
                      </g>
                    </g>
                  </g>
                  <g id="Grupo_66496" data-name="Grupo 66496" transform="translate(3.372 17.238)">
                    <g id="Grupo_66495" data-name="Grupo 66495">
                      <g id="Grupo_66494" data-name="Grupo 66494">
                        <path id="Trazado_133642" data-name="Trazado 133642" d="M759.486,565.122c.008.055-17.768,3.245-39.7,7.121s-39.733,6.969-39.743,6.914,17.764-3.247,39.7-7.122S759.474,565.063,759.486,565.122Z" transform="translate(-680.041 -565.121)" fill="#263238"/>
                      </g>
                    </g>
                  </g>
                  <g id="Grupo_66499" data-name="Grupo 66499" transform="translate(9.367 12.474)">
                    <g id="Grupo_66498" data-name="Grupo 66498" transform="translate(0)">
                      <g id="Grupo_66497" data-name="Grupo 66497">
                        <path id="Trazado_133643" data-name="Trazado 133643" d="M687.055,585.883c-.055.01-1.012-5.147-2.139-11.527s-2-11.554-1.941-11.564,1.016,5.151,2.141,11.527S687.11,585.873,687.055,585.883Z" transform="translate(-682.973 -562.792)" fill="#263238"/>
                      </g>
                    </g>
                  </g>
                  <g id="Grupo_66502" data-name="Grupo 66502" transform="translate(36.368 8.063)">
                    <g id="Grupo_66501" data-name="Grupo 66501" transform="translate(0)">
                      <g id="Grupo_66500" data-name="Grupo 66500">
                        <path id="Trazado_133644" data-name="Trazado 133644" d="M700.075,582.685c-.053.01-.969-4.912-2.045-11.006s-1.9-11.034-1.851-11.045.976,4.918,2.051,11.008S700.132,582.675,700.075,582.685Z" transform="translate(-696.177 -560.635)" fill="#263238"/>
                      </g>
                    </g>
                  </g>
                  <g id="Grupo_66505" data-name="Grupo 66505" transform="translate(64.815 3.397)">
                    <g id="Grupo_66504" data-name="Grupo 66504" transform="translate(0)">
                      <g id="Grupo_66503" data-name="Grupo 66503">
                        <path id="Trazado_133645" data-name="Trazado 133645" d="M714.109,581.095c-.055.01-1-5.074-2.108-11.351s-1.965-11.382-1.91-11.39,1,5.071,2.112,11.353S714.164,581.084,714.109,581.095Z" transform="translate(-710.088 -558.353)" fill="#263238"/>
                      </g>
                    </g>
                  </g>
                </g>
                <g id="Grupo_66509" data-name="Grupo 66509" transform="translate(14.708 83.075)">
                  <g id="Grupo_66508" data-name="Grupo 66508">
                    <g id="Grupo_66507" data-name="Grupo 66507">
                      <path id="Trazado_133646" data-name="Trazado 133646" d="M758.752,570.546c.01.057-17.378,3.169-38.831,6.961s-38.86,6.822-38.87,6.767,17.372-3.178,38.835-6.969S758.741,570.489,758.752,570.546Z" transform="translate(-681.051 -570.546)" fill="#263238"/>
                    </g>
                  </g>
                </g>
                <g id="Grupo_66512" data-name="Grupo 66512" transform="translate(15.291 86.38)">
                  <g id="Grupo_66511" data-name="Grupo 66511">
                    <g id="Grupo_66510" data-name="Grupo 66510">
                      <path id="Trazado_133647" data-name="Trazado 133647" d="M759.039,572.162c.01.055-17.378,3.17-38.833,6.959s-38.859,6.824-38.87,6.767,17.373-3.176,38.835-6.967S759.028,572.1,759.039,572.162Z" transform="translate(-681.336 -572.162)" fill="#263238"/>
                    </g>
                  </g>
                </g>
                <g id="Grupo_66515" data-name="Grupo 66515" transform="translate(15.876 98.413)">
                  <g id="Grupo_66514" data-name="Grupo 66514">
                    <g id="Grupo_66513" data-name="Grupo 66513">
                      <path id="Trazado_133648" data-name="Trazado 133648" d="M709.9,578.048c.01.055-6.313,1.215-14.12,2.593s-14.145,2.458-14.155,2.4,6.311-1.221,14.118-2.6S709.887,577.989,709.9,578.048Z" transform="translate(-681.622 -578.046)" fill="#263238"/>
                    </g>
                  </g>
                </g>
              </g>
            </g>
          </g>
          <g id="Grupo_66519" data-name="Grupo 66519" transform="translate(21.293 118.537)" opacity="0.3">
            <path id="Trazado_133649" data-name="Trazado 133649" d="M670.466,579.062l4.533-.8-.7-3.906-4.523.8Z" transform="translate(-669.777 -574.357)"/>
          </g>
          <g id="Grupo_66523" data-name="Grupo 66523" transform="translate(6.638 92.004)">
            <g id="Grupo_66520" data-name="Grupo 66520" transform="translate(0.086 0)">
              <path id="Trazado_133650" data-name="Trazado 133650" d="M674.68,561.637a14.147,14.147,0,1,0,5,27.836l2.278-.4-.615-3.3-2.229.489a10.9,10.9,0,1,1,9.423-12.715,1.487,1.487,0,0,0,2.965-.227,1.52,1.52,0,0,0-.051-.288A14.353,14.353,0,0,0,674.68,561.637Z" transform="translate(-662.652 -561.382)" fill="#e0e0e0"/>
            </g>
            <g id="Grupo_66522" data-name="Grupo 66522" transform="translate(0)">
              <g id="Grupo_66521" data-name="Grupo 66521">
                <path id="Trazado_133651" data-name="Trazado 133651" d="M674.73,561.635l.331-.059,1.016-.131c.442-.039.992-.047,1.65-.063a16.338,16.338,0,0,1,2.231.229,14.857,14.857,0,0,1,5.666,2.3l.736.548c.123.094.252.184.374.286l.354.321c.233.221.491.425.716.667l.677.749a14.512,14.512,0,0,1,2.251,3.673,14.283,14.283,0,0,1,.691,2.219,3.444,3.444,0,0,1,.166,1.207,1.686,1.686,0,0,1-.6,1.1,1.458,1.458,0,0,1-1.245.282,1.645,1.645,0,0,1-1.031-.8,1.981,1.981,0,0,1-.225-.63l-.149-.628a9.181,9.181,0,0,0-.388-1.247,10.606,10.606,0,0,0-3.188-4.343,11.645,11.645,0,0,0-2.423-1.486,12.949,12.949,0,0,0-1.354-.53c-.233-.071-.474-.123-.712-.188a5.325,5.325,0,0,0-.722-.154l-.734-.117c-.247-.027-.5-.035-.747-.053A11.894,11.894,0,0,0,672.121,566c-.237.112-.46.25-.691.374l-.344.192-.327.223a11.16,11.16,0,0,0-2.386,2.108,10.614,10.614,0,0,0-1.73,2.73,9.832,9.832,0,0,0-.834,3.178,11.019,11.019,0,0,0-.039,1.667,11.269,11.269,0,0,0,.266,1.658,9.563,9.563,0,0,0,1.317,3.108,11.255,11.255,0,0,0,6.378,4.65,11.564,11.564,0,0,0,3.871.44,7.178,7.178,0,0,0,.959-.086,7.76,7.76,0,0,0,.945-.155l1.863-.407.106-.018.018.106q.313,1.675.616,3.294l.018.1-.112.018c-.845.149-1.681.307-2.518.434l-1.258.155-1.256.033a15.354,15.354,0,0,1-4.8-.844c-.37-.143-.753-.264-1.114-.427l-1.059-.515-.982-.618a3.757,3.757,0,0,1-.472-.331l-.458-.335a14.2,14.2,0,0,1-3.059-3.2c-.225-.288-.382-.614-.572-.912l-.27-.458-.225-.476c-.141-.319-.3-.626-.425-.949l-.331-.967a13.684,13.684,0,0,1-.6-3.865,12.974,12.974,0,0,1,.09-1.849,7.651,7.651,0,0,1,.143-.887c.061-.29.1-.585.18-.863a13.95,13.95,0,0,1,.528-1.617l.311-.761c.11-.247.247-.478.364-.716a14.447,14.447,0,0,1,3.536-4.368c.164-.137.307-.272.464-.4l.481-.335a8.744,8.744,0,0,1,.924-.6l.877-.5c.286-.141.577-.258.83-.374a10.844,10.844,0,0,1,1.427-.53c.211-.066.391-.137.581-.18l.491-.108.663-.145.227-.041a2.034,2.034,0,0,0-.223.059l-.658.162-.489.114c-.18.047-.368.121-.577.188a11.291,11.291,0,0,0-1.415.544c-.26.121-.536.243-.818.378l-.875.5a8.523,8.523,0,0,0-.912.607l-.474.337c-.158.121-.3.262-.46.391a14.344,14.344,0,0,0-3.489,4.354c-.116.229-.249.46-.358.71l-.3.757a14.207,14.207,0,0,0-.517,1.6c-.082.276-.106.564-.172.861a7.492,7.492,0,0,0-.139.877,13.1,13.1,0,0,0-.092,1.832,13.517,13.517,0,0,0,.613,3.808l.329.955c.117.319.282.622.423.937l.227.47.264.448c.19.3.344.618.564.9a14,14,0,0,0,3.026,3.157l.454.335a3.7,3.7,0,0,0,.472.319l.984.593,1.047.507c.352.168.728.286,1.094.43a15.141,15.141,0,0,0,4.738.824l1.241-.035,1.241-.158c.832-.123,1.669-.294,2.515-.433l-.082.119q-.3-1.62-.618-3.294l.123.082-1.869.409a7.9,7.9,0,0,1-.959.157,7.048,7.048,0,0,1-.975.088,11.709,11.709,0,0,1-3.939-.444,11.456,11.456,0,0,1-6.5-4.738,9.716,9.716,0,0,1-1.35-3.182,11.312,11.312,0,0,1-.27-1.693,11.578,11.578,0,0,1,.039-1.7,10.151,10.151,0,0,1,.853-3.243,10.892,10.892,0,0,1,1.765-2.779,11.452,11.452,0,0,1,2.431-2.143l.333-.227.352-.192c.235-.127.462-.268.7-.382a13.046,13.046,0,0,1,4.523-1.215,12.79,12.79,0,0,1,1.536,0c.252.018.507.027.757.055l.746.118a5.681,5.681,0,0,1,.734.16c.239.065.485.123.722.192a12.383,12.383,0,0,1,1.376.538,11.615,11.615,0,0,1,2.46,1.515,10.763,10.763,0,0,1,3.237,4.425,9.106,9.106,0,0,1,.392,1.268q.074.322.147.638a1.809,1.809,0,0,0,.207.587,1.478,1.478,0,0,0,.922.718,1.273,1.273,0,0,0,1.1-.247,1.509,1.509,0,0,0,.542-.994,3.321,3.321,0,0,0-.159-1.149,14.142,14.142,0,0,0-.677-2.2,14.378,14.378,0,0,0-2.217-3.644l-.667-.744c-.225-.237-.477-.444-.708-.662l-.36-.319c-.119-.1-.241-.192-.37-.284l-.72-.55a14.891,14.891,0,0,0-5.622-2.309,16.522,16.522,0,0,0-2.221-.25c-.646.008-1.2.01-1.63.039l-1.016.119C674.847,561.63,674.73,561.635,674.73,561.635Z" transform="translate(-662.611 -561.382)" fill="#263238"/>
              </g>
            </g>
          </g>
          <g id="Grupo_66526" data-name="Grupo 66526" transform="translate(35.427 11.154)">
            <g id="Grupo_66525" data-name="Grupo 66525" transform="translate(0)">
              <path id="Trazado_133653" data-name="Trazado 133653" d="M676.689,666l.536-.094,1.575-.278,6.061-1.051,22.433-3.846,75.114-12.8-.086.123-1.814-10.272c-5.644-32.015-10.752-60.992-14.45-81.97L761.7,530.967c-.518-2.932-.906-5.208-1.172-6.758-.137-.769-.241-1.358-.3-1.759s-.1-.605-.1-.605.035.2.117.6.174.986.319,1.755c.274,1.546.687,3.824,1.214,6.75,1.035,5.867,2.552,14.349,4.419,24.831,3.705,20.979,8.842,49.949,14.509,81.96l1.816,10.271.016.1-.1.018-75.126,12.734-22.443,3.789-6.069,1.012-1.577.258C676.873,665.979,676.689,666,676.689,666Z" transform="translate(-676.689 -521.845)" fill="#263238"/>
            </g>
          </g>
          <g id="Grupo_66528" data-name="Grupo 66528" transform="translate(33.391 8.545)">
            <g id="Grupo_66527" data-name="Grupo 66527" transform="translate(0)">
              <path id="Trazado_133654" data-name="Trazado 133654" d="M675.693,665.942l.534-.1,1.568-.276,6.043-1.067,22.367-3.9,74.973-12.989-.088.121c-.61-3.452-1.258-7.125-1.9-10.838-5.627-32.124-10.721-61.2-14.41-82.249-1.834-10.523-3.317-19.038-4.343-24.928l-1.17-6.779c-.129-.781-.231-1.364-.3-1.767s-.094-.605-.094-.605l.106.6.311,1.763c.276,1.552.677,3.826,1.211,6.771l4.4,24.92c3.7,21.046,8.82,50.119,14.472,82.236.654,3.714,1.3,7.384,1.9,10.84l.018.1-.1.018L706.2,660.748l-22.38,3.834-6.049,1.029-1.572.26Z" transform="translate(-675.693 -520.569)" fill="#263238"/>
            </g>
          </g>
          <g id="Grupo_66530" data-name="Grupo 66530" transform="translate(37.276 14.248)">
            <g id="Grupo_66529" data-name="Grupo 66529" transform="translate(0)">
              <path id="Trazado_133655" data-name="Trazado 133655" d="M677.593,665.782l.534-.094,1.57-.278,6.057-1.049,22.4-3.84,74.934-12.775-.088.123c-.521-3.024-1.078-6.249-1.642-9.507-5.47-31.758-10.423-60.5-14.01-81.312-1.781-10.4-3.225-18.821-4.221-24.645-.493-2.908-.877-5.165-1.137-6.7-.135-.763-.223-1.348-.29-1.742s-.092-.6-.092-.6l.1.591.307,1.74,1.184,6.7c1.012,5.818,2.476,14.235,4.288,24.631,3.6,20.809,8.576,49.548,14.071,81.3.562,3.253,1.121,6.48,1.642,9.5l.018.1-.1.018-74.944,12.707-22.408,3.777-6.063,1.012-1.575.258C677.775,665.758,677.593,665.782,677.593,665.782Z" transform="translate(-677.593 -523.358)" fill="#263238"/>
            </g>
          </g>
        </g>
        <g id="Grupo_66532" data-name="Grupo 66532" transform="translate(118.555 18.17)">
          <path id="Trazado_133656" data-name="Trazado 133656" d="M717.34,527.012l9.828-1.736,4.206,3.315-2.219,5.225-10.294,1.818Z" transform="translate(-717.34 -525.276)" fill="#455a64"/>
        </g>
      </g>
    </g>
    <g id="Grupo_70299" data-name="Grupo 70299" transform="translate(191.886 2383.925)">
      <g id="freepik--Documents--inject-68" transform="translate(0 0)">
        <path id="Trazado_106074" data-name="Trazado 106074" d="M5411.059,2969.432h0a3.164,3.164,0,0,1,3.083-2.453h23.011a3.163,3.163,0,0,1,3.164,3.164h0v51.148a3.164,3.164,0,0,1-3.164,3.164h-73.06a3.164,3.164,0,0,1-3.164-3.164v-42.965a3.164,3.164,0,0,1,3.164-3.164h39.766A7.386,7.386,0,0,0,5411.059,2969.432Z" transform="translate(-5351.56 -2935.94)" fill="#d9a171"/>
        <path id="Trazado_106075" data-name="Trazado 106075" d="M5411.059,2969.432h0a3.164,3.164,0,0,1,3.083-2.453h23.011a3.163,3.163,0,0,1,3.164,3.164h0v51.148a3.164,3.164,0,0,1-3.164,3.164h-73.06a3.164,3.164,0,0,1-3.164-3.164v-42.965a3.164,3.164,0,0,1,3.164-3.164h39.766A7.386,7.386,0,0,0,5411.059,2969.432Z" transform="translate(-5351.56 -2935.94)" fill="#344154" opacity="0.6" style="isolation: isolate"/>
        <path id="Trazado_106076" data-name="Trazado 106076" d="M5447.273,2920.128l-2.051,6.642a3.339,3.339,0,0,1-4.173,2.2l-6.64-2.051Z" transform="translate(-5379.65 -2902.565)" fill="#d9a171" opacity="0.22" style="isolation: isolate"/>
        <path id="Trazado_106077" data-name="Trazado 106077" d="M5368.231,2920.128l23.73,7.332a3.334,3.334,0,0,1,2.207,4.166v.005l-13.548,43.859a3.337,3.337,0,0,1-4.173,2.2h0l-30.372-9.383a3.334,3.334,0,0,1-2.2-4.167v0l11.506-37.218Z" transform="translate(-5300.608 -2902.565)" fill="#d9a171"/>
        <path id="Trazado_106078" data-name="Trazado 106078" d="M5368.231,2920.128l23.73,7.332a3.334,3.334,0,0,1,2.207,4.166v.005l-13.548,43.859a3.337,3.337,0,0,1-4.173,2.2h0l-30.372-9.383a3.334,3.334,0,0,1-2.2-4.167v0l11.506-37.218Z" transform="translate(-5300.608 -2902.565)" fill="#fff" stroke="#5e6178" stroke-miterlimit="10" stroke-width="0" opacity="0.8" style="isolation: isolate"/>
        <g id="Grupo_57126" data-name="Grupo 57126" transform="translate(53.828 60.981)" opacity="0.28">
          <path id="Trazado_106079" data-name="Trazado 106079" d="M5404.626,3073.923l19.743,6.1a1.462,1.462,0,0,0,1.824-.961h0a1.461,1.461,0,0,0-.963-1.821l-19.743-6.1a1.461,1.461,0,0,0-1.824.963h0A1.461,1.461,0,0,0,5404.626,3073.923Z" transform="translate(-5403.599 -3071.074)" fill="#d9a171"/>
        </g>
        <g id="Grupo_57127" data-name="Grupo 57127" transform="translate(75.075 25.192)" opacity="0.28">
          <path id="Trazado_106080" data-name="Trazado 106080" d="M5363.1,2949.5l10.441,3.225a1.464,1.464,0,0,0,1.823-.961h0a1.464,1.464,0,0,0-.963-1.824l-10.441-3.224a1.458,1.458,0,0,0-1.824.961h0A1.463,1.463,0,0,0,5363.1,2949.5Z" transform="translate(-5362.068 -2946.651)" fill="#d9a171"/>
        </g>
        <g id="Grupo_57128" data-name="Grupo 57128" transform="translate(66.551 28.612)" opacity="0.28">
          <path id="Trazado_106081" data-name="Trazado 106081" d="M5369.048,2961.392l17.258,5.33a1.462,1.462,0,0,0,1.815-.964h0a1.459,1.459,0,0,0-.961-1.821l-17.259-5.33a1.46,1.46,0,0,0-1.823.96h0A1.467,1.467,0,0,0,5369.048,2961.392Z" transform="translate(-5368.015 -2958.543)" fill="#d9a171"/>
        </g>
        <g id="Grupo_57129" data-name="Grupo 57129" transform="translate(56.921 31.688)" opacity="0.28">
          <path id="Trazado_106082" data-name="Trazado 106082" d="M5374.962,2972.084l25.186,7.766a1.459,1.459,0,0,0,1.821-.961h0a1.464,1.464,0,0,0-.96-1.823l-25.186-7.766a1.461,1.461,0,0,0-1.821.96h0A1.461,1.461,0,0,0,5374.962,2972.084Z" transform="translate(-5373.936 -2969.236)" fill="#d9a171"/>
        </g>
        <g id="Grupo_57130" data-name="Grupo 57130" transform="translate(55.214 37.211)" opacity="0.28">
          <path id="Trazado_106083" data-name="Trazado 106083" d="M5417.556,2991.286l14.641,4.524a1.461,1.461,0,0,0,1.82-.964h0a1.461,1.461,0,0,0-.96-1.821l-14.641-4.524a1.467,1.467,0,0,0-1.823.964h0A1.462,1.462,0,0,0,5417.556,2991.286Z" transform="translate(-5416.528 -2988.439)" fill="#d9a171"/>
        </g>
        <g id="Grupo_57131" data-name="Grupo 57131" transform="translate(76.568 43.809)" opacity="0.28">
          <path id="Trazado_106084" data-name="Trazado 106084" d="M5380.893,3014.224l3.828,1.183a1.462,1.462,0,0,0,1.824-.961h0a1.462,1.462,0,0,0-.964-1.824l-3.829-1.182a1.463,1.463,0,0,0-1.823.961h0A1.467,1.467,0,0,0,5380.893,3014.224Z" transform="translate(-5379.866 -3011.375)" fill="#d9a171"/>
        </g>
        <g id="Grupo_57132" data-name="Grupo 57132" transform="translate(53.507 42.736)" opacity="0.28">
          <path id="Trazado_106085" data-name="Trazado 106085" d="M5386.831,3010.494l25.185,7.781a1.461,1.461,0,0,0,1.821-.964h0a1.458,1.458,0,0,0-.96-1.821l-25.186-7.781a1.46,1.46,0,0,0-1.82.96h0A1.461,1.461,0,0,0,5386.831,3010.494Z" transform="translate(-5385.805 -3007.646)" fill="#d9a171"/>
        </g>
        <g id="Grupo_57133" data-name="Grupo 57133" transform="translate(61.518 51.262)" opacity="0.28">
          <path id="Trazado_106086" data-name="Trazado 106086" d="M5392.765,3040.134l15.467,4.778a1.461,1.461,0,0,0,1.82-.961h0a1.464,1.464,0,0,0-.961-1.824l-15.466-4.778a1.464,1.464,0,0,0-1.824.964h0A1.458,1.458,0,0,0,5392.765,3040.134Z" transform="translate(-5391.737 -3037.286)" fill="#d9a171"/>
        </g>
        <g id="Grupo_57134" data-name="Grupo 57134" transform="translate(51.801 48.261)" opacity="0.28">
          <path id="Trazado_106087" data-name="Trazado 106087" d="M5465.964,3029.7l4.128,1.274a1.465,1.465,0,0,0,1.823-.964h0a1.462,1.462,0,0,0-.964-1.821l-4.127-1.274a1.458,1.458,0,0,0-1.821.961h0A1.461,1.461,0,0,0,5465.964,3029.7Z" transform="translate(-5464.938 -3026.853)" fill="#d9a171"/>
        </g>
        <g id="Grupo_57135" data-name="Grupo 57135" transform="translate(50.087 53.777)" opacity="0.28">
          <path id="Trazado_106088" data-name="Trazado 106088" d="M5398.709,3048.89l25.18,7.767a1.461,1.461,0,0,0,1.823-.964h0a1.458,1.458,0,0,0-.964-1.821l-25.182-7.781a1.466,1.466,0,0,0-1.824.963h0a1.462,1.462,0,0,0,.956,1.833Z" transform="translate(-5397.675 -3046.028)" fill="#d9a171"/>
        </g>
        <path id="Trazado_106089" data-name="Trazado 106089" d="M5378.242,2860.139l-7.531,16.781a1.816,1.816,0,0,0,.909,2.393l31.945,14.339a1.813,1.813,0,0,0,2.394-.909l7.533-16.78a1.813,1.813,0,0,0-.909-2.4l-31.945-14.339A1.818,1.818,0,0,0,5378.242,2860.139Z" transform="translate(-5327.662 -2859.07)" fill="#d9a171"/>
        <path id="Trazado_106090" data-name="Trazado 106090" d="M5378.242,2860.139l-7.531,16.781a1.816,1.816,0,0,0,.909,2.393l31.945,14.339a1.813,1.813,0,0,0,2.394-.909l7.533-16.78a1.813,1.813,0,0,0-.909-2.4l-31.945-14.339A1.818,1.818,0,0,0,5378.242,2860.139Z" transform="translate(-5327.662 -2859.07)" fill="#344154" opacity="0.3" style="isolation: isolate"/>
        <rect id="Rectángulo_8125" data-name="Rectángulo 8125" width="1.119" height="0.288" transform="matrix(-0.912, -0.409, 0.409, -0.912, 56.518, 0.961)" fill="#d9a171"/>
        <rect id="Rectángulo_8126" data-name="Rectángulo 8126" width="3.489" height="0.288" transform="matrix(-0.912, -0.409, 0.409, -0.912, 61.131, 3.029)" fill="#d9a171"/>
        <rect id="Rectángulo_8127" data-name="Rectángulo 8127" width="0.288" height="2.129" transform="translate(85.249 20.643) rotate(-155.82)" fill="#d9a171"/>
        <path id="Trazado_106091" data-name="Trazado 106091" d="M5371.05,2859.166l8.238,16.137a7.379,7.379,0,0,0,8.428,3.782l17.531-4.57a1.84,1.84,0,0,0-.926-.95l-31.945-14.339A1.811,1.811,0,0,0,5371.05,2859.166Z" transform="translate(-5319.399 -2859.069)" fill="#d9a171" opacity="0.6" style="isolation: isolate"/>
        <path id="Trazado_106092" data-name="Trazado 106092" d="M5445.521,2931.208l24.789,1.53a3.336,3.336,0,0,1,3.132,3.528v.007l-2.828,45.815a3.336,3.336,0,0,1-3.531,3.13h-.009l-31.727-1.958a3.33,3.33,0,0,1-3.124-3.525v-.01l2.388-38.88Z" transform="translate(-5405.195 -2910.458)" fill="#d9a171"/>
        <path id="Trazado_106093" data-name="Trazado 106093" d="M5445.521,2931.208l24.789,1.53a3.336,3.336,0,0,1,3.132,3.528v.007l-2.828,45.815a3.336,3.336,0,0,1-3.531,3.13h-.009l-31.727-1.958a3.33,3.33,0,0,1-3.124-3.525v-.01l2.388-38.88Z" transform="translate(-5405.195 -2910.458)" fill="#fff" stroke="#5e6178" stroke-miterlimit="10" stroke-width="0" opacity="0.8" style="isolation: isolate"/>
        <g id="Grupo_57136" data-name="Grupo 57136" transform="translate(37.459 65.809)" opacity="0.22">
          <path id="Trazado_106094" data-name="Trazado 106094" d="M5458.81,3090.77l20.627,1.274a1.462,1.462,0,0,0,1.542-1.366h0a1.464,1.464,0,0,0-1.364-1.545l-20.626-1.271a1.461,1.461,0,0,0-1.544,1.364h0A1.46,1.46,0,0,0,5458.81,3090.77Z" transform="translate(-5457.441 -3087.859)" fill="#d9a171"/>
        </g>
        <g id="Grupo_57137" data-name="Grupo 57137" transform="translate(49.668 26.017)" opacity="0.22">
          <path id="Trazado_106095" data-name="Trazado 106095" d="M5450.137,2952.436l10.911.667a1.464,1.464,0,0,0,1.544-1.364h0a1.464,1.464,0,0,0-1.366-1.545l-10.911-.673a1.459,1.459,0,0,0-1.542,1.364h0A1.461,1.461,0,0,0,5450.137,2952.436Z" transform="translate(-5448.771 -2949.519)" fill="#d9a171"/>
        </g>
        <g id="Grupo_57138" data-name="Grupo 57138" transform="translate(42.196 31.355)" opacity="0.22">
          <path id="Trazado_106096" data-name="Trazado 106096" d="M5451.376,2970.989l18.026,1.11a1.459,1.459,0,0,0,1.545-1.364h0a1.462,1.462,0,0,0-1.367-1.545l-18.023-1.11a1.459,1.459,0,0,0-1.545,1.363h0A1.461,1.461,0,0,0,5451.376,2970.989Z" transform="translate(-5450.01 -2968.078)" fill="#d9a171"/>
        </g>
        <g id="Grupo_57139" data-name="Grupo 57139" transform="translate(33.564 36.613)" opacity="0.22">
          <path id="Trazado_106097" data-name="Trazado 106097" d="M5452.591,2989.273l26.308,1.622a1.465,1.465,0,0,0,1.55-1.366h0a1.459,1.459,0,0,0-1.363-1.542l-26.311-1.625a1.461,1.461,0,0,0-1.542,1.366h0A1.461,1.461,0,0,0,5452.591,2989.273Z" transform="translate(-5451.23 -2986.36)" fill="#d9a171"/>
        </g>
        <g id="Grupo_57140" data-name="Grupo 57140" transform="translate(33.201 42.386)" opacity="0.22">
          <path id="Trazado_106098" data-name="Trazado 106098" d="M5492.146,3009.339l15.293.943a1.462,1.462,0,0,0,1.545-1.363h0a1.458,1.458,0,0,0-1.363-1.545l-15.294-.944a1.458,1.458,0,0,0-1.544,1.364h0A1.461,1.461,0,0,0,5492.146,3009.339Z" transform="translate(-5490.78 -3006.428)" fill="#d9a171"/>
        </g>
        <g id="Grupo_57141" data-name="Grupo 57141" transform="translate(55.508 43.761)" opacity="0.22">
          <path id="Trazado_106099" data-name="Trazado 106099" d="M5453.858,3014.12l4,.247A1.458,1.458,0,0,0,5459.4,3013h0a1.461,1.461,0,0,0-1.363-1.544l-4-.248a1.465,1.465,0,0,0-1.545,1.366h0A1.462,1.462,0,0,0,5453.858,3014.12Z" transform="translate(-5452.49 -3011.209)" fill="#d9a171"/>
        </g>
        <g id="Grupo_57142" data-name="Grupo 57142" transform="translate(32.845 48.156)" opacity="0.22">
          <path id="Trazado_106100" data-name="Trazado 106100" d="M5455.087,3029.4l26.31,1.623a1.462,1.462,0,0,0,1.545-1.364h0a1.464,1.464,0,0,0-1.367-1.544l-26.307-1.623a1.461,1.461,0,0,0-1.545,1.366h0A1.458,1.458,0,0,0,5455.087,3029.4Z" transform="translate(-5453.721 -3026.49)" fill="#d9a171"/>
        </g>
        <g id="Grupo_57143" data-name="Grupo 57143" transform="translate(42.642 54.553)" opacity="0.22">
          <path id="Trazado_106101" data-name="Trazado 106101" d="M5456.327,3051.64l16.157,1a1.464,1.464,0,0,0,1.544-1.366h0a1.461,1.461,0,0,0-1.366-1.542l-16.157-1a1.461,1.461,0,0,0-1.542,1.366h0A1.456,1.456,0,0,0,5456.327,3051.64Z" transform="translate(-5454.96 -3048.729)" fill="#d9a171"/>
        </g>
        <g id="Grupo_57144" data-name="Grupo 57144" transform="translate(32.488 53.929)" opacity="0.22">
          <path id="Trazado_106102" data-name="Trazado 106102" d="M5532.8,3049.469l4.315.265a1.458,1.458,0,0,0,1.542-1.364h0a1.458,1.458,0,0,0-1.363-1.545l-4.315-.264a1.458,1.458,0,0,0-1.545,1.363h0A1.465,1.465,0,0,0,5532.8,3049.469Z" transform="translate(-5531.43 -3046.559)" fill="#d9a171"/>
        </g>
        <g id="Grupo_57145" data-name="Grupo 57145" transform="translate(32.134 59.699)" opacity="0.22">
          <path id="Trazado_106103" data-name="Trazado 106103" d="M5457.566,3069.53l26.308,1.622a1.461,1.461,0,0,0,1.544-1.363h0a1.462,1.462,0,0,0-1.363-1.545l-26.31-1.622a1.458,1.458,0,0,0-1.542,1.363h0A1.458,1.458,0,0,0,5457.566,3069.53Z" transform="translate(-5456.2 -3066.619)" fill="#d9a171"/>
        </g>
        <path id="Trazado_106104" data-name="Trazado 106104" d="M5540.22,2931.208l-.429,6.938a3.337,3.337,0,0,1-3.534,3.127h0l-6.946-.429Z" transform="translate(-5499.894 -2910.458)" fill="#d9a171" opacity="0.22" style="isolation: isolate"/>
        <path id="Trazado_106105" data-name="Trazado 106105" d="M5415.474,2985.3h0a2.489,2.489,0,0,1,2.521-2.456l.068,0h23.04a4.022,4.022,0,0,1,3.779,3.164l9.093,46.583a2.532,2.532,0,0,1-2.546,3.164h-73.06a4.032,4.032,0,0,1-3.78-3.164l-7.5-38.4a2.529,2.529,0,0,1,2.545-3.164h39.755A5.811,5.811,0,0,0,5415.474,2985.3Z" transform="translate(-5367.031 -2947.239)" fill="#d9a171" opacity="0.5" style="isolation: isolate"/>
      </g>
    </g>
    <g id="Grupo_70297" data-name="Grupo 70297" transform="matrix(0.839, -0.545, 0.545, 0.839, 313.817, 2347.33)">
      <g id="Grupo_62584-3" data-name="Grupo 62584">
        <g id="Grupo_62578-3" data-name="Grupo 62578">
          <g id="Grupo_62577-3" data-name="Grupo 62577">
            <path id="Trazado_132423-3" data-name="Trazado 132423" d="M31.711,21.9A16.347,16.347,0,1,1,21.916.989,16.329,16.329,0,0,1,31.711,21.9Z" fill="#f5f5f5"/>
          </g>
        </g>
        <g id="Grupo_62580-3" data-name="Grupo 62580" transform="translate(3.89 3.883)">
          <g id="Grupo_62579-3" data-name="Grupo 62579">
            <path id="Trazado_132424-3" data-name="Trazado 132424" d="M24.165,16.689A12.457,12.457,0,1,1,16.7.754,12.443,12.443,0,0,1,24.165,16.689Z" fill="#ebebeb"/>
          </g>
        </g>
        <g id="Grupo_62583-3" data-name="Grupo 62583" transform="translate(4.5 3.42)">
          <g id="Grupo_62582-3" data-name="Grupo 62582">
            <g id="Grupo_62581-3" data-name="Grupo 62581">
              <path id="Trazado_132425-3" data-name="Trazado 132425" d="M23.686,16.784a7.4,7.4,0,0,1,.2-1.521,13.226,13.226,0,0,0-.047-4.079,12.758,12.758,0,0,0-.777-2.691,12.463,12.463,0,0,0-1.6-2.77A12.226,12.226,0,0,0,18.94,3.262a12.091,12.091,0,0,0-1.59-.977,13.241,13.241,0,0,0-1.774-.742,13.428,13.428,0,0,0-1.868-.454,12.159,12.159,0,0,0-1.86-.155,12.224,12.224,0,0,0-3.491.488A12.47,12.47,0,0,0,5.426,2.7,12.768,12.768,0,0,0,3.205,4.411,13.223,13.223,0,0,0,.752,7.67,7.318,7.318,0,0,1,.015,9.014a3.65,3.65,0,0,1,.4-1.5A11.512,11.512,0,0,1,2.724,3.938,12.482,12.482,0,0,1,8.1.581,12.013,12.013,0,0,1,9.911.156,12.18,12.18,0,0,1,11.847,0a12.675,12.675,0,0,1,2.009.153,13.769,13.769,0,0,1,2.017.485,13.758,13.758,0,0,1,1.912.8A12.7,12.7,0,0,1,19.493,2.51,12.678,12.678,0,0,1,22.167,5.2a12.478,12.478,0,0,1,2.343,5.89,11.541,11.541,0,0,1-.257,4.247A3.655,3.655,0,0,1,23.686,16.784Z" fill="#e0e0e0"/>
            </g>
          </g>
        </g>
      </g>
      <g id="Grupo_62588-3" data-name="Grupo 62588" transform="translate(9.236 7.992)">
        <g id="Grupo_62587-3" data-name="Grupo 62587">
          <g id="Grupo_62586-3" data-name="Grupo 62586">
            <g id="Grupo_62585-3" data-name="Grupo 62585">
              <path id="Trazado_132426-3" data-name="Trazado 132426" d="M5.9,15.79l-.711,2.05L3.357,17.2l.692-1.995A9.182,9.182,0,0,1,0,12.164L1.781,10.28a7.834,7.834,0,0,0,3.1,2.532L5.942,9.755c-1.86-1.2-3.895-2.664-2.986-5.281.673-1.94,2.661-3.117,5.667-2.442L9.328,0l1.83.635-.693,2a8.758,8.758,0,0,1,3.328,2.405L12.1,6.97a7.939,7.939,0,0,0-2.47-1.924L8.547,8.158c1.866,1.18,3.864,2.633,2.968,5.213C10.855,15.275,8.892,16.44,5.9,15.79Zm.978-8.725.9-2.6c-1.046-.117-1.614.281-1.824.884C5.731,5.99,6.159,6.53,6.876,7.065Zm1.617,5.5c.222-.641-.188-1.173-.88-1.721l-.876,2.526C7.722,13.49,8.289,13.155,8.493,12.569Z" fill="#e0e0e0"/>
            </g>
          </g>
        </g>
      </g>
    </g>
  </g>
</svg>
